  0
SECTION
  2
HEADER
  9
$ACADVER
  1
AC1009
  9
$FILLMODE
 70
 0
  9
$SPLFRAME
 70
 1
  9
$EXTMIN
 10
0
 20
0
 30
0.0
  9
$EXTMAX
 10
1058.33
 20
1058.33
 30
0.0
  0
ENDSEC
  0
SECTION
  2
TABLES
  0
TABLE
  2
LAYER
 70
1
  0
LAYER
  2
0
 70
     0
 62
     7
  6
CONTINUOUS
  0
ENDTAB
  0
ENDSEC
  0
SECTION
  2
ENTITIES
  0
LINE
  8
0
 62
     0
 10
0.0950846
 20
143.133
 30
0.0
 11
490.633
 21
143.133
 31
0.0
  0
LINE
  8
0
 62
     0
 10
490.633
 20
143.133
 30
0.0
 11
490.633
 21
0.257693
 31
0.0
  0
LINE
  8
0
 62
     0
 10
490.633
 20
0.257693
 30
0.0
 11
0.0950846
 21
0.257693
 31
0.0
  0
LINE
  8
0
 62
     0
 10
0.0950846
 20
0.257693
 30
0.0
 11
0.0950846
 21
143.133
 31
0.0
  0
LINE
  8
0
 62
     0
 10
185.976
 20
16.7831
 30
0.0
 11
185.976
 21
12.084
 31
0.0
  0
LINE
  8
0
 62
     0
 10
185.976
 20
12.084
 30
0.0
 11
146.351
 21
12.084
 31
0.0
  0
LINE
  8
0
 62
     0
 10
146.351
 20
12.084
 30
0.0
 11
146.351
 21
15.3128
 31
0.0
  0
LINE
  8
0
 62
     0
 10
146.351
 20
15.3128
 30
0.0
 11
139.601
 21
15.3128
 31
0.0
  0
LINE
  8
0
 62
     0
 10
139.601
 20
15.3128
 30
0.0
 11
139.601
 21
12.084
 31
0.0
  0
LINE
  8
0
 62
     0
 10
139.601
 20
12.084
 30
0.0
 11
138.775
 21
12.084
 31
0.0
  0
LINE
  8
0
 62
     0
 10
138.775
 20
12.084
 30
0.0
 11
138.775
 21
9.28384
 31
0.0
  0
LINE
  8
0
 62
     0
 10
138.775
 20
9.28384
 30
0.0
 11
139.601
 21
9.28384
 31
0.0
  0
LINE
  8
0
 62
     0
 10
139.601
 20
9.28384
 30
0.0
 11
139.601
 21
3.01377
 31
0.0
  0
LINE
  8
0
 62
     0
 10
139.601
 20
3.01377
 30
0.0
 11
141.326
 21
3.01377
 31
0.0
  0
LINE
  8
0
 62
     0
 10
141.326
 20
3.01377
 30
0.0
 11
141.326
 21
1.8135
 31
0.0
  0
LINE
  8
0
 62
     0
 10
141.326
 20
1.8135
 30
0.0
 11
144.625
 21
1.8135
 31
0.0
  0
LINE
  8
0
 62
     0
 10
144.625
 20
1.8135
 30
0.0
 11
144.625
 21
3.01377
 31
0.0
  0
LINE
  8
0
 62
     0
 10
144.625
 20
3.01377
 30
0.0
 11
146.351
 21
3.01377
 31
0.0
  0
LINE
  8
0
 62
     0
 10
146.351
 20
3.01377
 30
0.0
 11
146.351
 21
7.48273
 31
0.0
  0
LINE
  8
0
 62
     0
 10
146.351
 20
7.48273
 30
0.0
 11
185.976
 21
7.48273
 31
0.0
  0
LINE
  8
0
 62
     0
 10
185.976
 20
7.48273
 30
0.0
 11
185.976
 21
2.78364
 31
0.0
  0
LINE
  8
0
 62
     0
 10
185.976
 20
2.78364
 30
0.0
 11
199.975
 21
2.78364
 31
0.0
  0
LINE
  8
0
 62
     0
 10
199.975
 20
2.78364
 30
0.0
 11
199.975
 21
7.48273
 31
0.0
  0
LINE
  8
0
 62
     0
 10
199.975
 20
7.48273
 30
0.0
 11
239.601
 21
7.48273
 31
0.0
  0
LINE
  8
0
 62
     0
 10
239.601
 20
7.48273
 30
0.0
 11
239.601
 21
3.01377
 31
0.0
  0
LINE
  8
0
 62
     0
 10
239.601
 20
3.01377
 30
0.0
 11
241.326
 21
3.01377
 31
0.0
  0
LINE
  8
0
 62
     0
 10
241.326
 20
3.01377
 30
0.0
 11
241.326
 21
1.8135
 31
0.0
  0
LINE
  8
0
 62
     0
 10
241.326
 20
1.8135
 30
0.0
 11
244.625
 21
1.8135
 31
0.0
  0
LINE
  8
0
 62
     0
 10
244.625
 20
1.8135
 30
0.0
 11
244.625
 21
3.01377
 31
0.0
  0
LINE
  8
0
 62
     0
 10
244.625
 20
3.01377
 30
0.0
 11
246.35
 21
3.01377
 31
0.0
  0
LINE
  8
0
 62
     0
 10
246.35
 20
3.01377
 30
0.0
 11
246.35
 21
9.28384
 31
0.0
  0
LINE
  8
0
 62
     0
 10
246.35
 20
9.28384
 30
0.0
 11
247.176
 21
9.28384
 31
0.0
  0
LINE
  8
0
 62
     0
 10
247.176
 20
9.28384
 30
0.0
 11
247.176
 21
12.084
 31
0.0
  0
LINE
  8
0
 62
     0
 10
247.176
 20
12.084
 30
0.0
 11
246.35
 21
12.084
 31
0.0
  0
LINE
  8
0
 62
     0
 10
246.35
 20
12.084
 30
0.0
 11
246.35
 21
15.3128
 31
0.0
  0
LINE
  8
0
 62
     0
 10
246.35
 20
15.3128
 30
0.0
 11
239.601
 21
15.3128
 31
0.0
  0
LINE
  8
0
 62
     0
 10
239.601
 20
15.3128
 30
0.0
 11
239.601
 21
12.084
 31
0.0
  0
LINE
  8
0
 62
     0
 10
239.601
 20
12.084
 30
0.0
 11
199.975
 21
12.084
 31
0.0
  0
LINE
  8
0
 62
     0
 10
199.975
 20
12.084
 30
0.0
 11
199.975
 21
16.7831
 31
0.0
  0
LINE
  8
0
 62
     0
 10
199.975
 20
16.7831
 30
0.0
 11
185.976
 21
16.7831
 31
0.0
  0
LINE
  8
0
 62
     0
 10
426.484
 20
16.7831
 30
0.0
 11
426.484
 21
12.084
 31
0.0
  0
LINE
  8
0
 62
     0
 10
426.484
 20
12.084
 30
0.0
 11
424.956
 21
12.084
 31
0.0
  0
LINE
  8
0
 62
     0
 10
424.956
 20
12.084
 30
0.0
 11
424.956
 21
15.3128
 31
0.0
  0
LINE
  8
0
 62
     0
 10
424.956
 20
15.3128
 30
0.0
 11
418.207
 21
15.3128
 31
0.0
  0
LINE
  8
0
 62
     0
 10
418.207
 20
15.3128
 30
0.0
 11
418.207
 21
12.084
 31
0.0
  0
LINE
  8
0
 62
     0
 10
418.207
 20
12.084
 30
0.0
 11
417.382
 21
12.084
 31
0.0
  0
LINE
  8
0
 62
     0
 10
417.382
 20
12.084
 30
0.0
 11
417.382
 21
9.28384
 31
0.0
  0
LINE
  8
0
 62
     0
 10
417.382
 20
9.28384
 30
0.0
 11
418.207
 21
9.28384
 31
0.0
  0
LINE
  8
0
 62
     0
 10
418.207
 20
9.28384
 30
0.0
 11
418.207
 21
3.01377
 31
0.0
  0
LINE
  8
0
 62
     0
 10
418.207
 20
3.01377
 30
0.0
 11
419.933
 21
3.01377
 31
0.0
  0
LINE
  8
0
 62
     0
 10
419.933
 20
3.01377
 30
0.0
 11
419.933
 21
1.8135
 31
0.0
  0
LINE
  8
0
 62
     0
 10
419.933
 20
1.8135
 30
0.0
 11
423.231
 21
1.8135
 31
0.0
  0
LINE
  8
0
 62
     0
 10
423.231
 20
1.8135
 30
0.0
 11
423.231
 21
3.01377
 31
0.0
  0
LINE
  8
0
 62
     0
 10
423.231
 20
3.01377
 30
0.0
 11
424.956
 21
3.01377
 31
0.0
  0
LINE
  8
0
 62
     0
 10
424.956
 20
3.01377
 30
0.0
 11
424.956
 21
7.48273
 31
0.0
  0
LINE
  8
0
 62
     0
 10
424.956
 20
7.48273
 30
0.0
 11
426.484
 21
7.48273
 31
0.0
  0
LINE
  8
0
 62
     0
 10
426.484
 20
7.48273
 30
0.0
 11
426.484
 21
2.78364
 31
0.0
  0
LINE
  8
0
 62
     0
 10
426.484
 20
2.78364
 30
0.0
 11
440.482
 21
2.78364
 31
0.0
  0
LINE
  8
0
 62
     0
 10
440.482
 20
2.78364
 30
0.0
 11
440.482
 21
7.48273
 31
0.0
  0
LINE
  8
0
 62
     0
 10
440.482
 20
7.48273
 30
0.0
 11
442.006
 21
7.48273
 31
0.0
  0
LINE
  8
0
 62
     0
 10
442.006
 20
7.48273
 30
0.0
 11
442.006
 21
3.01377
 31
0.0
  0
LINE
  8
0
 62
     0
 10
442.006
 20
3.01377
 30
0.0
 11
443.731
 21
3.01377
 31
0.0
  0
LINE
  8
0
 62
     0
 10
443.731
 20
3.01377
 30
0.0
 11
443.731
 21
1.8135
 31
0.0
  0
LINE
  8
0
 62
     0
 10
443.731
 20
1.8135
 30
0.0
 11
447.033
 21
1.8135
 31
0.0
  0
LINE
  8
0
 62
     0
 10
447.033
 20
1.8135
 30
0.0
 11
447.033
 21
3.01377
 31
0.0
  0
LINE
  8
0
 62
     0
 10
447.033
 20
3.01377
 30
0.0
 11
448.758
 21
3.01377
 31
0.0
  0
LINE
  8
0
 62
     0
 10
448.758
 20
3.01377
 30
0.0
 11
448.758
 21
9.28384
 31
0.0
  0
LINE
  8
0
 62
     0
 10
448.758
 20
9.28384
 30
0.0
 11
449.58
 21
9.28384
 31
0.0
  0
LINE
  8
0
 62
     0
 10
449.58
 20
9.28384
 30
0.0
 11
449.58
 21
12.084
 31
0.0
  0
LINE
  8
0
 62
     0
 10
449.58
 20
12.084
 30
0.0
 11
448.758
 21
12.084
 31
0.0
  0
LINE
  8
0
 62
     0
 10
448.758
 20
12.084
 30
0.0
 11
448.758
 21
15.3128
 31
0.0
  0
LINE
  8
0
 62
     0
 10
448.758
 20
15.3128
 30
0.0
 11
442.006
 21
15.3128
 31
0.0
  0
LINE
  8
0
 62
     0
 10
442.006
 20
15.3128
 30
0.0
 11
442.006
 21
12.084
 31
0.0
  0
LINE
  8
0
 62
     0
 10
442.006
 20
12.084
 30
0.0
 11
440.482
 21
12.084
 31
0.0
  0
LINE
  8
0
 62
     0
 10
440.482
 20
12.084
 30
0.0
 11
440.482
 21
16.7831
 31
0.0
  0
LINE
  8
0
 62
     0
 10
440.482
 20
16.7831
 30
0.0
 11
426.484
 21
16.7831
 31
0.0
  0
LINE
  8
0
 62
     0
 10
66.9121
 20
16.7831
 30
0.0
 11
80.9128
 21
16.7831
 31
0.0
  0
LINE
  8
0
 62
     0
 10
80.9128
 20
16.7831
 30
0.0
 11
80.9128
 21
2.78364
 31
0.0
  0
LINE
  8
0
 62
     0
 10
80.9128
 20
2.78364
 30
0.0
 11
66.9121
 21
2.78364
 31
0.0
  0
LINE
  8
0
 62
     0
 10
66.9121
 20
2.78364
 30
0.0
 11
66.9121
 21
16.7831
 31
0.0
  0
LINE
  8
0
 62
     0
 10
90.726
 20
16.7831
 30
0.0
 11
104.725
 21
16.7831
 31
0.0
  0
LINE
  8
0
 62
     0
 10
104.725
 20
16.7831
 30
0.0
 11
104.725
 21
2.78364
 31
0.0
  0
LINE
  8
0
 62
     0
 10
104.725
 20
2.78364
 30
0.0
 11
90.726
 21
2.78364
 31
0.0
  0
LINE
  8
0
 62
     0
 10
90.726
 20
2.78364
 30
0.0
 11
90.726
 21
16.7831
 31
0.0
  0
LINE
  8
0
 62
     0
 10
114.537
 20
16.7831
 30
0.0
 11
128.538
 21
16.7831
 31
0.0
  0
LINE
  8
0
 62
     0
 10
128.538
 20
16.7831
 30
0.0
 11
128.538
 21
2.78364
 31
0.0
  0
LINE
  8
0
 62
     0
 10
128.538
 20
2.78364
 30
0.0
 11
114.537
 21
2.78364
 31
0.0
  0
LINE
  8
0
 62
     0
 10
114.537
 20
2.78364
 30
0.0
 11
114.537
 21
16.7831
 31
0.0
  0
LINE
  8
0
 62
     0
 10
257.412
 20
16.7831
 30
0.0
 11
271.413
 21
16.7831
 31
0.0
  0
LINE
  8
0
 62
     0
 10
271.413
 20
16.7831
 30
0.0
 11
271.413
 21
2.78364
 31
0.0
  0
LINE
  8
0
 62
     0
 10
271.413
 20
2.78364
 30
0.0
 11
257.412
 21
2.78364
 31
0.0
  0
LINE
  8
0
 62
     0
 10
257.412
 20
2.78364
 30
0.0
 11
257.412
 21
16.7831
 31
0.0
  0
LINE
  8
0
 62
     0
 10
281.226
 20
16.7831
 30
0.0
 11
295.225
 21
16.7831
 31
0.0
  0
LINE
  8
0
 62
     0
 10
295.225
 20
16.7831
 30
0.0
 11
295.225
 21
2.78364
 31
0.0
  0
LINE
  8
0
 62
     0
 10
295.225
 20
2.78364
 30
0.0
 11
281.226
 21
2.78364
 31
0.0
  0
LINE
  8
0
 62
     0
 10
281.226
 20
2.78364
 30
0.0
 11
281.226
 21
16.7831
 31
0.0
  0
LINE
  8
0
 62
     0
 10
305.037
 20
16.7831
 30
0.0
 11
319.038
 21
16.7831
 31
0.0
  0
LINE
  8
0
 62
     0
 10
319.038
 20
16.7831
 30
0.0
 11
319.038
 21
2.78364
 31
0.0
  0
LINE
  8
0
 62
     0
 10
319.038
 20
2.78364
 30
0.0
 11
305.037
 21
2.78364
 31
0.0
  0
LINE
  8
0
 62
     0
 10
305.037
 20
2.78364
 30
0.0
 11
305.037
 21
16.7831
 31
0.0
  0
LINE
  8
0
 62
     0
 10
328.851
 20
16.7831
 30
0.0
 11
342.85
 21
16.7831
 31
0.0
  0
LINE
  8
0
 62
     0
 10
342.85
 20
16.7831
 30
0.0
 11
342.85
 21
2.78364
 31
0.0
  0
LINE
  8
0
 62
     0
 10
342.85
 20
2.78364
 30
0.0
 11
328.851
 21
2.78364
 31
0.0
  0
LINE
  8
0
 62
     0
 10
328.851
 20
2.78364
 30
0.0
 11
328.851
 21
16.7831
 31
0.0
  0
LINE
  8
0
 62
     0
 10
355.046
 20
16.7831
 30
0.0
 11
369.044
 21
16.7831
 31
0.0
  0
LINE
  8
0
 62
     0
 10
369.044
 20
16.7831
 30
0.0
 11
369.044
 21
2.78364
 31
0.0
  0
LINE
  8
0
 62
     0
 10
369.044
 20
2.78364
 30
0.0
 11
355.046
 21
2.78364
 31
0.0
  0
LINE
  8
0
 62
     0
 10
355.046
 20
2.78364
 30
0.0
 11
355.046
 21
16.7831
 31
0.0
  0
LINE
  8
0
 62
     0
 10
374.096
 20
16.7831
 30
0.0
 11
388.094
 21
16.7831
 31
0.0
  0
LINE
  8
0
 62
     0
 10
388.094
 20
16.7831
 30
0.0
 11
388.094
 21
2.78364
 31
0.0
  0
LINE
  8
0
 62
     0
 10
388.094
 20
2.78364
 30
0.0
 11
374.096
 21
2.78364
 31
0.0
  0
LINE
  8
0
 62
     0
 10
374.096
 20
2.78364
 30
0.0
 11
374.096
 21
16.7831
 31
0.0
  0
LINE
  8
0
 62
     0
 10
393.146
 20
16.7831
 30
0.0
 11
407.144
 21
16.7831
 31
0.0
  0
LINE
  8
0
 62
     0
 10
407.144
 20
16.7831
 30
0.0
 11
407.144
 21
2.78364
 31
0.0
  0
LINE
  8
0
 62
     0
 10
407.144
 20
2.78364
 30
0.0
 11
393.146
 21
2.78364
 31
0.0
  0
LINE
  8
0
 62
     0
 10
393.146
 20
2.78364
 30
0.0
 11
393.146
 21
16.7831
 31
0.0
  0
LINE
  8
0
 62
     0
 10
455.059
 20
16.7831
 30
0.0
 11
469.057
 21
16.7831
 31
0.0
  0
LINE
  8
0
 62
     0
 10
469.057
 20
16.7831
 30
0.0
 11
469.057
 21
2.78364
 31
0.0
  0
LINE
  8
0
 62
     0
 10
469.057
 20
2.78364
 30
0.0
 11
455.059
 21
2.78364
 31
0.0
  0
LINE
  8
0
 62
     0
 10
455.059
 20
2.78364
 30
0.0
 11
455.059
 21
16.7831
 31
0.0
  0
LINE
  8
0
 62
     0
 10
2.61965
 20
16.7831
 30
0.0
 11
16.6192
 21
16.7831
 31
0.0
  0
LINE
  8
0
 62
     0
 10
16.6192
 20
16.7831
 30
0.0
 11
16.6192
 21
2.78364
 31
0.0
  0
LINE
  8
0
 62
     0
 10
16.6192
 20
2.78364
 30
0.0
 11
2.61965
 21
2.78364
 31
0.0
  0
LINE
  8
0
 62
     0
 10
2.61965
 20
2.78364
 30
0.0
 11
2.61965
 21
16.7831
 31
0.0
  0
LINE
  8
0
 62
     0
 10
21.6697
 20
16.7831
 30
0.0
 11
35.669
 21
16.7831
 31
0.0
  0
LINE
  8
0
 62
     0
 10
35.669
 20
16.7831
 30
0.0
 11
35.669
 21
2.78364
 31
0.0
  0
LINE
  8
0
 62
     0
 10
35.669
 20
2.78364
 30
0.0
 11
21.6697
 21
2.78364
 31
0.0
  0
LINE
  8
0
 62
     0
 10
21.6697
 20
2.78364
 30
0.0
 11
21.6697
 21
16.7831
 31
0.0
  0
LINE
  8
0
 62
     0
 10
40.7197
 20
16.7831
 30
0.0
 11
54.719
 21
16.7831
 31
0.0
  0
LINE
  8
0
 62
     0
 10
54.719
 20
16.7831
 30
0.0
 11
54.719
 21
2.78364
 31
0.0
  0
LINE
  8
0
 62
     0
 10
54.719
 20
2.78364
 30
0.0
 11
40.7197
 21
2.78364
 31
0.0
  0
LINE
  8
0
 62
     0
 10
40.7197
 20
2.78364
 30
0.0
 11
40.7197
 21
16.7831
 31
0.0
  0
LINE
  8
0
 62
     0
 10
480.607
 20
35.4087
 30
0.0
 11
480.607
 21
34.5846
 31
0.0
  0
LINE
  8
0
 62
     0
 10
480.607
 20
34.5846
 30
0.0
 11
474.334
 21
34.5846
 31
0.0
  0
LINE
  8
0
 62
     0
 10
474.334
 20
34.5846
 30
0.0
 11
474.334
 21
32.8593
 31
0.0
  0
LINE
  8
0
 62
     0
 10
474.334
 20
32.8593
 30
0.0
 11
473.139
 21
32.8593
 31
0.0
  0
LINE
  8
0
 62
     0
 10
473.139
 20
32.8593
 30
0.0
 11
473.139
 21
29.5589
 31
0.0
  0
LINE
  8
0
 62
     0
 10
473.139
 20
29.5589
 30
0.0
 11
474.334
 21
29.5589
 31
0.0
  0
LINE
  8
0
 62
     0
 10
474.334
 20
29.5589
 30
0.0
 11
474.334
 21
27.8336
 31
0.0
  0
LINE
  8
0
 62
     0
 10
474.334
 20
27.8336
 30
0.0
 11
478.808
 21
27.8336
 31
0.0
  0
LINE
  8
0
 62
     0
 10
478.808
 20
27.8336
 30
0.0
 11
478.808
 21
26.3095
 31
0.0
  0
LINE
  8
0
 62
     0
 10
478.808
 20
26.3095
 30
0.0
 11
474.109
 21
26.3095
 31
0.0
  0
LINE
  8
0
 62
     0
 10
474.109
 20
26.3095
 30
0.0
 11
474.109
 21
12.3086
 31
0.0
  0
LINE
  8
0
 62
     0
 10
474.109
 20
12.3086
 30
0.0
 11
478.808
 21
12.3086
 31
0.0
  0
LINE
  8
0
 62
     0
 10
478.808
 20
12.3086
 30
0.0
 11
478.808
 21
10.7831
 31
0.0
  0
LINE
  8
0
 62
     0
 10
478.808
 20
10.7831
 30
0.0
 11
474.334
 21
10.7831
 31
0.0
  0
LINE
  8
0
 62
     0
 10
474.334
 20
10.7831
 30
0.0
 11
474.334
 21
9.05785
 31
0.0
  0
LINE
  8
0
 62
     0
 10
474.334
 20
9.05785
 30
0.0
 11
473.139
 21
9.05785
 31
0.0
  0
LINE
  8
0
 62
     0
 10
473.139
 20
9.05785
 30
0.0
 11
473.139
 21
5.75881
 31
0.0
  0
LINE
  8
0
 62
     0
 10
473.139
 20
5.75881
 30
0.0
 11
474.334
 21
5.75881
 31
0.0
  0
LINE
  8
0
 62
     0
 10
474.334
 20
5.75881
 30
0.0
 11
474.334
 21
4.03352
 31
0.0
  0
LINE
  8
0
 62
     0
 10
474.334
 20
4.03352
 30
0.0
 11
480.607
 21
4.03352
 31
0.0
  0
LINE
  8
0
 62
     0
 10
480.607
 20
4.03352
 30
0.0
 11
480.607
 21
3.20945
 31
0.0
  0
LINE
  8
0
 62
     0
 10
480.607
 20
3.20945
 30
0.0
 11
483.408
 21
3.20945
 31
0.0
  0
LINE
  8
0
 62
     0
 10
483.408
 20
3.20945
 30
0.0
 11
483.408
 21
4.03352
 31
0.0
  0
LINE
  8
0
 62
     0
 10
483.408
 20
4.03352
 30
0.0
 11
486.636
 21
4.03352
 31
0.0
  0
LINE
  8
0
 62
     0
 10
486.636
 20
4.03352
 30
0.0
 11
486.636
 21
10.7831
 31
0.0
  0
LINE
  8
0
 62
     0
 10
486.636
 20
10.7831
 30
0.0
 11
483.408
 21
10.7831
 31
0.0
  0
LINE
  8
0
 62
     0
 10
483.408
 20
10.7831
 30
0.0
 11
483.408
 21
12.3086
 31
0.0
  0
LINE
  8
0
 62
     0
 10
483.408
 20
12.3086
 30
0.0
 11
488.107
 21
12.3086
 31
0.0
  0
LINE
  8
0
 62
     0
 10
488.107
 20
12.3086
 30
0.0
 11
488.107
 21
26.3095
 31
0.0
  0
LINE
  8
0
 62
     0
 10
488.107
 20
26.3095
 30
0.0
 11
483.408
 21
26.3095
 31
0.0
  0
LINE
  8
0
 62
     0
 10
483.408
 20
26.3095
 30
0.0
 11
483.408
 21
27.8336
 31
0.0
  0
LINE
  8
0
 62
     0
 10
483.408
 20
27.8336
 30
0.0
 11
486.636
 21
27.8336
 31
0.0
  0
LINE
  8
0
 62
     0
 10
486.636
 20
27.8336
 30
0.0
 11
486.636
 21
34.5846
 31
0.0
  0
LINE
  8
0
 62
     0
 10
486.636
 20
34.5846
 30
0.0
 11
483.408
 21
34.5846
 31
0.0
  0
LINE
  8
0
 62
     0
 10
483.408
 20
34.5846
 30
0.0
 11
483.408
 21
35.4087
 31
0.0
  0
LINE
  8
0
 62
     0
 10
483.408
 20
35.4087
 30
0.0
 11
480.607
 21
35.4087
 31
0.0
  0
LINE
  8
0
 62
     0
 10
76.4371
 20
35.833
 30
0.0
 11
76.4371
 21
31.1326
 31
0.0
  0
LINE
  8
0
 62
     0
 10
76.4371
 20
31.1326
 30
0.0
 11
74.9131
 21
31.1326
 31
0.0
  0
LINE
  8
0
 62
     0
 10
74.9131
 20
31.1326
 30
0.0
 11
74.9131
 21
34.3628
 31
0.0
  0
LINE
  8
0
 62
     0
 10
74.9131
 20
34.3628
 30
0.0
 11
68.162
 21
34.3628
 31
0.0
  0
LINE
  8
0
 62
     0
 10
68.162
 20
34.3628
 30
0.0
 11
68.162
 21
31.1326
 31
0.0
  0
LINE
  8
0
 62
     0
 10
68.162
 20
31.1326
 30
0.0
 11
67.3379
 21
31.1326
 31
0.0
  0
LINE
  8
0
 62
     0
 10
67.3379
 20
31.1326
 30
0.0
 11
67.3379
 21
28.3338
 31
0.0
  0
LINE
  8
0
 62
     0
 10
67.3379
 20
28.3338
 30
0.0
 11
68.162
 21
28.3338
 31
0.0
  0
LINE
  8
0
 62
     0
 10
68.162
 20
28.3338
 30
0.0
 11
68.162
 21
22.0638
 31
0.0
  0
LINE
  8
0
 62
     0
 10
68.162
 20
22.0638
 30
0.0
 11
69.887
 21
22.0638
 31
0.0
  0
LINE
  8
0
 62
     0
 10
69.887
 20
22.0638
 30
0.0
 11
69.887
 21
20.8635
 31
0.0
  0
LINE
  8
0
 62
     0
 10
69.887
 20
20.8635
 30
0.0
 11
73.1876
 21
20.8635
 31
0.0
  0
LINE
  8
0
 62
     0
 10
73.1876
 20
20.8635
 30
0.0
 11
73.1876
 21
22.0638
 31
0.0
  0
LINE
  8
0
 62
     0
 10
73.1876
 20
22.0638
 30
0.0
 11
74.9131
 21
22.0638
 31
0.0
  0
LINE
  8
0
 62
     0
 10
74.9131
 20
22.0638
 30
0.0
 11
74.9131
 21
26.5327
 31
0.0
  0
LINE
  8
0
 62
     0
 10
74.9131
 20
26.5327
 30
0.0
 11
76.4371
 21
26.5327
 31
0.0
  0
LINE
  8
0
 62
     0
 10
76.4371
 20
26.5327
 30
0.0
 11
76.4371
 21
21.8336
 31
0.0
  0
LINE
  8
0
 62
     0
 10
76.4371
 20
21.8336
 30
0.0
 11
90.4378
 21
21.8336
 31
0.0
  0
LINE
  8
0
 62
     0
 10
90.4378
 20
21.8336
 30
0.0
 11
90.4378
 21
26.5327
 31
0.0
  0
LINE
  8
0
 62
     0
 10
90.4378
 20
26.5327
 30
0.0
 11
91.9621
 21
26.5327
 31
0.0
  0
LINE
  8
0
 62
     0
 10
91.9621
 20
26.5327
 30
0.0
 11
91.9621
 21
22.0638
 31
0.0
  0
LINE
  8
0
 62
     0
 10
91.9621
 20
22.0638
 30
0.0
 11
93.6872
 21
22.0638
 31
0.0
  0
LINE
  8
0
 62
     0
 10
93.6872
 20
22.0638
 30
0.0
 11
93.6872
 21
20.8635
 31
0.0
  0
LINE
  8
0
 62
     0
 10
93.6872
 20
20.8635
 30
0.0
 11
96.9878
 21
20.8635
 31
0.0
  0
LINE
  8
0
 62
     0
 10
96.9878
 20
20.8635
 30
0.0
 11
96.9878
 21
22.0638
 31
0.0
  0
LINE
  8
0
 62
     0
 10
96.9878
 20
22.0638
 30
0.0
 11
98.7129
 21
22.0638
 31
0.0
  0
LINE
  8
0
 62
     0
 10
98.7129
 20
22.0638
 30
0.0
 11
98.7129
 21
28.3338
 31
0.0
  0
LINE
  8
0
 62
     0
 10
98.7129
 20
28.3338
 30
0.0
 11
99.537
 21
28.3338
 31
0.0
  0
LINE
  8
0
 62
     0
 10
99.537
 20
28.3338
 30
0.0
 11
99.537
 21
31.1326
 31
0.0
  0
LINE
  8
0
 62
     0
 10
99.537
 20
31.1326
 30
0.0
 11
98.7129
 21
31.1326
 31
0.0
  0
LINE
  8
0
 62
     0
 10
98.7129
 20
31.1326
 30
0.0
 11
98.7129
 21
34.3628
 31
0.0
  0
LINE
  8
0
 62
     0
 10
98.7129
 20
34.3628
 30
0.0
 11
91.9621
 21
34.3628
 31
0.0
  0
LINE
  8
0
 62
     0
 10
91.9621
 20
34.3628
 30
0.0
 11
91.9621
 21
31.1326
 31
0.0
  0
LINE
  8
0
 62
     0
 10
91.9621
 20
31.1326
 30
0.0
 11
90.4378
 21
31.1326
 31
0.0
  0
LINE
  8
0
 62
     0
 10
90.4378
 20
31.1326
 30
0.0
 11
90.4378
 21
35.833
 31
0.0
  0
LINE
  8
0
 62
     0
 10
90.4378
 20
35.833
 30
0.0
 11
76.4371
 21
35.833
 31
0.0
  0
LINE
  8
0
 62
     0
 10
314.562
 20
35.833
 30
0.0
 11
314.562
 21
31.1326
 31
0.0
  0
LINE
  8
0
 62
     0
 10
314.562
 20
31.1326
 30
0.0
 11
313.038
 21
31.1326
 31
0.0
  0
LINE
  8
0
 62
     0
 10
313.038
 20
31.1326
 30
0.0
 11
313.038
 21
34.3628
 31
0.0
  0
LINE
  8
0
 62
     0
 10
313.038
 20
34.3628
 30
0.0
 11
306.287
 21
34.3628
 31
0.0
  0
LINE
  8
0
 62
     0
 10
306.287
 20
34.3628
 30
0.0
 11
306.287
 21
31.1326
 31
0.0
  0
LINE
  8
0
 62
     0
 10
306.287
 20
31.1326
 30
0.0
 11
305.463
 21
31.1326
 31
0.0
  0
LINE
  8
0
 62
     0
 10
305.463
 20
31.1326
 30
0.0
 11
305.463
 21
28.3338
 31
0.0
  0
LINE
  8
0
 62
     0
 10
305.463
 20
28.3338
 30
0.0
 11
306.287
 21
28.3338
 31
0.0
  0
LINE
  8
0
 62
     0
 10
306.287
 20
28.3338
 30
0.0
 11
306.287
 21
22.0638
 31
0.0
  0
LINE
  8
0
 62
     0
 10
306.287
 20
22.0638
 30
0.0
 11
308.012
 21
22.0638
 31
0.0
  0
LINE
  8
0
 62
     0
 10
308.012
 20
22.0638
 30
0.0
 11
308.012
 21
20.8635
 31
0.0
  0
LINE
  8
0
 62
     0
 10
308.012
 20
20.8635
 30
0.0
 11
311.313
 21
20.8635
 31
0.0
  0
LINE
  8
0
 62
     0
 10
311.313
 20
20.8635
 30
0.0
 11
311.313
 21
22.0638
 31
0.0
  0
LINE
  8
0
 62
     0
 10
311.313
 20
22.0638
 30
0.0
 11
313.038
 21
22.0638
 31
0.0
  0
LINE
  8
0
 62
     0
 10
313.038
 20
22.0638
 30
0.0
 11
313.038
 21
26.5327
 31
0.0
  0
LINE
  8
0
 62
     0
 10
313.038
 20
26.5327
 30
0.0
 11
314.562
 21
26.5327
 31
0.0
  0
LINE
  8
0
 62
     0
 10
314.562
 20
26.5327
 30
0.0
 11
314.562
 21
21.8336
 31
0.0
  0
LINE
  8
0
 62
     0
 10
314.562
 20
21.8336
 30
0.0
 11
328.563
 21
21.8336
 31
0.0
  0
LINE
  8
0
 62
     0
 10
328.563
 20
21.8336
 30
0.0
 11
328.563
 21
26.5327
 31
0.0
  0
LINE
  8
0
 62
     0
 10
328.563
 20
26.5327
 30
0.0
 11
330.087
 21
26.5327
 31
0.0
  0
LINE
  8
0
 62
     0
 10
330.087
 20
26.5327
 30
0.0
 11
330.087
 21
22.0638
 31
0.0
  0
LINE
  8
0
 62
     0
 10
330.087
 20
22.0638
 30
0.0
 11
331.812
 21
22.0638
 31
0.0
  0
LINE
  8
0
 62
     0
 10
331.812
 20
22.0638
 30
0.0
 11
331.812
 21
20.8635
 31
0.0
  0
LINE
  8
0
 62
     0
 10
331.812
 20
20.8635
 30
0.0
 11
335.113
 21
20.8635
 31
0.0
  0
LINE
  8
0
 62
     0
 10
335.113
 20
20.8635
 30
0.0
 11
335.113
 21
22.0638
 31
0.0
  0
LINE
  8
0
 62
     0
 10
335.113
 20
22.0638
 30
0.0
 11
336.838
 21
22.0638
 31
0.0
  0
LINE
  8
0
 62
     0
 10
336.838
 20
22.0638
 30
0.0
 11
336.838
 21
28.3338
 31
0.0
  0
LINE
  8
0
 62
     0
 10
336.838
 20
28.3338
 30
0.0
 11
337.662
 21
28.3338
 31
0.0
  0
LINE
  8
0
 62
     0
 10
337.662
 20
28.3338
 30
0.0
 11
337.662
 21
31.1326
 31
0.0
  0
LINE
  8
0
 62
     0
 10
337.662
 20
31.1326
 30
0.0
 11
336.838
 21
31.1326
 31
0.0
  0
LINE
  8
0
 62
     0
 10
336.838
 20
31.1326
 30
0.0
 11
336.838
 21
34.3628
 31
0.0
  0
LINE
  8
0
 62
     0
 10
336.838
 20
34.3628
 30
0.0
 11
330.087
 21
34.3628
 31
0.0
  0
LINE
  8
0
 62
     0
 10
330.087
 20
34.3628
 30
0.0
 11
330.087
 21
31.1326
 31
0.0
  0
LINE
  8
0
 62
     0
 10
330.087
 20
31.1326
 30
0.0
 11
328.563
 21
31.1326
 31
0.0
  0
LINE
  8
0
 62
     0
 10
328.563
 20
31.1326
 30
0.0
 11
328.563
 21
35.833
 31
0.0
  0
LINE
  8
0
 62
     0
 10
328.563
 20
35.833
 30
0.0
 11
314.562
 21
35.833
 31
0.0
  0
LINE
  8
0
 62
     0
 10
107.395
 20
35.833
 30
0.0
 11
121.394
 21
35.833
 31
0.0
  0
LINE
  8
0
 62
     0
 10
121.394
 20
35.833
 30
0.0
 11
121.394
 21
21.8336
 31
0.0
  0
LINE
  8
0
 62
     0
 10
121.394
 20
21.8336
 30
0.0
 11
107.395
 21
21.8336
 31
0.0
  0
LINE
  8
0
 62
     0
 10
107.395
 20
21.8336
 30
0.0
 11
107.395
 21
35.833
 31
0.0
  0
LINE
  8
0
 62
     0
 10
126.445
 20
35.833
 30
0.0
 11
140.444
 21
35.833
 31
0.0
  0
LINE
  8
0
 62
     0
 10
140.444
 20
35.833
 30
0.0
 11
140.444
 21
21.8336
 31
0.0
  0
LINE
  8
0
 62
     0
 10
140.444
 20
21.8336
 30
0.0
 11
126.445
 21
21.8336
 31
0.0
  0
LINE
  8
0
 62
     0
 10
126.445
 20
21.8336
 30
0.0
 11
126.445
 21
35.833
 31
0.0
  0
LINE
  8
0
 62
     0
 10
145.495
 20
35.833
 30
0.0
 11
159.494
 21
35.833
 31
0.0
  0
LINE
  8
0
 62
     0
 10
159.494
 20
35.833
 30
0.0
 11
159.494
 21
21.8336
 31
0.0
  0
LINE
  8
0
 62
     0
 10
159.494
 20
21.8336
 30
0.0
 11
145.495
 21
21.8336
 31
0.0
  0
LINE
  8
0
 62
     0
 10
145.495
 20
21.8336
 30
0.0
 11
145.495
 21
35.833
 31
0.0
  0
LINE
  8
0
 62
     0
 10
164.545
 20
35.833
 30
0.0
 11
178.544
 21
35.833
 31
0.0
  0
LINE
  8
0
 62
     0
 10
178.544
 20
35.833
 30
0.0
 11
178.544
 21
21.8336
 31
0.0
  0
LINE
  8
0
 62
     0
 10
178.544
 20
21.8336
 30
0.0
 11
164.545
 21
21.8336
 31
0.0
  0
LINE
  8
0
 62
     0
 10
164.545
 20
21.8336
 30
0.0
 11
164.545
 21
35.833
 31
0.0
  0
LINE
  8
0
 62
     0
 10
183.595
 20
35.833
 30
0.0
 11
197.594
 21
35.833
 31
0.0
  0
LINE
  8
0
 62
     0
 10
197.594
 20
35.833
 30
0.0
 11
197.594
 21
21.8336
 31
0.0
  0
LINE
  8
0
 62
     0
 10
197.594
 20
21.8336
 30
0.0
 11
183.595
 21
21.8336
 31
0.0
  0
LINE
  8
0
 62
     0
 10
183.595
 20
21.8336
 30
0.0
 11
183.595
 21
35.833
 31
0.0
  0
LINE
  8
0
 62
     0
 10
202.645
 20
35.833
 30
0.0
 11
216.644
 21
35.833
 31
0.0
  0
LINE
  8
0
 62
     0
 10
216.644
 20
35.833
 30
0.0
 11
216.644
 21
21.8336
 31
0.0
  0
LINE
  8
0
 62
     0
 10
216.644
 20
21.8336
 30
0.0
 11
202.645
 21
21.8336
 31
0.0
  0
LINE
  8
0
 62
     0
 10
202.645
 20
21.8336
 30
0.0
 11
202.645
 21
35.833
 31
0.0
  0
LINE
  8
0
 62
     0
 10
221.695
 20
35.833
 30
0.0
 11
235.694
 21
35.833
 31
0.0
  0
LINE
  8
0
 62
     0
 10
235.694
 20
35.833
 30
0.0
 11
235.694
 21
21.8336
 31
0.0
  0
LINE
  8
0
 62
     0
 10
235.694
 20
21.8336
 30
0.0
 11
221.695
 21
21.8336
 31
0.0
  0
LINE
  8
0
 62
     0
 10
221.695
 20
21.8336
 30
0.0
 11
221.695
 21
35.833
 31
0.0
  0
LINE
  8
0
 62
     0
 10
240.745
 20
35.833
 30
0.0
 11
254.744
 21
35.833
 31
0.0
  0
LINE
  8
0
 62
     0
 10
254.744
 20
35.833
 30
0.0
 11
254.744
 21
21.8336
 31
0.0
  0
LINE
  8
0
 62
     0
 10
254.744
 20
21.8336
 30
0.0
 11
240.745
 21
21.8336
 31
0.0
  0
LINE
  8
0
 62
     0
 10
240.745
 20
21.8336
 30
0.0
 11
240.745
 21
35.833
 31
0.0
  0
LINE
  8
0
 62
     0
 10
259.795
 20
35.833
 30
0.0
 11
273.794
 21
35.833
 31
0.0
  0
LINE
  8
0
 62
     0
 10
273.794
 20
35.833
 30
0.0
 11
273.794
 21
21.8336
 31
0.0
  0
LINE
  8
0
 62
     0
 10
273.794
 20
21.8336
 30
0.0
 11
259.795
 21
21.8336
 31
0.0
  0
LINE
  8
0
 62
     0
 10
259.795
 20
21.8336
 30
0.0
 11
259.795
 21
35.833
 31
0.0
  0
LINE
  8
0
 62
     0
 10
278.845
 20
35.833
 30
0.0
 11
292.844
 21
35.833
 31
0.0
  0
LINE
  8
0
 62
     0
 10
292.844
 20
35.833
 30
0.0
 11
292.844
 21
21.8336
 31
0.0
  0
LINE
  8
0
 62
     0
 10
292.844
 20
21.8336
 30
0.0
 11
278.845
 21
21.8336
 31
0.0
  0
LINE
  8
0
 62
     0
 10
278.845
 20
21.8336
 30
0.0
 11
278.845
 21
35.833
 31
0.0
  0
LINE
  8
0
 62
     0
 10
374.096
 20
35.833
 30
0.0
 11
388.094
 21
35.833
 31
0.0
  0
LINE
  8
0
 62
     0
 10
388.094
 20
35.833
 30
0.0
 11
388.094
 21
21.8336
 31
0.0
  0
LINE
  8
0
 62
     0
 10
388.094
 20
21.8336
 30
0.0
 11
374.096
 21
21.8336
 31
0.0
  0
LINE
  8
0
 62
     0
 10
374.096
 20
21.8336
 30
0.0
 11
374.096
 21
35.833
 31
0.0
  0
LINE
  8
0
 62
     0
 10
416.959
 20
35.833
 30
0.0
 11
430.957
 21
35.833
 31
0.0
  0
LINE
  8
0
 62
     0
 10
430.957
 20
35.833
 30
0.0
 11
430.957
 21
21.8336
 31
0.0
  0
LINE
  8
0
 62
     0
 10
430.957
 20
21.8336
 30
0.0
 11
416.959
 21
21.8336
 31
0.0
  0
LINE
  8
0
 62
     0
 10
416.959
 20
21.8336
 30
0.0
 11
416.959
 21
35.833
 31
0.0
  0
LINE
  8
0
 62
     0
 10
436.009
 20
35.833
 30
0.0
 11
450.007
 21
35.833
 31
0.0
  0
LINE
  8
0
 62
     0
 10
450.007
 20
35.833
 30
0.0
 11
450.007
 21
21.8336
 31
0.0
  0
LINE
  8
0
 62
     0
 10
450.007
 20
21.8336
 30
0.0
 11
436.009
 21
21.8336
 31
0.0
  0
LINE
  8
0
 62
     0
 10
436.009
 20
21.8336
 30
0.0
 11
436.009
 21
35.833
 31
0.0
  0
LINE
  8
0
 62
     0
 10
455.059
 20
35.833
 30
0.0
 11
469.057
 21
35.833
 31
0.0
  0
LINE
  8
0
 62
     0
 10
469.057
 20
35.833
 30
0.0
 11
469.057
 21
21.8336
 31
0.0
  0
LINE
  8
0
 62
     0
 10
469.057
 20
21.8336
 30
0.0
 11
455.059
 21
21.8336
 31
0.0
  0
LINE
  8
0
 62
     0
 10
455.059
 20
21.8336
 30
0.0
 11
455.059
 21
35.833
 31
0.0
  0
LINE
  8
0
 62
     0
 10
2.61965
 20
35.8345
 30
0.0
 11
16.6192
 21
35.8345
 31
0.0
  0
LINE
  8
0
 62
     0
 10
16.6192
 20
35.8345
 30
0.0
 11
16.6192
 21
21.8336
 31
0.0
  0
LINE
  8
0
 62
     0
 10
16.6192
 20
21.8336
 30
0.0
 11
2.61965
 21
21.8336
 31
0.0
  0
LINE
  8
0
 62
     0
 10
2.61965
 20
21.8336
 30
0.0
 11
2.61965
 21
35.8345
 31
0.0
  0
LINE
  8
0
 62
     0
 10
21.6697
 20
35.8345
 30
0.0
 11
35.669
 21
35.8345
 31
0.0
  0
LINE
  8
0
 62
     0
 10
35.669
 20
35.8345
 30
0.0
 11
35.669
 21
21.8336
 31
0.0
  0
LINE
  8
0
 62
     0
 10
35.669
 20
21.8336
 30
0.0
 11
21.6697
 21
21.8336
 31
0.0
  0
LINE
  8
0
 62
     0
 10
21.6697
 20
21.8336
 30
0.0
 11
21.6697
 21
35.8345
 31
0.0
  0
LINE
  8
0
 62
     0
 10
40.7197
 20
35.8345
 30
0.0
 11
54.719
 21
35.8345
 31
0.0
  0
LINE
  8
0
 62
     0
 10
54.719
 20
35.8345
 30
0.0
 11
54.719
 21
21.8336
 31
0.0
  0
LINE
  8
0
 62
     0
 10
54.719
 20
21.8336
 30
0.0
 11
40.7197
 21
21.8336
 31
0.0
  0
LINE
  8
0
 62
     0
 10
40.7197
 20
21.8336
 30
0.0
 11
40.7197
 21
35.8345
 31
0.0
  0
LINE
  8
0
 62
     0
 10
319.326
 20
54.8831
 30
0.0
 11
319.326
 21
50.1826
 31
0.0
  0
LINE
  8
0
 62
     0
 10
319.326
 20
50.1826
 30
0.0
 11
317.801
 21
50.1826
 31
0.0
  0
LINE
  8
0
 62
     0
 10
317.801
 20
50.1826
 30
0.0
 11
317.801
 21
53.4127
 31
0.0
  0
LINE
  8
0
 62
     0
 10
317.801
 20
53.4127
 30
0.0
 11
311.051
 21
53.4127
 31
0.0
  0
LINE
  8
0
 62
     0
 10
311.051
 20
53.4127
 30
0.0
 11
311.051
 21
50.1826
 31
0.0
  0
LINE
  8
0
 62
     0
 10
311.051
 20
50.1826
 30
0.0
 11
310.225
 21
50.1826
 31
0.0
  0
LINE
  8
0
 62
     0
 10
310.225
 20
50.1826
 30
0.0
 11
310.225
 21
47.3837
 31
0.0
  0
LINE
  8
0
 62
     0
 10
310.225
 20
47.3837
 30
0.0
 11
311.051
 21
47.3837
 31
0.0
  0
LINE
  8
0
 62
     0
 10
311.051
 20
47.3837
 30
0.0
 11
311.051
 21
41.1138
 31
0.0
  0
LINE
  8
0
 62
     0
 10
311.051
 20
41.1138
 30
0.0
 11
312.776
 21
41.1138
 31
0.0
  0
LINE
  8
0
 62
     0
 10
312.776
 20
41.1138
 30
0.0
 11
312.776
 21
39.9136
 31
0.0
  0
LINE
  8
0
 62
     0
 10
312.776
 20
39.9136
 30
0.0
 11
316.075
 21
39.9136
 31
0.0
  0
LINE
  8
0
 62
     0
 10
316.075
 20
39.9136
 30
0.0
 11
316.075
 21
41.1138
 31
0.0
  0
LINE
  8
0
 62
     0
 10
316.075
 20
41.1138
 30
0.0
 11
317.801
 21
41.1138
 31
0.0
  0
LINE
  8
0
 62
     0
 10
317.801
 20
41.1138
 30
0.0
 11
317.801
 21
45.5828
 31
0.0
  0
LINE
  8
0
 62
     0
 10
317.801
 20
45.5828
 30
0.0
 11
319.326
 21
45.5828
 31
0.0
  0
LINE
  8
0
 62
     0
 10
319.326
 20
45.5828
 30
0.0
 11
319.326
 21
40.8838
 31
0.0
  0
LINE
  8
0
 62
     0
 10
319.326
 20
40.8838
 30
0.0
 11
333.325
 21
40.8838
 31
0.0
  0
LINE
  8
0
 62
     0
 10
333.325
 20
40.8838
 30
0.0
 11
333.325
 21
45.5828
 31
0.0
  0
LINE
  8
0
 62
     0
 10
333.325
 20
45.5828
 30
0.0
 11
334.851
 21
45.5828
 31
0.0
  0
LINE
  8
0
 62
     0
 10
334.851
 20
45.5828
 30
0.0
 11
334.851
 21
41.1138
 31
0.0
  0
LINE
  8
0
 62
     0
 10
334.851
 20
41.1138
 30
0.0
 11
336.576
 21
41.1138
 31
0.0
  0
LINE
  8
0
 62
     0
 10
336.576
 20
41.1138
 30
0.0
 11
336.576
 21
39.9136
 31
0.0
  0
LINE
  8
0
 62
     0
 10
336.576
 20
39.9136
 30
0.0
 11
339.875
 21
39.9136
 31
0.0
  0
LINE
  8
0
 62
     0
 10
339.875
 20
39.9136
 30
0.0
 11
339.875
 21
41.1138
 31
0.0
  0
LINE
  8
0
 62
     0
 10
339.875
 20
41.1138
 30
0.0
 11
341.6
 21
41.1138
 31
0.0
  0
LINE
  8
0
 62
     0
 10
341.6
 20
41.1138
 30
0.0
 11
341.6
 21
47.3837
 31
0.0
  0
LINE
  8
0
 62
     0
 10
341.6
 20
47.3837
 30
0.0
 11
342.426
 21
47.3837
 31
0.0
  0
LINE
  8
0
 62
     0
 10
342.426
 20
47.3837
 30
0.0
 11
342.426
 21
50.1826
 31
0.0
  0
LINE
  8
0
 62
     0
 10
342.426
 20
50.1826
 30
0.0
 11
341.6
 21
50.1826
 31
0.0
  0
LINE
  8
0
 62
     0
 10
341.6
 20
50.1826
 30
0.0
 11
341.6
 21
53.4127
 31
0.0
  0
LINE
  8
0
 62
     0
 10
341.6
 20
53.4127
 30
0.0
 11
334.851
 21
53.4127
 31
0.0
  0
LINE
  8
0
 62
     0
 10
334.851
 20
53.4127
 30
0.0
 11
334.851
 21
50.1826
 31
0.0
  0
LINE
  8
0
 62
     0
 10
334.851
 20
50.1826
 30
0.0
 11
333.325
 21
50.1826
 31
0.0
  0
LINE
  8
0
 62
     0
 10
333.325
 20
50.1826
 30
0.0
 11
333.325
 21
54.8831
 31
0.0
  0
LINE
  8
0
 62
     0
 10
333.325
 20
54.8831
 30
0.0
 11
319.326
 21
54.8831
 31
0.0
  0
LINE
  8
0
 62
     0
 10
71.676
 20
54.8831
 30
0.0
 11
85.6753
 21
54.8831
 31
0.0
  0
LINE
  8
0
 62
     0
 10
85.6753
 20
54.8831
 30
0.0
 11
85.6753
 21
40.8838
 31
0.0
  0
LINE
  8
0
 62
     0
 10
85.6753
 20
40.8838
 30
0.0
 11
71.676
 21
40.8838
 31
0.0
  0
LINE
  8
0
 62
     0
 10
71.676
 20
40.8838
 30
0.0
 11
71.676
 21
54.8831
 31
0.0
  0
LINE
  8
0
 62
     0
 10
97.8697
 20
54.8831
 30
0.0
 11
111.869
 21
54.8831
 31
0.0
  0
LINE
  8
0
 62
     0
 10
111.869
 20
54.8831
 30
0.0
 11
111.869
 21
40.8838
 31
0.0
  0
LINE
  8
0
 62
     0
 10
111.869
 20
40.8838
 30
0.0
 11
97.8697
 21
40.8838
 31
0.0
  0
LINE
  8
0
 62
     0
 10
97.8697
 20
40.8838
 30
0.0
 11
97.8697
 21
54.8831
 31
0.0
  0
LINE
  8
0
 62
     0
 10
116.92
 20
54.8831
 30
0.0
 11
130.919
 21
54.8831
 31
0.0
  0
LINE
  8
0
 62
     0
 10
130.919
 20
54.8831
 30
0.0
 11
130.919
 21
40.8838
 31
0.0
  0
LINE
  8
0
 62
     0
 10
130.919
 20
40.8838
 30
0.0
 11
116.92
 21
40.8838
 31
0.0
  0
LINE
  8
0
 62
     0
 10
116.92
 20
40.8838
 30
0.0
 11
116.92
 21
54.8831
 31
0.0
  0
LINE
  8
0
 62
     0
 10
135.97
 20
54.8831
 30
0.0
 11
149.969
 21
54.8831
 31
0.0
  0
LINE
  8
0
 62
     0
 10
149.969
 20
54.8831
 30
0.0
 11
149.969
 21
40.8838
 31
0.0
  0
LINE
  8
0
 62
     0
 10
149.969
 20
40.8838
 30
0.0
 11
135.97
 21
40.8838
 31
0.0
  0
LINE
  8
0
 62
     0
 10
135.97
 20
40.8838
 30
0.0
 11
135.97
 21
54.8831
 31
0.0
  0
LINE
  8
0
 62
     0
 10
155.02
 20
54.8831
 30
0.0
 11
169.019
 21
54.8831
 31
0.0
  0
LINE
  8
0
 62
     0
 10
169.019
 20
54.8831
 30
0.0
 11
169.019
 21
40.8838
 31
0.0
  0
LINE
  8
0
 62
     0
 10
169.019
 20
40.8838
 30
0.0
 11
155.02
 21
40.8838
 31
0.0
  0
LINE
  8
0
 62
     0
 10
155.02
 20
40.8838
 30
0.0
 11
155.02
 21
54.8831
 31
0.0
  0
LINE
  8
0
 62
     0
 10
174.07
 20
54.8831
 30
0.0
 11
188.069
 21
54.8831
 31
0.0
  0
LINE
  8
0
 62
     0
 10
188.069
 20
54.8831
 30
0.0
 11
188.069
 21
40.8838
 31
0.0
  0
LINE
  8
0
 62
     0
 10
188.069
 20
40.8838
 30
0.0
 11
174.07
 21
40.8838
 31
0.0
  0
LINE
  8
0
 62
     0
 10
174.07
 20
40.8838
 30
0.0
 11
174.07
 21
54.8831
 31
0.0
  0
LINE
  8
0
 62
     0
 10
193.12
 20
54.8831
 30
0.0
 11
207.119
 21
54.8831
 31
0.0
  0
LINE
  8
0
 62
     0
 10
207.119
 20
54.8831
 30
0.0
 11
207.119
 21
40.8838
 31
0.0
  0
LINE
  8
0
 62
     0
 10
207.119
 20
40.8838
 30
0.0
 11
193.12
 21
40.8838
 31
0.0
  0
LINE
  8
0
 62
     0
 10
193.12
 20
40.8838
 30
0.0
 11
193.12
 21
54.8831
 31
0.0
  0
LINE
  8
0
 62
     0
 10
212.17
 20
54.8831
 30
0.0
 11
226.169
 21
54.8831
 31
0.0
  0
LINE
  8
0
 62
     0
 10
226.169
 20
54.8831
 30
0.0
 11
226.169
 21
40.8838
 31
0.0
  0
LINE
  8
0
 62
     0
 10
226.169
 20
40.8838
 30
0.0
 11
212.17
 21
40.8838
 31
0.0
  0
LINE
  8
0
 62
     0
 10
212.17
 20
40.8838
 30
0.0
 11
212.17
 21
54.8831
 31
0.0
  0
LINE
  8
0
 62
     0
 10
231.22
 20
54.8831
 30
0.0
 11
245.219
 21
54.8831
 31
0.0
  0
LINE
  8
0
 62
     0
 10
245.219
 20
54.8831
 30
0.0
 11
245.219
 21
40.8838
 31
0.0
  0
LINE
  8
0
 62
     0
 10
245.219
 20
40.8838
 30
0.0
 11
231.22
 21
40.8838
 31
0.0
  0
LINE
  8
0
 62
     0
 10
231.22
 20
40.8838
 30
0.0
 11
231.22
 21
54.8831
 31
0.0
  0
LINE
  8
0
 62
     0
 10
250.27
 20
54.8831
 30
0.0
 11
264.269
 21
54.8831
 31
0.0
  0
LINE
  8
0
 62
     0
 10
264.269
 20
54.8831
 30
0.0
 11
264.269
 21
40.8838
 31
0.0
  0
LINE
  8
0
 62
     0
 10
264.269
 20
40.8838
 30
0.0
 11
250.27
 21
40.8838
 31
0.0
  0
LINE
  8
0
 62
     0
 10
250.27
 20
40.8838
 30
0.0
 11
250.27
 21
54.8831
 31
0.0
  0
LINE
  8
0
 62
     0
 10
269.32
 20
54.8831
 30
0.0
 11
283.319
 21
54.8831
 31
0.0
  0
LINE
  8
0
 62
     0
 10
283.319
 20
54.8831
 30
0.0
 11
283.319
 21
40.8838
 31
0.0
  0
LINE
  8
0
 62
     0
 10
283.319
 20
40.8838
 30
0.0
 11
269.32
 21
40.8838
 31
0.0
  0
LINE
  8
0
 62
     0
 10
269.32
 20
40.8838
 30
0.0
 11
269.32
 21
54.8831
 31
0.0
  0
LINE
  8
0
 62
     0
 10
288.37
 20
54.8831
 30
0.0
 11
302.369
 21
54.8831
 31
0.0
  0
LINE
  8
0
 62
     0
 10
302.369
 20
54.8831
 30
0.0
 11
302.369
 21
40.8838
 31
0.0
  0
LINE
  8
0
 62
     0
 10
302.369
 20
40.8838
 30
0.0
 11
288.37
 21
40.8838
 31
0.0
  0
LINE
  8
0
 62
     0
 10
288.37
 20
40.8838
 30
0.0
 11
288.37
 21
54.8831
 31
0.0
  0
LINE
  8
0
 62
     0
 10
416.959
 20
54.8831
 30
0.0
 11
430.957
 21
54.8831
 31
0.0
  0
LINE
  8
0
 62
     0
 10
430.957
 20
54.8831
 30
0.0
 11
430.957
 21
40.8838
 31
0.0
  0
LINE
  8
0
 62
     0
 10
430.957
 20
40.8838
 30
0.0
 11
416.959
 21
40.8838
 31
0.0
  0
LINE
  8
0
 62
     0
 10
416.959
 20
40.8838
 30
0.0
 11
416.959
 21
54.8831
 31
0.0
  0
LINE
  8
0
 62
     0
 10
436.009
 20
54.8831
 30
0.0
 11
450.007
 21
54.8831
 31
0.0
  0
LINE
  8
0
 62
     0
 10
450.007
 20
54.8831
 30
0.0
 11
450.007
 21
40.8838
 31
0.0
  0
LINE
  8
0
 62
     0
 10
450.007
 20
40.8838
 30
0.0
 11
436.009
 21
40.8838
 31
0.0
  0
LINE
  8
0
 62
     0
 10
436.009
 20
40.8838
 30
0.0
 11
436.009
 21
54.8831
 31
0.0
  0
LINE
  8
0
 62
     0
 10
455.059
 20
54.8831
 30
0.0
 11
469.057
 21
54.8831
 31
0.0
  0
LINE
  8
0
 62
     0
 10
469.057
 20
54.8831
 30
0.0
 11
469.057
 21
40.8838
 31
0.0
  0
LINE
  8
0
 62
     0
 10
469.057
 20
40.8838
 30
0.0
 11
455.059
 21
40.8838
 31
0.0
  0
LINE
  8
0
 62
     0
 10
455.059
 20
40.8838
 30
0.0
 11
455.059
 21
54.8831
 31
0.0
  0
LINE
  8
0
 62
     0
 10
480.607
 20
73.5087
 30
0.0
 11
480.607
 21
72.6832
 31
0.0
  0
LINE
  8
0
 62
     0
 10
480.607
 20
72.6832
 30
0.0
 11
474.334
 21
72.6832
 31
0.0
  0
LINE
  8
0
 62
     0
 10
474.334
 20
72.6832
 30
0.0
 11
474.334
 21
70.9581
 31
0.0
  0
LINE
  8
0
 62
     0
 10
474.334
 20
70.9581
 30
0.0
 11
473.139
 21
70.9581
 31
0.0
  0
LINE
  8
0
 62
     0
 10
473.139
 20
70.9581
 30
0.0
 11
473.139
 21
67.6589
 31
0.0
  0
LINE
  8
0
 62
     0
 10
473.139
 20
67.6589
 30
0.0
 11
474.334
 21
67.6589
 31
0.0
  0
LINE
  8
0
 62
     0
 10
474.334
 20
67.6589
 30
0.0
 11
474.334
 21
65.9335
 31
0.0
  0
LINE
  8
0
 62
     0
 10
474.334
 20
65.9335
 30
0.0
 11
478.808
 21
65.9335
 31
0.0
  0
LINE
  8
0
 62
     0
 10
478.808
 20
65.9335
 30
0.0
 11
478.808
 21
64.4081
 31
0.0
  0
LINE
  8
0
 62
     0
 10
478.808
 20
64.4081
 30
0.0
 11
474.109
 21
64.4081
 31
0.0
  0
LINE
  8
0
 62
     0
 10
474.109
 20
64.4081
 30
0.0
 11
474.109
 21
50.4088
 31
0.0
  0
LINE
  8
0
 62
     0
 10
474.109
 20
50.4088
 30
0.0
 11
478.808
 21
50.4088
 31
0.0
  0
LINE
  8
0
 62
     0
 10
478.808
 20
50.4088
 30
0.0
 11
478.808
 21
48.883
 31
0.0
  0
LINE
  8
0
 62
     0
 10
478.808
 20
48.883
 30
0.0
 11
474.334
 21
48.883
 31
0.0
  0
LINE
  8
0
 62
     0
 10
474.334
 20
48.883
 30
0.0
 11
474.334
 21
47.1579
 31
0.0
  0
LINE
  8
0
 62
     0
 10
474.334
 20
47.1579
 30
0.0
 11
473.139
 21
47.1579
 31
0.0
  0
LINE
  8
0
 62
     0
 10
473.139
 20
47.1579
 30
0.0
 11
473.139
 21
43.8587
 31
0.0
  0
LINE
  8
0
 62
     0
 10
473.139
 20
43.8587
 30
0.0
 11
474.334
 21
43.8587
 31
0.0
  0
LINE
  8
0
 62
     0
 10
474.334
 20
43.8587
 30
0.0
 11
474.334
 21
42.1337
 31
0.0
  0
LINE
  8
0
 62
     0
 10
474.334
 20
42.1337
 30
0.0
 11
480.607
 21
42.1337
 31
0.0
  0
LINE
  8
0
 62
     0
 10
480.607
 20
42.1337
 30
0.0
 11
480.607
 21
41.3082
 31
0.0
  0
LINE
  8
0
 62
     0
 10
480.607
 20
41.3082
 30
0.0
 11
483.408
 21
41.3082
 31
0.0
  0
LINE
  8
0
 62
     0
 10
483.408
 20
41.3082
 30
0.0
 11
483.408
 21
42.1337
 31
0.0
  0
LINE
  8
0
 62
     0
 10
483.408
 20
42.1337
 30
0.0
 11
486.636
 21
42.1337
 31
0.0
  0
LINE
  8
0
 62
     0
 10
486.636
 20
42.1337
 30
0.0
 11
486.636
 21
48.883
 31
0.0
  0
LINE
  8
0
 62
     0
 10
486.636
 20
48.883
 30
0.0
 11
483.408
 21
48.883
 31
0.0
  0
LINE
  8
0
 62
     0
 10
483.408
 20
48.883
 30
0.0
 11
483.408
 21
50.4088
 31
0.0
  0
LINE
  8
0
 62
     0
 10
483.408
 20
50.4088
 30
0.0
 11
488.107
 21
50.4088
 31
0.0
  0
LINE
  8
0
 62
     0
 10
488.107
 20
50.4088
 30
0.0
 11
488.107
 21
64.4081
 31
0.0
  0
LINE
  8
0
 62
     0
 10
488.107
 20
64.4081
 30
0.0
 11
483.408
 21
64.4081
 31
0.0
  0
LINE
  8
0
 62
     0
 10
483.408
 20
64.4081
 30
0.0
 11
483.408
 21
65.9335
 31
0.0
  0
LINE
  8
0
 62
     0
 10
483.408
 20
65.9335
 30
0.0
 11
486.636
 21
65.9335
 31
0.0
  0
LINE
  8
0
 62
     0
 10
486.636
 20
65.9335
 30
0.0
 11
486.636
 21
72.6832
 31
0.0
  0
LINE
  8
0
 62
     0
 10
486.636
 20
72.6832
 30
0.0
 11
483.408
 21
72.6832
 31
0.0
  0
LINE
  8
0
 62
     0
 10
483.408
 20
72.6832
 30
0.0
 11
483.408
 21
73.5087
 31
0.0
  0
LINE
  8
0
 62
     0
 10
483.408
 20
73.5087
 30
0.0
 11
480.607
 21
73.5087
 31
0.0
  0
LINE
  8
0
 62
     0
 10
2.61965
 20
59.6456
 30
0.0
 11
16.6192
 21
59.6456
 31
0.0
  0
LINE
  8
0
 62
     0
 10
16.6192
 20
59.6456
 30
0.0
 11
16.6192
 21
45.6463
 31
0.0
  0
LINE
  8
0
 62
     0
 10
16.6192
 20
45.6463
 30
0.0
 11
2.61965
 21
45.6463
 31
0.0
  0
LINE
  8
0
 62
     0
 10
2.61965
 20
45.6463
 30
0.0
 11
2.61965
 21
59.6456
 31
0.0
  0
LINE
  8
0
 62
     0
 10
21.6697
 20
59.6456
 30
0.0
 11
35.669
 21
59.6456
 31
0.0
  0
LINE
  8
0
 62
     0
 10
35.669
 20
59.6456
 30
0.0
 11
35.669
 21
45.6463
 31
0.0
  0
LINE
  8
0
 62
     0
 10
35.669
 20
45.6463
 30
0.0
 11
21.6697
 21
45.6463
 31
0.0
  0
LINE
  8
0
 62
     0
 10
21.6697
 20
45.6463
 30
0.0
 11
21.6697
 21
59.6456
 31
0.0
  0
LINE
  8
0
 62
     0
 10
40.7197
 20
59.6456
 30
0.0
 11
54.719
 21
59.6456
 31
0.0
  0
LINE
  8
0
 62
     0
 10
54.719
 20
59.6456
 30
0.0
 11
54.719
 21
45.6463
 31
0.0
  0
LINE
  8
0
 62
     0
 10
54.719
 20
45.6463
 30
0.0
 11
40.7197
 21
45.6463
 31
0.0
  0
LINE
  8
0
 62
     0
 10
40.7197
 20
45.6463
 30
0.0
 11
40.7197
 21
59.6456
 31
0.0
  0
LINE
  8
0
 62
     0
 10
69.2933
 20
73.9331
 30
0.0
 11
83.294
 21
73.9331
 31
0.0
  0
LINE
  8
0
 62
     0
 10
83.294
 20
73.9331
 30
0.0
 11
83.294
 21
59.9338
 31
0.0
  0
LINE
  8
0
 62
     0
 10
83.294
 20
59.9338
 30
0.0
 11
69.2933
 21
59.9338
 31
0.0
  0
LINE
  8
0
 62
     0
 10
69.2933
 20
59.9338
 30
0.0
 11
69.2933
 21
73.9331
 31
0.0
  0
LINE
  8
0
 62
     0
 10
93.1072
 20
73.9331
 30
0.0
 11
107.107
 21
73.9331
 31
0.0
  0
LINE
  8
0
 62
     0
 10
107.107
 20
73.9331
 30
0.0
 11
107.107
 21
59.9338
 31
0.0
  0
LINE
  8
0
 62
     0
 10
107.107
 20
59.9338
 30
0.0
 11
93.1072
 21
59.9338
 31
0.0
  0
LINE
  8
0
 62
     0
 10
93.1072
 20
59.9338
 30
0.0
 11
93.1072
 21
73.9331
 31
0.0
  0
LINE
  8
0
 62
     0
 10
112.157
 20
73.9331
 30
0.0
 11
126.157
 21
73.9331
 31
0.0
  0
LINE
  8
0
 62
     0
 10
126.157
 20
73.9331
 30
0.0
 11
126.157
 21
59.9338
 31
0.0
  0
LINE
  8
0
 62
     0
 10
126.157
 20
59.9338
 30
0.0
 11
112.157
 21
59.9338
 31
0.0
  0
LINE
  8
0
 62
     0
 10
112.157
 20
59.9338
 30
0.0
 11
112.157
 21
73.9331
 31
0.0
  0
LINE
  8
0
 62
     0
 10
131.207
 20
73.9331
 30
0.0
 11
145.207
 21
73.9331
 31
0.0
  0
LINE
  8
0
 62
     0
 10
145.207
 20
73.9331
 30
0.0
 11
145.207
 21
59.9338
 31
0.0
  0
LINE
  8
0
 62
     0
 10
145.207
 20
59.9338
 30
0.0
 11
131.207
 21
59.9338
 31
0.0
  0
LINE
  8
0
 62
     0
 10
131.207
 20
59.9338
 30
0.0
 11
131.207
 21
73.9331
 31
0.0
  0
LINE
  8
0
 62
     0
 10
150.257
 20
73.9331
 30
0.0
 11
164.257
 21
73.9331
 31
0.0
  0
LINE
  8
0
 62
     0
 10
164.257
 20
73.9331
 30
0.0
 11
164.257
 21
59.9338
 31
0.0
  0
LINE
  8
0
 62
     0
 10
164.257
 20
59.9338
 30
0.0
 11
150.257
 21
59.9338
 31
0.0
  0
LINE
  8
0
 62
     0
 10
150.257
 20
59.9338
 30
0.0
 11
150.257
 21
73.9331
 31
0.0
  0
LINE
  8
0
 62
     0
 10
169.307
 20
73.9331
 30
0.0
 11
183.307
 21
73.9331
 31
0.0
  0
LINE
  8
0
 62
     0
 10
183.307
 20
73.9331
 30
0.0
 11
183.307
 21
59.9338
 31
0.0
  0
LINE
  8
0
 62
     0
 10
183.307
 20
59.9338
 30
0.0
 11
169.307
 21
59.9338
 31
0.0
  0
LINE
  8
0
 62
     0
 10
169.307
 20
59.9338
 30
0.0
 11
169.307
 21
73.9331
 31
0.0
  0
LINE
  8
0
 62
     0
 10
188.357
 20
73.9331
 30
0.0
 11
202.357
 21
73.9331
 31
0.0
  0
LINE
  8
0
 62
     0
 10
202.357
 20
73.9331
 30
0.0
 11
202.357
 21
59.9338
 31
0.0
  0
LINE
  8
0
 62
     0
 10
202.357
 20
59.9338
 30
0.0
 11
188.357
 21
59.9338
 31
0.0
  0
LINE
  8
0
 62
     0
 10
188.357
 20
59.9338
 30
0.0
 11
188.357
 21
73.9331
 31
0.0
  0
LINE
  8
0
 62
     0
 10
207.407
 20
73.9331
 30
0.0
 11
221.407
 21
73.9331
 31
0.0
  0
LINE
  8
0
 62
     0
 10
221.407
 20
73.9331
 30
0.0
 11
221.407
 21
59.9338
 31
0.0
  0
LINE
  8
0
 62
     0
 10
221.407
 20
59.9338
 30
0.0
 11
207.407
 21
59.9338
 31
0.0
  0
LINE
  8
0
 62
     0
 10
207.407
 20
59.9338
 30
0.0
 11
207.407
 21
73.9331
 31
0.0
  0
LINE
  8
0
 62
     0
 10
226.457
 20
73.9331
 30
0.0
 11
240.457
 21
73.9331
 31
0.0
  0
LINE
  8
0
 62
     0
 10
240.457
 20
73.9331
 30
0.0
 11
240.457
 21
59.9338
 31
0.0
  0
LINE
  8
0
 62
     0
 10
240.457
 20
59.9338
 30
0.0
 11
226.457
 21
59.9338
 31
0.0
  0
LINE
  8
0
 62
     0
 10
226.457
 20
59.9338
 30
0.0
 11
226.457
 21
73.9331
 31
0.0
  0
LINE
  8
0
 62
     0
 10
245.507
 20
73.9331
 30
0.0
 11
259.507
 21
73.9331
 31
0.0
  0
LINE
  8
0
 62
     0
 10
259.507
 20
73.9331
 30
0.0
 11
259.507
 21
59.9338
 31
0.0
  0
LINE
  8
0
 62
     0
 10
259.507
 20
59.9338
 30
0.0
 11
245.507
 21
59.9338
 31
0.0
  0
LINE
  8
0
 62
     0
 10
245.507
 20
59.9338
 30
0.0
 11
245.507
 21
73.9331
 31
0.0
  0
LINE
  8
0
 62
     0
 10
264.557
 20
73.9331
 30
0.0
 11
278.557
 21
73.9331
 31
0.0
  0
LINE
  8
0
 62
     0
 10
278.557
 20
73.9331
 30
0.0
 11
278.557
 21
59.9338
 31
0.0
  0
LINE
  8
0
 62
     0
 10
278.557
 20
59.9338
 30
0.0
 11
264.557
 21
59.9338
 31
0.0
  0
LINE
  8
0
 62
     0
 10
264.557
 20
59.9338
 30
0.0
 11
264.557
 21
73.9331
 31
0.0
  0
LINE
  8
0
 62
     0
 10
283.607
 20
73.9331
 30
0.0
 11
297.607
 21
73.9331
 31
0.0
  0
LINE
  8
0
 62
     0
 10
297.607
 20
73.9331
 30
0.0
 11
297.607
 21
59.9338
 31
0.0
  0
LINE
  8
0
 62
     0
 10
297.607
 20
59.9338
 30
0.0
 11
283.607
 21
59.9338
 31
0.0
  0
LINE
  8
0
 62
     0
 10
283.607
 20
59.9338
 30
0.0
 11
283.607
 21
73.9331
 31
0.0
  0
LINE
  8
0
 62
     0
 10
302.657
 20
73.9331
 30
0.0
 11
316.657
 21
73.9331
 31
0.0
  0
LINE
  8
0
 62
     0
 10
316.657
 20
73.9331
 30
0.0
 11
316.657
 21
59.9338
 31
0.0
  0
LINE
  8
0
 62
     0
 10
316.657
 20
59.9338
 30
0.0
 11
302.657
 21
59.9338
 31
0.0
  0
LINE
  8
0
 62
     0
 10
302.657
 20
59.9338
 30
0.0
 11
302.657
 21
73.9331
 31
0.0
  0
LINE
  8
0
 62
     0
 10
326.47
 20
73.9331
 30
0.0
 11
340.469
 21
73.9331
 31
0.0
  0
LINE
  8
0
 62
     0
 10
340.469
 20
73.9331
 30
0.0
 11
340.469
 21
59.9338
 31
0.0
  0
LINE
  8
0
 62
     0
 10
340.469
 20
59.9338
 30
0.0
 11
326.47
 21
59.9338
 31
0.0
  0
LINE
  8
0
 62
     0
 10
326.47
 20
59.9338
 30
0.0
 11
326.47
 21
73.9331
 31
0.0
  0
LINE
  8
0
 62
     0
 10
355.046
 20
73.9331
 30
0.0
 11
369.044
 21
73.9331
 31
0.0
  0
LINE
  8
0
 62
     0
 10
369.044
 20
73.9331
 30
0.0
 11
369.044
 21
59.9338
 31
0.0
  0
LINE
  8
0
 62
     0
 10
369.044
 20
59.9338
 30
0.0
 11
355.046
 21
59.9338
 31
0.0
  0
LINE
  8
0
 62
     0
 10
355.046
 20
59.9338
 30
0.0
 11
355.046
 21
73.9331
 31
0.0
  0
LINE
  8
0
 62
     0
 10
374.096
 20
73.9331
 30
0.0
 11
388.094
 21
73.9331
 31
0.0
  0
LINE
  8
0
 62
     0
 10
388.094
 20
73.9331
 30
0.0
 11
388.094
 21
59.9338
 31
0.0
  0
LINE
  8
0
 62
     0
 10
388.094
 20
59.9338
 30
0.0
 11
374.096
 21
59.9338
 31
0.0
  0
LINE
  8
0
 62
     0
 10
374.096
 20
59.9338
 30
0.0
 11
374.096
 21
73.9331
 31
0.0
  0
LINE
  8
0
 62
     0
 10
393.146
 20
73.9331
 30
0.0
 11
407.144
 21
73.9331
 31
0.0
  0
LINE
  8
0
 62
     0
 10
407.144
 20
73.9331
 30
0.0
 11
407.144
 21
59.9338
 31
0.0
  0
LINE
  8
0
 62
     0
 10
407.144
 20
59.9338
 30
0.0
 11
393.146
 21
59.9338
 31
0.0
  0
LINE
  8
0
 62
     0
 10
393.146
 20
59.9338
 30
0.0
 11
393.146
 21
73.9331
 31
0.0
  0
LINE
  8
0
 62
     0
 10
416.959
 20
73.9331
 30
0.0
 11
430.957
 21
73.9331
 31
0.0
  0
LINE
  8
0
 62
     0
 10
430.957
 20
73.9331
 30
0.0
 11
430.957
 21
59.9338
 31
0.0
  0
LINE
  8
0
 62
     0
 10
430.957
 20
59.9338
 30
0.0
 11
416.959
 21
59.9338
 31
0.0
  0
LINE
  8
0
 62
     0
 10
416.959
 20
59.9338
 30
0.0
 11
416.959
 21
73.9331
 31
0.0
  0
LINE
  8
0
 62
     0
 10
436.009
 20
73.9331
 30
0.0
 11
450.007
 21
73.9331
 31
0.0
  0
LINE
  8
0
 62
     0
 10
450.007
 20
73.9331
 30
0.0
 11
450.007
 21
59.9338
 31
0.0
  0
LINE
  8
0
 62
     0
 10
450.007
 20
59.9338
 30
0.0
 11
436.009
 21
59.9338
 31
0.0
  0
LINE
  8
0
 62
     0
 10
436.009
 20
59.9338
 30
0.0
 11
436.009
 21
73.9331
 31
0.0
  0
LINE
  8
0
 62
     0
 10
455.059
 20
73.9331
 30
0.0
 11
469.057
 21
73.9331
 31
0.0
  0
LINE
  8
0
 62
     0
 10
469.057
 20
73.9331
 30
0.0
 11
469.057
 21
59.9338
 31
0.0
  0
LINE
  8
0
 62
     0
 10
469.057
 20
59.9338
 30
0.0
 11
455.059
 21
59.9338
 31
0.0
  0
LINE
  8
0
 62
     0
 10
455.059
 20
59.9338
 30
0.0
 11
455.059
 21
73.9331
 31
0.0
  0
LINE
  8
0
 62
     0
 10
2.61965
 20
78.6956
 30
0.0
 11
16.6192
 21
78.6956
 31
0.0
  0
LINE
  8
0
 62
     0
 10
16.6192
 20
78.6956
 30
0.0
 11
16.6192
 21
64.6963
 31
0.0
  0
LINE
  8
0
 62
     0
 10
16.6192
 20
64.6963
 30
0.0
 11
2.61965
 21
64.6963
 31
0.0
  0
LINE
  8
0
 62
     0
 10
2.61965
 20
64.6963
 30
0.0
 11
2.61965
 21
78.6956
 31
0.0
  0
LINE
  8
0
 62
     0
 10
21.6697
 20
78.6956
 30
0.0
 11
35.669
 21
78.6956
 31
0.0
  0
LINE
  8
0
 62
     0
 10
35.669
 20
78.6956
 30
0.0
 11
35.669
 21
64.6963
 31
0.0
  0
LINE
  8
0
 62
     0
 10
35.669
 20
64.6963
 30
0.0
 11
21.6697
 21
64.6963
 31
0.0
  0
LINE
  8
0
 62
     0
 10
21.6697
 20
64.6963
 30
0.0
 11
21.6697
 21
78.6956
 31
0.0
  0
LINE
  8
0
 62
     0
 10
40.7197
 20
78.6956
 30
0.0
 11
54.719
 21
78.6956
 31
0.0
  0
LINE
  8
0
 62
     0
 10
54.719
 20
78.6956
 30
0.0
 11
54.719
 21
64.6963
 31
0.0
  0
LINE
  8
0
 62
     0
 10
54.719
 20
64.6963
 30
0.0
 11
40.7197
 21
64.6963
 31
0.0
  0
LINE
  8
0
 62
     0
 10
40.7197
 20
64.6963
 30
0.0
 11
40.7197
 21
78.6956
 31
0.0
  0
LINE
  8
0
 62
     0
 10
321.707
 20
92.9831
 30
0.0
 11
321.707
 21
88.2826
 31
0.0
  0
LINE
  8
0
 62
     0
 10
321.707
 20
88.2826
 30
0.0
 11
320.182
 21
88.2826
 31
0.0
  0
LINE
  8
0
 62
     0
 10
320.182
 20
88.2826
 30
0.0
 11
320.182
 21
91.5127
 31
0.0
  0
LINE
  8
0
 62
     0
 10
320.182
 20
91.5127
 30
0.0
 11
313.432
 21
91.5127
 31
0.0
  0
LINE
  8
0
 62
     0
 10
313.432
 20
91.5127
 30
0.0
 11
313.432
 21
88.2826
 31
0.0
  0
LINE
  8
0
 62
     0
 10
313.432
 20
88.2826
 30
0.0
 11
312.607
 21
88.2826
 31
0.0
  0
LINE
  8
0
 62
     0
 10
312.607
 20
88.2826
 30
0.0
 11
312.607
 21
85.4837
 31
0.0
  0
LINE
  8
0
 62
     0
 10
312.607
 20
85.4837
 30
0.0
 11
313.432
 21
85.4837
 31
0.0
  0
LINE
  8
0
 62
     0
 10
313.432
 20
85.4837
 30
0.0
 11
313.432
 21
79.2138
 31
0.0
  0
LINE
  8
0
 62
     0
 10
313.432
 20
79.2138
 30
0.0
 11
315.156
 21
79.2138
 31
0.0
  0
LINE
  8
0
 62
     0
 10
315.156
 20
79.2138
 30
0.0
 11
315.156
 21
78.0136
 31
0.0
  0
LINE
  8
0
 62
     0
 10
315.156
 20
78.0136
 30
0.0
 11
318.456
 21
78.0136
 31
0.0
  0
LINE
  8
0
 62
     0
 10
318.456
 20
78.0136
 30
0.0
 11
318.456
 21
79.2138
 31
0.0
  0
LINE
  8
0
 62
     0
 10
318.456
 20
79.2138
 30
0.0
 11
320.182
 21
79.2138
 31
0.0
  0
LINE
  8
0
 62
     0
 10
320.182
 20
79.2138
 30
0.0
 11
320.182
 21
83.6828
 31
0.0
  0
LINE
  8
0
 62
     0
 10
320.182
 20
83.6828
 30
0.0
 11
321.707
 21
83.6828
 31
0.0
  0
LINE
  8
0
 62
     0
 10
321.707
 20
83.6828
 30
0.0
 11
321.707
 21
78.9838
 31
0.0
  0
LINE
  8
0
 62
     0
 10
321.707
 20
78.9838
 30
0.0
 11
335.707
 21
78.9838
 31
0.0
  0
LINE
  8
0
 62
     0
 10
335.707
 20
78.9838
 30
0.0
 11
335.707
 21
83.6828
 31
0.0
  0
LINE
  8
0
 62
     0
 10
335.707
 20
83.6828
 30
0.0
 11
337.232
 21
83.6828
 31
0.0
  0
LINE
  8
0
 62
     0
 10
337.232
 20
83.6828
 30
0.0
 11
337.232
 21
79.2138
 31
0.0
  0
LINE
  8
0
 62
     0
 10
337.232
 20
79.2138
 30
0.0
 11
338.956
 21
79.2138
 31
0.0
  0
LINE
  8
0
 62
     0
 10
338.956
 20
79.2138
 30
0.0
 11
338.956
 21
78.0136
 31
0.0
  0
LINE
  8
0
 62
     0
 10
338.956
 20
78.0136
 30
0.0
 11
342.257
 21
78.0136
 31
0.0
  0
LINE
  8
0
 62
     0
 10
342.257
 20
78.0136
 30
0.0
 11
342.257
 21
79.2138
 31
0.0
  0
LINE
  8
0
 62
     0
 10
342.257
 20
79.2138
 30
0.0
 11
343.982
 21
79.2138
 31
0.0
  0
LINE
  8
0
 62
     0
 10
343.982
 20
79.2138
 30
0.0
 11
343.982
 21
85.4837
 31
0.0
  0
LINE
  8
0
 62
     0
 10
343.982
 20
85.4837
 30
0.0
 11
344.806
 21
85.4837
 31
0.0
  0
LINE
  8
0
 62
     0
 10
344.806
 20
85.4837
 30
0.0
 11
344.806
 21
88.2826
 31
0.0
  0
LINE
  8
0
 62
     0
 10
344.806
 20
88.2826
 30
0.0
 11
343.982
 21
88.2826
 31
0.0
  0
LINE
  8
0
 62
     0
 10
343.982
 20
88.2826
 30
0.0
 11
343.982
 21
91.5127
 31
0.0
  0
LINE
  8
0
 62
     0
 10
343.982
 20
91.5127
 30
0.0
 11
337.232
 21
91.5127
 31
0.0
  0
LINE
  8
0
 62
     0
 10
337.232
 20
91.5127
 30
0.0
 11
337.232
 21
88.2826
 31
0.0
  0
LINE
  8
0
 62
     0
 10
337.232
 20
88.2826
 30
0.0
 11
335.707
 21
88.2826
 31
0.0
  0
LINE
  8
0
 62
     0
 10
335.707
 20
88.2826
 30
0.0
 11
335.707
 21
92.9831
 31
0.0
  0
LINE
  8
0
 62
     0
 10
335.707
 20
92.9831
 30
0.0
 11
321.707
 21
92.9831
 31
0.0
  0
LINE
  8
0
 62
     0
 10
64.5322
 20
92.9831
 30
0.0
 11
78.5315
 21
92.9831
 31
0.0
  0
LINE
  8
0
 62
     0
 10
78.5315
 20
92.9831
 30
0.0
 11
78.5315
 21
78.9838
 31
0.0
  0
LINE
  8
0
 62
     0
 10
78.5315
 20
78.9838
 30
0.0
 11
64.5322
 21
78.9838
 31
0.0
  0
LINE
  8
0
 62
     0
 10
64.5322
 20
78.9838
 30
0.0
 11
64.5322
 21
92.9831
 31
0.0
  0
LINE
  8
0
 62
     0
 10
83.5822
 20
92.9831
 30
0.0
 11
97.5815
 21
92.9831
 31
0.0
  0
LINE
  8
0
 62
     0
 10
97.5815
 20
92.9831
 30
0.0
 11
97.5815
 21
78.9838
 31
0.0
  0
LINE
  8
0
 62
     0
 10
97.5815
 20
78.9838
 30
0.0
 11
83.5822
 21
78.9838
 31
0.0
  0
LINE
  8
0
 62
     0
 10
83.5822
 20
78.9838
 30
0.0
 11
83.5822
 21
92.9831
 31
0.0
  0
LINE
  8
0
 62
     0
 10
102.632
 20
92.9831
 30
0.0
 11
116.632
 21
92.9831
 31
0.0
  0
LINE
  8
0
 62
     0
 10
116.632
 20
92.9831
 30
0.0
 11
116.632
 21
78.9838
 31
0.0
  0
LINE
  8
0
 62
     0
 10
116.632
 20
78.9838
 30
0.0
 11
102.632
 21
78.9838
 31
0.0
  0
LINE
  8
0
 62
     0
 10
102.632
 20
78.9838
 30
0.0
 11
102.632
 21
92.9831
 31
0.0
  0
LINE
  8
0
 62
     0
 10
121.682
 20
92.9831
 30
0.0
 11
135.682
 21
92.9831
 31
0.0
  0
LINE
  8
0
 62
     0
 10
135.682
 20
92.9831
 30
0.0
 11
135.682
 21
78.9838
 31
0.0
  0
LINE
  8
0
 62
     0
 10
135.682
 20
78.9838
 30
0.0
 11
121.682
 21
78.9838
 31
0.0
  0
LINE
  8
0
 62
     0
 10
121.682
 20
78.9838
 30
0.0
 11
121.682
 21
92.9831
 31
0.0
  0
LINE
  8
0
 62
     0
 10
140.732
 20
92.9831
 30
0.0
 11
154.732
 21
92.9831
 31
0.0
  0
LINE
  8
0
 62
     0
 10
154.732
 20
92.9831
 30
0.0
 11
154.732
 21
78.9838
 31
0.0
  0
LINE
  8
0
 62
     0
 10
154.732
 20
78.9838
 30
0.0
 11
140.732
 21
78.9838
 31
0.0
  0
LINE
  8
0
 62
     0
 10
140.732
 20
78.9838
 30
0.0
 11
140.732
 21
92.9831
 31
0.0
  0
LINE
  8
0
 62
     0
 10
159.782
 20
92.9831
 30
0.0
 11
173.782
 21
92.9831
 31
0.0
  0
LINE
  8
0
 62
     0
 10
173.782
 20
92.9831
 30
0.0
 11
173.782
 21
78.9838
 31
0.0
  0
LINE
  8
0
 62
     0
 10
173.782
 20
78.9838
 30
0.0
 11
159.782
 21
78.9838
 31
0.0
  0
LINE
  8
0
 62
     0
 10
159.782
 20
78.9838
 30
0.0
 11
159.782
 21
92.9831
 31
0.0
  0
LINE
  8
0
 62
     0
 10
178.832
 20
92.9831
 30
0.0
 11
192.832
 21
92.9831
 31
0.0
  0
LINE
  8
0
 62
     0
 10
192.832
 20
92.9831
 30
0.0
 11
192.832
 21
78.9838
 31
0.0
  0
LINE
  8
0
 62
     0
 10
192.832
 20
78.9838
 30
0.0
 11
178.832
 21
78.9838
 31
0.0
  0
LINE
  8
0
 62
     0
 10
178.832
 20
78.9838
 30
0.0
 11
178.832
 21
92.9831
 31
0.0
  0
LINE
  8
0
 62
     0
 10
197.882
 20
92.9831
 30
0.0
 11
211.882
 21
92.9831
 31
0.0
  0
LINE
  8
0
 62
     0
 10
211.882
 20
92.9831
 30
0.0
 11
211.882
 21
78.9838
 31
0.0
  0
LINE
  8
0
 62
     0
 10
211.882
 20
78.9838
 30
0.0
 11
197.882
 21
78.9838
 31
0.0
  0
LINE
  8
0
 62
     0
 10
197.882
 20
78.9838
 30
0.0
 11
197.882
 21
92.9831
 31
0.0
  0
LINE
  8
0
 62
     0
 10
216.932
 20
92.9831
 30
0.0
 11
230.932
 21
92.9831
 31
0.0
  0
LINE
  8
0
 62
     0
 10
230.932
 20
92.9831
 30
0.0
 11
230.932
 21
78.9838
 31
0.0
  0
LINE
  8
0
 62
     0
 10
230.932
 20
78.9838
 30
0.0
 11
216.932
 21
78.9838
 31
0.0
  0
LINE
  8
0
 62
     0
 10
216.932
 20
78.9838
 30
0.0
 11
216.932
 21
92.9831
 31
0.0
  0
LINE
  8
0
 62
     0
 10
235.982
 20
92.9831
 30
0.0
 11
249.982
 21
92.9831
 31
0.0
  0
LINE
  8
0
 62
     0
 10
249.982
 20
92.9831
 30
0.0
 11
249.982
 21
78.9838
 31
0.0
  0
LINE
  8
0
 62
     0
 10
249.982
 20
78.9838
 30
0.0
 11
235.982
 21
78.9838
 31
0.0
  0
LINE
  8
0
 62
     0
 10
235.982
 20
78.9838
 30
0.0
 11
235.982
 21
92.9831
 31
0.0
  0
LINE
  8
0
 62
     0
 10
255.032
 20
92.9831
 30
0.0
 11
269.032
 21
92.9831
 31
0.0
  0
LINE
  8
0
 62
     0
 10
269.032
 20
92.9831
 30
0.0
 11
269.032
 21
78.9838
 31
0.0
  0
LINE
  8
0
 62
     0
 10
269.032
 20
78.9838
 30
0.0
 11
255.032
 21
78.9838
 31
0.0
  0
LINE
  8
0
 62
     0
 10
255.032
 20
78.9838
 30
0.0
 11
255.032
 21
92.9831
 31
0.0
  0
LINE
  8
0
 62
     0
 10
274.082
 20
92.9831
 30
0.0
 11
288.082
 21
92.9831
 31
0.0
  0
LINE
  8
0
 62
     0
 10
288.082
 20
92.9831
 30
0.0
 11
288.082
 21
78.9838
 31
0.0
  0
LINE
  8
0
 62
     0
 10
288.082
 20
78.9838
 30
0.0
 11
274.082
 21
78.9838
 31
0.0
  0
LINE
  8
0
 62
     0
 10
274.082
 20
78.9838
 30
0.0
 11
274.082
 21
92.9831
 31
0.0
  0
LINE
  8
0
 62
     0
 10
293.132
 20
92.9831
 30
0.0
 11
307.132
 21
92.9831
 31
0.0
  0
LINE
  8
0
 62
     0
 10
307.132
 20
92.9831
 30
0.0
 11
307.132
 21
78.9838
 31
0.0
  0
LINE
  8
0
 62
     0
 10
307.132
 20
78.9838
 30
0.0
 11
293.132
 21
78.9838
 31
0.0
  0
LINE
  8
0
 62
     0
 10
293.132
 20
78.9838
 30
0.0
 11
293.132
 21
92.9831
 31
0.0
  0
LINE
  8
0
 62
     0
 10
355.046
 20
92.9831
 30
0.0
 11
369.044
 21
92.9831
 31
0.0
  0
LINE
  8
0
 62
     0
 10
369.044
 20
92.9831
 30
0.0
 11
369.044
 21
78.9838
 31
0.0
  0
LINE
  8
0
 62
     0
 10
369.044
 20
78.9838
 30
0.0
 11
355.046
 21
78.9838
 31
0.0
  0
LINE
  8
0
 62
     0
 10
355.046
 20
78.9838
 30
0.0
 11
355.046
 21
92.9831
 31
0.0
  0
LINE
  8
0
 62
     0
 10
374.096
 20
92.9831
 30
0.0
 11
388.094
 21
92.9831
 31
0.0
  0
LINE
  8
0
 62
     0
 10
388.094
 20
92.9831
 30
0.0
 11
388.094
 21
78.9838
 31
0.0
  0
LINE
  8
0
 62
     0
 10
388.094
 20
78.9838
 30
0.0
 11
374.096
 21
78.9838
 31
0.0
  0
LINE
  8
0
 62
     0
 10
374.096
 20
78.9838
 30
0.0
 11
374.096
 21
92.9831
 31
0.0
  0
LINE
  8
0
 62
     0
 10
393.146
 20
92.9831
 30
0.0
 11
407.144
 21
92.9831
 31
0.0
  0
LINE
  8
0
 62
     0
 10
407.144
 20
92.9831
 30
0.0
 11
407.144
 21
78.9838
 31
0.0
  0
LINE
  8
0
 62
     0
 10
407.144
 20
78.9838
 30
0.0
 11
393.146
 21
78.9838
 31
0.0
  0
LINE
  8
0
 62
     0
 10
393.146
 20
78.9838
 30
0.0
 11
393.146
 21
92.9831
 31
0.0
  0
LINE
  8
0
 62
     0
 10
416.959
 20
92.9831
 30
0.0
 11
430.957
 21
92.9831
 31
0.0
  0
LINE
  8
0
 62
     0
 10
430.957
 20
92.9831
 30
0.0
 11
430.957
 21
78.9838
 31
0.0
  0
LINE
  8
0
 62
     0
 10
430.957
 20
78.9838
 30
0.0
 11
416.959
 21
78.9838
 31
0.0
  0
LINE
  8
0
 62
     0
 10
416.959
 20
78.9838
 30
0.0
 11
416.959
 21
92.9831
 31
0.0
  0
LINE
  8
0
 62
     0
 10
436.009
 20
92.9831
 30
0.0
 11
450.007
 21
92.9831
 31
0.0
  0
LINE
  8
0
 62
     0
 10
450.007
 20
92.9831
 30
0.0
 11
450.007
 21
78.9838
 31
0.0
  0
LINE
  8
0
 62
     0
 10
450.007
 20
78.9838
 30
0.0
 11
436.009
 21
78.9838
 31
0.0
  0
LINE
  8
0
 62
     0
 10
436.009
 20
78.9838
 30
0.0
 11
436.009
 21
92.9831
 31
0.0
  0
LINE
  8
0
 62
     0
 10
455.059
 20
92.9831
 30
0.0
 11
469.057
 21
92.9831
 31
0.0
  0
LINE
  8
0
 62
     0
 10
469.057
 20
92.9831
 30
0.0
 11
469.057
 21
78.9838
 31
0.0
  0
LINE
  8
0
 62
     0
 10
469.057
 20
78.9838
 30
0.0
 11
455.059
 21
78.9838
 31
0.0
  0
LINE
  8
0
 62
     0
 10
455.059
 20
78.9838
 30
0.0
 11
455.059
 21
92.9831
 31
0.0
  0
LINE
  8
0
 62
     0
 10
474.109
 20
92.9831
 30
0.0
 11
488.107
 21
92.9831
 31
0.0
  0
LINE
  8
0
 62
     0
 10
488.107
 20
92.9831
 30
0.0
 11
488.107
 21
78.9838
 31
0.0
  0
LINE
  8
0
 62
     0
 10
488.107
 20
78.9838
 30
0.0
 11
474.109
 21
78.9838
 31
0.0
  0
LINE
  8
0
 62
     0
 10
474.109
 20
78.9838
 30
0.0
 11
474.109
 21
92.9831
 31
0.0
  0
LINE
  8
0
 62
     0
 10
2.61965
 20
97.7456
 30
0.0
 11
16.6192
 21
97.7456
 31
0.0
  0
LINE
  8
0
 62
     0
 10
16.6192
 20
97.7456
 30
0.0
 11
16.6192
 21
83.7463
 31
0.0
  0
LINE
  8
0
 62
     0
 10
16.6192
 20
83.7463
 30
0.0
 11
2.61965
 21
83.7463
 31
0.0
  0
LINE
  8
0
 62
     0
 10
2.61965
 20
83.7463
 30
0.0
 11
2.61965
 21
97.7456
 31
0.0
  0
LINE
  8
0
 62
     0
 10
21.6697
 20
97.7456
 30
0.0
 11
35.669
 21
97.7456
 31
0.0
  0
LINE
  8
0
 62
     0
 10
35.669
 20
97.7456
 30
0.0
 11
35.669
 21
83.7463
 31
0.0
  0
LINE
  8
0
 62
     0
 10
35.669
 20
83.7463
 30
0.0
 11
21.6697
 21
83.7463
 31
0.0
  0
LINE
  8
0
 62
     0
 10
21.6697
 20
83.7463
 30
0.0
 11
21.6697
 21
97.7456
 31
0.0
  0
LINE
  8
0
 62
     0
 10
40.7197
 20
97.7456
 30
0.0
 11
54.719
 21
97.7456
 31
0.0
  0
LINE
  8
0
 62
     0
 10
54.719
 20
97.7456
 30
0.0
 11
54.719
 21
83.7463
 31
0.0
  0
LINE
  8
0
 62
     0
 10
54.719
 20
83.7463
 30
0.0
 11
40.7197
 21
83.7463
 31
0.0
  0
LINE
  8
0
 62
     0
 10
40.7197
 20
83.7463
 30
0.0
 11
40.7197
 21
97.7456
 31
0.0
  0
LINE
  8
0
 62
     0
 10
64.5322
 20
121.558
 30
0.0
 11
78.5315
 21
121.558
 31
0.0
  0
LINE
  8
0
 62
     0
 10
78.5315
 20
121.558
 30
0.0
 11
78.5315
 21
107.559
 31
0.0
  0
LINE
  8
0
 62
     0
 10
78.5315
 20
107.559
 30
0.0
 11
64.5322
 21
107.559
 31
0.0
  0
LINE
  8
0
 62
     0
 10
64.5322
 20
107.559
 30
0.0
 11
64.5322
 21
121.558
 31
0.0
  0
LINE
  8
0
 62
     0
 10
102.632
 20
121.558
 30
0.0
 11
116.632
 21
121.558
 31
0.0
  0
LINE
  8
0
 62
     0
 10
116.632
 20
121.558
 30
0.0
 11
116.632
 21
107.559
 31
0.0
  0
LINE
  8
0
 62
     0
 10
116.632
 20
107.559
 30
0.0
 11
102.632
 21
107.559
 31
0.0
  0
LINE
  8
0
 62
     0
 10
102.632
 20
107.559
 30
0.0
 11
102.632
 21
121.558
 31
0.0
  0
LINE
  8
0
 62
     0
 10
121.682
 20
121.558
 30
0.0
 11
135.682
 21
121.558
 31
0.0
  0
LINE
  8
0
 62
     0
 10
135.682
 20
121.558
 30
0.0
 11
135.682
 21
107.559
 31
0.0
  0
LINE
  8
0
 62
     0
 10
135.682
 20
107.559
 30
0.0
 11
121.682
 21
107.559
 31
0.0
  0
LINE
  8
0
 62
     0
 10
121.682
 20
107.559
 30
0.0
 11
121.682
 21
121.558
 31
0.0
  0
LINE
  8
0
 62
     0
 10
140.732
 20
121.558
 30
0.0
 11
154.732
 21
121.558
 31
0.0
  0
LINE
  8
0
 62
     0
 10
154.732
 20
121.558
 30
0.0
 11
154.732
 21
107.559
 31
0.0
  0
LINE
  8
0
 62
     0
 10
154.732
 20
107.559
 30
0.0
 11
140.732
 21
107.559
 31
0.0
  0
LINE
  8
0
 62
     0
 10
140.732
 20
107.559
 30
0.0
 11
140.732
 21
121.558
 31
0.0
  0
LINE
  8
0
 62
     0
 10
159.782
 20
121.558
 30
0.0
 11
173.782
 21
121.558
 31
0.0
  0
LINE
  8
0
 62
     0
 10
173.782
 20
121.558
 30
0.0
 11
173.782
 21
107.559
 31
0.0
  0
LINE
  8
0
 62
     0
 10
173.782
 20
107.559
 30
0.0
 11
159.782
 21
107.559
 31
0.0
  0
LINE
  8
0
 62
     0
 10
159.782
 20
107.559
 30
0.0
 11
159.782
 21
121.558
 31
0.0
  0
LINE
  8
0
 62
     0
 10
188.357
 20
121.558
 30
0.0
 11
202.357
 21
121.558
 31
0.0
  0
LINE
  8
0
 62
     0
 10
202.357
 20
121.558
 30
0.0
 11
202.357
 21
107.559
 31
0.0
  0
LINE
  8
0
 62
     0
 10
202.357
 20
107.559
 30
0.0
 11
188.357
 21
107.559
 31
0.0
  0
LINE
  8
0
 62
     0
 10
188.357
 20
107.559
 30
0.0
 11
188.357
 21
121.558
 31
0.0
  0
LINE
  8
0
 62
     0
 10
207.407
 20
121.558
 30
0.0
 11
221.407
 21
121.558
 31
0.0
  0
LINE
  8
0
 62
     0
 10
221.407
 20
121.558
 30
0.0
 11
221.407
 21
107.559
 31
0.0
  0
LINE
  8
0
 62
     0
 10
221.407
 20
107.559
 30
0.0
 11
207.407
 21
107.559
 31
0.0
  0
LINE
  8
0
 62
     0
 10
207.407
 20
107.559
 30
0.0
 11
207.407
 21
121.558
 31
0.0
  0
LINE
  8
0
 62
     0
 10
226.457
 20
121.558
 30
0.0
 11
240.457
 21
121.558
 31
0.0
  0
LINE
  8
0
 62
     0
 10
240.457
 20
121.558
 30
0.0
 11
240.457
 21
107.559
 31
0.0
  0
LINE
  8
0
 62
     0
 10
240.457
 20
107.559
 30
0.0
 11
226.457
 21
107.559
 31
0.0
  0
LINE
  8
0
 62
     0
 10
226.457
 20
107.559
 30
0.0
 11
226.457
 21
121.558
 31
0.0
  0
LINE
  8
0
 62
     0
 10
245.507
 20
121.558
 30
0.0
 11
259.507
 21
121.558
 31
0.0
  0
LINE
  8
0
 62
     0
 10
259.507
 20
121.558
 30
0.0
 11
259.507
 21
107.559
 31
0.0
  0
LINE
  8
0
 62
     0
 10
259.507
 20
107.559
 30
0.0
 11
245.507
 21
107.559
 31
0.0
  0
LINE
  8
0
 62
     0
 10
245.507
 20
107.559
 30
0.0
 11
245.507
 21
121.558
 31
0.0
  0
LINE
  8
0
 62
     0
 10
274.082
 20
121.558
 30
0.0
 11
288.082
 21
121.558
 31
0.0
  0
LINE
  8
0
 62
     0
 10
288.082
 20
121.558
 30
0.0
 11
288.082
 21
107.559
 31
0.0
  0
LINE
  8
0
 62
     0
 10
288.082
 20
107.559
 30
0.0
 11
274.082
 21
107.559
 31
0.0
  0
LINE
  8
0
 62
     0
 10
274.082
 20
107.559
 30
0.0
 11
274.082
 21
121.558
 31
0.0
  0
LINE
  8
0
 62
     0
 10
293.132
 20
121.558
 30
0.0
 11
307.132
 21
121.558
 31
0.0
  0
LINE
  8
0
 62
     0
 10
307.132
 20
121.558
 30
0.0
 11
307.132
 21
107.559
 31
0.0
  0
LINE
  8
0
 62
     0
 10
307.132
 20
107.559
 30
0.0
 11
293.132
 21
107.559
 31
0.0
  0
LINE
  8
0
 62
     0
 10
293.132
 20
107.559
 30
0.0
 11
293.132
 21
121.558
 31
0.0
  0
LINE
  8
0
 62
     0
 10
312.182
 20
121.558
 30
0.0
 11
326.182
 21
121.558
 31
0.0
  0
LINE
  8
0
 62
     0
 10
326.182
 20
121.558
 30
0.0
 11
326.182
 21
107.559
 31
0.0
  0
LINE
  8
0
 62
     0
 10
326.182
 20
107.559
 30
0.0
 11
312.182
 21
107.559
 31
0.0
  0
LINE
  8
0
 62
     0
 10
312.182
 20
107.559
 30
0.0
 11
312.182
 21
121.558
 31
0.0
  0
LINE
  8
0
 62
     0
 10
331.232
 20
121.558
 30
0.0
 11
345.232
 21
121.558
 31
0.0
  0
LINE
  8
0
 62
     0
 10
345.232
 20
121.558
 30
0.0
 11
345.232
 21
107.559
 31
0.0
  0
LINE
  8
0
 62
     0
 10
345.232
 20
107.559
 30
0.0
 11
331.232
 21
107.559
 31
0.0
  0
LINE
  8
0
 62
     0
 10
331.232
 20
107.559
 30
0.0
 11
331.232
 21
121.558
 31
0.0
  0
LINE
  8
0
 62
     0
 10
355.046
 20
121.558
 30
0.0
 11
369.044
 21
121.558
 31
0.0
  0
LINE
  8
0
 62
     0
 10
369.044
 20
121.558
 30
0.0
 11
369.044
 21
107.559
 31
0.0
  0
LINE
  8
0
 62
     0
 10
369.044
 20
107.559
 30
0.0
 11
355.046
 21
107.559
 31
0.0
  0
LINE
  8
0
 62
     0
 10
355.046
 20
107.559
 30
0.0
 11
355.046
 21
121.558
 31
0.0
  0
LINE
  8
0
 62
     0
 10
374.096
 20
121.558
 30
0.0
 11
388.094
 21
121.558
 31
0.0
  0
LINE
  8
0
 62
     0
 10
388.094
 20
121.558
 30
0.0
 11
388.094
 21
107.559
 31
0.0
  0
LINE
  8
0
 62
     0
 10
388.094
 20
107.559
 30
0.0
 11
374.096
 21
107.559
 31
0.0
  0
LINE
  8
0
 62
     0
 10
374.096
 20
107.559
 30
0.0
 11
374.096
 21
121.558
 31
0.0
  0
LINE
  8
0
 62
     0
 10
393.146
 20
121.558
 30
0.0
 11
407.144
 21
121.558
 31
0.0
  0
LINE
  8
0
 62
     0
 10
407.144
 20
121.558
 30
0.0
 11
407.144
 21
107.559
 31
0.0
  0
LINE
  8
0
 62
     0
 10
407.144
 20
107.559
 30
0.0
 11
393.146
 21
107.559
 31
0.0
  0
LINE
  8
0
 62
     0
 10
393.146
 20
107.559
 30
0.0
 11
393.146
 21
121.558
 31
0.0
  0
LINE
  8
0
 62
     0
 10
416.959
 20
121.558
 30
0.0
 11
430.957
 21
121.558
 31
0.0
  0
LINE
  8
0
 62
     0
 10
430.957
 20
121.558
 30
0.0
 11
430.957
 21
107.559
 31
0.0
  0
LINE
  8
0
 62
     0
 10
430.957
 20
107.559
 30
0.0
 11
416.959
 21
107.559
 31
0.0
  0
LINE
  8
0
 62
     0
 10
416.959
 20
107.559
 30
0.0
 11
416.959
 21
121.558
 31
0.0
  0
LINE
  8
0
 62
     0
 10
436.009
 20
121.558
 30
0.0
 11
450.007
 21
121.558
 31
0.0
  0
LINE
  8
0
 62
     0
 10
450.007
 20
121.558
 30
0.0
 11
450.007
 21
107.559
 31
0.0
  0
LINE
  8
0
 62
     0
 10
450.007
 20
107.559
 30
0.0
 11
436.009
 21
107.559
 31
0.0
  0
LINE
  8
0
 62
     0
 10
436.009
 20
107.559
 30
0.0
 11
436.009
 21
121.558
 31
0.0
  0
LINE
  8
0
 62
     0
 10
455.059
 20
121.558
 30
0.0
 11
469.057
 21
121.558
 31
0.0
  0
LINE
  8
0
 62
     0
 10
469.057
 20
121.558
 30
0.0
 11
469.057
 21
107.559
 31
0.0
  0
LINE
  8
0
 62
     0
 10
469.057
 20
107.559
 30
0.0
 11
455.059
 21
107.559
 31
0.0
  0
LINE
  8
0
 62
     0
 10
455.059
 20
107.559
 30
0.0
 11
455.059
 21
121.558
 31
0.0
  0
LINE
  8
0
 62
     0
 10
474.109
 20
121.558
 30
0.0
 11
488.107
 21
121.558
 31
0.0
  0
LINE
  8
0
 62
     0
 10
488.107
 20
121.558
 30
0.0
 11
488.107
 21
107.559
 31
0.0
  0
LINE
  8
0
 62
     0
 10
488.107
 20
107.559
 30
0.0
 11
474.109
 21
107.559
 31
0.0
  0
LINE
  8
0
 62
     0
 10
474.109
 20
107.559
 30
0.0
 11
474.109
 21
121.558
 31
0.0
  0
LINE
  8
0
 62
     0
 10
2.61965
 20
121.559
 30
0.0
 11
16.6192
 21
121.559
 31
0.0
  0
LINE
  8
0
 62
     0
 10
16.6192
 20
121.559
 30
0.0
 11
16.6192
 21
107.559
 31
0.0
  0
LINE
  8
0
 62
     0
 10
16.6192
 20
107.559
 30
0.0
 11
2.61965
 21
107.559
 31
0.0
  0
LINE
  8
0
 62
     0
 10
2.61965
 20
107.559
 30
0.0
 11
2.61965
 21
121.559
 31
0.0
  0
LINE
  8
0
 62
     0
 10
21.6697
 20
121.559
 30
0.0
 11
35.669
 21
121.559
 31
0.0
  0
LINE
  8
0
 62
     0
 10
35.669
 20
121.559
 30
0.0
 11
35.669
 21
107.559
 31
0.0
  0
LINE
  8
0
 62
     0
 10
35.669
 20
107.559
 30
0.0
 11
21.6697
 21
107.559
 31
0.0
  0
LINE
  8
0
 62
     0
 10
21.6697
 20
107.559
 30
0.0
 11
21.6697
 21
121.559
 31
0.0
  0
LINE
  8
0
 62
     0
 10
40.7197
 20
121.559
 30
0.0
 11
54.719
 21
121.559
 31
0.0
  0
LINE
  8
0
 62
     0
 10
54.719
 20
121.559
 30
0.0
 11
54.719
 21
107.559
 31
0.0
  0
LINE
  8
0
 62
     0
 10
54.719
 20
107.559
 30
0.0
 11
40.7197
 21
107.559
 31
0.0
  0
LINE
  8
0
 62
     0
 10
40.7197
 20
107.559
 30
0.0
 11
40.7197
 21
121.559
 31
0.0
  0
LINE
  8
0
 62
     0
 10
102.632
 20
140.608
 30
0.0
 11
116.632
 21
140.608
 31
0.0
  0
LINE
  8
0
 62
     0
 10
116.632
 20
140.608
 30
0.0
 11
116.632
 21
126.609
 31
0.0
  0
LINE
  8
0
 62
     0
 10
116.632
 20
126.609
 30
0.0
 11
102.632
 21
126.609
 31
0.0
  0
LINE
  8
0
 62
     0
 10
102.632
 20
126.609
 30
0.0
 11
102.632
 21
140.608
 31
0.0
  0
LINE
  8
0
 62
     0
 10
121.682
 20
140.608
 30
0.0
 11
135.682
 21
140.608
 31
0.0
  0
LINE
  8
0
 62
     0
 10
135.682
 20
140.608
 30
0.0
 11
135.682
 21
126.609
 31
0.0
  0
LINE
  8
0
 62
     0
 10
135.682
 20
126.609
 30
0.0
 11
121.682
 21
126.609
 31
0.0
  0
LINE
  8
0
 62
     0
 10
121.682
 20
126.609
 30
0.0
 11
121.682
 21
140.608
 31
0.0
  0
LINE
  8
0
 62
     0
 10
140.732
 20
140.608
 30
0.0
 11
154.732
 21
140.608
 31
0.0
  0
LINE
  8
0
 62
     0
 10
154.732
 20
140.608
 30
0.0
 11
154.732
 21
126.609
 31
0.0
  0
LINE
  8
0
 62
     0
 10
154.732
 20
126.609
 30
0.0
 11
140.732
 21
126.609
 31
0.0
  0
LINE
  8
0
 62
     0
 10
140.732
 20
126.609
 30
0.0
 11
140.732
 21
140.608
 31
0.0
  0
LINE
  8
0
 62
     0
 10
159.782
 20
140.608
 30
0.0
 11
173.782
 21
140.608
 31
0.0
  0
LINE
  8
0
 62
     0
 10
173.782
 20
140.608
 30
0.0
 11
173.782
 21
126.609
 31
0.0
  0
LINE
  8
0
 62
     0
 10
173.782
 20
126.609
 30
0.0
 11
159.782
 21
126.609
 31
0.0
  0
LINE
  8
0
 62
     0
 10
159.782
 20
126.609
 30
0.0
 11
159.782
 21
140.608
 31
0.0
  0
LINE
  8
0
 62
     0
 10
188.357
 20
140.608
 30
0.0
 11
202.357
 21
140.608
 31
0.0
  0
LINE
  8
0
 62
     0
 10
202.357
 20
140.608
 30
0.0
 11
202.357
 21
126.609
 31
0.0
  0
LINE
  8
0
 62
     0
 10
202.357
 20
126.609
 30
0.0
 11
188.357
 21
126.609
 31
0.0
  0
LINE
  8
0
 62
     0
 10
188.357
 20
126.609
 30
0.0
 11
188.357
 21
140.608
 31
0.0
  0
LINE
  8
0
 62
     0
 10
207.407
 20
140.608
 30
0.0
 11
221.407
 21
140.608
 31
0.0
  0
LINE
  8
0
 62
     0
 10
221.407
 20
140.608
 30
0.0
 11
221.407
 21
126.609
 31
0.0
  0
LINE
  8
0
 62
     0
 10
221.407
 20
126.609
 30
0.0
 11
207.407
 21
126.609
 31
0.0
  0
LINE
  8
0
 62
     0
 10
207.407
 20
126.609
 30
0.0
 11
207.407
 21
140.608
 31
0.0
  0
LINE
  8
0
 62
     0
 10
226.457
 20
140.608
 30
0.0
 11
240.457
 21
140.608
 31
0.0
  0
LINE
  8
0
 62
     0
 10
240.457
 20
140.608
 30
0.0
 11
240.457
 21
126.609
 31
0.0
  0
LINE
  8
0
 62
     0
 10
240.457
 20
126.609
 30
0.0
 11
226.457
 21
126.609
 31
0.0
  0
LINE
  8
0
 62
     0
 10
226.457
 20
126.609
 30
0.0
 11
226.457
 21
140.608
 31
0.0
  0
LINE
  8
0
 62
     0
 10
245.507
 20
140.608
 30
0.0
 11
259.507
 21
140.608
 31
0.0
  0
LINE
  8
0
 62
     0
 10
259.507
 20
140.608
 30
0.0
 11
259.507
 21
126.609
 31
0.0
  0
LINE
  8
0
 62
     0
 10
259.507
 20
126.609
 30
0.0
 11
245.507
 21
126.609
 31
0.0
  0
LINE
  8
0
 62
     0
 10
245.507
 20
126.609
 30
0.0
 11
245.507
 21
140.608
 31
0.0
  0
LINE
  8
0
 62
     0
 10
274.082
 20
140.608
 30
0.0
 11
288.082
 21
140.608
 31
0.0
  0
LINE
  8
0
 62
     0
 10
288.082
 20
140.608
 30
0.0
 11
288.082
 21
126.609
 31
0.0
  0
LINE
  8
0
 62
     0
 10
288.082
 20
126.609
 30
0.0
 11
274.082
 21
126.609
 31
0.0
  0
LINE
  8
0
 62
     0
 10
274.082
 20
126.609
 30
0.0
 11
274.082
 21
140.608
 31
0.0
  0
LINE
  8
0
 62
     0
 10
293.132
 20
140.608
 30
0.0
 11
307.132
 21
140.608
 31
0.0
  0
LINE
  8
0
 62
     0
 10
307.132
 20
140.608
 30
0.0
 11
307.132
 21
126.609
 31
0.0
  0
LINE
  8
0
 62
     0
 10
307.132
 20
126.609
 30
0.0
 11
293.132
 21
126.609
 31
0.0
  0
LINE
  8
0
 62
     0
 10
293.132
 20
126.609
 30
0.0
 11
293.132
 21
140.608
 31
0.0
  0
LINE
  8
0
 62
     0
 10
312.182
 20
140.608
 30
0.0
 11
326.182
 21
140.608
 31
0.0
  0
LINE
  8
0
 62
     0
 10
326.182
 20
140.608
 30
0.0
 11
326.182
 21
126.609
 31
0.0
  0
LINE
  8
0
 62
     0
 10
326.182
 20
126.609
 30
0.0
 11
312.182
 21
126.609
 31
0.0
  0
LINE
  8
0
 62
     0
 10
312.182
 20
126.609
 30
0.0
 11
312.182
 21
140.608
 31
0.0
  0
LINE
  8
0
 62
     0
 10
331.232
 20
140.608
 30
0.0
 11
345.232
 21
140.608
 31
0.0
  0
LINE
  8
0
 62
     0
 10
345.232
 20
140.608
 30
0.0
 11
345.232
 21
126.609
 31
0.0
  0
LINE
  8
0
 62
     0
 10
345.232
 20
126.609
 30
0.0
 11
331.232
 21
126.609
 31
0.0
  0
LINE
  8
0
 62
     0
 10
331.232
 20
126.609
 30
0.0
 11
331.232
 21
140.608
 31
0.0
  0
LINE
  8
0
 62
     0
 10
355.046
 20
140.608
 30
0.0
 11
369.044
 21
140.608
 31
0.0
  0
LINE
  8
0
 62
     0
 10
369.044
 20
140.608
 30
0.0
 11
369.044
 21
126.609
 31
0.0
  0
LINE
  8
0
 62
     0
 10
369.044
 20
126.609
 30
0.0
 11
355.046
 21
126.609
 31
0.0
  0
LINE
  8
0
 62
     0
 10
355.046
 20
126.609
 30
0.0
 11
355.046
 21
140.608
 31
0.0
  0
LINE
  8
0
 62
     0
 10
374.096
 20
140.608
 30
0.0
 11
388.094
 21
140.608
 31
0.0
  0
LINE
  8
0
 62
     0
 10
388.094
 20
140.608
 30
0.0
 11
388.094
 21
126.609
 31
0.0
  0
LINE
  8
0
 62
     0
 10
388.094
 20
126.609
 30
0.0
 11
374.096
 21
126.609
 31
0.0
  0
LINE
  8
0
 62
     0
 10
374.096
 20
126.609
 30
0.0
 11
374.096
 21
140.608
 31
0.0
  0
LINE
  8
0
 62
     0
 10
393.146
 20
140.608
 30
0.0
 11
407.144
 21
140.608
 31
0.0
  0
LINE
  8
0
 62
     0
 10
407.144
 20
140.608
 30
0.0
 11
407.144
 21
126.609
 31
0.0
  0
LINE
  8
0
 62
     0
 10
407.144
 20
126.609
 30
0.0
 11
393.146
 21
126.609
 31
0.0
  0
LINE
  8
0
 62
     0
 10
393.146
 20
126.609
 30
0.0
 11
393.146
 21
140.608
 31
0.0
  0
LINE
  8
0
 62
     0
 10
416.959
 20
140.608
 30
0.0
 11
430.957
 21
140.608
 31
0.0
  0
LINE
  8
0
 62
     0
 10
430.957
 20
140.608
 30
0.0
 11
430.957
 21
126.609
 31
0.0
  0
LINE
  8
0
 62
     0
 10
430.957
 20
126.609
 30
0.0
 11
416.959
 21
126.609
 31
0.0
  0
LINE
  8
0
 62
     0
 10
416.959
 20
126.609
 30
0.0
 11
416.959
 21
140.608
 31
0.0
  0
LINE
  8
0
 62
     0
 10
436.009
 20
140.608
 30
0.0
 11
450.007
 21
140.608
 31
0.0
  0
LINE
  8
0
 62
     0
 10
450.007
 20
140.608
 30
0.0
 11
450.007
 21
126.609
 31
0.0
  0
LINE
  8
0
 62
     0
 10
450.007
 20
126.609
 30
0.0
 11
436.009
 21
126.609
 31
0.0
  0
LINE
  8
0
 62
     0
 10
436.009
 20
126.609
 30
0.0
 11
436.009
 21
140.608
 31
0.0
  0
LINE
  8
0
 62
     0
 10
455.059
 20
140.608
 30
0.0
 11
469.057
 21
140.608
 31
0.0
  0
LINE
  8
0
 62
     0
 10
469.057
 20
140.608
 30
0.0
 11
469.057
 21
126.609
 31
0.0
  0
LINE
  8
0
 62
     0
 10
469.057
 20
126.609
 30
0.0
 11
455.059
 21
126.609
 31
0.0
  0
LINE
  8
0
 62
     0
 10
455.059
 20
126.609
 30
0.0
 11
455.059
 21
140.608
 31
0.0
  0
LINE
  8
0
 62
     0
 10
474.109
 20
140.608
 30
0.0
 11
488.107
 21
140.608
 31
0.0
  0
LINE
  8
0
 62
     0
 10
488.107
 20
140.608
 30
0.0
 11
488.107
 21
126.609
 31
0.0
  0
LINE
  8
0
 62
     0
 10
488.107
 20
126.609
 30
0.0
 11
474.109
 21
126.609
 31
0.0
  0
LINE
  8
0
 62
     0
 10
474.109
 20
126.609
 30
0.0
 11
474.109
 21
140.608
 31
0.0
  0
LINE
  8
0
 62
     0
 10
2.61965
 20
140.609
 30
0.0
 11
16.6192
 21
140.609
 31
0.0
  0
LINE
  8
0
 62
     0
 10
16.6192
 20
140.609
 30
0.0
 11
16.6192
 21
126.609
 31
0.0
  0
LINE
  8
0
 62
     0
 10
16.6192
 20
126.609
 30
0.0
 11
2.61965
 21
126.609
 31
0.0
  0
LINE
  8
0
 62
     0
 10
2.61965
 20
126.609
 30
0.0
 11
2.61965
 21
140.609
 31
0.0
  0
LINE
  8
0
 62
     0
 10
21.6697
 20
140.609
 30
0.0
 11
35.669
 21
140.609
 31
0.0
  0
LINE
  8
0
 62
     0
 10
35.669
 20
140.609
 30
0.0
 11
35.669
 21
126.609
 31
0.0
  0
LINE
  8
0
 62
     0
 10
35.669
 20
126.609
 30
0.0
 11
21.6697
 21
126.609
 31
0.0
  0
LINE
  8
0
 62
     0
 10
21.6697
 20
126.609
 30
0.0
 11
21.6697
 21
140.609
 31
0.0
  0
LINE
  8
0
 62
     0
 10
40.7197
 20
140.609
 30
0.0
 11
54.719
 21
140.609
 31
0.0
  0
LINE
  8
0
 62
     0
 10
54.719
 20
140.609
 30
0.0
 11
54.719
 21
126.609
 31
0.0
  0
LINE
  8
0
 62
     0
 10
54.719
 20
126.609
 30
0.0
 11
40.7197
 21
126.609
 31
0.0
  0
LINE
  8
0
 62
     0
 10
40.7197
 20
126.609
 30
0.0
 11
40.7197
 21
140.609
 31
0.0
  0
ENDSEC
  0
EOF
