<?xml version="1.0"?>
<!-- Generated by SVGo -->
<svg width="500.540mm" height="152.877mm"
     viewBox="0.000 0.000 500.540 152.877"
     xmlns="http://www.w3.org/2000/svg" 
     xmlns:xlink="http://www.w3.org/1999/xlink">
<polygon points="495.539,147.877 5.001,147.877 5.001,5.001 495.539,5.001" style="fill:none;stroke-width:0.050000mm;stroke:black"/>
<polygon points="190.882,131.351 190.882,136.050 151.257,136.050 151.257,132.821 144.507,132.821 144.507,136.050 143.682,136.050 143.682,138.851 144.507,138.851 144.507,145.121 146.232,145.121 146.232,146.321 149.532,146.321 149.532,145.121 151.257,145.121 151.257,140.651 190.882,140.651 190.882,145.351 204.882,145.351 204.882,140.651 244.507,140.651 244.507,145.121 246.232,145.121 246.232,146.321 249.532,146.321 249.532,145.121 251.257,145.121 251.257,138.851 252.082,138.851 252.082,136.050 251.257,136.050 251.257,132.821 244.507,132.821 244.507,136.050 204.882,136.050 204.882,131.351" style="fill:none;stroke-width:0.050000mm;stroke:black"/>
<polygon points="431.388,131.351 431.388,136.050 429.863,136.050 429.863,132.821 423.113,132.821 423.113,136.050 422.288,136.050 422.288,138.851 423.113,138.851 423.113,145.121 424.838,145.121 424.838,146.321 428.138,146.321 428.138,145.121 429.863,145.121 429.863,140.651 431.388,140.651 431.388,145.351 445.388,145.351 445.388,140.651 446.913,140.651 446.913,145.121 448.638,145.121 448.638,146.321 451.938,146.321 451.938,145.121 453.663,145.121 453.663,138.851 454.488,138.851 454.488,136.050 453.663,136.050 453.663,132.821 446.913,132.821 446.913,136.050 445.388,136.050 445.388,131.351" style="fill:none;stroke-width:0.050000mm;stroke:black"/>
<polygon points="71.819,131.351 71.819,145.351 85.819,145.351 85.819,131.351" style="fill:none;stroke-width:0.050000mm;stroke:black"/>
<polygon points="95.632,131.351 95.632,145.351 109.632,145.351 109.632,131.351" style="fill:none;stroke-width:0.050000mm;stroke:black"/>
<polygon points="119.444,131.351 119.444,145.351 133.444,145.351 133.444,131.351" style="fill:none;stroke-width:0.050000mm;stroke:black"/>
<polygon points="262.319,131.351 262.319,145.351 276.319,145.351 276.319,131.351" style="fill:none;stroke-width:0.050000mm;stroke:black"/>
<polygon points="286.132,131.351 286.132,145.351 300.132,145.351 300.132,131.351" style="fill:none;stroke-width:0.050000mm;stroke:black"/>
<polygon points="309.944,131.351 309.944,145.351 323.944,145.351 323.944,131.351" style="fill:none;stroke-width:0.050000mm;stroke:black"/>
<polygon points="333.757,131.351 333.757,145.351 347.757,145.351 347.757,131.351" style="fill:none;stroke-width:0.050000mm;stroke:black"/>
<polygon points="359.951,131.351 359.951,145.351 373.951,145.351 373.951,131.351" style="fill:none;stroke-width:0.050000mm;stroke:black"/>
<polygon points="379.001,131.351 379.001,145.351 393.001,145.351 393.001,131.351" style="fill:none;stroke-width:0.050000mm;stroke:black"/>
<polygon points="398.051,131.351 398.051,145.351 412.051,145.351 412.051,131.351" style="fill:none;stroke-width:0.050000mm;stroke:black"/>
<polygon points="459.963,131.351 459.963,145.351 473.963,145.351 473.963,131.351" style="fill:none;stroke-width:0.050000mm;stroke:black"/>
<polygon points="7.526,131.351 7.526,145.351 21.526,145.351 21.526,131.351" style="fill:none;stroke-width:0.050000mm;stroke:black"/>
<polygon points="26.576,131.351 26.576,145.351 40.576,145.351 40.576,131.351" style="fill:none;stroke-width:0.050000mm;stroke:black"/>
<polygon points="45.626,131.351 45.626,145.351 59.626,145.351 59.626,131.351" style="fill:none;stroke-width:0.050000mm;stroke:black"/>
<polygon points="485.513,112.726 485.513,113.550 479.243,113.550 479.243,115.275 478.043,115.275 478.043,118.575 479.243,118.575 479.243,120.300 483.713,120.300 483.713,121.825 479.013,121.825 479.013,135.826 483.713,135.826 483.713,137.351 479.243,137.351 479.243,139.076 478.043,139.076 478.043,142.376 479.243,142.376 479.243,144.101 485.513,144.101 485.513,144.925 488.313,144.925 488.313,144.101 491.543,144.101 491.543,137.351 488.313,137.351 488.313,135.826 493.013,135.826 493.013,121.825 488.313,121.825 488.313,120.300 491.543,120.300 491.543,113.550 488.313,113.550 488.313,112.726" style="fill:none;stroke-width:0.050000mm;stroke:black"/>
<polygon points="81.344,112.301 81.344,117.001 79.819,117.001 79.819,113.771 73.069,113.771 73.069,117.001 72.244,117.001 72.244,119.801 73.069,119.801 73.069,126.071 74.794,126.071 74.794,127.271 78.094,127.271 78.094,126.071 79.819,126.071 79.819,121.601 81.344,121.601 81.344,126.301 95.344,126.301 95.344,121.601 96.869,121.601 96.869,126.071 98.594,126.071 98.594,127.271 101.894,127.271 101.894,126.071 103.619,126.071 103.619,119.801 104.444,119.801 104.444,117.001 103.619,117.001 103.619,113.771 96.869,113.771 96.869,117.001 95.344,117.001 95.344,112.301" style="fill:none;stroke-width:0.050000mm;stroke:black"/>
<polygon points="319.469,112.301 319.469,117.001 317.944,117.001 317.944,113.771 311.194,113.771 311.194,117.001 310.369,117.001 310.369,119.801 311.194,119.801 311.194,126.071 312.919,126.071 312.919,127.271 316.219,127.271 316.219,126.071 317.944,126.071 317.944,121.601 319.469,121.601 319.469,126.301 333.469,126.301 333.469,121.601 334.994,121.601 334.994,126.071 336.719,126.071 336.719,127.271 340.019,127.271 340.019,126.071 341.744,126.071 341.744,119.801 342.569,119.801 342.569,117.001 341.744,117.001 341.744,113.771 334.994,113.771 334.994,117.001 333.469,117.001 333.469,112.301" style="fill:none;stroke-width:0.050000mm;stroke:black"/>
<polygon points="112.301,112.301 112.301,126.301 126.301,126.301 126.301,112.301" style="fill:none;stroke-width:0.050000mm;stroke:black"/>
<polygon points="131.351,112.301 131.351,126.301 145.351,126.301 145.351,112.301" style="fill:none;stroke-width:0.050000mm;stroke:black"/>
<polygon points="150.401,112.301 150.401,126.301 164.401,126.301 164.401,112.301" style="fill:none;stroke-width:0.050000mm;stroke:black"/>
<polygon points="169.451,112.301 169.451,126.301 183.451,126.301 183.451,112.301" style="fill:none;stroke-width:0.050000mm;stroke:black"/>
<polygon points="188.501,112.301 188.501,126.301 202.501,126.301 202.501,112.301" style="fill:none;stroke-width:0.050000mm;stroke:black"/>
<polygon points="207.551,112.301 207.551,126.301 221.551,126.301 221.551,112.301" style="fill:none;stroke-width:0.050000mm;stroke:black"/>
<polygon points="226.601,112.301 226.601,126.301 240.601,126.301 240.601,112.301" style="fill:none;stroke-width:0.050000mm;stroke:black"/>
<polygon points="245.651,112.301 245.651,126.301 259.650,126.301 259.650,112.301" style="fill:none;stroke-width:0.050000mm;stroke:black"/>
<polygon points="264.701,112.301 264.701,126.301 278.701,126.301 278.701,112.301" style="fill:none;stroke-width:0.050000mm;stroke:black"/>
<polygon points="283.751,112.301 283.751,126.301 297.751,126.301 297.751,112.301" style="fill:none;stroke-width:0.050000mm;stroke:black"/>
<polygon points="379.001,112.301 379.001,126.301 393.001,126.301 393.001,112.301" style="fill:none;stroke-width:0.050000mm;stroke:black"/>
<polygon points="421.863,112.301 421.863,126.301 435.863,126.301 435.863,112.301" style="fill:none;stroke-width:0.050000mm;stroke:black"/>
<polygon points="440.913,112.301 440.913,126.301 454.913,126.301 454.913,112.301" style="fill:none;stroke-width:0.050000mm;stroke:black"/>
<polygon points="459.963,112.301 459.963,126.301 473.963,126.301 473.963,112.301" style="fill:none;stroke-width:0.050000mm;stroke:black"/>
<polygon points="7.526,112.300 7.526,126.300 21.526,126.300 21.526,112.300" style="fill:none;stroke-width:0.050000mm;stroke:black"/>
<polygon points="26.576,112.300 26.576,126.300 40.576,126.300 40.576,112.300" style="fill:none;stroke-width:0.050000mm;stroke:black"/>
<polygon points="45.626,112.300 45.626,126.300 59.626,126.300 59.626,112.300" style="fill:none;stroke-width:0.050000mm;stroke:black"/>
<polygon points="324.232,93.251 324.232,97.951 322.707,97.951 322.707,94.721 315.957,94.721 315.957,97.951 315.132,97.951 315.132,100.751 315.957,100.751 315.957,107.021 317.682,107.021 317.682,108.221 320.982,108.221 320.982,107.021 322.707,107.021 322.707,102.551 324.232,102.551 324.232,107.251 338.232,107.251 338.232,102.551 339.757,102.551 339.757,107.021 341.482,107.021 341.482,108.221 344.782,108.221 344.782,107.021 346.507,107.021 346.507,100.751 347.332,100.751 347.332,97.951 346.507,97.951 346.507,94.721 339.757,94.721 339.757,97.951 338.232,97.951 338.232,93.251" style="fill:none;stroke-width:0.050000mm;stroke:black"/>
<polygon points="76.582,93.251 76.582,107.251 90.582,107.251 90.582,93.251" style="fill:none;stroke-width:0.050000mm;stroke:black"/>
<polygon points="102.776,93.251 102.776,107.251 116.776,107.251 116.776,93.251" style="fill:none;stroke-width:0.050000mm;stroke:black"/>
<polygon points="121.826,93.251 121.826,107.251 135.826,107.251 135.826,93.251" style="fill:none;stroke-width:0.050000mm;stroke:black"/>
<polygon points="140.876,93.251 140.876,107.251 154.876,107.251 154.876,93.251" style="fill:none;stroke-width:0.050000mm;stroke:black"/>
<polygon points="159.926,93.251 159.926,107.251 173.926,107.251 173.926,93.251" style="fill:none;stroke-width:0.050000mm;stroke:black"/>
<polygon points="178.976,93.251 178.976,107.251 192.976,107.251 192.976,93.251" style="fill:none;stroke-width:0.050000mm;stroke:black"/>
<polygon points="198.026,93.251 198.026,107.251 212.026,107.251 212.026,93.251" style="fill:none;stroke-width:0.050000mm;stroke:black"/>
<polygon points="217.076,93.251 217.076,107.251 231.076,107.251 231.076,93.251" style="fill:none;stroke-width:0.050000mm;stroke:black"/>
<polygon points="236.126,93.251 236.126,107.251 250.126,107.251 250.126,93.251" style="fill:none;stroke-width:0.050000mm;stroke:black"/>
<polygon points="255.176,93.251 255.176,107.251 269.176,107.251 269.176,93.251" style="fill:none;stroke-width:0.050000mm;stroke:black"/>
<polygon points="274.226,93.251 274.226,107.251 288.226,107.251 288.226,93.251" style="fill:none;stroke-width:0.050000mm;stroke:black"/>
<polygon points="293.276,93.251 293.276,107.251 307.276,107.251 307.276,93.251" style="fill:none;stroke-width:0.050000mm;stroke:black"/>
<polygon points="421.863,93.251 421.863,107.251 435.863,107.251 435.863,93.251" style="fill:none;stroke-width:0.050000mm;stroke:black"/>
<polygon points="440.913,93.251 440.913,107.251 454.913,107.251 454.913,93.251" style="fill:none;stroke-width:0.050000mm;stroke:black"/>
<polygon points="459.963,93.251 459.963,107.251 473.963,107.251 473.963,93.251" style="fill:none;stroke-width:0.050000mm;stroke:black"/>
<polygon points="485.513,74.626 485.513,75.451 479.243,75.451 479.243,77.176 478.043,77.176 478.043,80.476 479.243,80.476 479.243,82.201 483.713,82.201 483.713,83.726 479.013,83.726 479.013,97.726 483.713,97.726 483.713,99.251 479.243,99.251 479.243,100.976 478.043,100.976 478.043,104.276 479.243,104.276 479.243,106.001 485.513,106.001 485.513,106.826 488.313,106.826 488.313,106.001 491.543,106.001 491.543,99.251 488.313,99.251 488.313,97.726 493.013,97.726 493.013,83.726 488.313,83.726 488.313,82.201 491.543,82.201 491.543,75.451 488.313,75.451 488.313,74.626" style="fill:none;stroke-width:0.050000mm;stroke:black"/>
<polygon points="7.526,88.488 7.526,102.488 21.526,102.488 21.526,88.488" style="fill:none;stroke-width:0.050000mm;stroke:black"/>
<polygon points="26.576,88.488 26.576,102.488 40.576,102.488 40.576,88.488" style="fill:none;stroke-width:0.050000mm;stroke:black"/>
<polygon points="45.626,88.488 45.626,102.488 59.626,102.488 59.626,88.488" style="fill:none;stroke-width:0.050000mm;stroke:black"/>
<polygon points="74.200,74.201 74.200,88.201 88.200,88.201 88.200,74.201" style="fill:none;stroke-width:0.050000mm;stroke:black"/>
<polygon points="98.013,74.201 98.013,88.201 112.013,88.201 112.013,74.201" style="fill:none;stroke-width:0.050000mm;stroke:black"/>
<polygon points="117.063,74.201 117.063,88.201 131.063,88.201 131.063,74.201" style="fill:none;stroke-width:0.050000mm;stroke:black"/>
<polygon points="136.113,74.201 136.113,88.201 150.113,88.201 150.113,74.201" style="fill:none;stroke-width:0.050000mm;stroke:black"/>
<polygon points="155.163,74.201 155.163,88.201 169.163,88.201 169.163,74.201" style="fill:none;stroke-width:0.050000mm;stroke:black"/>
<polygon points="174.213,74.201 174.213,88.201 188.213,88.201 188.213,74.201" style="fill:none;stroke-width:0.050000mm;stroke:black"/>
<polygon points="193.263,74.201 193.263,88.201 207.263,88.201 207.263,74.201" style="fill:none;stroke-width:0.050000mm;stroke:black"/>
<polygon points="212.313,74.201 212.313,88.201 226.313,88.201 226.313,74.201" style="fill:none;stroke-width:0.050000mm;stroke:black"/>
<polygon points="231.363,74.201 231.363,88.201 245.363,88.201 245.363,74.201" style="fill:none;stroke-width:0.050000mm;stroke:black"/>
<polygon points="250.413,74.201 250.413,88.201 264.413,88.201 264.413,74.201" style="fill:none;stroke-width:0.050000mm;stroke:black"/>
<polygon points="269.463,74.201 269.463,88.201 283.463,88.201 283.463,74.201" style="fill:none;stroke-width:0.050000mm;stroke:black"/>
<polygon points="288.513,74.201 288.513,88.201 302.513,88.201 302.513,74.201" style="fill:none;stroke-width:0.050000mm;stroke:black"/>
<polygon points="307.563,74.201 307.563,88.201 321.563,88.201 321.563,74.201" style="fill:none;stroke-width:0.050000mm;stroke:black"/>
<polygon points="331.376,74.201 331.376,88.201 345.376,88.201 345.376,74.201" style="fill:none;stroke-width:0.050000mm;stroke:black"/>
<polygon points="359.951,74.201 359.951,88.201 373.951,88.201 373.951,74.201" style="fill:none;stroke-width:0.050000mm;stroke:black"/>
<polygon points="379.001,74.201 379.001,88.201 393.001,88.201 393.001,74.201" style="fill:none;stroke-width:0.050000mm;stroke:black"/>
<polygon points="398.051,74.201 398.051,88.201 412.051,88.201 412.051,74.201" style="fill:none;stroke-width:0.050000mm;stroke:black"/>
<polygon points="421.863,74.201 421.863,88.201 435.863,88.201 435.863,74.201" style="fill:none;stroke-width:0.050000mm;stroke:black"/>
<polygon points="440.913,74.201 440.913,88.201 454.913,88.201 454.913,74.201" style="fill:none;stroke-width:0.050000mm;stroke:black"/>
<polygon points="459.963,74.201 459.963,88.201 473.963,88.201 473.963,74.201" style="fill:none;stroke-width:0.050000mm;stroke:black"/>
<polygon points="7.526,69.438 7.526,83.438 21.526,83.438 21.526,69.438" style="fill:none;stroke-width:0.050000mm;stroke:black"/>
<polygon points="26.576,69.438 26.576,83.438 40.576,83.438 40.576,69.438" style="fill:none;stroke-width:0.050000mm;stroke:black"/>
<polygon points="45.626,69.438 45.626,83.438 59.626,83.438 59.626,69.438" style="fill:none;stroke-width:0.050000mm;stroke:black"/>
<polygon points="326.613,55.151 326.613,59.851 325.088,59.851 325.088,56.621 318.338,56.621 318.338,59.851 317.513,59.851 317.513,62.651 318.338,62.651 318.338,68.921 320.063,68.921 320.063,70.121 323.363,70.121 323.363,68.921 325.088,68.921 325.088,64.451 326.613,64.451 326.613,69.151 340.613,69.151 340.613,64.451 342.138,64.451 342.138,68.921 343.863,68.921 343.863,70.121 347.163,70.121 347.163,68.921 348.888,68.921 348.888,62.651 349.713,62.651 349.713,59.851 348.888,59.851 348.888,56.621 342.138,56.621 342.138,59.851 340.613,59.851 340.613,55.151" style="fill:none;stroke-width:0.050000mm;stroke:black"/>
<polygon points="69.438,55.151 69.438,69.151 83.438,69.151 83.438,55.151" style="fill:none;stroke-width:0.050000mm;stroke:black"/>
<polygon points="88.488,55.151 88.488,69.151 102.488,69.151 102.488,55.151" style="fill:none;stroke-width:0.050000mm;stroke:black"/>
<polygon points="107.538,55.151 107.538,69.151 121.538,69.151 121.538,55.151" style="fill:none;stroke-width:0.050000mm;stroke:black"/>
<polygon points="126.588,55.151 126.588,69.151 140.588,69.151 140.588,55.151" style="fill:none;stroke-width:0.050000mm;stroke:black"/>
<polygon points="145.638,55.151 145.638,69.151 159.638,69.151 159.638,55.151" style="fill:none;stroke-width:0.050000mm;stroke:black"/>
<polygon points="164.688,55.151 164.688,69.151 178.688,69.151 178.688,55.151" style="fill:none;stroke-width:0.050000mm;stroke:black"/>
<polygon points="183.738,55.151 183.738,69.151 197.738,69.151 197.738,55.151" style="fill:none;stroke-width:0.050000mm;stroke:black"/>
<polygon points="202.788,55.151 202.788,69.151 216.788,69.151 216.788,55.151" style="fill:none;stroke-width:0.050000mm;stroke:black"/>
<polygon points="221.838,55.151 221.838,69.151 235.838,69.151 235.838,55.151" style="fill:none;stroke-width:0.050000mm;stroke:black"/>
<polygon points="240.888,55.151 240.888,69.151 254.888,69.151 254.888,55.151" style="fill:none;stroke-width:0.050000mm;stroke:black"/>
<polygon points="259.938,55.151 259.938,69.151 273.938,69.151 273.938,55.151" style="fill:none;stroke-width:0.050000mm;stroke:black"/>
<polygon points="278.988,55.151 278.988,69.151 292.988,69.151 292.988,55.151" style="fill:none;stroke-width:0.050000mm;stroke:black"/>
<polygon points="298.038,55.151 298.038,69.151 312.038,69.151 312.038,55.151" style="fill:none;stroke-width:0.050000mm;stroke:black"/>
<polygon points="359.951,55.151 359.951,69.151 373.951,69.151 373.951,55.151" style="fill:none;stroke-width:0.050000mm;stroke:black"/>
<polygon points="379.001,55.151 379.001,69.151 393.001,69.151 393.001,55.151" style="fill:none;stroke-width:0.050000mm;stroke:black"/>
<polygon points="398.051,55.151 398.051,69.151 412.051,69.151 412.051,55.151" style="fill:none;stroke-width:0.050000mm;stroke:black"/>
<polygon points="421.863,55.151 421.863,69.151 435.863,69.151 435.863,55.151" style="fill:none;stroke-width:0.050000mm;stroke:black"/>
<polygon points="440.913,55.151 440.913,69.151 454.913,69.151 454.913,55.151" style="fill:none;stroke-width:0.050000mm;stroke:black"/>
<polygon points="459.963,55.151 459.963,69.151 473.963,69.151 473.963,55.151" style="fill:none;stroke-width:0.050000mm;stroke:black"/>
<polygon points="479.013,55.151 479.013,69.151 493.013,69.151 493.013,55.151" style="fill:none;stroke-width:0.050000mm;stroke:black"/>
<polygon points="7.526,50.388 7.526,64.388 21.526,64.388 21.526,50.388" style="fill:none;stroke-width:0.050000mm;stroke:black"/>
<polygon points="26.576,50.388 26.576,64.388 40.576,64.388 40.576,50.388" style="fill:none;stroke-width:0.050000mm;stroke:black"/>
<polygon points="45.626,50.388 45.626,64.388 59.626,64.388 59.626,50.388" style="fill:none;stroke-width:0.050000mm;stroke:black"/>
<polygon points="69.438,26.576 69.438,40.576 83.438,40.576 83.438,26.576" style="fill:none;stroke-width:0.050000mm;stroke:black"/>
<polygon points="107.538,26.576 107.538,40.576 121.538,40.576 121.538,26.576" style="fill:none;stroke-width:0.050000mm;stroke:black"/>
<polygon points="126.588,26.576 126.588,40.576 140.588,40.576 140.588,26.576" style="fill:none;stroke-width:0.050000mm;stroke:black"/>
<polygon points="145.638,26.576 145.638,40.576 159.638,40.576 159.638,26.576" style="fill:none;stroke-width:0.050000mm;stroke:black"/>
<polygon points="164.688,26.576 164.688,40.576 178.688,40.576 178.688,26.576" style="fill:none;stroke-width:0.050000mm;stroke:black"/>
<polygon points="193.263,26.576 193.263,40.576 207.263,40.576 207.263,26.576" style="fill:none;stroke-width:0.050000mm;stroke:black"/>
<polygon points="212.313,26.576 212.313,40.576 226.313,40.576 226.313,26.576" style="fill:none;stroke-width:0.050000mm;stroke:black"/>
<polygon points="231.363,26.576 231.363,40.576 245.363,40.576 245.363,26.576" style="fill:none;stroke-width:0.050000mm;stroke:black"/>
<polygon points="250.413,26.576 250.413,40.576 264.413,40.576 264.413,26.576" style="fill:none;stroke-width:0.050000mm;stroke:black"/>
<polygon points="278.988,26.576 278.988,40.576 292.988,40.576 292.988,26.576" style="fill:none;stroke-width:0.050000mm;stroke:black"/>
<polygon points="298.038,26.576 298.038,40.576 312.038,40.576 312.038,26.576" style="fill:none;stroke-width:0.050000mm;stroke:black"/>
<polygon points="317.088,26.576 317.088,40.576 331.088,40.576 331.088,26.576" style="fill:none;stroke-width:0.050000mm;stroke:black"/>
<polygon points="336.138,26.576 336.138,40.576 350.138,40.576 350.138,26.576" style="fill:none;stroke-width:0.050000mm;stroke:black"/>
<polygon points="359.951,26.576 359.951,40.576 373.951,40.576 373.951,26.576" style="fill:none;stroke-width:0.050000mm;stroke:black"/>
<polygon points="379.001,26.576 379.001,40.576 393.001,40.576 393.001,26.576" style="fill:none;stroke-width:0.050000mm;stroke:black"/>
<polygon points="398.051,26.576 398.051,40.576 412.051,40.576 412.051,26.576" style="fill:none;stroke-width:0.050000mm;stroke:black"/>
<polygon points="421.863,26.576 421.863,40.576 435.863,40.576 435.863,26.576" style="fill:none;stroke-width:0.050000mm;stroke:black"/>
<polygon points="440.913,26.576 440.913,40.576 454.913,40.576 454.913,26.576" style="fill:none;stroke-width:0.050000mm;stroke:black"/>
<polygon points="459.963,26.576 459.963,40.576 473.963,40.576 473.963,26.576" style="fill:none;stroke-width:0.050000mm;stroke:black"/>
<polygon points="479.013,26.576 479.013,40.576 493.013,40.576 493.013,26.576" style="fill:none;stroke-width:0.050000mm;stroke:black"/>
<polygon points="7.526,26.575 7.526,40.575 21.526,40.575 21.526,26.575" style="fill:none;stroke-width:0.050000mm;stroke:black"/>
<polygon points="26.576,26.575 26.576,40.575 40.576,40.575 40.576,26.575" style="fill:none;stroke-width:0.050000mm;stroke:black"/>
<polygon points="45.626,26.575 45.626,40.575 59.626,40.575 59.626,26.575" style="fill:none;stroke-width:0.050000mm;stroke:black"/>
<polygon points="107.538,7.526 107.538,21.526 121.538,21.526 121.538,7.526" style="fill:none;stroke-width:0.050000mm;stroke:black"/>
<polygon points="126.588,7.526 126.588,21.526 140.588,21.526 140.588,7.526" style="fill:none;stroke-width:0.050000mm;stroke:black"/>
<polygon points="145.638,7.526 145.638,21.526 159.638,21.526 159.638,7.526" style="fill:none;stroke-width:0.050000mm;stroke:black"/>
<polygon points="164.688,7.526 164.688,21.526 178.688,21.526 178.688,7.526" style="fill:none;stroke-width:0.050000mm;stroke:black"/>
<polygon points="193.263,7.526 193.263,21.526 207.263,21.526 207.263,7.526" style="fill:none;stroke-width:0.050000mm;stroke:black"/>
<polygon points="212.313,7.526 212.313,21.526 226.313,21.526 226.313,7.526" style="fill:none;stroke-width:0.050000mm;stroke:black"/>
<polygon points="231.363,7.526 231.363,21.526 245.363,21.526 245.363,7.526" style="fill:none;stroke-width:0.050000mm;stroke:black"/>
<polygon points="250.413,7.526 250.413,21.526 264.413,21.526 264.413,7.526" style="fill:none;stroke-width:0.050000mm;stroke:black"/>
<polygon points="278.988,7.526 278.988,21.526 292.988,21.526 292.988,7.526" style="fill:none;stroke-width:0.050000mm;stroke:black"/>
<polygon points="298.038,7.526 298.038,21.526 312.038,21.526 312.038,7.526" style="fill:none;stroke-width:0.050000mm;stroke:black"/>
<polygon points="317.088,7.526 317.088,21.526 331.088,21.526 331.088,7.526" style="fill:none;stroke-width:0.050000mm;stroke:black"/>
<polygon points="336.138,7.526 336.138,21.526 350.138,21.526 350.138,7.526" style="fill:none;stroke-width:0.050000mm;stroke:black"/>
<polygon points="359.951,7.526 359.951,21.526 373.951,21.526 373.951,7.526" style="fill:none;stroke-width:0.050000mm;stroke:black"/>
<polygon points="379.001,7.526 379.001,21.526 393.001,21.526 393.001,7.526" style="fill:none;stroke-width:0.050000mm;stroke:black"/>
<polygon points="398.051,7.526 398.051,21.526 412.051,21.526 412.051,7.526" style="fill:none;stroke-width:0.050000mm;stroke:black"/>
<polygon points="421.863,7.526 421.863,21.526 435.863,21.526 435.863,7.526" style="fill:none;stroke-width:0.050000mm;stroke:black"/>
<polygon points="440.913,7.526 440.913,21.526 454.913,21.526 454.913,7.526" style="fill:none;stroke-width:0.050000mm;stroke:black"/>
<polygon points="459.963,7.526 459.963,21.526 473.963,21.526 473.963,7.526" style="fill:none;stroke-width:0.050000mm;stroke:black"/>
<polygon points="479.013,7.526 479.013,21.526 493.013,21.526 493.013,7.526" style="fill:none;stroke-width:0.050000mm;stroke:black"/>
<polygon points="7.526,7.525 7.526,21.525 21.526,21.525 21.526,7.525" style="fill:none;stroke-width:0.050000mm;stroke:black"/>
<polygon points="26.576,7.525 26.576,21.525 40.576,21.525 40.576,7.525" style="fill:none;stroke-width:0.050000mm;stroke:black"/>
<polygon points="45.626,7.525 45.626,21.525 59.626,21.525 59.626,7.525" style="fill:none;stroke-width:0.050000mm;stroke:black"/>
</svg>
