<?xml version="1.0"?>
<!-- Generated by SVGo -->
<svg width="504.539mm" height="176.877mm"
     viewBox="0.000 0.000 504.539 176.877"
     xmlns="http://www.w3.org/2000/svg" 
     xmlns:xlink="http://www.w3.org/1999/xlink">
<polygon points="495.539,5.001 495.853,5.013 496.165,5.050 496.473,5.111 496.775,5.196 497.070,5.305 497.355,5.436 497.629,5.590 497.890,5.764 498.137,5.959 498.367,6.172 498.581,6.403 498.775,6.649 498.950,6.911 499.103,7.185 499.235,7.470 499.343,7.764 499.428,8.067 499.490,8.375 499.527,8.687 499.539,9.001 499.539,167.877 499.527,168.190 499.490,168.502 499.428,168.810 499.343,169.113 499.235,169.407 499.103,169.692 498.950,169.966 498.775,170.228 498.581,170.474 498.367,170.705 498.137,170.918 497.890,171.113 497.629,171.287 497.355,171.441 497.070,171.572 496.775,171.681 496.473,171.766 496.165,171.827 495.853,171.864 495.539,171.876 9.001,171.877 8.687,171.864 8.375,171.827 8.067,171.766 7.764,171.681 7.470,171.572 7.185,171.441 6.911,171.287 6.649,171.113 6.403,170.918 6.172,170.705 5.959,170.474 5.764,170.228 5.590,169.966 5.436,169.692 5.305,169.407 5.196,169.113 5.111,168.810 5.050,168.502 5.013,168.190 5.000,167.877 5.001,9.001 5.013,8.687 5.050,8.375 5.111,8.067 5.196,7.764 5.305,7.470 5.436,7.185 5.590,6.911 5.764,6.649 5.959,6.403 6.172,6.172 6.403,5.959 6.649,5.764 6.911,5.590 7.185,5.436 7.470,5.305 7.764,5.196 8.067,5.111 8.375,5.050 8.687,5.013 9.001,5.000" style="fill:none;stroke-width:0.050000mm;stroke:black"/>
<polygon points="9.537,165.450 9.119,165.663 8.787,165.995 8.574,166.413 8.501,166.877 8.574,167.340 8.787,167.758 9.119,168.090 9.537,168.303 10.001,168.377 10.464,168.303 10.882,168.090 11.214,167.758 11.427,167.340 11.501,166.877 11.427,166.413 11.214,165.995 10.882,165.663 10.464,165.450 10.001,165.377" style="fill:none;stroke-width:0.050000mm;stroke:black"/>
<polygon points="171.050,165.450 170.632,165.663 170.300,165.995 170.087,166.413 170.013,166.877 170.087,167.340 170.300,167.758 170.632,168.090 171.050,168.303 171.513,168.377 171.977,168.303 172.395,168.090 172.727,167.758 172.940,167.340 173.013,166.877 172.940,166.413 172.727,165.995 172.395,165.663 171.977,165.450 171.513,165.377" style="fill:none;stroke-width:0.050000mm;stroke:black"/>
<polygon points="332.563,165.450 332.144,165.663 331.813,165.995 331.600,166.413 331.526,166.877 331.600,167.340 331.813,167.758 332.144,168.090 332.563,168.303 333.026,168.377 333.490,168.303 333.908,168.090 334.240,167.758 334.453,167.340 334.526,166.877 334.453,166.413 334.240,165.995 333.908,165.663 333.490,165.450 333.026,165.377" style="fill:none;stroke-width:0.050000mm;stroke:black"/>
<polygon points="494.075,165.450 493.657,165.663 493.325,165.995 493.112,166.413 493.039,166.877 493.112,167.340 493.325,167.758 493.657,168.090 494.075,168.303 494.539,168.377 495.003,168.303 495.421,168.090 495.753,167.758 495.966,167.340 496.039,166.877 495.966,166.413 495.753,165.995 495.421,165.663 495.003,165.450 494.539,165.377" style="fill:none;stroke-width:0.050000mm;stroke:black"/>
<polygon points="192.882,143.351 192.882,148.051 153.257,148.051 153.257,144.821 146.507,144.821 146.507,148.051 145.682,148.051 145.682,150.851 146.507,150.851 146.507,157.121 148.232,157.121 148.232,158.321 151.532,158.321 151.532,157.121 153.257,157.121 153.257,152.651 192.882,152.651 192.882,157.351 206.882,157.351 206.882,152.651 246.507,152.651 246.507,157.121 248.232,157.121 248.232,158.321 251.532,158.321 251.532,157.121 253.257,157.121 253.257,150.851 254.082,150.851 254.082,148.051 253.257,148.051 253.257,144.821 246.507,144.821 246.507,148.051 206.882,148.051 206.882,143.351" style="fill:none;stroke-width:0.050000mm;stroke:black"/>
<polygon points="433.388,143.351 433.388,148.051 431.863,148.051 431.863,144.821 425.113,144.821 425.113,148.051 424.288,148.051 424.288,150.851 425.113,150.851 425.113,157.121 426.838,157.121 426.838,158.321 430.138,158.321 430.138,157.121 431.863,157.121 431.863,152.651 433.388,152.651 433.388,157.351 447.388,157.351 447.388,152.651 448.913,152.651 448.913,157.121 450.638,157.121 450.638,158.321 453.938,158.321 453.938,157.121 455.663,157.121 455.663,150.851 456.488,150.851 456.488,148.051 455.663,148.051 455.663,144.821 448.913,144.821 448.913,148.051 447.388,148.051 447.388,143.351" style="fill:none;stroke-width:0.050000mm;stroke:black"/>
<polygon points="73.819,143.351 73.819,157.351 87.819,157.351 87.819,143.351" style="fill:none;stroke-width:0.050000mm;stroke:black"/>
<polygon points="97.632,143.351 97.632,157.351 111.632,157.351 111.632,143.351" style="fill:none;stroke-width:0.050000mm;stroke:black"/>
<polygon points="121.444,143.351 121.444,157.351 135.444,157.351 135.444,143.351" style="fill:none;stroke-width:0.050000mm;stroke:black"/>
<polygon points="264.319,143.351 264.319,157.351 278.319,157.351 278.319,143.351" style="fill:none;stroke-width:0.050000mm;stroke:black"/>
<polygon points="288.132,143.351 288.132,157.351 302.132,157.351 302.132,143.351" style="fill:none;stroke-width:0.050000mm;stroke:black"/>
<polygon points="311.944,143.351 311.944,157.351 325.944,157.351 325.944,143.351" style="fill:none;stroke-width:0.050000mm;stroke:black"/>
<polygon points="335.757,143.351 335.757,157.351 349.757,157.351 349.757,143.351" style="fill:none;stroke-width:0.050000mm;stroke:black"/>
<polygon points="361.951,143.351 361.951,157.351 375.951,157.351 375.951,143.351" style="fill:none;stroke-width:0.050000mm;stroke:black"/>
<polygon points="381.001,143.351 381.001,157.351 395.001,157.351 395.001,143.351" style="fill:none;stroke-width:0.050000mm;stroke:black"/>
<polygon points="400.051,143.351 400.051,157.351 414.051,157.351 414.051,143.351" style="fill:none;stroke-width:0.050000mm;stroke:black"/>
<polygon points="461.963,143.351 461.963,157.351 475.963,157.351 475.963,143.351" style="fill:none;stroke-width:0.050000mm;stroke:black"/>
<polygon points="9.525,143.351 9.525,157.351 23.526,157.351 23.526,143.351" style="fill:none;stroke-width:0.050000mm;stroke:black"/>
<polygon points="28.576,143.351 28.576,157.351 42.576,157.351 42.576,143.351" style="fill:none;stroke-width:0.050000mm;stroke:black"/>
<polygon points="47.626,143.351 47.626,157.351 61.626,157.351 61.626,143.351" style="fill:none;stroke-width:0.050000mm;stroke:black"/>
<polygon points="487.513,124.726 487.513,125.551 481.243,125.551 481.243,127.276 480.043,127.276 480.043,130.575 481.243,130.575 481.243,132.301 485.713,132.301 485.713,133.826 481.013,133.826 481.013,147.826 485.713,147.826 485.713,149.351 481.243,149.351 481.243,151.076 480.043,151.076 480.043,154.376 481.243,154.376 481.243,156.101 487.513,156.101 487.513,156.926 490.313,156.926 490.313,156.101 493.543,156.101 493.543,149.351 490.313,149.351 490.313,147.826 495.013,147.826 495.013,133.826 490.313,133.826 490.313,132.301 493.543,132.301 493.543,125.551 490.313,125.551 490.313,124.726" style="fill:none;stroke-width:0.050000mm;stroke:black"/>
<polygon points="83.344,124.301 83.344,129.001 81.819,129.001 81.819,125.771 75.069,125.771 75.069,129.001 74.244,129.001 74.244,131.801 75.069,131.801 75.069,138.071 76.794,138.071 76.794,139.271 80.094,139.271 80.094,138.071 81.819,138.071 81.819,133.601 83.344,133.601 83.344,138.301 97.344,138.301 97.344,133.601 98.869,133.601 98.869,138.071 100.594,138.071 100.594,139.271 103.894,139.271 103.894,138.071 105.619,138.071 105.619,131.801 106.444,131.801 106.444,129.001 105.619,129.001 105.619,125.771 98.869,125.771 98.869,129.001 97.344,129.001 97.344,124.301" style="fill:none;stroke-width:0.050000mm;stroke:black"/>
<polygon points="321.469,124.301 321.469,129.001 319.944,129.001 319.944,125.771 313.194,125.771 313.194,129.001 312.369,129.001 312.369,131.801 313.194,131.801 313.194,138.071 314.919,138.071 314.919,139.271 318.219,139.271 318.219,138.071 319.944,138.071 319.944,133.601 321.469,133.601 321.469,138.301 335.469,138.301 335.469,133.601 336.994,133.601 336.994,138.071 338.719,138.071 338.719,139.271 342.019,139.271 342.019,138.071 343.744,138.071 343.744,131.801 344.569,131.801 344.569,129.001 343.744,129.001 343.744,125.771 336.994,125.771 336.994,129.001 335.469,129.001 335.469,124.301" style="fill:none;stroke-width:0.050000mm;stroke:black"/>
<polygon points="114.301,124.301 114.301,138.301 128.301,138.301 128.301,124.301" style="fill:none;stroke-width:0.050000mm;stroke:black"/>
<polygon points="133.351,124.301 133.351,138.301 147.351,138.301 147.351,124.301" style="fill:none;stroke-width:0.050000mm;stroke:black"/>
<polygon points="152.401,124.301 152.401,138.301 166.401,138.301 166.401,124.301" style="fill:none;stroke-width:0.050000mm;stroke:black"/>
<polygon points="171.451,124.301 171.451,138.301 185.451,138.301 185.451,124.301" style="fill:none;stroke-width:0.050000mm;stroke:black"/>
<polygon points="190.501,124.301 190.501,138.301 204.501,138.301 204.501,124.301" style="fill:none;stroke-width:0.050000mm;stroke:black"/>
<polygon points="209.551,124.301 209.551,138.301 223.551,138.301 223.551,124.301" style="fill:none;stroke-width:0.050000mm;stroke:black"/>
<polygon points="228.601,124.301 228.601,138.301 242.601,138.301 242.601,124.301" style="fill:none;stroke-width:0.050000mm;stroke:black"/>
<polygon points="247.651,124.301 247.651,138.301 261.650,138.301 261.650,124.301" style="fill:none;stroke-width:0.050000mm;stroke:black"/>
<polygon points="266.701,124.301 266.701,138.301 280.701,138.301 280.701,124.301" style="fill:none;stroke-width:0.050000mm;stroke:black"/>
<polygon points="285.751,124.301 285.751,138.301 299.751,138.301 299.751,124.301" style="fill:none;stroke-width:0.050000mm;stroke:black"/>
<polygon points="381.001,124.301 381.001,138.301 395.001,138.301 395.001,124.301" style="fill:none;stroke-width:0.050000mm;stroke:black"/>
<polygon points="423.863,124.301 423.863,138.301 437.863,138.301 437.863,124.301" style="fill:none;stroke-width:0.050000mm;stroke:black"/>
<polygon points="442.913,124.301 442.913,138.301 456.913,138.301 456.913,124.301" style="fill:none;stroke-width:0.050000mm;stroke:black"/>
<polygon points="461.963,124.301 461.963,138.301 475.963,138.301 475.963,124.301" style="fill:none;stroke-width:0.050000mm;stroke:black"/>
<polygon points="9.525,124.301 9.525,138.301 23.526,138.301 23.526,124.301" style="fill:none;stroke-width:0.050000mm;stroke:black"/>
<polygon points="28.576,124.301 28.576,138.301 42.576,138.301 42.576,124.301" style="fill:none;stroke-width:0.050000mm;stroke:black"/>
<polygon points="47.626,124.301 47.626,138.301 61.626,138.301 61.626,124.301" style="fill:none;stroke-width:0.050000mm;stroke:black"/>
<polygon points="326.232,105.251 326.232,109.951 324.707,109.951 324.707,106.721 317.957,106.721 317.957,109.951 317.132,109.951 317.132,112.751 317.957,112.751 317.957,119.021 319.682,119.021 319.682,120.221 322.982,120.221 322.982,119.021 324.707,119.021 324.707,114.551 326.232,114.551 326.232,119.251 340.232,119.251 340.232,114.551 341.757,114.551 341.757,119.021 343.482,119.021 343.482,120.221 346.782,120.221 346.782,119.021 348.507,119.021 348.507,112.751 349.332,112.751 349.332,109.951 348.507,109.951 348.507,106.721 341.757,106.721 341.757,109.951 340.232,109.951 340.232,105.251" style="fill:none;stroke-width:0.050000mm;stroke:black"/>
<polygon points="78.582,105.251 78.582,119.251 92.582,119.251 92.582,105.251" style="fill:none;stroke-width:0.050000mm;stroke:black"/>
<polygon points="104.776,105.251 104.776,119.251 118.776,119.251 118.776,105.251" style="fill:none;stroke-width:0.050000mm;stroke:black"/>
<polygon points="123.826,105.251 123.826,119.251 137.826,119.251 137.826,105.251" style="fill:none;stroke-width:0.050000mm;stroke:black"/>
<polygon points="142.876,105.251 142.876,119.251 156.876,119.251 156.876,105.251" style="fill:none;stroke-width:0.050000mm;stroke:black"/>
<polygon points="161.926,105.251 161.926,119.251 175.926,119.251 175.926,105.251" style="fill:none;stroke-width:0.050000mm;stroke:black"/>
<polygon points="180.976,105.251 180.976,119.251 194.976,119.251 194.976,105.251" style="fill:none;stroke-width:0.050000mm;stroke:black"/>
<polygon points="200.026,105.251 200.026,119.251 214.026,119.251 214.026,105.251" style="fill:none;stroke-width:0.050000mm;stroke:black"/>
<polygon points="219.076,105.251 219.076,119.251 233.076,119.251 233.076,105.251" style="fill:none;stroke-width:0.050000mm;stroke:black"/>
<polygon points="238.126,105.251 238.126,119.251 252.126,119.251 252.126,105.251" style="fill:none;stroke-width:0.050000mm;stroke:black"/>
<polygon points="257.176,105.251 257.176,119.251 271.176,119.251 271.176,105.251" style="fill:none;stroke-width:0.050000mm;stroke:black"/>
<polygon points="276.226,105.251 276.226,119.251 290.226,119.251 290.226,105.251" style="fill:none;stroke-width:0.050000mm;stroke:black"/>
<polygon points="295.276,105.251 295.276,119.251 309.276,119.251 309.276,105.251" style="fill:none;stroke-width:0.050000mm;stroke:black"/>
<polygon points="423.863,105.251 423.863,119.251 437.863,119.251 437.863,105.251" style="fill:none;stroke-width:0.050000mm;stroke:black"/>
<polygon points="442.913,105.251 442.913,119.251 456.913,119.251 456.913,105.251" style="fill:none;stroke-width:0.050000mm;stroke:black"/>
<polygon points="461.963,105.251 461.963,119.251 475.963,119.251 475.963,105.251" style="fill:none;stroke-width:0.050000mm;stroke:black"/>
<polygon points="487.513,86.626 487.513,87.451 481.243,87.451 481.243,89.176 480.043,89.176 480.043,92.476 481.243,92.476 481.243,94.201 485.713,94.201 485.713,95.726 481.013,95.726 481.013,109.726 485.713,109.726 485.713,111.251 481.243,111.251 481.243,112.976 480.043,112.976 480.043,116.276 481.243,116.276 481.243,118.001 487.513,118.001 487.513,118.826 490.313,118.826 490.313,118.001 493.543,118.001 493.543,111.251 490.313,111.251 490.313,109.726 495.013,109.726 495.013,95.726 490.313,95.726 490.313,94.201 493.543,94.201 493.543,87.451 490.313,87.451 490.313,86.626" style="fill:none;stroke-width:0.050000mm;stroke:black"/>
<polygon points="9.525,100.488 9.525,114.488 23.526,114.488 23.526,100.488" style="fill:none;stroke-width:0.050000mm;stroke:black"/>
<polygon points="28.576,100.488 28.576,114.488 42.576,114.488 42.576,100.488" style="fill:none;stroke-width:0.050000mm;stroke:black"/>
<polygon points="47.626,100.488 47.626,114.488 61.626,114.488 61.626,100.488" style="fill:none;stroke-width:0.050000mm;stroke:black"/>
<polygon points="76.200,86.201 76.200,100.201 90.200,100.201 90.200,86.201" style="fill:none;stroke-width:0.050000mm;stroke:black"/>
<polygon points="100.013,86.201 100.013,100.201 114.013,100.201 114.013,86.201" style="fill:none;stroke-width:0.050000mm;stroke:black"/>
<polygon points="119.063,86.201 119.063,100.201 133.063,100.201 133.063,86.201" style="fill:none;stroke-width:0.050000mm;stroke:black"/>
<polygon points="138.113,86.201 138.113,100.201 152.113,100.201 152.113,86.201" style="fill:none;stroke-width:0.050000mm;stroke:black"/>
<polygon points="157.163,86.201 157.163,100.201 171.163,100.201 171.163,86.201" style="fill:none;stroke-width:0.050000mm;stroke:black"/>
<polygon points="176.213,86.201 176.213,100.201 190.213,100.201 190.213,86.201" style="fill:none;stroke-width:0.050000mm;stroke:black"/>
<polygon points="195.263,86.201 195.263,100.201 209.263,100.201 209.263,86.201" style="fill:none;stroke-width:0.050000mm;stroke:black"/>
<polygon points="214.313,86.201 214.313,100.201 228.313,100.201 228.313,86.201" style="fill:none;stroke-width:0.050000mm;stroke:black"/>
<polygon points="233.363,86.201 233.363,100.201 247.363,100.201 247.363,86.201" style="fill:none;stroke-width:0.050000mm;stroke:black"/>
<polygon points="252.413,86.201 252.413,100.201 266.413,100.201 266.413,86.201" style="fill:none;stroke-width:0.050000mm;stroke:black"/>
<polygon points="271.463,86.201 271.463,100.201 285.463,100.201 285.463,86.201" style="fill:none;stroke-width:0.050000mm;stroke:black"/>
<polygon points="290.513,86.201 290.513,100.201 304.513,100.201 304.513,86.201" style="fill:none;stroke-width:0.050000mm;stroke:black"/>
<polygon points="309.563,86.201 309.563,100.201 323.563,100.201 323.563,86.201" style="fill:none;stroke-width:0.050000mm;stroke:black"/>
<polygon points="333.376,86.201 333.376,100.201 347.376,100.201 347.376,86.201" style="fill:none;stroke-width:0.050000mm;stroke:black"/>
<polygon points="361.951,86.201 361.951,100.201 375.951,100.201 375.951,86.201" style="fill:none;stroke-width:0.050000mm;stroke:black"/>
<polygon points="381.001,86.201 381.001,100.201 395.001,100.201 395.001,86.201" style="fill:none;stroke-width:0.050000mm;stroke:black"/>
<polygon points="400.051,86.201 400.051,100.201 414.051,100.201 414.051,86.201" style="fill:none;stroke-width:0.050000mm;stroke:black"/>
<polygon points="423.863,86.201 423.863,100.201 437.863,100.201 437.863,86.201" style="fill:none;stroke-width:0.050000mm;stroke:black"/>
<polygon points="442.913,86.201 442.913,100.201 456.913,100.201 456.913,86.201" style="fill:none;stroke-width:0.050000mm;stroke:black"/>
<polygon points="461.963,86.201 461.963,100.201 475.963,100.201 475.963,86.201" style="fill:none;stroke-width:0.050000mm;stroke:black"/>
<polygon points="9.525,81.438 9.525,95.438 23.526,95.438 23.526,81.438" style="fill:none;stroke-width:0.050000mm;stroke:black"/>
<polygon points="28.576,81.438 28.576,95.438 42.576,95.438 42.576,81.438" style="fill:none;stroke-width:0.050000mm;stroke:black"/>
<polygon points="47.626,81.438 47.626,95.438 61.626,95.438 61.626,81.438" style="fill:none;stroke-width:0.050000mm;stroke:black"/>
<polygon points="328.613,67.151 328.613,71.851 327.088,71.851 327.088,68.621 320.338,68.621 320.338,71.851 319.513,71.851 319.513,74.651 320.338,74.651 320.338,80.921 322.063,80.921 322.063,82.121 325.363,82.121 325.363,80.921 327.088,80.921 327.088,76.451 328.613,76.451 328.613,81.151 342.613,81.151 342.613,76.451 344.138,76.451 344.138,80.921 345.863,80.921 345.863,82.121 349.163,82.121 349.163,80.921 350.888,80.921 350.888,74.651 351.713,74.651 351.713,71.851 350.888,71.851 350.888,68.621 344.138,68.621 344.138,71.851 342.613,71.851 342.613,67.151" style="fill:none;stroke-width:0.050000mm;stroke:black"/>
<polygon points="71.438,67.151 71.438,81.151 85.438,81.151 85.438,67.151" style="fill:none;stroke-width:0.050000mm;stroke:black"/>
<polygon points="90.488,67.151 90.488,81.151 104.488,81.151 104.488,67.151" style="fill:none;stroke-width:0.050000mm;stroke:black"/>
<polygon points="109.538,67.151 109.538,81.151 123.538,81.151 123.538,67.151" style="fill:none;stroke-width:0.050000mm;stroke:black"/>
<polygon points="128.587,67.151 128.587,81.151 142.588,81.151 142.588,67.151" style="fill:none;stroke-width:0.050000mm;stroke:black"/>
<polygon points="147.638,67.151 147.638,81.151 161.638,81.151 161.638,67.151" style="fill:none;stroke-width:0.050000mm;stroke:black"/>
<polygon points="166.688,67.151 166.688,81.151 180.688,81.151 180.688,67.151" style="fill:none;stroke-width:0.050000mm;stroke:black"/>
<polygon points="185.738,67.151 185.738,81.151 199.738,81.151 199.738,67.151" style="fill:none;stroke-width:0.050000mm;stroke:black"/>
<polygon points="204.788,67.151 204.788,81.151 218.788,81.151 218.788,67.151" style="fill:none;stroke-width:0.050000mm;stroke:black"/>
<polygon points="223.838,67.151 223.838,81.151 237.838,81.151 237.838,67.151" style="fill:none;stroke-width:0.050000mm;stroke:black"/>
<polygon points="242.888,67.151 242.888,81.151 256.888,81.151 256.888,67.151" style="fill:none;stroke-width:0.050000mm;stroke:black"/>
<polygon points="261.938,67.151 261.938,81.151 275.938,81.151 275.938,67.151" style="fill:none;stroke-width:0.050000mm;stroke:black"/>
<polygon points="280.988,67.151 280.988,81.151 294.988,81.151 294.988,67.151" style="fill:none;stroke-width:0.050000mm;stroke:black"/>
<polygon points="300.038,67.151 300.038,81.151 314.038,81.151 314.038,67.151" style="fill:none;stroke-width:0.050000mm;stroke:black"/>
<polygon points="361.951,67.151 361.951,81.151 375.951,81.151 375.951,67.151" style="fill:none;stroke-width:0.050000mm;stroke:black"/>
<polygon points="381.001,67.151 381.001,81.151 395.001,81.151 395.001,67.151" style="fill:none;stroke-width:0.050000mm;stroke:black"/>
<polygon points="400.051,67.151 400.051,81.151 414.051,81.151 414.051,67.151" style="fill:none;stroke-width:0.050000mm;stroke:black"/>
<polygon points="423.863,67.151 423.863,81.151 437.863,81.151 437.863,67.151" style="fill:none;stroke-width:0.050000mm;stroke:black"/>
<polygon points="442.913,67.151 442.913,81.151 456.913,81.151 456.913,67.151" style="fill:none;stroke-width:0.050000mm;stroke:black"/>
<polygon points="461.963,67.151 461.963,81.151 475.963,81.151 475.963,67.151" style="fill:none;stroke-width:0.050000mm;stroke:black"/>
<polygon points="481.013,67.151 481.013,81.151 495.013,81.151 495.013,67.151" style="fill:none;stroke-width:0.050000mm;stroke:black"/>
<polygon points="9.525,62.388 9.525,76.388 23.526,76.388 23.526,62.388" style="fill:none;stroke-width:0.050000mm;stroke:black"/>
<polygon points="28.576,62.388 28.576,76.388 42.576,76.388 42.576,62.388" style="fill:none;stroke-width:0.050000mm;stroke:black"/>
<polygon points="47.626,62.388 47.626,76.388 61.626,76.388 61.626,62.388" style="fill:none;stroke-width:0.050000mm;stroke:black"/>
<polygon points="71.438,38.576 71.438,52.576 85.438,52.576 85.438,38.576" style="fill:none;stroke-width:0.050000mm;stroke:black"/>
<polygon points="109.538,38.576 109.538,52.576 123.538,52.576 123.538,38.576" style="fill:none;stroke-width:0.050000mm;stroke:black"/>
<polygon points="128.587,38.576 128.587,52.576 142.588,52.576 142.588,38.576" style="fill:none;stroke-width:0.050000mm;stroke:black"/>
<polygon points="147.638,38.576 147.638,52.576 161.638,52.576 161.638,38.576" style="fill:none;stroke-width:0.050000mm;stroke:black"/>
<polygon points="166.688,38.576 166.688,52.576 180.688,52.576 180.688,38.576" style="fill:none;stroke-width:0.050000mm;stroke:black"/>
<polygon points="195.263,38.576 195.263,52.576 209.263,52.576 209.263,38.576" style="fill:none;stroke-width:0.050000mm;stroke:black"/>
<polygon points="214.313,38.576 214.313,52.576 228.313,52.576 228.313,38.576" style="fill:none;stroke-width:0.050000mm;stroke:black"/>
<polygon points="233.363,38.576 233.363,52.576 247.363,52.576 247.363,38.576" style="fill:none;stroke-width:0.050000mm;stroke:black"/>
<polygon points="252.413,38.576 252.413,52.576 266.413,52.576 266.413,38.576" style="fill:none;stroke-width:0.050000mm;stroke:black"/>
<polygon points="280.988,38.576 280.988,52.576 294.988,52.576 294.988,38.576" style="fill:none;stroke-width:0.050000mm;stroke:black"/>
<polygon points="300.038,38.576 300.038,52.576 314.038,52.576 314.038,38.576" style="fill:none;stroke-width:0.050000mm;stroke:black"/>
<polygon points="319.088,38.576 319.088,52.576 333.088,52.576 333.088,38.576" style="fill:none;stroke-width:0.050000mm;stroke:black"/>
<polygon points="338.138,38.576 338.138,52.576 352.138,52.576 352.138,38.576" style="fill:none;stroke-width:0.050000mm;stroke:black"/>
<polygon points="361.951,38.576 361.951,52.576 375.951,52.576 375.951,38.576" style="fill:none;stroke-width:0.050000mm;stroke:black"/>
<polygon points="381.001,38.576 381.001,52.576 395.001,52.576 395.001,38.576" style="fill:none;stroke-width:0.050000mm;stroke:black"/>
<polygon points="400.051,38.576 400.051,52.576 414.051,52.576 414.051,38.576" style="fill:none;stroke-width:0.050000mm;stroke:black"/>
<polygon points="423.863,38.576 423.863,52.576 437.863,52.576 437.863,38.576" style="fill:none;stroke-width:0.050000mm;stroke:black"/>
<polygon points="442.913,38.576 442.913,52.576 456.913,52.576 456.913,38.576" style="fill:none;stroke-width:0.050000mm;stroke:black"/>
<polygon points="461.963,38.576 461.963,52.576 475.963,52.576 475.963,38.576" style="fill:none;stroke-width:0.050000mm;stroke:black"/>
<polygon points="481.013,38.576 481.013,52.576 495.013,52.576 495.013,38.576" style="fill:none;stroke-width:0.050000mm;stroke:black"/>
<polygon points="9.525,38.576 9.525,52.576 23.526,52.576 23.526,38.576" style="fill:none;stroke-width:0.050000mm;stroke:black"/>
<polygon points="28.576,38.576 28.576,52.576 42.576,52.576 42.576,38.576" style="fill:none;stroke-width:0.050000mm;stroke:black"/>
<polygon points="47.626,38.576 47.626,52.576 61.626,52.576 61.626,38.576" style="fill:none;stroke-width:0.050000mm;stroke:black"/>
<polygon points="109.538,19.526 109.538,33.526 123.538,33.526 123.538,19.526" style="fill:none;stroke-width:0.050000mm;stroke:black"/>
<polygon points="128.587,19.526 128.587,33.526 142.588,33.526 142.588,19.526" style="fill:none;stroke-width:0.050000mm;stroke:black"/>
<polygon points="147.638,19.526 147.638,33.526 161.638,33.526 161.638,19.526" style="fill:none;stroke-width:0.050000mm;stroke:black"/>
<polygon points="166.688,19.526 166.688,33.526 180.688,33.526 180.688,19.526" style="fill:none;stroke-width:0.050000mm;stroke:black"/>
<polygon points="195.263,19.526 195.263,33.526 209.263,33.526 209.263,19.526" style="fill:none;stroke-width:0.050000mm;stroke:black"/>
<polygon points="214.313,19.526 214.313,33.526 228.313,33.526 228.313,19.526" style="fill:none;stroke-width:0.050000mm;stroke:black"/>
<polygon points="233.363,19.526 233.363,33.526 247.363,33.526 247.363,19.526" style="fill:none;stroke-width:0.050000mm;stroke:black"/>
<polygon points="252.413,19.526 252.413,33.526 266.413,33.526 266.413,19.526" style="fill:none;stroke-width:0.050000mm;stroke:black"/>
<polygon points="280.988,19.526 280.988,33.526 294.988,33.526 294.988,19.526" style="fill:none;stroke-width:0.050000mm;stroke:black"/>
<polygon points="300.038,19.526 300.038,33.526 314.038,33.526 314.038,19.526" style="fill:none;stroke-width:0.050000mm;stroke:black"/>
<polygon points="319.088,19.526 319.088,33.526 333.088,33.526 333.088,19.526" style="fill:none;stroke-width:0.050000mm;stroke:black"/>
<polygon points="338.138,19.526 338.138,33.526 352.138,33.526 352.138,19.526" style="fill:none;stroke-width:0.050000mm;stroke:black"/>
<polygon points="361.951,19.526 361.951,33.526 375.951,33.526 375.951,19.526" style="fill:none;stroke-width:0.050000mm;stroke:black"/>
<polygon points="381.001,19.526 381.001,33.526 395.001,33.526 395.001,19.526" style="fill:none;stroke-width:0.050000mm;stroke:black"/>
<polygon points="400.051,19.526 400.051,33.526 414.051,33.526 414.051,19.526" style="fill:none;stroke-width:0.050000mm;stroke:black"/>
<polygon points="423.863,19.526 423.863,33.526 437.863,33.526 437.863,19.526" style="fill:none;stroke-width:0.050000mm;stroke:black"/>
<polygon points="442.913,19.526 442.913,33.526 456.913,33.526 456.913,19.526" style="fill:none;stroke-width:0.050000mm;stroke:black"/>
<polygon points="461.963,19.526 461.963,33.526 475.963,33.526 475.963,19.526" style="fill:none;stroke-width:0.050000mm;stroke:black"/>
<polygon points="481.013,19.526 481.013,33.526 495.013,33.526 495.013,19.526" style="fill:none;stroke-width:0.050000mm;stroke:black"/>
<polygon points="9.525,19.526 9.525,33.526 23.526,33.526 23.526,19.526" style="fill:none;stroke-width:0.050000mm;stroke:black"/>
<polygon points="28.576,19.526 28.576,33.526 42.576,33.526 42.576,19.526" style="fill:none;stroke-width:0.050000mm;stroke:black"/>
<polygon points="47.626,19.526 47.626,33.526 61.626,33.526 61.626,19.526" style="fill:none;stroke-width:0.050000mm;stroke:black"/>
<polygon points="9.537,8.574 9.119,8.787 8.787,9.119 8.574,9.537 8.501,10.001 8.574,10.464 8.787,10.882 9.119,11.214 9.537,11.427 10.001,11.501 10.464,11.427 10.882,11.214 11.214,10.882 11.427,10.464 11.501,10.001 11.427,9.537 11.214,9.119 10.882,8.787 10.464,8.574 10.001,8.501" style="fill:none;stroke-width:0.050000mm;stroke:black"/>
<polygon points="171.050,8.574 170.632,8.787 170.300,9.119 170.087,9.537 170.013,10.001 170.087,10.464 170.300,10.882 170.632,11.214 171.050,11.427 171.513,11.501 171.977,11.427 172.395,11.214 172.727,10.882 172.940,10.464 173.013,10.001 172.940,9.537 172.727,9.119 172.395,8.787 171.977,8.574 171.513,8.501" style="fill:none;stroke-width:0.050000mm;stroke:black"/>
<polygon points="332.563,8.574 332.144,8.787 331.813,9.119 331.600,9.537 331.526,10.001 331.600,10.464 331.813,10.882 332.144,11.214 332.563,11.427 333.026,11.501 333.490,11.427 333.908,11.214 334.240,10.882 334.453,10.464 334.526,10.001 334.453,9.537 334.240,9.119 333.908,8.787 333.490,8.574 333.026,8.501" style="fill:none;stroke-width:0.050000mm;stroke:black"/>
<polygon points="494.075,8.574 493.657,8.787 493.325,9.119 493.112,9.537 493.039,10.001 493.112,10.464 493.325,10.882 493.657,11.214 494.075,11.427 494.539,11.501 495.003,11.427 495.421,11.214 495.753,10.882 495.966,10.464 496.039,10.001 495.966,9.537 495.753,9.119 495.421,8.787 495.003,8.574 494.539,8.501" style="fill:none;stroke-width:0.050000mm;stroke:black"/>
</svg>
