  0
SECTION
  2
HEADER
  9
$ACADVER
  1
AC1009
  9
$FILLMODE
 70
 0
  9
$SPLFRAME
 70
 1
  9
$EXTMIN
 10
0
 20
0
 30
0.0
  9
$EXTMAX
 10
1058.33
 20
1058.33
 30
0.0
  0
ENDSEC
  0
SECTION
  2
TABLES
  0
TABLE
  2
LAYER
 70
1
  0
LAYER
  2
0
 70
     0
 62
     7
  6
CONTINUOUS
  0
ENDTAB
  0
ENDSEC
  0
SECTION
  2
ENTITIES
  0
LINE
  8
0
 62
     0
 10
490.633
 20
167.121
 30
0.0
 11
490.947
 21
167.109
 31
0.0
  0
LINE
  8
0
 62
     0
 10
490.947
 20
167.109
 30
0.0
 11
491.261
 21
167.072
 31
0.0
  0
LINE
  8
0
 62
     0
 10
491.261
 20
167.072
 30
0.0
 11
491.568
 21
167.011
 31
0.0
  0
LINE
  8
0
 62
     0
 10
491.568
 20
167.011
 30
0.0
 11
491.871
 21
166.926
 31
0.0
  0
LINE
  8
0
 62
     0
 10
491.871
 20
166.926
 30
0.0
 11
492.164
 21
166.817
 31
0.0
  0
LINE
  8
0
 62
     0
 10
492.164
 20
166.817
 30
0.0
 11
492.45
 21
166.686
 31
0.0
  0
LINE
  8
0
 62
     0
 10
492.45
 20
166.686
 30
0.0
 11
492.725
 21
166.532
 31
0.0
  0
LINE
  8
0
 62
     0
 10
492.725
 20
166.532
 30
0.0
 11
492.986
 21
166.358
 31
0.0
  0
LINE
  8
0
 62
     0
 10
492.986
 20
166.358
 30
0.0
 11
493.233
 21
166.164
 31
0.0
  0
LINE
  8
0
 62
     0
 10
493.233
 20
166.164
 30
0.0
 11
493.462
 21
165.95
 31
0.0
  0
LINE
  8
0
 62
     0
 10
493.462
 20
165.95
 30
0.0
 11
493.674
 21
165.719
 31
0.0
  0
LINE
  8
0
 62
     0
 10
493.674
 20
165.719
 30
0.0
 11
493.871
 21
165.474
 31
0.0
  0
LINE
  8
0
 62
     0
 10
493.871
 20
165.474
 30
0.0
 11
494.044
 21
165.211
 31
0.0
  0
LINE
  8
0
 62
     0
 10
494.044
 20
165.211
 30
0.0
 11
494.199
 21
164.937
 31
0.0
  0
LINE
  8
0
 62
     0
 10
494.199
 20
164.937
 30
0.0
 11
494.33
 21
164.652
 31
0.0
  0
LINE
  8
0
 62
     0
 10
494.33
 20
164.652
 30
0.0
 11
494.436
 21
164.358
 31
0.0
  0
LINE
  8
0
 62
     0
 10
494.436
 20
164.358
 30
0.0
 11
494.524
 21
164.055
 31
0.0
  0
LINE
  8
0
 62
     0
 10
494.524
 20
164.055
 30
0.0
 11
494.584
 21
163.747
 31
0.0
  0
LINE
  8
0
 62
     0
 10
494.584
 20
163.747
 30
0.0
 11
494.623
 21
163.435
 31
0.0
  0
LINE
  8
0
 62
     0
 10
494.623
 20
163.435
 30
0.0
 11
494.633
 21
163.121
 31
0.0
  0
LINE
  8
0
 62
     0
 10
494.633
 20
163.121
 30
0.0
 11
494.633
 21
4.24575
 31
0.0
  0
LINE
  8
0
 62
     0
 10
494.633
 20
4.24575
 30
0.0
 11
494.623
 21
3.93153
 31
0.0
  0
LINE
  8
0
 62
     0
 10
494.623
 20
3.93153
 30
0.0
 11
494.584
 21
3.6201
 31
0.0
  0
LINE
  8
0
 62
     0
 10
494.584
 20
3.6201
 30
0.0
 11
494.524
 21
3.31281
 31
0.0
  0
LINE
  8
0
 62
     0
 10
494.524
 20
3.31281
 30
0.0
 11
494.436
 21
3.00964
 31
0.0
  0
LINE
  8
0
 62
     0
 10
494.436
 20
3.00964
 30
0.0
 11
494.33
 21
2.71473
 31
0.0
  0
LINE
  8
0
 62
     0
 10
494.33
 20
2.71473
 30
0.0
 11
494.199
 21
2.43086
 31
0.0
  0
LINE
  8
0
 62
     0
 10
494.199
 20
2.43086
 30
0.0
 11
494.044
 21
2.15663
 31
0.0
  0
LINE
  8
0
 62
     0
 10
494.044
 20
2.15663
 30
0.0
 11
493.871
 21
1.8948
 31
0.0
  0
LINE
  8
0
 62
     0
 10
493.871
 20
1.8948
 30
0.0
 11
493.674
 21
1.64814
 31
0.0
  0
LINE
  8
0
 62
     0
 10
493.674
 20
1.64814
 30
0.0
 11
493.462
 21
1.41662
 31
0.0
  0
LINE
  8
0
 62
     0
 10
493.462
 20
1.41662
 30
0.0
 11
493.233
 21
1.2044
 31
0.0
  0
LINE
  8
0
 62
     0
 10
493.233
 20
1.2044
 30
0.0
 11
492.986
 21
1.00873
 31
0.0
  0
LINE
  8
0
 62
     0
 10
492.986
 20
1.00873
 30
0.0
 11
492.725
 21
0.835092
 31
0.0
  0
LINE
  8
0
 62
     0
 10
492.725
 20
0.835092
 30
0.0
 11
492.45
 21
0.680752
 31
0.0
  0
LINE
  8
0
 62
     0
 10
492.45
 20
0.680752
 30
0.0
 11
492.164
 21
0.549836
 31
0.0
  0
LINE
  8
0
 62
     0
 10
492.164
 20
0.549836
 30
0.0
 11
491.871
 21
0.440972
 31
0.0
  0
LINE
  8
0
 62
     0
 10
491.871
 20
0.440972
 30
0.0
 11
491.568
 21
0.355533
 31
0.0
  0
LINE
  8
0
 62
     0
 10
491.568
 20
0.355533
 30
0.0
 11
491.261
 21
0.2949
 31
0.0
  0
LINE
  8
0
 62
     0
 10
491.261
 20
0.2949
 30
0.0
 11
490.947
 21
0.257693
 31
0.0
  0
LINE
  8
0
 62
     0
 10
490.947
 20
0.257693
 30
0.0
 11
490.633
 21
0.246669
 31
0.0
  0
LINE
  8
0
 62
     0
 10
490.633
 20
0.246669
 30
0.0
 11
4.09554
 21
0.245291
 31
0.0
  0
LINE
  8
0
 62
     0
 10
4.09554
 20
0.245291
 30
0.0
 11
3.78135
 21
0.257693
 31
0.0
  0
LINE
  8
0
 62
     0
 10
3.78135
 20
0.257693
 30
0.0
 11
3.4699
 21
0.2949
 31
0.0
  0
LINE
  8
0
 62
     0
 10
3.4699
 20
0.2949
 30
0.0
 11
3.16122
 21
0.355533
 31
0.0
  0
LINE
  8
0
 62
     0
 10
3.16122
 20
0.355533
 30
0.0
 11
2.85805
 21
0.440972
 31
0.0
  0
LINE
  8
0
 62
     0
 10
2.85805
 20
0.440972
 30
0.0
 11
2.56453
 21
0.549836
 31
0.0
  0
LINE
  8
0
 62
     0
 10
2.56453
 20
0.549836
 30
0.0
 11
2.27928
 21
0.680752
 31
0.0
  0
LINE
  8
0
 62
     0
 10
2.27928
 20
0.680752
 30
0.0
 11
2.00504
 21
0.835092
 31
0.0
  0
LINE
  8
0
 62
     0
 10
2.00504
 20
0.835092
 30
0.0
 11
1.74322
 21
1.00873
 31
0.0
  0
LINE
  8
0
 62
     0
 10
1.74322
 20
1.00873
 30
0.0
 11
1.49793
 21
1.2044
 31
0.0
  0
LINE
  8
0
 62
     0
 10
1.49793
 20
1.2044
 30
0.0
 11
1.26642
 21
1.41662
 31
0.0
  0
LINE
  8
0
 62
     0
 10
1.26642
 20
1.41662
 30
0.0
 11
1.05282
 21
1.64814
 31
0.0
  0
LINE
  8
0
 62
     0
 10
1.05282
 20
1.64814
 30
0.0
 11
0.858516
 21
1.8948
 31
0.0
  0
LINE
  8
0
 62
     0
 10
0.858516
 20
1.8948
 30
0.0
 11
0.684886
 21
2.15663
 31
0.0
  0
LINE
  8
0
 62
     0
 10
0.684886
 20
2.15663
 30
0.0
 11
0.530546
 21
2.43086
 31
0.0
  0
LINE
  8
0
 62
     0
 10
0.530546
 20
2.43086
 30
0.0
 11
0.39963
 21
2.71473
 31
0.0
  0
LINE
  8
0
 62
     0
 10
0.39963
 20
2.71473
 30
0.0
 11
0.290766
 21
3.00964
 31
0.0
  0
LINE
  8
0
 62
     0
 10
0.290766
 20
3.00964
 30
0.0
 11
0.205328
 21
3.31281
 31
0.0
  0
LINE
  8
0
 62
     0
 10
0.205328
 20
3.31281
 30
0.0
 11
0.144694
 21
3.6201
 31
0.0
  0
LINE
  8
0
 62
     0
 10
0.144694
 20
3.6201
 30
0.0
 11
0.107487
 21
3.93153
 31
0.0
  0
LINE
  8
0
 62
     0
 10
0.107487
 20
3.93153
 30
0.0
 11
0.0950846
 21
4.24575
 31
0.0
  0
LINE
  8
0
 62
     0
 10
0.0950846
 20
4.24575
 30
0.0
 11
0.0950846
 21
163.121
 31
0.0
  0
LINE
  8
0
 62
     0
 10
0.0950846
 20
163.121
 30
0.0
 11
0.107487
 21
163.435
 31
0.0
  0
LINE
  8
0
 62
     0
 10
0.107487
 20
163.435
 30
0.0
 11
0.144694
 21
163.747
 31
0.0
  0
LINE
  8
0
 62
     0
 10
0.144694
 20
163.747
 30
0.0
 11
0.205328
 21
164.055
 31
0.0
  0
LINE
  8
0
 62
     0
 10
0.205328
 20
164.055
 30
0.0
 11
0.290766
 21
164.358
 31
0.0
  0
LINE
  8
0
 62
     0
 10
0.290766
 20
164.358
 30
0.0
 11
0.39963
 21
164.652
 31
0.0
  0
LINE
  8
0
 62
     0
 10
0.39963
 20
164.652
 30
0.0
 11
0.530546
 21
164.937
 31
0.0
  0
LINE
  8
0
 62
     0
 10
0.530546
 20
164.937
 30
0.0
 11
0.684886
 21
165.211
 31
0.0
  0
LINE
  8
0
 62
     0
 10
0.684886
 20
165.211
 30
0.0
 11
0.858516
 21
165.474
 31
0.0
  0
LINE
  8
0
 62
     0
 10
0.858516
 20
165.474
 30
0.0
 11
1.05282
 21
165.719
 31
0.0
  0
LINE
  8
0
 62
     0
 10
1.05282
 20
165.719
 30
0.0
 11
1.26642
 21
165.95
 31
0.0
  0
LINE
  8
0
 62
     0
 10
1.26642
 20
165.95
 30
0.0
 11
1.49793
 21
166.164
 31
0.0
  0
LINE
  8
0
 62
     0
 10
1.49793
 20
166.164
 30
0.0
 11
1.74322
 21
166.358
 31
0.0
  0
LINE
  8
0
 62
     0
 10
1.74322
 20
166.358
 30
0.0
 11
2.00504
 21
166.532
 31
0.0
  0
LINE
  8
0
 62
     0
 10
2.00504
 20
166.532
 30
0.0
 11
2.27928
 21
166.686
 31
0.0
  0
LINE
  8
0
 62
     0
 10
2.27928
 20
166.686
 30
0.0
 11
2.56453
 21
166.817
 31
0.0
  0
LINE
  8
0
 62
     0
 10
2.56453
 20
166.817
 30
0.0
 11
2.85805
 21
166.926
 31
0.0
  0
LINE
  8
0
 62
     0
 10
2.85805
 20
166.926
 30
0.0
 11
3.16122
 21
167.011
 31
0.0
  0
LINE
  8
0
 62
     0
 10
3.16122
 20
167.011
 30
0.0
 11
3.4699
 21
167.072
 31
0.0
  0
LINE
  8
0
 62
     0
 10
3.4699
 20
167.072
 30
0.0
 11
3.78135
 21
167.109
 31
0.0
  0
LINE
  8
0
 62
     0
 10
3.78135
 20
167.109
 30
0.0
 11
4.09554
 21
167.121
 31
0.0
  0
LINE
  8
0
 62
     0
 10
4.09554
 20
167.121
 30
0.0
 11
490.633
 21
167.121
 31
0.0
  0
LINE
  8
0
 62
     0
 10
4.63158
 20
6.67247
 30
0.0
 11
4.21404
 21
6.45887
 31
0.0
  0
LINE
  8
0
 62
     0
 10
4.21404
 20
6.45887
 30
0.0
 11
3.88193
 21
6.12676
 31
0.0
  0
LINE
  8
0
 62
     0
 10
3.88193
 20
6.12676
 30
0.0
 11
3.66832
 21
5.70921
 31
0.0
  0
LINE
  8
0
 62
     0
 10
3.66832
 20
5.70921
 30
0.0
 11
3.5953
 21
5.24482
 31
0.0
  0
LINE
  8
0
 62
     0
 10
3.5953
 20
5.24482
 30
0.0
 11
3.66832
 21
4.7818
 31
0.0
  0
LINE
  8
0
 62
     0
 10
3.66832
 20
4.7818
 30
0.0
 11
3.88193
 21
4.36425
 31
0.0
  0
LINE
  8
0
 62
     0
 10
3.88193
 20
4.36425
 30
0.0
 11
4.21404
 21
4.03214
 31
0.0
  0
LINE
  8
0
 62
     0
 10
4.21404
 20
4.03214
 30
0.0
 11
4.63158
 21
3.81854
 31
0.0
  0
LINE
  8
0
 62
     0
 10
4.63158
 20
3.81854
 30
0.0
 11
5.09598
 21
3.74551
 31
0.0
  0
LINE
  8
0
 62
     0
 10
5.09598
 20
3.74551
 30
0.0
 11
5.559
 21
3.81854
 31
0.0
  0
LINE
  8
0
 62
     0
 10
5.559
 20
3.81854
 30
0.0
 11
5.97655
 21
4.03214
 31
0.0
  0
LINE
  8
0
 62
     0
 10
5.97655
 20
4.03214
 30
0.0
 11
6.30865
 21
4.36425
 31
0.0
  0
LINE
  8
0
 62
     0
 10
6.30865
 20
4.36425
 30
0.0
 11
6.52089
 21
4.7818
 31
0.0
  0
LINE
  8
0
 62
     0
 10
6.52089
 20
4.7818
 30
0.0
 11
6.59529
 21
5.24482
 31
0.0
  0
LINE
  8
0
 62
     0
 10
6.59529
 20
5.24482
 30
0.0
 11
6.52089
 21
5.70921
 31
0.0
  0
LINE
  8
0
 62
     0
 10
6.52089
 20
5.70921
 30
0.0
 11
6.30865
 21
6.12676
 31
0.0
  0
LINE
  8
0
 62
     0
 10
6.30865
 20
6.12676
 30
0.0
 11
5.97655
 21
6.45887
 31
0.0
  0
LINE
  8
0
 62
     0
 10
5.97655
 20
6.45887
 30
0.0
 11
5.559
 21
6.67247
 31
0.0
  0
LINE
  8
0
 62
     0
 10
5.559
 20
6.67247
 30
0.0
 11
5.09598
 21
6.7455
 31
0.0
  0
LINE
  8
0
 62
     0
 10
5.09598
 20
6.7455
 30
0.0
 11
4.63158
 21
6.67247
 31
0.0
  0
LINE
  8
0
 62
     0
 10
166.145
 20
6.67247
 30
0.0
 11
165.727
 21
6.45887
 31
0.0
  0
LINE
  8
0
 62
     0
 10
165.727
 20
6.45887
 30
0.0
 11
165.395
 21
6.12676
 31
0.0
  0
LINE
  8
0
 62
     0
 10
165.395
 20
6.12676
 30
0.0
 11
165.181
 21
5.70921
 31
0.0
  0
LINE
  8
0
 62
     0
 10
165.181
 20
5.70921
 30
0.0
 11
165.107
 21
5.24482
 31
0.0
  0
LINE
  8
0
 62
     0
 10
165.107
 20
5.24482
 30
0.0
 11
165.181
 21
4.7818
 31
0.0
  0
LINE
  8
0
 62
     0
 10
165.181
 20
4.7818
 30
0.0
 11
165.395
 21
4.36425
 31
0.0
  0
LINE
  8
0
 62
     0
 10
165.395
 20
4.36425
 30
0.0
 11
165.727
 21
4.03214
 31
0.0
  0
LINE
  8
0
 62
     0
 10
165.727
 20
4.03214
 30
0.0
 11
166.145
 21
3.81854
 31
0.0
  0
LINE
  8
0
 62
     0
 10
166.145
 20
3.81854
 30
0.0
 11
166.607
 21
3.74551
 31
0.0
  0
LINE
  8
0
 62
     0
 10
166.607
 20
3.74551
 30
0.0
 11
167.072
 21
3.81854
 31
0.0
  0
LINE
  8
0
 62
     0
 10
167.072
 20
3.81854
 30
0.0
 11
167.489
 21
4.03214
 31
0.0
  0
LINE
  8
0
 62
     0
 10
167.489
 20
4.03214
 30
0.0
 11
167.822
 21
4.36425
 31
0.0
  0
LINE
  8
0
 62
     0
 10
167.822
 20
4.36425
 30
0.0
 11
168.034
 21
4.7818
 31
0.0
  0
LINE
  8
0
 62
     0
 10
168.034
 20
4.7818
 30
0.0
 11
168.107
 21
5.24482
 31
0.0
  0
LINE
  8
0
 62
     0
 10
168.107
 20
5.24482
 30
0.0
 11
168.034
 21
5.70921
 31
0.0
  0
LINE
  8
0
 62
     0
 10
168.034
 20
5.70921
 30
0.0
 11
167.822
 21
6.12676
 31
0.0
  0
LINE
  8
0
 62
     0
 10
167.822
 20
6.12676
 30
0.0
 11
167.489
 21
6.45887
 31
0.0
  0
LINE
  8
0
 62
     0
 10
167.489
 20
6.45887
 30
0.0
 11
167.072
 21
6.67247
 31
0.0
  0
LINE
  8
0
 62
     0
 10
167.072
 20
6.67247
 30
0.0
 11
166.607
 21
6.7455
 31
0.0
  0
LINE
  8
0
 62
     0
 10
166.607
 20
6.7455
 30
0.0
 11
166.145
 21
6.67247
 31
0.0
  0
LINE
  8
0
 62
     0
 10
327.658
 20
6.67247
 30
0.0
 11
327.238
 21
6.45887
 31
0.0
  0
LINE
  8
0
 62
     0
 10
327.238
 20
6.45887
 30
0.0
 11
326.908
 21
6.12676
 31
0.0
  0
LINE
  8
0
 62
     0
 10
326.908
 20
6.12676
 30
0.0
 11
326.694
 21
5.70921
 31
0.0
  0
LINE
  8
0
 62
     0
 10
326.694
 20
5.70921
 30
0.0
 11
326.62
 21
5.24482
 31
0.0
  0
LINE
  8
0
 62
     0
 10
326.62
 20
5.24482
 30
0.0
 11
326.694
 21
4.7818
 31
0.0
  0
LINE
  8
0
 62
     0
 10
326.694
 20
4.7818
 30
0.0
 11
326.908
 21
4.36425
 31
0.0
  0
LINE
  8
0
 62
     0
 10
326.908
 20
4.36425
 30
0.0
 11
327.238
 21
4.03214
 31
0.0
  0
LINE
  8
0
 62
     0
 10
327.238
 20
4.03214
 30
0.0
 11
327.658
 21
3.81854
 31
0.0
  0
LINE
  8
0
 62
     0
 10
327.658
 20
3.81854
 30
0.0
 11
328.12
 21
3.74551
 31
0.0
  0
LINE
  8
0
 62
     0
 10
328.12
 20
3.74551
 30
0.0
 11
328.585
 21
3.81854
 31
0.0
  0
LINE
  8
0
 62
     0
 10
328.585
 20
3.81854
 30
0.0
 11
329.002
 21
4.03214
 31
0.0
  0
LINE
  8
0
 62
     0
 10
329.002
 20
4.03214
 30
0.0
 11
329.335
 21
4.36425
 31
0.0
  0
LINE
  8
0
 62
     0
 10
329.335
 20
4.36425
 30
0.0
 11
329.547
 21
4.7818
 31
0.0
  0
LINE
  8
0
 62
     0
 10
329.547
 20
4.7818
 30
0.0
 11
329.62
 21
5.24482
 31
0.0
  0
LINE
  8
0
 62
     0
 10
329.62
 20
5.24482
 30
0.0
 11
329.547
 21
5.70921
 31
0.0
  0
LINE
  8
0
 62
     0
 10
329.547
 20
5.70921
 30
0.0
 11
329.335
 21
6.12676
 31
0.0
  0
LINE
  8
0
 62
     0
 10
329.335
 20
6.12676
 30
0.0
 11
329.002
 21
6.45887
 31
0.0
  0
LINE
  8
0
 62
     0
 10
329.002
 20
6.45887
 30
0.0
 11
328.585
 21
6.67247
 31
0.0
  0
LINE
  8
0
 62
     0
 10
328.585
 20
6.67247
 30
0.0
 11
328.12
 21
6.7455
 31
0.0
  0
LINE
  8
0
 62
     0
 10
328.12
 20
6.7455
 30
0.0
 11
327.658
 21
6.67247
 31
0.0
  0
LINE
  8
0
 62
     0
 10
489.169
 20
6.67247
 30
0.0
 11
488.752
 21
6.45887
 31
0.0
  0
LINE
  8
0
 62
     0
 10
488.752
 20
6.45887
 30
0.0
 11
488.421
 21
6.12676
 31
0.0
  0
LINE
  8
0
 62
     0
 10
488.421
 20
6.12676
 30
0.0
 11
488.206
 21
5.70921
 31
0.0
  0
LINE
  8
0
 62
     0
 10
488.206
 20
5.70921
 30
0.0
 11
488.132
 21
5.24482
 31
0.0
  0
LINE
  8
0
 62
     0
 10
488.132
 20
5.24482
 30
0.0
 11
488.206
 21
4.7818
 31
0.0
  0
LINE
  8
0
 62
     0
 10
488.206
 20
4.7818
 30
0.0
 11
488.421
 21
4.36425
 31
0.0
  0
LINE
  8
0
 62
     0
 10
488.421
 20
4.36425
 30
0.0
 11
488.752
 21
4.03214
 31
0.0
  0
LINE
  8
0
 62
     0
 10
488.752
 20
4.03214
 30
0.0
 11
489.169
 21
3.81854
 31
0.0
  0
LINE
  8
0
 62
     0
 10
489.169
 20
3.81854
 30
0.0
 11
489.634
 21
3.74551
 31
0.0
  0
LINE
  8
0
 62
     0
 10
489.634
 20
3.74551
 30
0.0
 11
490.097
 21
3.81854
 31
0.0
  0
LINE
  8
0
 62
     0
 10
490.097
 20
3.81854
 30
0.0
 11
490.516
 21
4.03214
 31
0.0
  0
LINE
  8
0
 62
     0
 10
490.516
 20
4.03214
 30
0.0
 11
490.848
 21
4.36425
 31
0.0
  0
LINE
  8
0
 62
     0
 10
490.848
 20
4.36425
 30
0.0
 11
491.06
 21
4.7818
 31
0.0
  0
LINE
  8
0
 62
     0
 10
491.06
 20
4.7818
 30
0.0
 11
491.134
 21
5.24482
 31
0.0
  0
LINE
  8
0
 62
     0
 10
491.134
 20
5.24482
 30
0.0
 11
491.06
 21
5.70921
 31
0.0
  0
LINE
  8
0
 62
     0
 10
491.06
 20
5.70921
 30
0.0
 11
490.848
 21
6.12676
 31
0.0
  0
LINE
  8
0
 62
     0
 10
490.848
 20
6.12676
 30
0.0
 11
490.516
 21
6.45887
 31
0.0
  0
LINE
  8
0
 62
     0
 10
490.516
 20
6.45887
 30
0.0
 11
490.097
 21
6.67247
 31
0.0
  0
LINE
  8
0
 62
     0
 10
490.097
 20
6.67247
 30
0.0
 11
489.634
 21
6.7455
 31
0.0
  0
LINE
  8
0
 62
     0
 10
489.634
 20
6.7455
 30
0.0
 11
489.169
 21
6.67247
 31
0.0
  0
LINE
  8
0
 62
     0
 10
187.977
 20
28.7707
 30
0.0
 11
187.977
 21
24.0716
 31
0.0
  0
LINE
  8
0
 62
     0
 10
187.977
 20
24.0716
 30
0.0
 11
148.351
 21
24.0716
 31
0.0
  0
LINE
  8
0
 62
     0
 10
148.351
 20
24.0716
 30
0.0
 11
148.351
 21
27.3017
 31
0.0
  0
LINE
  8
0
 62
     0
 10
148.351
 20
27.3017
 30
0.0
 11
141.602
 21
27.3017
 31
0.0
  0
LINE
  8
0
 62
     0
 10
141.602
 20
27.3017
 30
0.0
 11
141.602
 21
24.0716
 31
0.0
  0
LINE
  8
0
 62
     0
 10
141.602
 20
24.0716
 30
0.0
 11
140.776
 21
24.0716
 31
0.0
  0
LINE
  8
0
 62
     0
 10
140.776
 20
24.0716
 30
0.0
 11
140.776
 21
21.2714
 31
0.0
  0
LINE
  8
0
 62
     0
 10
140.776
 20
21.2714
 30
0.0
 11
141.602
 21
21.2714
 31
0.0
  0
LINE
  8
0
 62
     0
 10
141.602
 20
21.2714
 30
0.0
 11
141.602
 21
15.0013
 31
0.0
  0
LINE
  8
0
 62
     0
 10
141.602
 20
15.0013
 30
0.0
 11
143.327
 21
15.0013
 31
0.0
  0
LINE
  8
0
 62
     0
 10
143.327
 20
15.0013
 30
0.0
 11
143.327
 21
13.8011
 31
0.0
  0
LINE
  8
0
 62
     0
 10
143.327
 20
13.8011
 30
0.0
 11
146.626
 21
13.8011
 31
0.0
  0
LINE
  8
0
 62
     0
 10
146.626
 20
13.8011
 30
0.0
 11
146.626
 21
15.0013
 31
0.0
  0
LINE
  8
0
 62
     0
 10
146.626
 20
15.0013
 30
0.0
 11
148.351
 21
15.0013
 31
0.0
  0
LINE
  8
0
 62
     0
 10
148.351
 20
15.0013
 30
0.0
 11
148.351
 21
19.4717
 31
0.0
  0
LINE
  8
0
 62
     0
 10
148.351
 20
19.4717
 30
0.0
 11
187.977
 21
19.4717
 31
0.0
  0
LINE
  8
0
 62
     0
 10
187.977
 20
19.4717
 30
0.0
 11
187.977
 21
14.7712
 31
0.0
  0
LINE
  8
0
 62
     0
 10
187.977
 20
14.7712
 30
0.0
 11
201.976
 21
14.7712
 31
0.0
  0
LINE
  8
0
 62
     0
 10
201.976
 20
14.7712
 30
0.0
 11
201.976
 21
19.4717
 31
0.0
  0
LINE
  8
0
 62
     0
 10
201.976
 20
19.4717
 30
0.0
 11
241.602
 21
19.4717
 31
0.0
  0
LINE
  8
0
 62
     0
 10
241.602
 20
19.4717
 30
0.0
 11
241.602
 21
15.0013
 31
0.0
  0
LINE
  8
0
 62
     0
 10
241.602
 20
15.0013
 30
0.0
 11
243.327
 21
15.0013
 31
0.0
  0
LINE
  8
0
 62
     0
 10
243.327
 20
15.0013
 30
0.0
 11
243.327
 21
13.8011
 31
0.0
  0
LINE
  8
0
 62
     0
 10
243.327
 20
13.8011
 30
0.0
 11
246.626
 21
13.8011
 31
0.0
  0
LINE
  8
0
 62
     0
 10
246.626
 20
13.8011
 30
0.0
 11
246.626
 21
15.0013
 31
0.0
  0
LINE
  8
0
 62
     0
 10
246.626
 20
15.0013
 30
0.0
 11
248.351
 21
15.0013
 31
0.0
  0
LINE
  8
0
 62
     0
 10
248.351
 20
15.0013
 30
0.0
 11
248.351
 21
21.2714
 31
0.0
  0
LINE
  8
0
 62
     0
 10
248.351
 20
21.2714
 30
0.0
 11
249.177
 21
21.2714
 31
0.0
  0
LINE
  8
0
 62
     0
 10
249.177
 20
21.2714
 30
0.0
 11
249.177
 21
24.0716
 31
0.0
  0
LINE
  8
0
 62
     0
 10
249.177
 20
24.0716
 30
0.0
 11
248.351
 21
24.0716
 31
0.0
  0
LINE
  8
0
 62
     0
 10
248.351
 20
24.0716
 30
0.0
 11
248.351
 21
27.3017
 31
0.0
  0
LINE
  8
0
 62
     0
 10
248.351
 20
27.3017
 30
0.0
 11
241.602
 21
27.3017
 31
0.0
  0
LINE
  8
0
 62
     0
 10
241.602
 20
27.3017
 30
0.0
 11
241.602
 21
24.0716
 31
0.0
  0
LINE
  8
0
 62
     0
 10
241.602
 20
24.0716
 30
0.0
 11
201.976
 21
24.0716
 31
0.0
  0
LINE
  8
0
 62
     0
 10
201.976
 20
24.0716
 30
0.0
 11
201.976
 21
28.7707
 31
0.0
  0
LINE
  8
0
 62
     0
 10
201.976
 20
28.7707
 30
0.0
 11
187.977
 21
28.7707
 31
0.0
  0
LINE
  8
0
 62
     0
 10
428.484
 20
28.7707
 30
0.0
 11
428.484
 21
24.0716
 31
0.0
  0
LINE
  8
0
 62
     0
 10
428.484
 20
24.0716
 30
0.0
 11
426.956
 21
24.0716
 31
0.0
  0
LINE
  8
0
 62
     0
 10
426.956
 20
24.0716
 30
0.0
 11
426.956
 21
27.3017
 31
0.0
  0
LINE
  8
0
 62
     0
 10
426.956
 20
27.3017
 30
0.0
 11
420.208
 21
27.3017
 31
0.0
  0
LINE
  8
0
 62
     0
 10
420.208
 20
27.3017
 30
0.0
 11
420.208
 21
24.0716
 31
0.0
  0
LINE
  8
0
 62
     0
 10
420.208
 20
24.0716
 30
0.0
 11
419.382
 21
24.0716
 31
0.0
  0
LINE
  8
0
 62
     0
 10
419.382
 20
24.0716
 30
0.0
 11
419.382
 21
21.2714
 31
0.0
  0
LINE
  8
0
 62
     0
 10
419.382
 20
21.2714
 30
0.0
 11
420.208
 21
21.2714
 31
0.0
  0
LINE
  8
0
 62
     0
 10
420.208
 20
21.2714
 30
0.0
 11
420.208
 21
15.0013
 31
0.0
  0
LINE
  8
0
 62
     0
 10
420.208
 20
15.0013
 30
0.0
 11
421.933
 21
15.0013
 31
0.0
  0
LINE
  8
0
 62
     0
 10
421.933
 20
15.0013
 30
0.0
 11
421.933
 21
13.8011
 31
0.0
  0
LINE
  8
0
 62
     0
 10
421.933
 20
13.8011
 30
0.0
 11
425.231
 21
13.8011
 31
0.0
  0
LINE
  8
0
 62
     0
 10
425.231
 20
13.8011
 30
0.0
 11
425.231
 21
15.0013
 31
0.0
  0
LINE
  8
0
 62
     0
 10
425.231
 20
15.0013
 30
0.0
 11
426.956
 21
15.0013
 31
0.0
  0
LINE
  8
0
 62
     0
 10
426.956
 20
15.0013
 30
0.0
 11
426.956
 21
19.4717
 31
0.0
  0
LINE
  8
0
 62
     0
 10
426.956
 20
19.4717
 30
0.0
 11
428.484
 21
19.4717
 31
0.0
  0
LINE
  8
0
 62
     0
 10
428.484
 20
19.4717
 30
0.0
 11
428.484
 21
14.7712
 31
0.0
  0
LINE
  8
0
 62
     0
 10
428.484
 20
14.7712
 30
0.0
 11
442.482
 21
14.7712
 31
0.0
  0
LINE
  8
0
 62
     0
 10
442.482
 20
14.7712
 30
0.0
 11
442.482
 21
19.4717
 31
0.0
  0
LINE
  8
0
 62
     0
 10
442.482
 20
19.4717
 30
0.0
 11
444.01
 21
19.4717
 31
0.0
  0
LINE
  8
0
 62
     0
 10
444.01
 20
19.4717
 30
0.0
 11
444.01
 21
15.0013
 31
0.0
  0
LINE
  8
0
 62
     0
 10
444.01
 20
15.0013
 30
0.0
 11
445.731
 21
15.0013
 31
0.0
  0
LINE
  8
0
 62
     0
 10
445.731
 20
15.0013
 30
0.0
 11
445.731
 21
13.8011
 31
0.0
  0
LINE
  8
0
 62
     0
 10
445.731
 20
13.8011
 30
0.0
 11
449.033
 21
13.8011
 31
0.0
  0
LINE
  8
0
 62
     0
 10
449.033
 20
13.8011
 30
0.0
 11
449.033
 21
15.0013
 31
0.0
  0
LINE
  8
0
 62
     0
 10
449.033
 20
15.0013
 30
0.0
 11
450.758
 21
15.0013
 31
0.0
  0
LINE
  8
0
 62
     0
 10
450.758
 20
15.0013
 30
0.0
 11
450.758
 21
21.2714
 31
0.0
  0
LINE
  8
0
 62
     0
 10
450.758
 20
21.2714
 30
0.0
 11
451.584
 21
21.2714
 31
0.0
  0
LINE
  8
0
 62
     0
 10
451.584
 20
21.2714
 30
0.0
 11
451.584
 21
24.0716
 31
0.0
  0
LINE
  8
0
 62
     0
 10
451.584
 20
24.0716
 30
0.0
 11
450.758
 21
24.0716
 31
0.0
  0
LINE
  8
0
 62
     0
 10
450.758
 20
24.0716
 30
0.0
 11
450.758
 21
27.3017
 31
0.0
  0
LINE
  8
0
 62
     0
 10
450.758
 20
27.3017
 30
0.0
 11
444.01
 21
27.3017
 31
0.0
  0
LINE
  8
0
 62
     0
 10
444.01
 20
27.3017
 30
0.0
 11
444.01
 21
24.0716
 31
0.0
  0
LINE
  8
0
 62
     0
 10
444.01
 20
24.0716
 30
0.0
 11
442.482
 21
24.0716
 31
0.0
  0
LINE
  8
0
 62
     0
 10
442.482
 20
24.0716
 30
0.0
 11
442.482
 21
28.7707
 31
0.0
  0
LINE
  8
0
 62
     0
 10
442.482
 20
28.7707
 30
0.0
 11
428.484
 21
28.7707
 31
0.0
  0
LINE
  8
0
 62
     0
 10
68.913
 20
28.7707
 30
0.0
 11
82.9137
 21
28.7707
 31
0.0
  0
LINE
  8
0
 62
     0
 10
82.9137
 20
28.7707
 30
0.0
 11
82.9137
 21
14.7712
 31
0.0
  0
LINE
  8
0
 62
     0
 10
82.9137
 20
14.7712
 30
0.0
 11
68.913
 21
14.7712
 31
0.0
  0
LINE
  8
0
 62
     0
 10
68.913
 20
14.7712
 30
0.0
 11
68.913
 21
28.7707
 31
0.0
  0
LINE
  8
0
 62
     0
 10
92.7269
 20
28.7707
 30
0.0
 11
106.726
 21
28.7707
 31
0.0
  0
LINE
  8
0
 62
     0
 10
106.726
 20
28.7707
 30
0.0
 11
106.726
 21
14.7712
 31
0.0
  0
LINE
  8
0
 62
     0
 10
106.726
 20
14.7712
 30
0.0
 11
92.7269
 21
14.7712
 31
0.0
  0
LINE
  8
0
 62
     0
 10
92.7269
 20
14.7712
 30
0.0
 11
92.7269
 21
28.7707
 31
0.0
  0
LINE
  8
0
 62
     0
 10
116.538
 20
28.7707
 30
0.0
 11
130.539
 21
28.7707
 31
0.0
  0
LINE
  8
0
 62
     0
 10
130.539
 20
28.7707
 30
0.0
 11
130.539
 21
14.7712
 31
0.0
  0
LINE
  8
0
 62
     0
 10
130.539
 20
14.7712
 30
0.0
 11
116.538
 21
14.7712
 31
0.0
  0
LINE
  8
0
 62
     0
 10
116.538
 20
14.7712
 30
0.0
 11
116.538
 21
28.7707
 31
0.0
  0
LINE
  8
0
 62
     0
 10
259.413
 20
28.7707
 30
0.0
 11
273.414
 21
28.7707
 31
0.0
  0
LINE
  8
0
 62
     0
 10
273.414
 20
28.7707
 30
0.0
 11
273.414
 21
14.7712
 31
0.0
  0
LINE
  8
0
 62
     0
 10
273.414
 20
14.7712
 30
0.0
 11
259.413
 21
14.7712
 31
0.0
  0
LINE
  8
0
 62
     0
 10
259.413
 20
14.7712
 30
0.0
 11
259.413
 21
28.7707
 31
0.0
  0
LINE
  8
0
 62
     0
 10
283.227
 20
28.7707
 30
0.0
 11
297.226
 21
28.7707
 31
0.0
  0
LINE
  8
0
 62
     0
 10
297.226
 20
28.7707
 30
0.0
 11
297.226
 21
14.7712
 31
0.0
  0
LINE
  8
0
 62
     0
 10
297.226
 20
14.7712
 30
0.0
 11
283.227
 21
14.7712
 31
0.0
  0
LINE
  8
0
 62
     0
 10
283.227
 20
14.7712
 30
0.0
 11
283.227
 21
28.7707
 31
0.0
  0
LINE
  8
0
 62
     0
 10
307.038
 20
28.7707
 30
0.0
 11
321.039
 21
28.7707
 31
0.0
  0
LINE
  8
0
 62
     0
 10
321.039
 20
28.7707
 30
0.0
 11
321.039
 21
14.7712
 31
0.0
  0
LINE
  8
0
 62
     0
 10
321.039
 20
14.7712
 30
0.0
 11
307.038
 21
14.7712
 31
0.0
  0
LINE
  8
0
 62
     0
 10
307.038
 20
14.7712
 30
0.0
 11
307.038
 21
28.7707
 31
0.0
  0
LINE
  8
0
 62
     0
 10
330.852
 20
28.7707
 30
0.0
 11
344.851
 21
28.7707
 31
0.0
  0
LINE
  8
0
 62
     0
 10
344.851
 20
28.7707
 30
0.0
 11
344.851
 21
14.7712
 31
0.0
  0
LINE
  8
0
 62
     0
 10
344.851
 20
14.7712
 30
0.0
 11
330.852
 21
14.7712
 31
0.0
  0
LINE
  8
0
 62
     0
 10
330.852
 20
14.7712
 30
0.0
 11
330.852
 21
28.7707
 31
0.0
  0
LINE
  8
0
 62
     0
 10
357.046
 20
28.7707
 30
0.0
 11
371.045
 21
28.7707
 31
0.0
  0
LINE
  8
0
 62
     0
 10
371.045
 20
28.7707
 30
0.0
 11
371.045
 21
14.7712
 31
0.0
  0
LINE
  8
0
 62
     0
 10
371.045
 20
14.7712
 30
0.0
 11
357.046
 21
14.7712
 31
0.0
  0
LINE
  8
0
 62
     0
 10
357.046
 20
14.7712
 30
0.0
 11
357.046
 21
28.7707
 31
0.0
  0
LINE
  8
0
 62
     0
 10
376.096
 20
28.7707
 30
0.0
 11
390.095
 21
28.7707
 31
0.0
  0
LINE
  8
0
 62
     0
 10
390.095
 20
28.7707
 30
0.0
 11
390.095
 21
14.7712
 31
0.0
  0
LINE
  8
0
 62
     0
 10
390.095
 20
14.7712
 30
0.0
 11
376.096
 21
14.7712
 31
0.0
  0
LINE
  8
0
 62
     0
 10
376.096
 20
14.7712
 30
0.0
 11
376.096
 21
28.7707
 31
0.0
  0
LINE
  8
0
 62
     0
 10
395.146
 20
28.7707
 30
0.0
 11
409.145
 21
28.7707
 31
0.0
  0
LINE
  8
0
 62
     0
 10
409.145
 20
28.7707
 30
0.0
 11
409.145
 21
14.7712
 31
0.0
  0
LINE
  8
0
 62
     0
 10
409.145
 20
14.7712
 30
0.0
 11
395.146
 21
14.7712
 31
0.0
  0
LINE
  8
0
 62
     0
 10
395.146
 20
14.7712
 30
0.0
 11
395.146
 21
28.7707
 31
0.0
  0
LINE
  8
0
 62
     0
 10
457.059
 20
28.7707
 30
0.0
 11
471.057
 21
28.7707
 31
0.0
  0
LINE
  8
0
 62
     0
 10
471.057
 20
28.7707
 30
0.0
 11
471.057
 21
14.7712
 31
0.0
  0
LINE
  8
0
 62
     0
 10
471.057
 20
14.7712
 30
0.0
 11
457.059
 21
14.7712
 31
0.0
  0
LINE
  8
0
 62
     0
 10
457.059
 20
14.7712
 30
0.0
 11
457.059
 21
28.7707
 31
0.0
  0
LINE
  8
0
 62
     0
 10
4.6192
 20
28.7707
 30
0.0
 11
18.6201
 21
28.7707
 31
0.0
  0
LINE
  8
0
 62
     0
 10
18.6201
 20
28.7707
 30
0.0
 11
18.6201
 21
14.7712
 31
0.0
  0
LINE
  8
0
 62
     0
 10
18.6201
 20
14.7712
 30
0.0
 11
4.6192
 21
14.7712
 31
0.0
  0
LINE
  8
0
 62
     0
 10
4.6192
 20
14.7712
 30
0.0
 11
4.6192
 21
28.7707
 31
0.0
  0
LINE
  8
0
 62
     0
 10
23.6706
 20
28.7707
 30
0.0
 11
37.67
 21
28.7707
 31
0.0
  0
LINE
  8
0
 62
     0
 10
37.67
 20
28.7707
 30
0.0
 11
37.67
 21
14.7712
 31
0.0
  0
LINE
  8
0
 62
     0
 10
37.67
 20
14.7712
 30
0.0
 11
23.6706
 21
14.7712
 31
0.0
  0
LINE
  8
0
 62
     0
 10
23.6706
 20
14.7712
 30
0.0
 11
23.6706
 21
28.7707
 31
0.0
  0
LINE
  8
0
 62
     0
 10
42.7207
 20
28.7707
 30
0.0
 11
56.72
 21
28.7707
 31
0.0
  0
LINE
  8
0
 62
     0
 10
56.72
 20
28.7707
 30
0.0
 11
56.72
 21
14.7712
 31
0.0
  0
LINE
  8
0
 62
     0
 10
56.72
 20
14.7712
 30
0.0
 11
42.7207
 21
14.7712
 31
0.0
  0
LINE
  8
0
 62
     0
 10
42.7207
 20
14.7712
 30
0.0
 11
42.7207
 21
28.7707
 31
0.0
  0
LINE
  8
0
 62
     0
 10
482.607
 20
47.3964
 30
0.0
 11
482.607
 21
46.5709
 31
0.0
  0
LINE
  8
0
 62
     0
 10
482.607
 20
46.5709
 30
0.0
 11
476.338
 21
46.5709
 31
0.0
  0
LINE
  8
0
 62
     0
 10
476.338
 20
46.5709
 30
0.0
 11
476.338
 21
44.8455
 31
0.0
  0
LINE
  8
0
 62
     0
 10
476.338
 20
44.8455
 30
0.0
 11
475.139
 21
44.8455
 31
0.0
  0
LINE
  8
0
 62
     0
 10
475.139
 20
44.8455
 30
0.0
 11
475.139
 21
41.5477
 31
0.0
  0
LINE
  8
0
 62
     0
 10
475.139
 20
41.5477
 30
0.0
 11
476.338
 21
41.5477
 31
0.0
  0
LINE
  8
0
 62
     0
 10
476.338
 20
41.5477
 30
0.0
 11
476.338
 21
39.8212
 31
0.0
  0
LINE
  8
0
 62
     0
 10
476.338
 20
39.8212
 30
0.0
 11
480.808
 21
39.8212
 31
0.0
  0
LINE
  8
0
 62
     0
 10
480.808
 20
39.8212
 30
0.0
 11
480.808
 21
38.2958
 31
0.0
  0
LINE
  8
0
 62
     0
 10
480.808
 20
38.2958
 30
0.0
 11
476.109
 21
38.2958
 31
0.0
  0
LINE
  8
0
 62
     0
 10
476.109
 20
38.2958
 30
0.0
 11
476.109
 21
24.2962
 31
0.0
  0
LINE
  8
0
 62
     0
 10
476.109
 20
24.2962
 30
0.0
 11
480.808
 21
24.2962
 31
0.0
  0
LINE
  8
0
 62
     0
 10
480.808
 20
24.2962
 30
0.0
 11
480.808
 21
22.7707
 31
0.0
  0
LINE
  8
0
 62
     0
 10
480.808
 20
22.7707
 30
0.0
 11
476.338
 21
22.7707
 31
0.0
  0
LINE
  8
0
 62
     0
 10
476.338
 20
22.7707
 30
0.0
 11
476.338
 21
21.0468
 31
0.0
  0
LINE
  8
0
 62
     0
 10
476.338
 20
21.0468
 30
0.0
 11
475.139
 21
21.0468
 31
0.0
  0
LINE
  8
0
 62
     0
 10
475.139
 20
21.0468
 30
0.0
 11
475.139
 21
17.7464
 31
0.0
  0
LINE
  8
0
 62
     0
 10
475.139
 20
17.7464
 30
0.0
 11
476.338
 21
17.7464
 31
0.0
  0
LINE
  8
0
 62
     0
 10
476.338
 20
17.7464
 30
0.0
 11
476.338
 21
16.0211
 31
0.0
  0
LINE
  8
0
 62
     0
 10
476.338
 20
16.0211
 30
0.0
 11
482.607
 21
16.0211
 31
0.0
  0
LINE
  8
0
 62
     0
 10
482.607
 20
16.0211
 30
0.0
 11
482.607
 21
15.1956
 31
0.0
  0
LINE
  8
0
 62
     0
 10
482.607
 20
15.1956
 30
0.0
 11
485.408
 21
15.1956
 31
0.0
  0
LINE
  8
0
 62
     0
 10
485.408
 20
15.1956
 30
0.0
 11
485.408
 21
16.0211
 31
0.0
  0
LINE
  8
0
 62
     0
 10
485.408
 20
16.0211
 30
0.0
 11
488.636
 21
16.0211
 31
0.0
  0
LINE
  8
0
 62
     0
 10
488.636
 20
16.0211
 30
0.0
 11
488.636
 21
22.7707
 31
0.0
  0
LINE
  8
0
 62
     0
 10
488.636
 20
22.7707
 30
0.0
 11
485.408
 21
22.7707
 31
0.0
  0
LINE
  8
0
 62
     0
 10
485.408
 20
22.7707
 30
0.0
 11
485.408
 21
24.2962
 31
0.0
  0
LINE
  8
0
 62
     0
 10
485.408
 20
24.2962
 30
0.0
 11
490.107
 21
24.2962
 31
0.0
  0
LINE
  8
0
 62
     0
 10
490.107
 20
24.2962
 30
0.0
 11
490.107
 21
38.2958
 31
0.0
  0
LINE
  8
0
 62
     0
 10
490.107
 20
38.2958
 30
0.0
 11
485.408
 21
38.2958
 31
0.0
  0
LINE
  8
0
 62
     0
 10
485.408
 20
38.2958
 30
0.0
 11
485.408
 21
39.8212
 31
0.0
  0
LINE
  8
0
 62
     0
 10
485.408
 20
39.8212
 30
0.0
 11
488.636
 21
39.8212
 31
0.0
  0
LINE
  8
0
 62
     0
 10
488.636
 20
39.8212
 30
0.0
 11
488.636
 21
46.5709
 31
0.0
  0
LINE
  8
0
 62
     0
 10
488.636
 20
46.5709
 30
0.0
 11
485.408
 21
46.5709
 31
0.0
  0
LINE
  8
0
 62
     0
 10
485.408
 20
46.5709
 30
0.0
 11
485.408
 21
47.3964
 31
0.0
  0
LINE
  8
0
 62
     0
 10
485.408
 20
47.3964
 30
0.0
 11
482.607
 21
47.3964
 31
0.0
  0
LINE
  8
0
 62
     0
 10
78.438
 20
47.8208
 30
0.0
 11
78.438
 21
43.1214
 31
0.0
  0
LINE
  8
0
 62
     0
 10
78.438
 20
43.1214
 30
0.0
 11
76.9137
 21
43.1214
 31
0.0
  0
LINE
  8
0
 62
     0
 10
76.9137
 20
43.1214
 30
0.0
 11
76.9137
 21
46.3518
 31
0.0
  0
LINE
  8
0
 62
     0
 10
76.9137
 20
46.3518
 30
0.0
 11
70.1629
 21
46.3518
 31
0.0
  0
LINE
  8
0
 62
     0
 10
70.1629
 20
46.3518
 30
0.0
 11
70.1629
 21
43.1214
 31
0.0
  0
LINE
  8
0
 62
     0
 10
70.1629
 20
43.1214
 30
0.0
 11
69.3388
 21
43.1214
 31
0.0
  0
LINE
  8
0
 62
     0
 10
69.3388
 20
43.1214
 30
0.0
 11
69.3388
 21
40.3214
 31
0.0
  0
LINE
  8
0
 62
     0
 10
69.3388
 20
40.3214
 30
0.0
 11
70.1629
 21
40.3214
 31
0.0
  0
LINE
  8
0
 62
     0
 10
70.1629
 20
40.3214
 30
0.0
 11
70.1629
 21
34.0513
 31
0.0
  0
LINE
  8
0
 62
     0
 10
70.1629
 20
34.0513
 30
0.0
 11
71.888
 21
34.0513
 31
0.0
  0
LINE
  8
0
 62
     0
 10
71.888
 20
34.0513
 30
0.0
 11
71.888
 21
32.8511
 31
0.0
  0
LINE
  8
0
 62
     0
 10
71.888
 20
32.8511
 30
0.0
 11
75.1886
 21
32.8511
 31
0.0
  0
LINE
  8
0
 62
     0
 10
75.1886
 20
32.8511
 30
0.0
 11
75.1886
 21
34.0513
 31
0.0
  0
LINE
  8
0
 62
     0
 10
75.1886
 20
34.0513
 30
0.0
 11
76.9137
 21
34.0513
 31
0.0
  0
LINE
  8
0
 62
     0
 10
76.9137
 20
34.0513
 30
0.0
 11
76.9137
 21
38.5216
 31
0.0
  0
LINE
  8
0
 62
     0
 10
76.9137
 20
38.5216
 30
0.0
 11
78.438
 21
38.5216
 31
0.0
  0
LINE
  8
0
 62
     0
 10
78.438
 20
38.5216
 30
0.0
 11
78.438
 21
33.8212
 31
0.0
  0
LINE
  8
0
 62
     0
 10
78.438
 20
33.8212
 30
0.0
 11
92.4387
 21
33.8212
 31
0.0
  0
LINE
  8
0
 62
     0
 10
92.4387
 20
33.8212
 30
0.0
 11
92.4387
 21
38.5216
 31
0.0
  0
LINE
  8
0
 62
     0
 10
92.4387
 20
38.5216
 30
0.0
 11
93.9631
 21
38.5216
 31
0.0
  0
LINE
  8
0
 62
     0
 10
93.9631
 20
38.5216
 30
0.0
 11
93.9631
 21
34.0513
 31
0.0
  0
LINE
  8
0
 62
     0
 10
93.9631
 20
34.0513
 30
0.0
 11
95.6882
 21
34.0513
 31
0.0
  0
LINE
  8
0
 62
     0
 10
95.6882
 20
34.0513
 30
0.0
 11
95.6882
 21
32.8511
 31
0.0
  0
LINE
  8
0
 62
     0
 10
95.6882
 20
32.8511
 30
0.0
 11
98.9887
 21
32.8511
 31
0.0
  0
LINE
  8
0
 62
     0
 10
98.9887
 20
32.8511
 30
0.0
 11
98.9887
 21
34.0513
 31
0.0
  0
LINE
  8
0
 62
     0
 10
98.9887
 20
34.0513
 30
0.0
 11
100.714
 21
34.0513
 31
0.0
  0
LINE
  8
0
 62
     0
 10
100.714
 20
34.0513
 30
0.0
 11
100.714
 21
40.3214
 31
0.0
  0
LINE
  8
0
 62
     0
 10
100.714
 20
40.3214
 30
0.0
 11
101.538
 21
40.3214
 31
0.0
  0
LINE
  8
0
 62
     0
 10
101.538
 20
40.3214
 30
0.0
 11
101.538
 21
43.1214
 31
0.0
  0
LINE
  8
0
 62
     0
 10
101.538
 20
43.1214
 30
0.0
 11
100.714
 21
43.1214
 31
0.0
  0
LINE
  8
0
 62
     0
 10
100.714
 20
43.1214
 30
0.0
 11
100.714
 21
46.3518
 31
0.0
  0
LINE
  8
0
 62
     0
 10
100.714
 20
46.3518
 30
0.0
 11
93.9631
 21
46.3518
 31
0.0
  0
LINE
  8
0
 62
     0
 10
93.9631
 20
46.3518
 30
0.0
 11
93.9631
 21
43.1214
 31
0.0
  0
LINE
  8
0
 62
     0
 10
93.9631
 20
43.1214
 30
0.0
 11
92.4387
 21
43.1214
 31
0.0
  0
LINE
  8
0
 62
     0
 10
92.4387
 20
43.1214
 30
0.0
 11
92.4387
 21
47.8208
 31
0.0
  0
LINE
  8
0
 62
     0
 10
92.4387
 20
47.8208
 30
0.0
 11
78.438
 21
47.8208
 31
0.0
  0
LINE
  8
0
 62
     0
 10
316.563
 20
47.8208
 30
0.0
 11
316.563
 21
43.1214
 31
0.0
  0
LINE
  8
0
 62
     0
 10
316.563
 20
43.1214
 30
0.0
 11
315.039
 21
43.1214
 31
0.0
  0
LINE
  8
0
 62
     0
 10
315.039
 20
43.1214
 30
0.0
 11
315.039
 21
46.3518
 31
0.0
  0
LINE
  8
0
 62
     0
 10
315.039
 20
46.3518
 30
0.0
 11
308.288
 21
46.3518
 31
0.0
  0
LINE
  8
0
 62
     0
 10
308.288
 20
46.3518
 30
0.0
 11
308.288
 21
43.1214
 31
0.0
  0
LINE
  8
0
 62
     0
 10
308.288
 20
43.1214
 30
0.0
 11
307.464
 21
43.1214
 31
0.0
  0
LINE
  8
0
 62
     0
 10
307.464
 20
43.1214
 30
0.0
 11
307.464
 21
40.3214
 31
0.0
  0
LINE
  8
0
 62
     0
 10
307.464
 20
40.3214
 30
0.0
 11
308.288
 21
40.3214
 31
0.0
  0
LINE
  8
0
 62
     0
 10
308.288
 20
40.3214
 30
0.0
 11
308.288
 21
34.0513
 31
0.0
  0
LINE
  8
0
 62
     0
 10
308.288
 20
34.0513
 30
0.0
 11
310.013
 21
34.0513
 31
0.0
  0
LINE
  8
0
 62
     0
 10
310.013
 20
34.0513
 30
0.0
 11
310.013
 21
32.8511
 31
0.0
  0
LINE
  8
0
 62
     0
 10
310.013
 20
32.8511
 30
0.0
 11
313.314
 21
32.8511
 31
0.0
  0
LINE
  8
0
 62
     0
 10
313.314
 20
32.8511
 30
0.0
 11
313.314
 21
34.0513
 31
0.0
  0
LINE
  8
0
 62
     0
 10
313.314
 20
34.0513
 30
0.0
 11
315.039
 21
34.0513
 31
0.0
  0
LINE
  8
0
 62
     0
 10
315.039
 20
34.0513
 30
0.0
 11
315.039
 21
38.5216
 31
0.0
  0
LINE
  8
0
 62
     0
 10
315.039
 20
38.5216
 30
0.0
 11
316.563
 21
38.5216
 31
0.0
  0
LINE
  8
0
 62
     0
 10
316.563
 20
38.5216
 30
0.0
 11
316.563
 21
33.8212
 31
0.0
  0
LINE
  8
0
 62
     0
 10
316.563
 20
33.8212
 30
0.0
 11
330.564
 21
33.8212
 31
0.0
  0
LINE
  8
0
 62
     0
 10
330.564
 20
33.8212
 30
0.0
 11
330.564
 21
38.5216
 31
0.0
  0
LINE
  8
0
 62
     0
 10
330.564
 20
38.5216
 30
0.0
 11
332.088
 21
38.5216
 31
0.0
  0
LINE
  8
0
 62
     0
 10
332.088
 20
38.5216
 30
0.0
 11
332.088
 21
34.0513
 31
0.0
  0
LINE
  8
0
 62
     0
 10
332.088
 20
34.0513
 30
0.0
 11
333.813
 21
34.0513
 31
0.0
  0
LINE
  8
0
 62
     0
 10
333.813
 20
34.0513
 30
0.0
 11
333.813
 21
32.8511
 31
0.0
  0
LINE
  8
0
 62
     0
 10
333.813
 20
32.8511
 30
0.0
 11
337.114
 21
32.8511
 31
0.0
  0
LINE
  8
0
 62
     0
 10
337.114
 20
32.8511
 30
0.0
 11
337.114
 21
34.0513
 31
0.0
  0
LINE
  8
0
 62
     0
 10
337.114
 20
34.0513
 30
0.0
 11
338.839
 21
34.0513
 31
0.0
  0
LINE
  8
0
 62
     0
 10
338.839
 20
34.0513
 30
0.0
 11
338.839
 21
40.3214
 31
0.0
  0
LINE
  8
0
 62
     0
 10
338.839
 20
40.3214
 30
0.0
 11
339.663
 21
40.3214
 31
0.0
  0
LINE
  8
0
 62
     0
 10
339.663
 20
40.3214
 30
0.0
 11
339.663
 21
43.1214
 31
0.0
  0
LINE
  8
0
 62
     0
 10
339.663
 20
43.1214
 30
0.0
 11
338.839
 21
43.1214
 31
0.0
  0
LINE
  8
0
 62
     0
 10
338.839
 20
43.1214
 30
0.0
 11
338.839
 21
46.3518
 31
0.0
  0
LINE
  8
0
 62
     0
 10
338.839
 20
46.3518
 30
0.0
 11
332.088
 21
46.3518
 31
0.0
  0
LINE
  8
0
 62
     0
 10
332.088
 20
46.3518
 30
0.0
 11
332.088
 21
43.1214
 31
0.0
  0
LINE
  8
0
 62
     0
 10
332.088
 20
43.1214
 30
0.0
 11
330.564
 21
43.1214
 31
0.0
  0
LINE
  8
0
 62
     0
 10
330.564
 20
43.1214
 30
0.0
 11
330.564
 21
47.8208
 31
0.0
  0
LINE
  8
0
 62
     0
 10
330.564
 20
47.8208
 30
0.0
 11
316.563
 21
47.8208
 31
0.0
  0
LINE
  8
0
 62
     0
 10
109.396
 20
47.8208
 30
0.0
 11
123.395
 21
47.8208
 31
0.0
  0
LINE
  8
0
 62
     0
 10
123.395
 20
47.8208
 30
0.0
 11
123.395
 21
33.8212
 31
0.0
  0
LINE
  8
0
 62
     0
 10
123.395
 20
33.8212
 30
0.0
 11
109.396
 21
33.8212
 31
0.0
  0
LINE
  8
0
 62
     0
 10
109.396
 20
33.8212
 30
0.0
 11
109.396
 21
47.8208
 31
0.0
  0
LINE
  8
0
 62
     0
 10
128.446
 20
47.8208
 30
0.0
 11
142.445
 21
47.8208
 31
0.0
  0
LINE
  8
0
 62
     0
 10
142.445
 20
47.8208
 30
0.0
 11
142.445
 21
33.8212
 31
0.0
  0
LINE
  8
0
 62
     0
 10
142.445
 20
33.8212
 30
0.0
 11
128.446
 21
33.8212
 31
0.0
  0
LINE
  8
0
 62
     0
 10
128.446
 20
33.8212
 30
0.0
 11
128.446
 21
47.8208
 31
0.0
  0
LINE
  8
0
 62
     0
 10
147.496
 20
47.8208
 30
0.0
 11
161.495
 21
47.8208
 31
0.0
  0
LINE
  8
0
 62
     0
 10
161.495
 20
47.8208
 30
0.0
 11
161.495
 21
33.8212
 31
0.0
  0
LINE
  8
0
 62
     0
 10
161.495
 20
33.8212
 30
0.0
 11
147.496
 21
33.8212
 31
0.0
  0
LINE
  8
0
 62
     0
 10
147.496
 20
33.8212
 30
0.0
 11
147.496
 21
47.8208
 31
0.0
  0
LINE
  8
0
 62
     0
 10
166.546
 20
47.8208
 30
0.0
 11
180.545
 21
47.8208
 31
0.0
  0
LINE
  8
0
 62
     0
 10
180.545
 20
47.8208
 30
0.0
 11
180.545
 21
33.8212
 31
0.0
  0
LINE
  8
0
 62
     0
 10
180.545
 20
33.8212
 30
0.0
 11
166.546
 21
33.8212
 31
0.0
  0
LINE
  8
0
 62
     0
 10
166.546
 20
33.8212
 30
0.0
 11
166.546
 21
47.8208
 31
0.0
  0
LINE
  8
0
 62
     0
 10
185.596
 20
47.8208
 30
0.0
 11
199.595
 21
47.8208
 31
0.0
  0
LINE
  8
0
 62
     0
 10
199.595
 20
47.8208
 30
0.0
 11
199.595
 21
33.8212
 31
0.0
  0
LINE
  8
0
 62
     0
 10
199.595
 20
33.8212
 30
0.0
 11
185.596
 21
33.8212
 31
0.0
  0
LINE
  8
0
 62
     0
 10
185.596
 20
33.8212
 30
0.0
 11
185.596
 21
47.8208
 31
0.0
  0
LINE
  8
0
 62
     0
 10
204.646
 20
47.8208
 30
0.0
 11
218.645
 21
47.8208
 31
0.0
  0
LINE
  8
0
 62
     0
 10
218.645
 20
47.8208
 30
0.0
 11
218.645
 21
33.8212
 31
0.0
  0
LINE
  8
0
 62
     0
 10
218.645
 20
33.8212
 30
0.0
 11
204.646
 21
33.8212
 31
0.0
  0
LINE
  8
0
 62
     0
 10
204.646
 20
33.8212
 30
0.0
 11
204.646
 21
47.8208
 31
0.0
  0
LINE
  8
0
 62
     0
 10
223.696
 20
47.8208
 30
0.0
 11
237.695
 21
47.8208
 31
0.0
  0
LINE
  8
0
 62
     0
 10
237.695
 20
47.8208
 30
0.0
 11
237.695
 21
33.8212
 31
0.0
  0
LINE
  8
0
 62
     0
 10
237.695
 20
33.8212
 30
0.0
 11
223.696
 21
33.8212
 31
0.0
  0
LINE
  8
0
 62
     0
 10
223.696
 20
33.8212
 30
0.0
 11
223.696
 21
47.8208
 31
0.0
  0
LINE
  8
0
 62
     0
 10
242.746
 20
47.8208
 30
0.0
 11
256.745
 21
47.8208
 31
0.0
  0
LINE
  8
0
 62
     0
 10
256.745
 20
47.8208
 30
0.0
 11
256.745
 21
33.8212
 31
0.0
  0
LINE
  8
0
 62
     0
 10
256.745
 20
33.8212
 30
0.0
 11
242.746
 21
33.8212
 31
0.0
  0
LINE
  8
0
 62
     0
 10
242.746
 20
33.8212
 30
0.0
 11
242.746
 21
47.8208
 31
0.0
  0
LINE
  8
0
 62
     0
 10
261.796
 20
47.8208
 30
0.0
 11
275.795
 21
47.8208
 31
0.0
  0
LINE
  8
0
 62
     0
 10
275.795
 20
47.8208
 30
0.0
 11
275.795
 21
33.8212
 31
0.0
  0
LINE
  8
0
 62
     0
 10
275.795
 20
33.8212
 30
0.0
 11
261.796
 21
33.8212
 31
0.0
  0
LINE
  8
0
 62
     0
 10
261.796
 20
33.8212
 30
0.0
 11
261.796
 21
47.8208
 31
0.0
  0
LINE
  8
0
 62
     0
 10
280.846
 20
47.8208
 30
0.0
 11
294.845
 21
47.8208
 31
0.0
  0
LINE
  8
0
 62
     0
 10
294.845
 20
47.8208
 30
0.0
 11
294.845
 21
33.8212
 31
0.0
  0
LINE
  8
0
 62
     0
 10
294.845
 20
33.8212
 30
0.0
 11
280.846
 21
33.8212
 31
0.0
  0
LINE
  8
0
 62
     0
 10
280.846
 20
33.8212
 30
0.0
 11
280.846
 21
47.8208
 31
0.0
  0
LINE
  8
0
 62
     0
 10
376.096
 20
47.8208
 30
0.0
 11
390.095
 21
47.8208
 31
0.0
  0
LINE
  8
0
 62
     0
 10
390.095
 20
47.8208
 30
0.0
 11
390.095
 21
33.8212
 31
0.0
  0
LINE
  8
0
 62
     0
 10
390.095
 20
33.8212
 30
0.0
 11
376.096
 21
33.8212
 31
0.0
  0
LINE
  8
0
 62
     0
 10
376.096
 20
33.8212
 30
0.0
 11
376.096
 21
47.8208
 31
0.0
  0
LINE
  8
0
 62
     0
 10
418.959
 20
47.8208
 30
0.0
 11
432.957
 21
47.8208
 31
0.0
  0
LINE
  8
0
 62
     0
 10
432.957
 20
47.8208
 30
0.0
 11
432.957
 21
33.8212
 31
0.0
  0
LINE
  8
0
 62
     0
 10
432.957
 20
33.8212
 30
0.0
 11
418.959
 21
33.8212
 31
0.0
  0
LINE
  8
0
 62
     0
 10
418.959
 20
33.8212
 30
0.0
 11
418.959
 21
47.8208
 31
0.0
  0
LINE
  8
0
 62
     0
 10
438.009
 20
47.8208
 30
0.0
 11
452.007
 21
47.8208
 31
0.0
  0
LINE
  8
0
 62
     0
 10
452.007
 20
47.8208
 30
0.0
 11
452.007
 21
33.8212
 31
0.0
  0
LINE
  8
0
 62
     0
 10
452.007
 20
33.8212
 30
0.0
 11
438.009
 21
33.8212
 31
0.0
  0
LINE
  8
0
 62
     0
 10
438.009
 20
33.8212
 30
0.0
 11
438.009
 21
47.8208
 31
0.0
  0
LINE
  8
0
 62
     0
 10
457.059
 20
47.8208
 30
0.0
 11
471.057
 21
47.8208
 31
0.0
  0
LINE
  8
0
 62
     0
 10
471.057
 20
47.8208
 30
0.0
 11
471.057
 21
33.8212
 31
0.0
  0
LINE
  8
0
 62
     0
 10
471.057
 20
33.8212
 30
0.0
 11
457.059
 21
33.8212
 31
0.0
  0
LINE
  8
0
 62
     0
 10
457.059
 20
33.8212
 30
0.0
 11
457.059
 21
47.8208
 31
0.0
  0
LINE
  8
0
 62
     0
 10
4.6192
 20
47.8208
 30
0.0
 11
18.6201
 21
47.8208
 31
0.0
  0
LINE
  8
0
 62
     0
 10
18.6201
 20
47.8208
 30
0.0
 11
18.6201
 21
33.8212
 31
0.0
  0
LINE
  8
0
 62
     0
 10
18.6201
 20
33.8212
 30
0.0
 11
4.6192
 21
33.8212
 31
0.0
  0
LINE
  8
0
 62
     0
 10
4.6192
 20
33.8212
 30
0.0
 11
4.6192
 21
47.8208
 31
0.0
  0
LINE
  8
0
 62
     0
 10
23.6706
 20
47.8208
 30
0.0
 11
37.67
 21
47.8208
 31
0.0
  0
LINE
  8
0
 62
     0
 10
37.67
 20
47.8208
 30
0.0
 11
37.67
 21
33.8212
 31
0.0
  0
LINE
  8
0
 62
     0
 10
37.67
 20
33.8212
 30
0.0
 11
23.6706
 21
33.8212
 31
0.0
  0
LINE
  8
0
 62
     0
 10
23.6706
 20
33.8212
 30
0.0
 11
23.6706
 21
47.8208
 31
0.0
  0
LINE
  8
0
 62
     0
 10
42.7207
 20
47.8208
 30
0.0
 11
56.72
 21
47.8208
 31
0.0
  0
LINE
  8
0
 62
     0
 10
56.72
 20
47.8208
 30
0.0
 11
56.72
 21
33.8212
 31
0.0
  0
LINE
  8
0
 62
     0
 10
56.72
 20
33.8212
 30
0.0
 11
42.7207
 21
33.8212
 31
0.0
  0
LINE
  8
0
 62
     0
 10
42.7207
 20
33.8212
 30
0.0
 11
42.7207
 21
47.8208
 31
0.0
  0
LINE
  8
0
 62
     0
 10
321.327
 20
66.8708
 30
0.0
 11
321.327
 21
62.1714
 31
0.0
  0
LINE
  8
0
 62
     0
 10
321.327
 20
62.1714
 30
0.0
 11
319.801
 21
62.1714
 31
0.0
  0
LINE
  8
0
 62
     0
 10
319.801
 20
62.1714
 30
0.0
 11
319.801
 21
65.4018
 31
0.0
  0
LINE
  8
0
 62
     0
 10
319.801
 20
65.4018
 30
0.0
 11
313.052
 21
65.4018
 31
0.0
  0
LINE
  8
0
 62
     0
 10
313.052
 20
65.4018
 30
0.0
 11
313.052
 21
62.1714
 31
0.0
  0
LINE
  8
0
 62
     0
 10
313.052
 20
62.1714
 30
0.0
 11
312.226
 21
62.1714
 31
0.0
  0
LINE
  8
0
 62
     0
 10
312.226
 20
62.1714
 30
0.0
 11
312.226
 21
59.3714
 31
0.0
  0
LINE
  8
0
 62
     0
 10
312.226
 20
59.3714
 30
0.0
 11
313.052
 21
59.3714
 31
0.0
  0
LINE
  8
0
 62
     0
 10
313.052
 20
59.3714
 30
0.0
 11
313.052
 21
53.1012
 31
0.0
  0
LINE
  8
0
 62
     0
 10
313.052
 20
53.1012
 30
0.0
 11
314.777
 21
53.1012
 31
0.0
  0
LINE
  8
0
 62
     0
 10
314.777
 20
53.1012
 30
0.0
 11
314.777
 21
51.901
 31
0.0
  0
LINE
  8
0
 62
     0
 10
314.777
 20
51.901
 30
0.0
 11
318.076
 21
51.901
 31
0.0
  0
LINE
  8
0
 62
     0
 10
318.076
 20
51.901
 30
0.0
 11
318.076
 21
53.1012
 31
0.0
  0
LINE
  8
0
 62
     0
 10
318.076
 20
53.1012
 30
0.0
 11
319.801
 21
53.1012
 31
0.0
  0
LINE
  8
0
 62
     0
 10
319.801
 20
53.1012
 30
0.0
 11
319.801
 21
57.5716
 31
0.0
  0
LINE
  8
0
 62
     0
 10
319.801
 20
57.5716
 30
0.0
 11
321.327
 21
57.5716
 31
0.0
  0
LINE
  8
0
 62
     0
 10
321.327
 20
57.5716
 30
0.0
 11
321.327
 21
52.8712
 31
0.0
  0
LINE
  8
0
 62
     0
 10
321.327
 20
52.8712
 30
0.0
 11
335.326
 21
52.8712
 31
0.0
  0
LINE
  8
0
 62
     0
 10
335.326
 20
52.8712
 30
0.0
 11
335.326
 21
57.5716
 31
0.0
  0
LINE
  8
0
 62
     0
 10
335.326
 20
57.5716
 30
0.0
 11
336.852
 21
57.5716
 31
0.0
  0
LINE
  8
0
 62
     0
 10
336.852
 20
57.5716
 30
0.0
 11
336.852
 21
53.1012
 31
0.0
  0
LINE
  8
0
 62
     0
 10
336.852
 20
53.1012
 30
0.0
 11
338.577
 21
53.1012
 31
0.0
  0
LINE
  8
0
 62
     0
 10
338.577
 20
53.1012
 30
0.0
 11
338.577
 21
51.901
 31
0.0
  0
LINE
  8
0
 62
     0
 10
338.577
 20
51.901
 30
0.0
 11
341.876
 21
51.901
 31
0.0
  0
LINE
  8
0
 62
     0
 10
341.876
 20
51.901
 30
0.0
 11
341.876
 21
53.1012
 31
0.0
  0
LINE
  8
0
 62
     0
 10
341.876
 20
53.1012
 30
0.0
 11
343.601
 21
53.1012
 31
0.0
  0
LINE
  8
0
 62
     0
 10
343.601
 20
53.1012
 30
0.0
 11
343.601
 21
59.3714
 31
0.0
  0
LINE
  8
0
 62
     0
 10
343.601
 20
59.3714
 30
0.0
 11
344.427
 21
59.3714
 31
0.0
  0
LINE
  8
0
 62
     0
 10
344.427
 20
59.3714
 30
0.0
 11
344.427
 21
62.1714
 31
0.0
  0
LINE
  8
0
 62
     0
 10
344.427
 20
62.1714
 30
0.0
 11
343.601
 21
62.1714
 31
0.0
  0
LINE
  8
0
 62
     0
 10
343.601
 20
62.1714
 30
0.0
 11
343.601
 21
65.4018
 31
0.0
  0
LINE
  8
0
 62
     0
 10
343.601
 20
65.4018
 30
0.0
 11
336.852
 21
65.4018
 31
0.0
  0
LINE
  8
0
 62
     0
 10
336.852
 20
65.4018
 30
0.0
 11
336.852
 21
62.1714
 31
0.0
  0
LINE
  8
0
 62
     0
 10
336.852
 20
62.1714
 30
0.0
 11
335.326
 21
62.1714
 31
0.0
  0
LINE
  8
0
 62
     0
 10
335.326
 20
62.1714
 30
0.0
 11
335.326
 21
66.8708
 31
0.0
  0
LINE
  8
0
 62
     0
 10
335.326
 20
66.8708
 30
0.0
 11
321.327
 21
66.8708
 31
0.0
  0
LINE
  8
0
 62
     0
 10
73.6769
 20
66.8708
 30
0.0
 11
87.6762
 21
66.8708
 31
0.0
  0
LINE
  8
0
 62
     0
 10
87.6762
 20
66.8708
 30
0.0
 11
87.6762
 21
52.8712
 31
0.0
  0
LINE
  8
0
 62
     0
 10
87.6762
 20
52.8712
 30
0.0
 11
73.6769
 21
52.8712
 31
0.0
  0
LINE
  8
0
 62
     0
 10
73.6769
 20
52.8712
 30
0.0
 11
73.6769
 21
66.8708
 31
0.0
  0
LINE
  8
0
 62
     0
 10
99.8707
 20
66.8708
 30
0.0
 11
113.87
 21
66.8708
 31
0.0
  0
LINE
  8
0
 62
     0
 10
113.87
 20
66.8708
 30
0.0
 11
113.87
 21
52.8712
 31
0.0
  0
LINE
  8
0
 62
     0
 10
113.87
 20
52.8712
 30
0.0
 11
99.8707
 21
52.8712
 31
0.0
  0
LINE
  8
0
 62
     0
 10
99.8707
 20
52.8712
 30
0.0
 11
99.8707
 21
66.8708
 31
0.0
  0
LINE
  8
0
 62
     0
 10
118.921
 20
66.8708
 30
0.0
 11
132.92
 21
66.8708
 31
0.0
  0
LINE
  8
0
 62
     0
 10
132.92
 20
66.8708
 30
0.0
 11
132.92
 21
52.8712
 31
0.0
  0
LINE
  8
0
 62
     0
 10
132.92
 20
52.8712
 30
0.0
 11
118.921
 21
52.8712
 31
0.0
  0
LINE
  8
0
 62
     0
 10
118.921
 20
52.8712
 30
0.0
 11
118.921
 21
66.8708
 31
0.0
  0
LINE
  8
0
 62
     0
 10
137.971
 20
66.8708
 30
0.0
 11
151.97
 21
66.8708
 31
0.0
  0
LINE
  8
0
 62
     0
 10
151.97
 20
66.8708
 30
0.0
 11
151.97
 21
52.8712
 31
0.0
  0
LINE
  8
0
 62
     0
 10
151.97
 20
52.8712
 30
0.0
 11
137.971
 21
52.8712
 31
0.0
  0
LINE
  8
0
 62
     0
 10
137.971
 20
52.8712
 30
0.0
 11
137.971
 21
66.8708
 31
0.0
  0
LINE
  8
0
 62
     0
 10
157.021
 20
66.8708
 30
0.0
 11
171.02
 21
66.8708
 31
0.0
  0
LINE
  8
0
 62
     0
 10
171.02
 20
66.8708
 30
0.0
 11
171.02
 21
52.8712
 31
0.0
  0
LINE
  8
0
 62
     0
 10
171.02
 20
52.8712
 30
0.0
 11
157.021
 21
52.8712
 31
0.0
  0
LINE
  8
0
 62
     0
 10
157.021
 20
52.8712
 30
0.0
 11
157.021
 21
66.8708
 31
0.0
  0
LINE
  8
0
 62
     0
 10
176.071
 20
66.8708
 30
0.0
 11
190.07
 21
66.8708
 31
0.0
  0
LINE
  8
0
 62
     0
 10
190.07
 20
66.8708
 30
0.0
 11
190.07
 21
52.8712
 31
0.0
  0
LINE
  8
0
 62
     0
 10
190.07
 20
52.8712
 30
0.0
 11
176.071
 21
52.8712
 31
0.0
  0
LINE
  8
0
 62
     0
 10
176.071
 20
52.8712
 30
0.0
 11
176.071
 21
66.8708
 31
0.0
  0
LINE
  8
0
 62
     0
 10
195.121
 20
66.8708
 30
0.0
 11
209.12
 21
66.8708
 31
0.0
  0
LINE
  8
0
 62
     0
 10
209.12
 20
66.8708
 30
0.0
 11
209.12
 21
52.8712
 31
0.0
  0
LINE
  8
0
 62
     0
 10
209.12
 20
52.8712
 30
0.0
 11
195.121
 21
52.8712
 31
0.0
  0
LINE
  8
0
 62
     0
 10
195.121
 20
52.8712
 30
0.0
 11
195.121
 21
66.8708
 31
0.0
  0
LINE
  8
0
 62
     0
 10
214.171
 20
66.8708
 30
0.0
 11
228.17
 21
66.8708
 31
0.0
  0
LINE
  8
0
 62
     0
 10
228.17
 20
66.8708
 30
0.0
 11
228.17
 21
52.8712
 31
0.0
  0
LINE
  8
0
 62
     0
 10
228.17
 20
52.8712
 30
0.0
 11
214.171
 21
52.8712
 31
0.0
  0
LINE
  8
0
 62
     0
 10
214.171
 20
52.8712
 30
0.0
 11
214.171
 21
66.8708
 31
0.0
  0
LINE
  8
0
 62
     0
 10
233.221
 20
66.8708
 30
0.0
 11
247.22
 21
66.8708
 31
0.0
  0
LINE
  8
0
 62
     0
 10
247.22
 20
66.8708
 30
0.0
 11
247.22
 21
52.8712
 31
0.0
  0
LINE
  8
0
 62
     0
 10
247.22
 20
52.8712
 30
0.0
 11
233.221
 21
52.8712
 31
0.0
  0
LINE
  8
0
 62
     0
 10
233.221
 20
52.8712
 30
0.0
 11
233.221
 21
66.8708
 31
0.0
  0
LINE
  8
0
 62
     0
 10
252.271
 20
66.8708
 30
0.0
 11
266.27
 21
66.8708
 31
0.0
  0
LINE
  8
0
 62
     0
 10
266.27
 20
66.8708
 30
0.0
 11
266.27
 21
52.8712
 31
0.0
  0
LINE
  8
0
 62
     0
 10
266.27
 20
52.8712
 30
0.0
 11
252.271
 21
52.8712
 31
0.0
  0
LINE
  8
0
 62
     0
 10
252.271
 20
52.8712
 30
0.0
 11
252.271
 21
66.8708
 31
0.0
  0
LINE
  8
0
 62
     0
 10
271.321
 20
66.8708
 30
0.0
 11
285.32
 21
66.8708
 31
0.0
  0
LINE
  8
0
 62
     0
 10
285.32
 20
66.8708
 30
0.0
 11
285.32
 21
52.8712
 31
0.0
  0
LINE
  8
0
 62
     0
 10
285.32
 20
52.8712
 30
0.0
 11
271.321
 21
52.8712
 31
0.0
  0
LINE
  8
0
 62
     0
 10
271.321
 20
52.8712
 30
0.0
 11
271.321
 21
66.8708
 31
0.0
  0
LINE
  8
0
 62
     0
 10
290.371
 20
66.8708
 30
0.0
 11
304.37
 21
66.8708
 31
0.0
  0
LINE
  8
0
 62
     0
 10
304.37
 20
66.8708
 30
0.0
 11
304.37
 21
52.8712
 31
0.0
  0
LINE
  8
0
 62
     0
 10
304.37
 20
52.8712
 30
0.0
 11
290.371
 21
52.8712
 31
0.0
  0
LINE
  8
0
 62
     0
 10
290.371
 20
52.8712
 30
0.0
 11
290.371
 21
66.8708
 31
0.0
  0
LINE
  8
0
 62
     0
 10
418.959
 20
66.8708
 30
0.0
 11
432.957
 21
66.8708
 31
0.0
  0
LINE
  8
0
 62
     0
 10
432.957
 20
66.8708
 30
0.0
 11
432.957
 21
52.8712
 31
0.0
  0
LINE
  8
0
 62
     0
 10
432.957
 20
52.8712
 30
0.0
 11
418.959
 21
52.8712
 31
0.0
  0
LINE
  8
0
 62
     0
 10
418.959
 20
52.8712
 30
0.0
 11
418.959
 21
66.8708
 31
0.0
  0
LINE
  8
0
 62
     0
 10
438.009
 20
66.8708
 30
0.0
 11
452.007
 21
66.8708
 31
0.0
  0
LINE
  8
0
 62
     0
 10
452.007
 20
66.8708
 30
0.0
 11
452.007
 21
52.8712
 31
0.0
  0
LINE
  8
0
 62
     0
 10
452.007
 20
52.8712
 30
0.0
 11
438.009
 21
52.8712
 31
0.0
  0
LINE
  8
0
 62
     0
 10
438.009
 20
52.8712
 30
0.0
 11
438.009
 21
66.8708
 31
0.0
  0
LINE
  8
0
 62
     0
 10
457.059
 20
66.8708
 30
0.0
 11
471.057
 21
66.8708
 31
0.0
  0
LINE
  8
0
 62
     0
 10
471.057
 20
66.8708
 30
0.0
 11
471.057
 21
52.8712
 31
0.0
  0
LINE
  8
0
 62
     0
 10
471.057
 20
52.8712
 30
0.0
 11
457.059
 21
52.8712
 31
0.0
  0
LINE
  8
0
 62
     0
 10
457.059
 20
52.8712
 30
0.0
 11
457.059
 21
66.8708
 31
0.0
  0
LINE
  8
0
 62
     0
 10
482.607
 20
85.4964
 30
0.0
 11
482.607
 21
84.6709
 31
0.0
  0
LINE
  8
0
 62
     0
 10
482.607
 20
84.6709
 30
0.0
 11
476.338
 21
84.6709
 31
0.0
  0
LINE
  8
0
 62
     0
 10
476.338
 20
84.6709
 30
0.0
 11
476.338
 21
82.9455
 31
0.0
  0
LINE
  8
0
 62
     0
 10
476.338
 20
82.9455
 30
0.0
 11
475.139
 21
82.9455
 31
0.0
  0
LINE
  8
0
 62
     0
 10
475.139
 20
82.9455
 30
0.0
 11
475.139
 21
79.6466
 31
0.0
  0
LINE
  8
0
 62
     0
 10
475.139
 20
79.6466
 30
0.0
 11
476.338
 21
79.6466
 31
0.0
  0
LINE
  8
0
 62
     0
 10
476.338
 20
79.6466
 30
0.0
 11
476.338
 21
77.9212
 31
0.0
  0
LINE
  8
0
 62
     0
 10
476.338
 20
77.9212
 30
0.0
 11
480.808
 21
77.9212
 31
0.0
  0
LINE
  8
0
 62
     0
 10
480.808
 20
77.9212
 30
0.0
 11
480.808
 21
76.3958
 31
0.0
  0
LINE
  8
0
 62
     0
 10
480.808
 20
76.3958
 30
0.0
 11
476.109
 21
76.3958
 31
0.0
  0
LINE
  8
0
 62
     0
 10
476.109
 20
76.3958
 30
0.0
 11
476.109
 21
62.3962
 31
0.0
  0
LINE
  8
0
 62
     0
 10
476.109
 20
62.3962
 30
0.0
 11
480.808
 21
62.3962
 31
0.0
  0
LINE
  8
0
 62
     0
 10
480.808
 20
62.3962
 30
0.0
 11
480.808
 21
60.8707
 31
0.0
  0
LINE
  8
0
 62
     0
 10
480.808
 20
60.8707
 30
0.0
 11
476.338
 21
60.8707
 31
0.0
  0
LINE
  8
0
 62
     0
 10
476.338
 20
60.8707
 30
0.0
 11
476.338
 21
59.1467
 31
0.0
  0
LINE
  8
0
 62
     0
 10
476.338
 20
59.1467
 30
0.0
 11
475.139
 21
59.1467
 31
0.0
  0
LINE
  8
0
 62
     0
 10
475.139
 20
59.1467
 30
0.0
 11
475.139
 21
55.8465
 31
0.0
  0
LINE
  8
0
 62
     0
 10
475.139
 20
55.8465
 30
0.0
 11
476.338
 21
55.8465
 31
0.0
  0
LINE
  8
0
 62
     0
 10
476.338
 20
55.8465
 30
0.0
 11
476.338
 21
54.1211
 31
0.0
  0
LINE
  8
0
 62
     0
 10
476.338
 20
54.1211
 30
0.0
 11
482.607
 21
54.1211
 31
0.0
  0
LINE
  8
0
 62
     0
 10
482.607
 20
54.1211
 30
0.0
 11
482.607
 21
53.2956
 31
0.0
  0
LINE
  8
0
 62
     0
 10
482.607
 20
53.2956
 30
0.0
 11
485.408
 21
53.2956
 31
0.0
  0
LINE
  8
0
 62
     0
 10
485.408
 20
53.2956
 30
0.0
 11
485.408
 21
54.1211
 31
0.0
  0
LINE
  8
0
 62
     0
 10
485.408
 20
54.1211
 30
0.0
 11
488.636
 21
54.1211
 31
0.0
  0
LINE
  8
0
 62
     0
 10
488.636
 20
54.1211
 30
0.0
 11
488.636
 21
60.8707
 31
0.0
  0
LINE
  8
0
 62
     0
 10
488.636
 20
60.8707
 30
0.0
 11
485.408
 21
60.8707
 31
0.0
  0
LINE
  8
0
 62
     0
 10
485.408
 20
60.8707
 30
0.0
 11
485.408
 21
62.3962
 31
0.0
  0
LINE
  8
0
 62
     0
 10
485.408
 20
62.3962
 30
0.0
 11
490.107
 21
62.3962
 31
0.0
  0
LINE
  8
0
 62
     0
 10
490.107
 20
62.3962
 30
0.0
 11
490.107
 21
76.3958
 31
0.0
  0
LINE
  8
0
 62
     0
 10
490.107
 20
76.3958
 30
0.0
 11
485.408
 21
76.3958
 31
0.0
  0
LINE
  8
0
 62
     0
 10
485.408
 20
76.3958
 30
0.0
 11
485.408
 21
77.9212
 31
0.0
  0
LINE
  8
0
 62
     0
 10
485.408
 20
77.9212
 30
0.0
 11
488.636
 21
77.9212
 31
0.0
  0
LINE
  8
0
 62
     0
 10
488.636
 20
77.9212
 30
0.0
 11
488.636
 21
84.6709
 31
0.0
  0
LINE
  8
0
 62
     0
 10
488.636
 20
84.6709
 30
0.0
 11
485.408
 21
84.6709
 31
0.0
  0
LINE
  8
0
 62
     0
 10
485.408
 20
84.6709
 30
0.0
 11
485.408
 21
85.4964
 31
0.0
  0
LINE
  8
0
 62
     0
 10
485.408
 20
85.4964
 30
0.0
 11
482.607
 21
85.4964
 31
0.0
  0
LINE
  8
0
 62
     0
 10
4.6192
 20
71.6347
 30
0.0
 11
18.6201
 21
71.6347
 31
0.0
  0
LINE
  8
0
 62
     0
 10
18.6201
 20
71.6347
 30
0.0
 11
18.6201
 21
57.6337
 31
0.0
  0
LINE
  8
0
 62
     0
 10
18.6201
 20
57.6337
 30
0.0
 11
4.6192
 21
57.6337
 31
0.0
  0
LINE
  8
0
 62
     0
 10
4.6192
 20
57.6337
 30
0.0
 11
4.6192
 21
71.6347
 31
0.0
  0
LINE
  8
0
 62
     0
 10
23.6706
 20
71.6347
 30
0.0
 11
37.67
 21
71.6347
 31
0.0
  0
LINE
  8
0
 62
     0
 10
37.67
 20
71.6347
 30
0.0
 11
37.67
 21
57.6337
 31
0.0
  0
LINE
  8
0
 62
     0
 10
37.67
 20
57.6337
 30
0.0
 11
23.6706
 21
57.6337
 31
0.0
  0
LINE
  8
0
 62
     0
 10
23.6706
 20
57.6337
 30
0.0
 11
23.6706
 21
71.6347
 31
0.0
  0
LINE
  8
0
 62
     0
 10
42.7207
 20
71.6347
 30
0.0
 11
56.72
 21
71.6347
 31
0.0
  0
LINE
  8
0
 62
     0
 10
56.72
 20
71.6347
 30
0.0
 11
56.72
 21
57.6337
 31
0.0
  0
LINE
  8
0
 62
     0
 10
56.72
 20
57.6337
 30
0.0
 11
42.7207
 21
57.6337
 31
0.0
  0
LINE
  8
0
 62
     0
 10
42.7207
 20
57.6337
 30
0.0
 11
42.7207
 21
71.6347
 31
0.0
  0
LINE
  8
0
 62
     0
 10
71.2943
 20
85.9208
 30
0.0
 11
85.295
 21
85.9208
 31
0.0
  0
LINE
  8
0
 62
     0
 10
85.295
 20
85.9208
 30
0.0
 11
85.295
 21
71.9212
 31
0.0
  0
LINE
  8
0
 62
     0
 10
85.295
 20
71.9212
 30
0.0
 11
71.2943
 21
71.9212
 31
0.0
  0
LINE
  8
0
 62
     0
 10
71.2943
 20
71.9212
 30
0.0
 11
71.2943
 21
85.9208
 31
0.0
  0
LINE
  8
0
 62
     0
 10
95.1082
 20
85.9208
 30
0.0
 11
109.107
 21
85.9208
 31
0.0
  0
LINE
  8
0
 62
     0
 10
109.107
 20
85.9208
 30
0.0
 11
109.107
 21
71.9212
 31
0.0
  0
LINE
  8
0
 62
     0
 10
109.107
 20
71.9212
 30
0.0
 11
95.1082
 21
71.9212
 31
0.0
  0
LINE
  8
0
 62
     0
 10
95.1082
 20
71.9212
 30
0.0
 11
95.1082
 21
85.9208
 31
0.0
  0
LINE
  8
0
 62
     0
 10
114.158
 20
85.9208
 30
0.0
 11
128.157
 21
85.9208
 31
0.0
  0
LINE
  8
0
 62
     0
 10
128.157
 20
85.9208
 30
0.0
 11
128.157
 21
71.9212
 31
0.0
  0
LINE
  8
0
 62
     0
 10
128.157
 20
71.9212
 30
0.0
 11
114.158
 21
71.9212
 31
0.0
  0
LINE
  8
0
 62
     0
 10
114.158
 20
71.9212
 30
0.0
 11
114.158
 21
85.9208
 31
0.0
  0
LINE
  8
0
 62
     0
 10
133.208
 20
85.9208
 30
0.0
 11
147.207
 21
85.9208
 31
0.0
  0
LINE
  8
0
 62
     0
 10
147.207
 20
85.9208
 30
0.0
 11
147.207
 21
71.9212
 31
0.0
  0
LINE
  8
0
 62
     0
 10
147.207
 20
71.9212
 30
0.0
 11
133.208
 21
71.9212
 31
0.0
  0
LINE
  8
0
 62
     0
 10
133.208
 20
71.9212
 30
0.0
 11
133.208
 21
85.9208
 31
0.0
  0
LINE
  8
0
 62
     0
 10
152.258
 20
85.9208
 30
0.0
 11
166.257
 21
85.9208
 31
0.0
  0
LINE
  8
0
 62
     0
 10
166.257
 20
85.9208
 30
0.0
 11
166.257
 21
71.9212
 31
0.0
  0
LINE
  8
0
 62
     0
 10
166.257
 20
71.9212
 30
0.0
 11
152.258
 21
71.9212
 31
0.0
  0
LINE
  8
0
 62
     0
 10
152.258
 20
71.9212
 30
0.0
 11
152.258
 21
85.9208
 31
0.0
  0
LINE
  8
0
 62
     0
 10
171.308
 20
85.9208
 30
0.0
 11
185.307
 21
85.9208
 31
0.0
  0
LINE
  8
0
 62
     0
 10
185.307
 20
85.9208
 30
0.0
 11
185.307
 21
71.9212
 31
0.0
  0
LINE
  8
0
 62
     0
 10
185.307
 20
71.9212
 30
0.0
 11
171.308
 21
71.9212
 31
0.0
  0
LINE
  8
0
 62
     0
 10
171.308
 20
71.9212
 30
0.0
 11
171.308
 21
85.9208
 31
0.0
  0
LINE
  8
0
 62
     0
 10
190.358
 20
85.9208
 30
0.0
 11
204.357
 21
85.9208
 31
0.0
  0
LINE
  8
0
 62
     0
 10
204.357
 20
85.9208
 30
0.0
 11
204.357
 21
71.9212
 31
0.0
  0
LINE
  8
0
 62
     0
 10
204.357
 20
71.9212
 30
0.0
 11
190.358
 21
71.9212
 31
0.0
  0
LINE
  8
0
 62
     0
 10
190.358
 20
71.9212
 30
0.0
 11
190.358
 21
85.9208
 31
0.0
  0
LINE
  8
0
 62
     0
 10
209.408
 20
85.9208
 30
0.0
 11
223.407
 21
85.9208
 31
0.0
  0
LINE
  8
0
 62
     0
 10
223.407
 20
85.9208
 30
0.0
 11
223.407
 21
71.9212
 31
0.0
  0
LINE
  8
0
 62
     0
 10
223.407
 20
71.9212
 30
0.0
 11
209.408
 21
71.9212
 31
0.0
  0
LINE
  8
0
 62
     0
 10
209.408
 20
71.9212
 30
0.0
 11
209.408
 21
85.9208
 31
0.0
  0
LINE
  8
0
 62
     0
 10
228.458
 20
85.9208
 30
0.0
 11
242.457
 21
85.9208
 31
0.0
  0
LINE
  8
0
 62
     0
 10
242.457
 20
85.9208
 30
0.0
 11
242.457
 21
71.9212
 31
0.0
  0
LINE
  8
0
 62
     0
 10
242.457
 20
71.9212
 30
0.0
 11
228.458
 21
71.9212
 31
0.0
  0
LINE
  8
0
 62
     0
 10
228.458
 20
71.9212
 30
0.0
 11
228.458
 21
85.9208
 31
0.0
  0
LINE
  8
0
 62
     0
 10
247.508
 20
85.9208
 30
0.0
 11
261.507
 21
85.9208
 31
0.0
  0
LINE
  8
0
 62
     0
 10
261.507
 20
85.9208
 30
0.0
 11
261.507
 21
71.9212
 31
0.0
  0
LINE
  8
0
 62
     0
 10
261.507
 20
71.9212
 30
0.0
 11
247.508
 21
71.9212
 31
0.0
  0
LINE
  8
0
 62
     0
 10
247.508
 20
71.9212
 30
0.0
 11
247.508
 21
85.9208
 31
0.0
  0
LINE
  8
0
 62
     0
 10
266.558
 20
85.9208
 30
0.0
 11
280.557
 21
85.9208
 31
0.0
  0
LINE
  8
0
 62
     0
 10
280.557
 20
85.9208
 30
0.0
 11
280.557
 21
71.9212
 31
0.0
  0
LINE
  8
0
 62
     0
 10
280.557
 20
71.9212
 30
0.0
 11
266.558
 21
71.9212
 31
0.0
  0
LINE
  8
0
 62
     0
 10
266.558
 20
71.9212
 30
0.0
 11
266.558
 21
85.9208
 31
0.0
  0
LINE
  8
0
 62
     0
 10
285.608
 20
85.9208
 30
0.0
 11
299.607
 21
85.9208
 31
0.0
  0
LINE
  8
0
 62
     0
 10
299.607
 20
85.9208
 30
0.0
 11
299.607
 21
71.9212
 31
0.0
  0
LINE
  8
0
 62
     0
 10
299.607
 20
71.9212
 30
0.0
 11
285.608
 21
71.9212
 31
0.0
  0
LINE
  8
0
 62
     0
 10
285.608
 20
71.9212
 30
0.0
 11
285.608
 21
85.9208
 31
0.0
  0
LINE
  8
0
 62
     0
 10
304.658
 20
85.9208
 30
0.0
 11
318.657
 21
85.9208
 31
0.0
  0
LINE
  8
0
 62
     0
 10
318.657
 20
85.9208
 30
0.0
 11
318.657
 21
71.9212
 31
0.0
  0
LINE
  8
0
 62
     0
 10
318.657
 20
71.9212
 30
0.0
 11
304.658
 21
71.9212
 31
0.0
  0
LINE
  8
0
 62
     0
 10
304.658
 20
71.9212
 30
0.0
 11
304.658
 21
85.9208
 31
0.0
  0
LINE
  8
0
 62
     0
 10
328.471
 20
85.9208
 30
0.0
 11
342.47
 21
85.9208
 31
0.0
  0
LINE
  8
0
 62
     0
 10
342.47
 20
85.9208
 30
0.0
 11
342.47
 21
71.9212
 31
0.0
  0
LINE
  8
0
 62
     0
 10
342.47
 20
71.9212
 30
0.0
 11
328.471
 21
71.9212
 31
0.0
  0
LINE
  8
0
 62
     0
 10
328.471
 20
71.9212
 30
0.0
 11
328.471
 21
85.9208
 31
0.0
  0
LINE
  8
0
 62
     0
 10
357.046
 20
85.9208
 30
0.0
 11
371.045
 21
85.9208
 31
0.0
  0
LINE
  8
0
 62
     0
 10
371.045
 20
85.9208
 30
0.0
 11
371.045
 21
71.9212
 31
0.0
  0
LINE
  8
0
 62
     0
 10
371.045
 20
71.9212
 30
0.0
 11
357.046
 21
71.9212
 31
0.0
  0
LINE
  8
0
 62
     0
 10
357.046
 20
71.9212
 30
0.0
 11
357.046
 21
85.9208
 31
0.0
  0
LINE
  8
0
 62
     0
 10
376.096
 20
85.9208
 30
0.0
 11
390.095
 21
85.9208
 31
0.0
  0
LINE
  8
0
 62
     0
 10
390.095
 20
85.9208
 30
0.0
 11
390.095
 21
71.9212
 31
0.0
  0
LINE
  8
0
 62
     0
 10
390.095
 20
71.9212
 30
0.0
 11
376.096
 21
71.9212
 31
0.0
  0
LINE
  8
0
 62
     0
 10
376.096
 20
71.9212
 30
0.0
 11
376.096
 21
85.9208
 31
0.0
  0
LINE
  8
0
 62
     0
 10
395.146
 20
85.9208
 30
0.0
 11
409.145
 21
85.9208
 31
0.0
  0
LINE
  8
0
 62
     0
 10
409.145
 20
85.9208
 30
0.0
 11
409.145
 21
71.9212
 31
0.0
  0
LINE
  8
0
 62
     0
 10
409.145
 20
71.9212
 30
0.0
 11
395.146
 21
71.9212
 31
0.0
  0
LINE
  8
0
 62
     0
 10
395.146
 20
71.9212
 30
0.0
 11
395.146
 21
85.9208
 31
0.0
  0
LINE
  8
0
 62
     0
 10
418.959
 20
85.9208
 30
0.0
 11
432.957
 21
85.9208
 31
0.0
  0
LINE
  8
0
 62
     0
 10
432.957
 20
85.9208
 30
0.0
 11
432.957
 21
71.9212
 31
0.0
  0
LINE
  8
0
 62
     0
 10
432.957
 20
71.9212
 30
0.0
 11
418.959
 21
71.9212
 31
0.0
  0
LINE
  8
0
 62
     0
 10
418.959
 20
71.9212
 30
0.0
 11
418.959
 21
85.9208
 31
0.0
  0
LINE
  8
0
 62
     0
 10
438.009
 20
85.9208
 30
0.0
 11
452.007
 21
85.9208
 31
0.0
  0
LINE
  8
0
 62
     0
 10
452.007
 20
85.9208
 30
0.0
 11
452.007
 21
71.9212
 31
0.0
  0
LINE
  8
0
 62
     0
 10
452.007
 20
71.9212
 30
0.0
 11
438.009
 21
71.9212
 31
0.0
  0
LINE
  8
0
 62
     0
 10
438.009
 20
71.9212
 30
0.0
 11
438.009
 21
85.9208
 31
0.0
  0
LINE
  8
0
 62
     0
 10
457.059
 20
85.9208
 30
0.0
 11
471.057
 21
85.9208
 31
0.0
  0
LINE
  8
0
 62
     0
 10
471.057
 20
85.9208
 30
0.0
 11
471.057
 21
71.9212
 31
0.0
  0
LINE
  8
0
 62
     0
 10
471.057
 20
71.9212
 30
0.0
 11
457.059
 21
71.9212
 31
0.0
  0
LINE
  8
0
 62
     0
 10
457.059
 20
71.9212
 30
0.0
 11
457.059
 21
85.9208
 31
0.0
  0
LINE
  8
0
 62
     0
 10
4.6192
 20
90.6847
 30
0.0
 11
18.6201
 21
90.6847
 31
0.0
  0
LINE
  8
0
 62
     0
 10
18.6201
 20
90.6847
 30
0.0
 11
18.6201
 21
76.6837
 31
0.0
  0
LINE
  8
0
 62
     0
 10
18.6201
 20
76.6837
 30
0.0
 11
4.6192
 21
76.6837
 31
0.0
  0
LINE
  8
0
 62
     0
 10
4.6192
 20
76.6837
 30
0.0
 11
4.6192
 21
90.6847
 31
0.0
  0
LINE
  8
0
 62
     0
 10
23.6706
 20
90.6847
 30
0.0
 11
37.67
 21
90.6847
 31
0.0
  0
LINE
  8
0
 62
     0
 10
37.67
 20
90.6847
 30
0.0
 11
37.67
 21
76.6837
 31
0.0
  0
LINE
  8
0
 62
     0
 10
37.67
 20
76.6837
 30
0.0
 11
23.6706
 21
76.6837
 31
0.0
  0
LINE
  8
0
 62
     0
 10
23.6706
 20
76.6837
 30
0.0
 11
23.6706
 21
90.6847
 31
0.0
  0
LINE
  8
0
 62
     0
 10
42.7207
 20
90.6847
 30
0.0
 11
56.72
 21
90.6847
 31
0.0
  0
LINE
  8
0
 62
     0
 10
56.72
 20
90.6847
 30
0.0
 11
56.72
 21
76.6837
 31
0.0
  0
LINE
  8
0
 62
     0
 10
56.72
 20
76.6837
 30
0.0
 11
42.7207
 21
76.6837
 31
0.0
  0
LINE
  8
0
 62
     0
 10
42.7207
 20
76.6837
 30
0.0
 11
42.7207
 21
90.6847
 31
0.0
  0
LINE
  8
0
 62
     0
 10
323.708
 20
104.971
 30
0.0
 11
323.708
 21
100.271
 31
0.0
  0
LINE
  8
0
 62
     0
 10
323.708
 20
100.271
 30
0.0
 11
322.182
 21
100.271
 31
0.0
  0
LINE
  8
0
 62
     0
 10
322.182
 20
100.271
 30
0.0
 11
322.182
 21
103.502
 31
0.0
  0
LINE
  8
0
 62
     0
 10
322.182
 20
103.502
 30
0.0
 11
315.433
 21
103.502
 31
0.0
  0
LINE
  8
0
 62
     0
 10
315.433
 20
103.502
 30
0.0
 11
315.433
 21
100.271
 31
0.0
  0
LINE
  8
0
 62
     0
 10
315.433
 20
100.271
 30
0.0
 11
314.608
 21
100.271
 31
0.0
  0
LINE
  8
0
 62
     0
 10
314.608
 20
100.271
 30
0.0
 11
314.608
 21
97.4714
 31
0.0
  0
LINE
  8
0
 62
     0
 10
314.608
 20
97.4714
 30
0.0
 11
315.433
 21
97.4714
 31
0.0
  0
LINE
  8
0
 62
     0
 10
315.433
 20
97.4714
 30
0.0
 11
315.433
 21
91.2012
 31
0.0
  0
LINE
  8
0
 62
     0
 10
315.433
 20
91.2012
 30
0.0
 11
317.157
 21
91.2012
 31
0.0
  0
LINE
  8
0
 62
     0
 10
317.157
 20
91.2012
 30
0.0
 11
317.157
 21
90.001
 31
0.0
  0
LINE
  8
0
 62
     0
 10
317.157
 20
90.001
 30
0.0
 11
320.457
 21
90.001
 31
0.0
  0
LINE
  8
0
 62
     0
 10
320.457
 20
90.001
 30
0.0
 11
320.457
 21
91.2012
 31
0.0
  0
LINE
  8
0
 62
     0
 10
320.457
 20
91.2012
 30
0.0
 11
322.182
 21
91.2012
 31
0.0
  0
LINE
  8
0
 62
     0
 10
322.182
 20
91.2012
 30
0.0
 11
322.182
 21
95.6716
 31
0.0
  0
LINE
  8
0
 62
     0
 10
322.182
 20
95.6716
 30
0.0
 11
323.708
 21
95.6716
 31
0.0
  0
LINE
  8
0
 62
     0
 10
323.708
 20
95.6716
 30
0.0
 11
323.708
 21
90.9712
 31
0.0
  0
LINE
  8
0
 62
     0
 10
323.708
 20
90.9712
 30
0.0
 11
337.707
 21
90.9712
 31
0.0
  0
LINE
  8
0
 62
     0
 10
337.707
 20
90.9712
 30
0.0
 11
337.707
 21
95.6716
 31
0.0
  0
LINE
  8
0
 62
     0
 10
337.707
 20
95.6716
 30
0.0
 11
339.233
 21
95.6716
 31
0.0
  0
LINE
  8
0
 62
     0
 10
339.233
 20
95.6716
 30
0.0
 11
339.233
 21
91.2012
 31
0.0
  0
LINE
  8
0
 62
     0
 10
339.233
 20
91.2012
 30
0.0
 11
340.957
 21
91.2012
 31
0.0
  0
LINE
  8
0
 62
     0
 10
340.957
 20
91.2012
 30
0.0
 11
340.957
 21
90.001
 31
0.0
  0
LINE
  8
0
 62
     0
 10
340.957
 20
90.001
 30
0.0
 11
344.257
 21
90.001
 31
0.0
  0
LINE
  8
0
 62
     0
 10
344.257
 20
90.001
 30
0.0
 11
344.257
 21
91.2012
 31
0.0
  0
LINE
  8
0
 62
     0
 10
344.257
 20
91.2012
 30
0.0
 11
345.983
 21
91.2012
 31
0.0
  0
LINE
  8
0
 62
     0
 10
345.983
 20
91.2012
 30
0.0
 11
345.983
 21
97.4714
 31
0.0
  0
LINE
  8
0
 62
     0
 10
345.983
 20
97.4714
 30
0.0
 11
346.808
 21
97.4714
 31
0.0
  0
LINE
  8
0
 62
     0
 10
346.808
 20
97.4714
 30
0.0
 11
346.808
 21
100.271
 31
0.0
  0
LINE
  8
0
 62
     0
 10
346.808
 20
100.271
 30
0.0
 11
345.983
 21
100.271
 31
0.0
  0
LINE
  8
0
 62
     0
 10
345.983
 20
100.271
 30
0.0
 11
345.983
 21
103.502
 31
0.0
  0
LINE
  8
0
 62
     0
 10
345.983
 20
103.502
 30
0.0
 11
339.233
 21
103.502
 31
0.0
  0
LINE
  8
0
 62
     0
 10
339.233
 20
103.502
 30
0.0
 11
339.233
 21
100.271
 31
0.0
  0
LINE
  8
0
 62
     0
 10
339.233
 20
100.271
 30
0.0
 11
337.707
 21
100.271
 31
0.0
  0
LINE
  8
0
 62
     0
 10
337.707
 20
100.271
 30
0.0
 11
337.707
 21
104.971
 31
0.0
  0
LINE
  8
0
 62
     0
 10
337.707
 20
104.971
 30
0.0
 11
323.708
 21
104.971
 31
0.0
  0
LINE
  8
0
 62
     0
 10
66.5332
 20
104.971
 30
0.0
 11
80.5325
 21
104.971
 31
0.0
  0
LINE
  8
0
 62
     0
 10
80.5325
 20
104.971
 30
0.0
 11
80.5325
 21
90.9712
 31
0.0
  0
LINE
  8
0
 62
     0
 10
80.5325
 20
90.9712
 30
0.0
 11
66.5332
 21
90.9712
 31
0.0
  0
LINE
  8
0
 62
     0
 10
66.5332
 20
90.9712
 30
0.0
 11
66.5332
 21
104.971
 31
0.0
  0
LINE
  8
0
 62
     0
 10
85.5832
 20
104.971
 30
0.0
 11
99.5825
 21
104.971
 31
0.0
  0
LINE
  8
0
 62
     0
 10
99.5825
 20
104.971
 30
0.0
 11
99.5825
 21
90.9712
 31
0.0
  0
LINE
  8
0
 62
     0
 10
99.5825
 20
90.9712
 30
0.0
 11
85.5832
 21
90.9712
 31
0.0
  0
LINE
  8
0
 62
     0
 10
85.5832
 20
90.9712
 30
0.0
 11
85.5832
 21
104.971
 31
0.0
  0
LINE
  8
0
 62
     0
 10
104.633
 20
104.971
 30
0.0
 11
118.632
 21
104.971
 31
0.0
  0
LINE
  8
0
 62
     0
 10
118.632
 20
104.971
 30
0.0
 11
118.632
 21
90.9712
 31
0.0
  0
LINE
  8
0
 62
     0
 10
118.632
 20
90.9712
 30
0.0
 11
104.633
 21
90.9712
 31
0.0
  0
LINE
  8
0
 62
     0
 10
104.633
 20
90.9712
 30
0.0
 11
104.633
 21
104.971
 31
0.0
  0
LINE
  8
0
 62
     0
 10
123.682
 20
104.971
 30
0.0
 11
137.682
 21
104.971
 31
0.0
  0
LINE
  8
0
 62
     0
 10
137.682
 20
104.971
 30
0.0
 11
137.682
 21
90.9712
 31
0.0
  0
LINE
  8
0
 62
     0
 10
137.682
 20
90.9712
 30
0.0
 11
123.682
 21
90.9712
 31
0.0
  0
LINE
  8
0
 62
     0
 10
123.682
 20
90.9712
 30
0.0
 11
123.682
 21
104.971
 31
0.0
  0
LINE
  8
0
 62
     0
 10
142.733
 20
104.971
 30
0.0
 11
156.732
 21
104.971
 31
0.0
  0
LINE
  8
0
 62
     0
 10
156.732
 20
104.971
 30
0.0
 11
156.732
 21
90.9712
 31
0.0
  0
LINE
  8
0
 62
     0
 10
156.732
 20
90.9712
 30
0.0
 11
142.733
 21
90.9712
 31
0.0
  0
LINE
  8
0
 62
     0
 10
142.733
 20
90.9712
 30
0.0
 11
142.733
 21
104.971
 31
0.0
  0
LINE
  8
0
 62
     0
 10
161.783
 20
104.971
 30
0.0
 11
175.782
 21
104.971
 31
0.0
  0
LINE
  8
0
 62
     0
 10
175.782
 20
104.971
 30
0.0
 11
175.782
 21
90.9712
 31
0.0
  0
LINE
  8
0
 62
     0
 10
175.782
 20
90.9712
 30
0.0
 11
161.783
 21
90.9712
 31
0.0
  0
LINE
  8
0
 62
     0
 10
161.783
 20
90.9712
 30
0.0
 11
161.783
 21
104.971
 31
0.0
  0
LINE
  8
0
 62
     0
 10
180.833
 20
104.971
 30
0.0
 11
194.832
 21
104.971
 31
0.0
  0
LINE
  8
0
 62
     0
 10
194.832
 20
104.971
 30
0.0
 11
194.832
 21
90.9712
 31
0.0
  0
LINE
  8
0
 62
     0
 10
194.832
 20
90.9712
 30
0.0
 11
180.833
 21
90.9712
 31
0.0
  0
LINE
  8
0
 62
     0
 10
180.833
 20
90.9712
 30
0.0
 11
180.833
 21
104.971
 31
0.0
  0
LINE
  8
0
 62
     0
 10
199.883
 20
104.971
 30
0.0
 11
213.882
 21
104.971
 31
0.0
  0
LINE
  8
0
 62
     0
 10
213.882
 20
104.971
 30
0.0
 11
213.882
 21
90.9712
 31
0.0
  0
LINE
  8
0
 62
     0
 10
213.882
 20
90.9712
 30
0.0
 11
199.883
 21
90.9712
 31
0.0
  0
LINE
  8
0
 62
     0
 10
199.883
 20
90.9712
 30
0.0
 11
199.883
 21
104.971
 31
0.0
  0
LINE
  8
0
 62
     0
 10
218.933
 20
104.971
 30
0.0
 11
232.932
 21
104.971
 31
0.0
  0
LINE
  8
0
 62
     0
 10
232.932
 20
104.971
 30
0.0
 11
232.932
 21
90.9712
 31
0.0
  0
LINE
  8
0
 62
     0
 10
232.932
 20
90.9712
 30
0.0
 11
218.933
 21
90.9712
 31
0.0
  0
LINE
  8
0
 62
     0
 10
218.933
 20
90.9712
 30
0.0
 11
218.933
 21
104.971
 31
0.0
  0
LINE
  8
0
 62
     0
 10
237.983
 20
104.971
 30
0.0
 11
251.982
 21
104.971
 31
0.0
  0
LINE
  8
0
 62
     0
 10
251.982
 20
104.971
 30
0.0
 11
251.982
 21
90.9712
 31
0.0
  0
LINE
  8
0
 62
     0
 10
251.982
 20
90.9712
 30
0.0
 11
237.983
 21
90.9712
 31
0.0
  0
LINE
  8
0
 62
     0
 10
237.983
 20
90.9712
 30
0.0
 11
237.983
 21
104.971
 31
0.0
  0
LINE
  8
0
 62
     0
 10
257.033
 20
104.971
 30
0.0
 11
271.032
 21
104.971
 31
0.0
  0
LINE
  8
0
 62
     0
 10
271.032
 20
104.971
 30
0.0
 11
271.032
 21
90.9712
 31
0.0
  0
LINE
  8
0
 62
     0
 10
271.032
 20
90.9712
 30
0.0
 11
257.033
 21
90.9712
 31
0.0
  0
LINE
  8
0
 62
     0
 10
257.033
 20
90.9712
 30
0.0
 11
257.033
 21
104.971
 31
0.0
  0
LINE
  8
0
 62
     0
 10
276.083
 20
104.971
 30
0.0
 11
290.082
 21
104.971
 31
0.0
  0
LINE
  8
0
 62
     0
 10
290.082
 20
104.971
 30
0.0
 11
290.082
 21
90.9712
 31
0.0
  0
LINE
  8
0
 62
     0
 10
290.082
 20
90.9712
 30
0.0
 11
276.083
 21
90.9712
 31
0.0
  0
LINE
  8
0
 62
     0
 10
276.083
 20
90.9712
 30
0.0
 11
276.083
 21
104.971
 31
0.0
  0
LINE
  8
0
 62
     0
 10
295.133
 20
104.971
 30
0.0
 11
309.132
 21
104.971
 31
0.0
  0
LINE
  8
0
 62
     0
 10
309.132
 20
104.971
 30
0.0
 11
309.132
 21
90.9712
 31
0.0
  0
LINE
  8
0
 62
     0
 10
309.132
 20
90.9712
 30
0.0
 11
295.133
 21
90.9712
 31
0.0
  0
LINE
  8
0
 62
     0
 10
295.133
 20
90.9712
 30
0.0
 11
295.133
 21
104.971
 31
0.0
  0
LINE
  8
0
 62
     0
 10
357.046
 20
104.971
 30
0.0
 11
371.045
 21
104.971
 31
0.0
  0
LINE
  8
0
 62
     0
 10
371.045
 20
104.971
 30
0.0
 11
371.045
 21
90.9712
 31
0.0
  0
LINE
  8
0
 62
     0
 10
371.045
 20
90.9712
 30
0.0
 11
357.046
 21
90.9712
 31
0.0
  0
LINE
  8
0
 62
     0
 10
357.046
 20
90.9712
 30
0.0
 11
357.046
 21
104.971
 31
0.0
  0
LINE
  8
0
 62
     0
 10
376.096
 20
104.971
 30
0.0
 11
390.095
 21
104.971
 31
0.0
  0
LINE
  8
0
 62
     0
 10
390.095
 20
104.971
 30
0.0
 11
390.095
 21
90.9712
 31
0.0
  0
LINE
  8
0
 62
     0
 10
390.095
 20
90.9712
 30
0.0
 11
376.096
 21
90.9712
 31
0.0
  0
LINE
  8
0
 62
     0
 10
376.096
 20
90.9712
 30
0.0
 11
376.096
 21
104.971
 31
0.0
  0
LINE
  8
0
 62
     0
 10
395.146
 20
104.971
 30
0.0
 11
409.145
 21
104.971
 31
0.0
  0
LINE
  8
0
 62
     0
 10
409.145
 20
104.971
 30
0.0
 11
409.145
 21
90.9712
 31
0.0
  0
LINE
  8
0
 62
     0
 10
409.145
 20
90.9712
 30
0.0
 11
395.146
 21
90.9712
 31
0.0
  0
LINE
  8
0
 62
     0
 10
395.146
 20
90.9712
 30
0.0
 11
395.146
 21
104.971
 31
0.0
  0
LINE
  8
0
 62
     0
 10
418.959
 20
104.971
 30
0.0
 11
432.957
 21
104.971
 31
0.0
  0
LINE
  8
0
 62
     0
 10
432.957
 20
104.971
 30
0.0
 11
432.957
 21
90.9712
 31
0.0
  0
LINE
  8
0
 62
     0
 10
432.957
 20
90.9712
 30
0.0
 11
418.959
 21
90.9712
 31
0.0
  0
LINE
  8
0
 62
     0
 10
418.959
 20
90.9712
 30
0.0
 11
418.959
 21
104.971
 31
0.0
  0
LINE
  8
0
 62
     0
 10
438.009
 20
104.971
 30
0.0
 11
452.007
 21
104.971
 31
0.0
  0
LINE
  8
0
 62
     0
 10
452.007
 20
104.971
 30
0.0
 11
452.007
 21
90.9712
 31
0.0
  0
LINE
  8
0
 62
     0
 10
452.007
 20
90.9712
 30
0.0
 11
438.009
 21
90.9712
 31
0.0
  0
LINE
  8
0
 62
     0
 10
438.009
 20
90.9712
 30
0.0
 11
438.009
 21
104.971
 31
0.0
  0
LINE
  8
0
 62
     0
 10
457.059
 20
104.971
 30
0.0
 11
471.057
 21
104.971
 31
0.0
  0
LINE
  8
0
 62
     0
 10
471.057
 20
104.971
 30
0.0
 11
471.057
 21
90.9712
 31
0.0
  0
LINE
  8
0
 62
     0
 10
471.057
 20
90.9712
 30
0.0
 11
457.059
 21
90.9712
 31
0.0
  0
LINE
  8
0
 62
     0
 10
457.059
 20
90.9712
 30
0.0
 11
457.059
 21
104.971
 31
0.0
  0
LINE
  8
0
 62
     0
 10
476.109
 20
104.971
 30
0.0
 11
490.107
 21
104.971
 31
0.0
  0
LINE
  8
0
 62
     0
 10
490.107
 20
104.971
 30
0.0
 11
490.107
 21
90.9712
 31
0.0
  0
LINE
  8
0
 62
     0
 10
490.107
 20
90.9712
 30
0.0
 11
476.109
 21
90.9712
 31
0.0
  0
LINE
  8
0
 62
     0
 10
476.109
 20
90.9712
 30
0.0
 11
476.109
 21
104.971
 31
0.0
  0
LINE
  8
0
 62
     0
 10
4.6192
 20
109.735
 30
0.0
 11
18.6201
 21
109.735
 31
0.0
  0
LINE
  8
0
 62
     0
 10
18.6201
 20
109.735
 30
0.0
 11
18.6201
 21
95.7337
 31
0.0
  0
LINE
  8
0
 62
     0
 10
18.6201
 20
95.7337
 30
0.0
 11
4.6192
 21
95.7337
 31
0.0
  0
LINE
  8
0
 62
     0
 10
4.6192
 20
95.7337
 30
0.0
 11
4.6192
 21
109.735
 31
0.0
  0
LINE
  8
0
 62
     0
 10
23.6706
 20
109.735
 30
0.0
 11
37.67
 21
109.735
 31
0.0
  0
LINE
  8
0
 62
     0
 10
37.67
 20
109.735
 30
0.0
 11
37.67
 21
95.7337
 31
0.0
  0
LINE
  8
0
 62
     0
 10
37.67
 20
95.7337
 30
0.0
 11
23.6706
 21
95.7337
 31
0.0
  0
LINE
  8
0
 62
     0
 10
23.6706
 20
95.7337
 30
0.0
 11
23.6706
 21
109.735
 31
0.0
  0
LINE
  8
0
 62
     0
 10
42.7207
 20
109.735
 30
0.0
 11
56.72
 21
109.735
 31
0.0
  0
LINE
  8
0
 62
     0
 10
56.72
 20
109.735
 30
0.0
 11
56.72
 21
95.7337
 31
0.0
  0
LINE
  8
0
 62
     0
 10
56.72
 20
95.7337
 30
0.0
 11
42.7207
 21
95.7337
 31
0.0
  0
LINE
  8
0
 62
     0
 10
42.7207
 20
95.7337
 30
0.0
 11
42.7207
 21
109.735
 31
0.0
  0
LINE
  8
0
 62
     0
 10
66.5332
 20
133.546
 30
0.0
 11
80.5325
 21
133.546
 31
0.0
  0
LINE
  8
0
 62
     0
 10
80.5325
 20
133.546
 30
0.0
 11
80.5325
 21
119.546
 31
0.0
  0
LINE
  8
0
 62
     0
 10
80.5325
 20
119.546
 30
0.0
 11
66.5332
 21
119.546
 31
0.0
  0
LINE
  8
0
 62
     0
 10
66.5332
 20
119.546
 30
0.0
 11
66.5332
 21
133.546
 31
0.0
  0
LINE
  8
0
 62
     0
 10
104.633
 20
133.546
 30
0.0
 11
118.632
 21
133.546
 31
0.0
  0
LINE
  8
0
 62
     0
 10
118.632
 20
133.546
 30
0.0
 11
118.632
 21
119.546
 31
0.0
  0
LINE
  8
0
 62
     0
 10
118.632
 20
119.546
 30
0.0
 11
104.633
 21
119.546
 31
0.0
  0
LINE
  8
0
 62
     0
 10
104.633
 20
119.546
 30
0.0
 11
104.633
 21
133.546
 31
0.0
  0
LINE
  8
0
 62
     0
 10
123.682
 20
133.546
 30
0.0
 11
137.682
 21
133.546
 31
0.0
  0
LINE
  8
0
 62
     0
 10
137.682
 20
133.546
 30
0.0
 11
137.682
 21
119.546
 31
0.0
  0
LINE
  8
0
 62
     0
 10
137.682
 20
119.546
 30
0.0
 11
123.682
 21
119.546
 31
0.0
  0
LINE
  8
0
 62
     0
 10
123.682
 20
119.546
 30
0.0
 11
123.682
 21
133.546
 31
0.0
  0
LINE
  8
0
 62
     0
 10
142.733
 20
133.546
 30
0.0
 11
156.732
 21
133.546
 31
0.0
  0
LINE
  8
0
 62
     0
 10
156.732
 20
133.546
 30
0.0
 11
156.732
 21
119.546
 31
0.0
  0
LINE
  8
0
 62
     0
 10
156.732
 20
119.546
 30
0.0
 11
142.733
 21
119.546
 31
0.0
  0
LINE
  8
0
 62
     0
 10
142.733
 20
119.546
 30
0.0
 11
142.733
 21
133.546
 31
0.0
  0
LINE
  8
0
 62
     0
 10
161.783
 20
133.546
 30
0.0
 11
175.782
 21
133.546
 31
0.0
  0
LINE
  8
0
 62
     0
 10
175.782
 20
133.546
 30
0.0
 11
175.782
 21
119.546
 31
0.0
  0
LINE
  8
0
 62
     0
 10
175.782
 20
119.546
 30
0.0
 11
161.783
 21
119.546
 31
0.0
  0
LINE
  8
0
 62
     0
 10
161.783
 20
119.546
 30
0.0
 11
161.783
 21
133.546
 31
0.0
  0
LINE
  8
0
 62
     0
 10
190.358
 20
133.546
 30
0.0
 11
204.357
 21
133.546
 31
0.0
  0
LINE
  8
0
 62
     0
 10
204.357
 20
133.546
 30
0.0
 11
204.357
 21
119.546
 31
0.0
  0
LINE
  8
0
 62
     0
 10
204.357
 20
119.546
 30
0.0
 11
190.358
 21
119.546
 31
0.0
  0
LINE
  8
0
 62
     0
 10
190.358
 20
119.546
 30
0.0
 11
190.358
 21
133.546
 31
0.0
  0
LINE
  8
0
 62
     0
 10
209.408
 20
133.546
 30
0.0
 11
223.407
 21
133.546
 31
0.0
  0
LINE
  8
0
 62
     0
 10
223.407
 20
133.546
 30
0.0
 11
223.407
 21
119.546
 31
0.0
  0
LINE
  8
0
 62
     0
 10
223.407
 20
119.546
 30
0.0
 11
209.408
 21
119.546
 31
0.0
  0
LINE
  8
0
 62
     0
 10
209.408
 20
119.546
 30
0.0
 11
209.408
 21
133.546
 31
0.0
  0
LINE
  8
0
 62
     0
 10
228.458
 20
133.546
 30
0.0
 11
242.457
 21
133.546
 31
0.0
  0
LINE
  8
0
 62
     0
 10
242.457
 20
133.546
 30
0.0
 11
242.457
 21
119.546
 31
0.0
  0
LINE
  8
0
 62
     0
 10
242.457
 20
119.546
 30
0.0
 11
228.458
 21
119.546
 31
0.0
  0
LINE
  8
0
 62
     0
 10
228.458
 20
119.546
 30
0.0
 11
228.458
 21
133.546
 31
0.0
  0
LINE
  8
0
 62
     0
 10
247.508
 20
133.546
 30
0.0
 11
261.507
 21
133.546
 31
0.0
  0
LINE
  8
0
 62
     0
 10
261.507
 20
133.546
 30
0.0
 11
261.507
 21
119.546
 31
0.0
  0
LINE
  8
0
 62
     0
 10
261.507
 20
119.546
 30
0.0
 11
247.508
 21
119.546
 31
0.0
  0
LINE
  8
0
 62
     0
 10
247.508
 20
119.546
 30
0.0
 11
247.508
 21
133.546
 31
0.0
  0
LINE
  8
0
 62
     0
 10
276.083
 20
133.546
 30
0.0
 11
290.082
 21
133.546
 31
0.0
  0
LINE
  8
0
 62
     0
 10
290.082
 20
133.546
 30
0.0
 11
290.082
 21
119.546
 31
0.0
  0
LINE
  8
0
 62
     0
 10
290.082
 20
119.546
 30
0.0
 11
276.083
 21
119.546
 31
0.0
  0
LINE
  8
0
 62
     0
 10
276.083
 20
119.546
 30
0.0
 11
276.083
 21
133.546
 31
0.0
  0
LINE
  8
0
 62
     0
 10
295.133
 20
133.546
 30
0.0
 11
309.132
 21
133.546
 31
0.0
  0
LINE
  8
0
 62
     0
 10
309.132
 20
133.546
 30
0.0
 11
309.132
 21
119.546
 31
0.0
  0
LINE
  8
0
 62
     0
 10
309.132
 20
119.546
 30
0.0
 11
295.133
 21
119.546
 31
0.0
  0
LINE
  8
0
 62
     0
 10
295.133
 20
119.546
 30
0.0
 11
295.133
 21
133.546
 31
0.0
  0
LINE
  8
0
 62
     0
 10
314.183
 20
133.546
 30
0.0
 11
328.182
 21
133.546
 31
0.0
  0
LINE
  8
0
 62
     0
 10
328.182
 20
133.546
 30
0.0
 11
328.182
 21
119.546
 31
0.0
  0
LINE
  8
0
 62
     0
 10
328.182
 20
119.546
 30
0.0
 11
314.183
 21
119.546
 31
0.0
  0
LINE
  8
0
 62
     0
 10
314.183
 20
119.546
 30
0.0
 11
314.183
 21
133.546
 31
0.0
  0
LINE
  8
0
 62
     0
 10
333.233
 20
133.546
 30
0.0
 11
347.232
 21
133.546
 31
0.0
  0
LINE
  8
0
 62
     0
 10
347.232
 20
133.546
 30
0.0
 11
347.232
 21
119.546
 31
0.0
  0
LINE
  8
0
 62
     0
 10
347.232
 20
119.546
 30
0.0
 11
333.233
 21
119.546
 31
0.0
  0
LINE
  8
0
 62
     0
 10
333.233
 20
119.546
 30
0.0
 11
333.233
 21
133.546
 31
0.0
  0
LINE
  8
0
 62
     0
 10
357.046
 20
133.546
 30
0.0
 11
371.045
 21
133.546
 31
0.0
  0
LINE
  8
0
 62
     0
 10
371.045
 20
133.546
 30
0.0
 11
371.045
 21
119.546
 31
0.0
  0
LINE
  8
0
 62
     0
 10
371.045
 20
119.546
 30
0.0
 11
357.046
 21
119.546
 31
0.0
  0
LINE
  8
0
 62
     0
 10
357.046
 20
119.546
 30
0.0
 11
357.046
 21
133.546
 31
0.0
  0
LINE
  8
0
 62
     0
 10
376.096
 20
133.546
 30
0.0
 11
390.095
 21
133.546
 31
0.0
  0
LINE
  8
0
 62
     0
 10
390.095
 20
133.546
 30
0.0
 11
390.095
 21
119.546
 31
0.0
  0
LINE
  8
0
 62
     0
 10
390.095
 20
119.546
 30
0.0
 11
376.096
 21
119.546
 31
0.0
  0
LINE
  8
0
 62
     0
 10
376.096
 20
119.546
 30
0.0
 11
376.096
 21
133.546
 31
0.0
  0
LINE
  8
0
 62
     0
 10
395.146
 20
133.546
 30
0.0
 11
409.145
 21
133.546
 31
0.0
  0
LINE
  8
0
 62
     0
 10
409.145
 20
133.546
 30
0.0
 11
409.145
 21
119.546
 31
0.0
  0
LINE
  8
0
 62
     0
 10
409.145
 20
119.546
 30
0.0
 11
395.146
 21
119.546
 31
0.0
  0
LINE
  8
0
 62
     0
 10
395.146
 20
119.546
 30
0.0
 11
395.146
 21
133.546
 31
0.0
  0
LINE
  8
0
 62
     0
 10
418.959
 20
133.546
 30
0.0
 11
432.957
 21
133.546
 31
0.0
  0
LINE
  8
0
 62
     0
 10
432.957
 20
133.546
 30
0.0
 11
432.957
 21
119.546
 31
0.0
  0
LINE
  8
0
 62
     0
 10
432.957
 20
119.546
 30
0.0
 11
418.959
 21
119.546
 31
0.0
  0
LINE
  8
0
 62
     0
 10
418.959
 20
119.546
 30
0.0
 11
418.959
 21
133.546
 31
0.0
  0
LINE
  8
0
 62
     0
 10
438.009
 20
133.546
 30
0.0
 11
452.007
 21
133.546
 31
0.0
  0
LINE
  8
0
 62
     0
 10
452.007
 20
133.546
 30
0.0
 11
452.007
 21
119.546
 31
0.0
  0
LINE
  8
0
 62
     0
 10
452.007
 20
119.546
 30
0.0
 11
438.009
 21
119.546
 31
0.0
  0
LINE
  8
0
 62
     0
 10
438.009
 20
119.546
 30
0.0
 11
438.009
 21
133.546
 31
0.0
  0
LINE
  8
0
 62
     0
 10
457.059
 20
133.546
 30
0.0
 11
471.057
 21
133.546
 31
0.0
  0
LINE
  8
0
 62
     0
 10
471.057
 20
133.546
 30
0.0
 11
471.057
 21
119.546
 31
0.0
  0
LINE
  8
0
 62
     0
 10
471.057
 20
119.546
 30
0.0
 11
457.059
 21
119.546
 31
0.0
  0
LINE
  8
0
 62
     0
 10
457.059
 20
119.546
 30
0.0
 11
457.059
 21
133.546
 31
0.0
  0
LINE
  8
0
 62
     0
 10
476.109
 20
133.546
 30
0.0
 11
490.107
 21
133.546
 31
0.0
  0
LINE
  8
0
 62
     0
 10
490.107
 20
133.546
 30
0.0
 11
490.107
 21
119.546
 31
0.0
  0
LINE
  8
0
 62
     0
 10
490.107
 20
119.546
 30
0.0
 11
476.109
 21
119.546
 31
0.0
  0
LINE
  8
0
 62
     0
 10
476.109
 20
119.546
 30
0.0
 11
476.109
 21
133.546
 31
0.0
  0
LINE
  8
0
 62
     0
 10
4.6192
 20
133.546
 30
0.0
 11
18.6201
 21
133.546
 31
0.0
  0
LINE
  8
0
 62
     0
 10
18.6201
 20
133.546
 30
0.0
 11
18.6201
 21
119.546
 31
0.0
  0
LINE
  8
0
 62
     0
 10
18.6201
 20
119.546
 30
0.0
 11
4.6192
 21
119.546
 31
0.0
  0
LINE
  8
0
 62
     0
 10
4.6192
 20
119.546
 30
0.0
 11
4.6192
 21
133.546
 31
0.0
  0
LINE
  8
0
 62
     0
 10
23.6706
 20
133.546
 30
0.0
 11
37.67
 21
133.546
 31
0.0
  0
LINE
  8
0
 62
     0
 10
37.67
 20
133.546
 30
0.0
 11
37.67
 21
119.546
 31
0.0
  0
LINE
  8
0
 62
     0
 10
37.67
 20
119.546
 30
0.0
 11
23.6706
 21
119.546
 31
0.0
  0
LINE
  8
0
 62
     0
 10
23.6706
 20
119.546
 30
0.0
 11
23.6706
 21
133.546
 31
0.0
  0
LINE
  8
0
 62
     0
 10
42.7207
 20
133.546
 30
0.0
 11
56.72
 21
133.546
 31
0.0
  0
LINE
  8
0
 62
     0
 10
56.72
 20
133.546
 30
0.0
 11
56.72
 21
119.546
 31
0.0
  0
LINE
  8
0
 62
     0
 10
56.72
 20
119.546
 30
0.0
 11
42.7207
 21
119.546
 31
0.0
  0
LINE
  8
0
 62
     0
 10
42.7207
 20
119.546
 30
0.0
 11
42.7207
 21
133.546
 31
0.0
  0
LINE
  8
0
 62
     0
 10
104.633
 20
152.596
 30
0.0
 11
118.632
 21
152.596
 31
0.0
  0
LINE
  8
0
 62
     0
 10
118.632
 20
152.596
 30
0.0
 11
118.632
 21
138.596
 31
0.0
  0
LINE
  8
0
 62
     0
 10
118.632
 20
138.596
 30
0.0
 11
104.633
 21
138.596
 31
0.0
  0
LINE
  8
0
 62
     0
 10
104.633
 20
138.596
 30
0.0
 11
104.633
 21
152.596
 31
0.0
  0
LINE
  8
0
 62
     0
 10
123.682
 20
152.596
 30
0.0
 11
137.682
 21
152.596
 31
0.0
  0
LINE
  8
0
 62
     0
 10
137.682
 20
152.596
 30
0.0
 11
137.682
 21
138.596
 31
0.0
  0
LINE
  8
0
 62
     0
 10
137.682
 20
138.596
 30
0.0
 11
123.682
 21
138.596
 31
0.0
  0
LINE
  8
0
 62
     0
 10
123.682
 20
138.596
 30
0.0
 11
123.682
 21
152.596
 31
0.0
  0
LINE
  8
0
 62
     0
 10
142.733
 20
152.596
 30
0.0
 11
156.732
 21
152.596
 31
0.0
  0
LINE
  8
0
 62
     0
 10
156.732
 20
152.596
 30
0.0
 11
156.732
 21
138.596
 31
0.0
  0
LINE
  8
0
 62
     0
 10
156.732
 20
138.596
 30
0.0
 11
142.733
 21
138.596
 31
0.0
  0
LINE
  8
0
 62
     0
 10
142.733
 20
138.596
 30
0.0
 11
142.733
 21
152.596
 31
0.0
  0
LINE
  8
0
 62
     0
 10
161.783
 20
152.596
 30
0.0
 11
175.782
 21
152.596
 31
0.0
  0
LINE
  8
0
 62
     0
 10
175.782
 20
152.596
 30
0.0
 11
175.782
 21
138.596
 31
0.0
  0
LINE
  8
0
 62
     0
 10
175.782
 20
138.596
 30
0.0
 11
161.783
 21
138.596
 31
0.0
  0
LINE
  8
0
 62
     0
 10
161.783
 20
138.596
 30
0.0
 11
161.783
 21
152.596
 31
0.0
  0
LINE
  8
0
 62
     0
 10
190.358
 20
152.596
 30
0.0
 11
204.357
 21
152.596
 31
0.0
  0
LINE
  8
0
 62
     0
 10
204.357
 20
152.596
 30
0.0
 11
204.357
 21
138.596
 31
0.0
  0
LINE
  8
0
 62
     0
 10
204.357
 20
138.596
 30
0.0
 11
190.358
 21
138.596
 31
0.0
  0
LINE
  8
0
 62
     0
 10
190.358
 20
138.596
 30
0.0
 11
190.358
 21
152.596
 31
0.0
  0
LINE
  8
0
 62
     0
 10
209.408
 20
152.596
 30
0.0
 11
223.407
 21
152.596
 31
0.0
  0
LINE
  8
0
 62
     0
 10
223.407
 20
152.596
 30
0.0
 11
223.407
 21
138.596
 31
0.0
  0
LINE
  8
0
 62
     0
 10
223.407
 20
138.596
 30
0.0
 11
209.408
 21
138.596
 31
0.0
  0
LINE
  8
0
 62
     0
 10
209.408
 20
138.596
 30
0.0
 11
209.408
 21
152.596
 31
0.0
  0
LINE
  8
0
 62
     0
 10
228.458
 20
152.596
 30
0.0
 11
242.457
 21
152.596
 31
0.0
  0
LINE
  8
0
 62
     0
 10
242.457
 20
152.596
 30
0.0
 11
242.457
 21
138.596
 31
0.0
  0
LINE
  8
0
 62
     0
 10
242.457
 20
138.596
 30
0.0
 11
228.458
 21
138.596
 31
0.0
  0
LINE
  8
0
 62
     0
 10
228.458
 20
138.596
 30
0.0
 11
228.458
 21
152.596
 31
0.0
  0
LINE
  8
0
 62
     0
 10
247.508
 20
152.596
 30
0.0
 11
261.507
 21
152.596
 31
0.0
  0
LINE
  8
0
 62
     0
 10
261.507
 20
152.596
 30
0.0
 11
261.507
 21
138.596
 31
0.0
  0
LINE
  8
0
 62
     0
 10
261.507
 20
138.596
 30
0.0
 11
247.508
 21
138.596
 31
0.0
  0
LINE
  8
0
 62
     0
 10
247.508
 20
138.596
 30
0.0
 11
247.508
 21
152.596
 31
0.0
  0
LINE
  8
0
 62
     0
 10
276.083
 20
152.596
 30
0.0
 11
290.082
 21
152.596
 31
0.0
  0
LINE
  8
0
 62
     0
 10
290.082
 20
152.596
 30
0.0
 11
290.082
 21
138.596
 31
0.0
  0
LINE
  8
0
 62
     0
 10
290.082
 20
138.596
 30
0.0
 11
276.083
 21
138.596
 31
0.0
  0
LINE
  8
0
 62
     0
 10
276.083
 20
138.596
 30
0.0
 11
276.083
 21
152.596
 31
0.0
  0
LINE
  8
0
 62
     0
 10
295.133
 20
152.596
 30
0.0
 11
309.132
 21
152.596
 31
0.0
  0
LINE
  8
0
 62
     0
 10
309.132
 20
152.596
 30
0.0
 11
309.132
 21
138.596
 31
0.0
  0
LINE
  8
0
 62
     0
 10
309.132
 20
138.596
 30
0.0
 11
295.133
 21
138.596
 31
0.0
  0
LINE
  8
0
 62
     0
 10
295.133
 20
138.596
 30
0.0
 11
295.133
 21
152.596
 31
0.0
  0
LINE
  8
0
 62
     0
 10
314.183
 20
152.596
 30
0.0
 11
328.182
 21
152.596
 31
0.0
  0
LINE
  8
0
 62
     0
 10
328.182
 20
152.596
 30
0.0
 11
328.182
 21
138.596
 31
0.0
  0
LINE
  8
0
 62
     0
 10
328.182
 20
138.596
 30
0.0
 11
314.183
 21
138.596
 31
0.0
  0
LINE
  8
0
 62
     0
 10
314.183
 20
138.596
 30
0.0
 11
314.183
 21
152.596
 31
0.0
  0
LINE
  8
0
 62
     0
 10
333.233
 20
152.596
 30
0.0
 11
347.232
 21
152.596
 31
0.0
  0
LINE
  8
0
 62
     0
 10
347.232
 20
152.596
 30
0.0
 11
347.232
 21
138.596
 31
0.0
  0
LINE
  8
0
 62
     0
 10
347.232
 20
138.596
 30
0.0
 11
333.233
 21
138.596
 31
0.0
  0
LINE
  8
0
 62
     0
 10
333.233
 20
138.596
 30
0.0
 11
333.233
 21
152.596
 31
0.0
  0
LINE
  8
0
 62
     0
 10
357.046
 20
152.596
 30
0.0
 11
371.045
 21
152.596
 31
0.0
  0
LINE
  8
0
 62
     0
 10
371.045
 20
152.596
 30
0.0
 11
371.045
 21
138.596
 31
0.0
  0
LINE
  8
0
 62
     0
 10
371.045
 20
138.596
 30
0.0
 11
357.046
 21
138.596
 31
0.0
  0
LINE
  8
0
 62
     0
 10
357.046
 20
138.596
 30
0.0
 11
357.046
 21
152.596
 31
0.0
  0
LINE
  8
0
 62
     0
 10
376.096
 20
152.596
 30
0.0
 11
390.095
 21
152.596
 31
0.0
  0
LINE
  8
0
 62
     0
 10
390.095
 20
152.596
 30
0.0
 11
390.095
 21
138.596
 31
0.0
  0
LINE
  8
0
 62
     0
 10
390.095
 20
138.596
 30
0.0
 11
376.096
 21
138.596
 31
0.0
  0
LINE
  8
0
 62
     0
 10
376.096
 20
138.596
 30
0.0
 11
376.096
 21
152.596
 31
0.0
  0
LINE
  8
0
 62
     0
 10
395.146
 20
152.596
 30
0.0
 11
409.145
 21
152.596
 31
0.0
  0
LINE
  8
0
 62
     0
 10
409.145
 20
152.596
 30
0.0
 11
409.145
 21
138.596
 31
0.0
  0
LINE
  8
0
 62
     0
 10
409.145
 20
138.596
 30
0.0
 11
395.146
 21
138.596
 31
0.0
  0
LINE
  8
0
 62
     0
 10
395.146
 20
138.596
 30
0.0
 11
395.146
 21
152.596
 31
0.0
  0
LINE
  8
0
 62
     0
 10
418.959
 20
152.596
 30
0.0
 11
432.957
 21
152.596
 31
0.0
  0
LINE
  8
0
 62
     0
 10
432.957
 20
152.596
 30
0.0
 11
432.957
 21
138.596
 31
0.0
  0
LINE
  8
0
 62
     0
 10
432.957
 20
138.596
 30
0.0
 11
418.959
 21
138.596
 31
0.0
  0
LINE
  8
0
 62
     0
 10
418.959
 20
138.596
 30
0.0
 11
418.959
 21
152.596
 31
0.0
  0
LINE
  8
0
 62
     0
 10
438.009
 20
152.596
 30
0.0
 11
452.007
 21
152.596
 31
0.0
  0
LINE
  8
0
 62
     0
 10
452.007
 20
152.596
 30
0.0
 11
452.007
 21
138.596
 31
0.0
  0
LINE
  8
0
 62
     0
 10
452.007
 20
138.596
 30
0.0
 11
438.009
 21
138.596
 31
0.0
  0
LINE
  8
0
 62
     0
 10
438.009
 20
138.596
 30
0.0
 11
438.009
 21
152.596
 31
0.0
  0
LINE
  8
0
 62
     0
 10
457.059
 20
152.596
 30
0.0
 11
471.057
 21
152.596
 31
0.0
  0
LINE
  8
0
 62
     0
 10
471.057
 20
152.596
 30
0.0
 11
471.057
 21
138.596
 31
0.0
  0
LINE
  8
0
 62
     0
 10
471.057
 20
138.596
 30
0.0
 11
457.059
 21
138.596
 31
0.0
  0
LINE
  8
0
 62
     0
 10
457.059
 20
138.596
 30
0.0
 11
457.059
 21
152.596
 31
0.0
  0
LINE
  8
0
 62
     0
 10
476.109
 20
152.596
 30
0.0
 11
490.107
 21
152.596
 31
0.0
  0
LINE
  8
0
 62
     0
 10
490.107
 20
152.596
 30
0.0
 11
490.107
 21
138.596
 31
0.0
  0
LINE
  8
0
 62
     0
 10
490.107
 20
138.596
 30
0.0
 11
476.109
 21
138.596
 31
0.0
  0
LINE
  8
0
 62
     0
 10
476.109
 20
138.596
 30
0.0
 11
476.109
 21
152.596
 31
0.0
  0
LINE
  8
0
 62
     0
 10
4.6192
 20
152.596
 30
0.0
 11
18.6201
 21
152.596
 31
0.0
  0
LINE
  8
0
 62
     0
 10
18.6201
 20
152.596
 30
0.0
 11
18.6201
 21
138.596
 31
0.0
  0
LINE
  8
0
 62
     0
 10
18.6201
 20
138.596
 30
0.0
 11
4.6192
 21
138.596
 31
0.0
  0
LINE
  8
0
 62
     0
 10
4.6192
 20
138.596
 30
0.0
 11
4.6192
 21
152.596
 31
0.0
  0
LINE
  8
0
 62
     0
 10
23.6706
 20
152.596
 30
0.0
 11
37.67
 21
152.596
 31
0.0
  0
LINE
  8
0
 62
     0
 10
37.67
 20
152.596
 30
0.0
 11
37.67
 21
138.596
 31
0.0
  0
LINE
  8
0
 62
     0
 10
37.67
 20
138.596
 30
0.0
 11
23.6706
 21
138.596
 31
0.0
  0
LINE
  8
0
 62
     0
 10
23.6706
 20
138.596
 30
0.0
 11
23.6706
 21
152.596
 31
0.0
  0
LINE
  8
0
 62
     0
 10
42.7207
 20
152.596
 30
0.0
 11
56.72
 21
152.596
 31
0.0
  0
LINE
  8
0
 62
     0
 10
56.72
 20
152.596
 30
0.0
 11
56.72
 21
138.596
 31
0.0
  0
LINE
  8
0
 62
     0
 10
56.72
 20
138.596
 30
0.0
 11
42.7207
 21
138.596
 31
0.0
  0
LINE
  8
0
 62
     0
 10
42.7207
 20
138.596
 30
0.0
 11
42.7207
 21
152.596
 31
0.0
  0
LINE
  8
0
 62
     0
 10
4.63158
 20
163.548
 30
0.0
 11
4.21404
 21
163.335
 31
0.0
  0
LINE
  8
0
 62
     0
 10
4.21404
 20
163.335
 30
0.0
 11
3.88193
 21
163.003
 31
0.0
  0
LINE
  8
0
 62
     0
 10
3.88193
 20
163.003
 30
0.0
 11
3.66832
 21
162.585
 31
0.0
  0
LINE
  8
0
 62
     0
 10
3.66832
 20
162.585
 30
0.0
 11
3.5953
 21
162.121
 31
0.0
  0
LINE
  8
0
 62
     0
 10
3.5953
 20
162.121
 30
0.0
 11
3.66832
 21
161.658
 31
0.0
  0
LINE
  8
0
 62
     0
 10
3.66832
 20
161.658
 30
0.0
 11
3.88193
 21
161.24
 31
0.0
  0
LINE
  8
0
 62
     0
 10
3.88193
 20
161.24
 30
0.0
 11
4.21404
 21
160.908
 31
0.0
  0
LINE
  8
0
 62
     0
 10
4.21404
 20
160.908
 30
0.0
 11
4.63158
 21
160.696
 31
0.0
  0
LINE
  8
0
 62
     0
 10
4.63158
 20
160.696
 30
0.0
 11
5.09598
 21
160.621
 31
0.0
  0
LINE
  8
0
 62
     0
 10
5.09598
 20
160.621
 30
0.0
 11
5.559
 21
160.696
 31
0.0
  0
LINE
  8
0
 62
     0
 10
5.559
 20
160.696
 30
0.0
 11
5.97655
 21
160.908
 31
0.0
  0
LINE
  8
0
 62
     0
 10
5.97655
 20
160.908
 30
0.0
 11
6.30865
 21
161.24
 31
0.0
  0
LINE
  8
0
 62
     0
 10
6.30865
 20
161.24
 30
0.0
 11
6.52089
 21
161.658
 31
0.0
  0
LINE
  8
0
 62
     0
 10
6.52089
 20
161.658
 30
0.0
 11
6.59529
 21
162.121
 31
0.0
  0
LINE
  8
0
 62
     0
 10
6.59529
 20
162.121
 30
0.0
 11
6.52089
 21
162.585
 31
0.0
  0
LINE
  8
0
 62
     0
 10
6.52089
 20
162.585
 30
0.0
 11
6.30865
 21
163.003
 31
0.0
  0
LINE
  8
0
 62
     0
 10
6.30865
 20
163.003
 30
0.0
 11
5.97655
 21
163.335
 31
0.0
  0
LINE
  8
0
 62
     0
 10
5.97655
 20
163.335
 30
0.0
 11
5.559
 21
163.548
 31
0.0
  0
LINE
  8
0
 62
     0
 10
5.559
 20
163.548
 30
0.0
 11
5.09598
 21
163.622
 31
0.0
  0
LINE
  8
0
 62
     0
 10
5.09598
 20
163.622
 30
0.0
 11
4.63158
 21
163.548
 31
0.0
  0
LINE
  8
0
 62
     0
 10
166.145
 20
163.548
 30
0.0
 11
165.727
 21
163.335
 31
0.0
  0
LINE
  8
0
 62
     0
 10
165.727
 20
163.335
 30
0.0
 11
165.395
 21
163.003
 31
0.0
  0
LINE
  8
0
 62
     0
 10
165.395
 20
163.003
 30
0.0
 11
165.181
 21
162.585
 31
0.0
  0
LINE
  8
0
 62
     0
 10
165.181
 20
162.585
 30
0.0
 11
165.107
 21
162.121
 31
0.0
  0
LINE
  8
0
 62
     0
 10
165.107
 20
162.121
 30
0.0
 11
165.181
 21
161.658
 31
0.0
  0
LINE
  8
0
 62
     0
 10
165.181
 20
161.658
 30
0.0
 11
165.395
 21
161.24
 31
0.0
  0
LINE
  8
0
 62
     0
 10
165.395
 20
161.24
 30
0.0
 11
165.727
 21
160.908
 31
0.0
  0
LINE
  8
0
 62
     0
 10
165.727
 20
160.908
 30
0.0
 11
166.145
 21
160.696
 31
0.0
  0
LINE
  8
0
 62
     0
 10
166.145
 20
160.696
 30
0.0
 11
166.607
 21
160.621
 31
0.0
  0
LINE
  8
0
 62
     0
 10
166.607
 20
160.621
 30
0.0
 11
167.072
 21
160.696
 31
0.0
  0
LINE
  8
0
 62
     0
 10
167.072
 20
160.696
 30
0.0
 11
167.489
 21
160.908
 31
0.0
  0
LINE
  8
0
 62
     0
 10
167.489
 20
160.908
 30
0.0
 11
167.822
 21
161.24
 31
0.0
  0
LINE
  8
0
 62
     0
 10
167.822
 20
161.24
 30
0.0
 11
168.034
 21
161.658
 31
0.0
  0
LINE
  8
0
 62
     0
 10
168.034
 20
161.658
 30
0.0
 11
168.107
 21
162.121
 31
0.0
  0
LINE
  8
0
 62
     0
 10
168.107
 20
162.121
 30
0.0
 11
168.034
 21
162.585
 31
0.0
  0
LINE
  8
0
 62
     0
 10
168.034
 20
162.585
 30
0.0
 11
167.822
 21
163.003
 31
0.0
  0
LINE
  8
0
 62
     0
 10
167.822
 20
163.003
 30
0.0
 11
167.489
 21
163.335
 31
0.0
  0
LINE
  8
0
 62
     0
 10
167.489
 20
163.335
 30
0.0
 11
167.072
 21
163.548
 31
0.0
  0
LINE
  8
0
 62
     0
 10
167.072
 20
163.548
 30
0.0
 11
166.607
 21
163.622
 31
0.0
  0
LINE
  8
0
 62
     0
 10
166.607
 20
163.622
 30
0.0
 11
166.145
 21
163.548
 31
0.0
  0
LINE
  8
0
 62
     0
 10
327.658
 20
163.548
 30
0.0
 11
327.238
 21
163.335
 31
0.0
  0
LINE
  8
0
 62
     0
 10
327.238
 20
163.335
 30
0.0
 11
326.908
 21
163.003
 31
0.0
  0
LINE
  8
0
 62
     0
 10
326.908
 20
163.003
 30
0.0
 11
326.694
 21
162.585
 31
0.0
  0
LINE
  8
0
 62
     0
 10
326.694
 20
162.585
 30
0.0
 11
326.62
 21
162.121
 31
0.0
  0
LINE
  8
0
 62
     0
 10
326.62
 20
162.121
 30
0.0
 11
326.694
 21
161.658
 31
0.0
  0
LINE
  8
0
 62
     0
 10
326.694
 20
161.658
 30
0.0
 11
326.908
 21
161.24
 31
0.0
  0
LINE
  8
0
 62
     0
 10
326.908
 20
161.24
 30
0.0
 11
327.238
 21
160.908
 31
0.0
  0
LINE
  8
0
 62
     0
 10
327.238
 20
160.908
 30
0.0
 11
327.658
 21
160.696
 31
0.0
  0
LINE
  8
0
 62
     0
 10
327.658
 20
160.696
 30
0.0
 11
328.12
 21
160.621
 31
0.0
  0
LINE
  8
0
 62
     0
 10
328.12
 20
160.621
 30
0.0
 11
328.585
 21
160.696
 31
0.0
  0
LINE
  8
0
 62
     0
 10
328.585
 20
160.696
 30
0.0
 11
329.002
 21
160.908
 31
0.0
  0
LINE
  8
0
 62
     0
 10
329.002
 20
160.908
 30
0.0
 11
329.335
 21
161.24
 31
0.0
  0
LINE
  8
0
 62
     0
 10
329.335
 20
161.24
 30
0.0
 11
329.547
 21
161.658
 31
0.0
  0
LINE
  8
0
 62
     0
 10
329.547
 20
161.658
 30
0.0
 11
329.62
 21
162.121
 31
0.0
  0
LINE
  8
0
 62
     0
 10
329.62
 20
162.121
 30
0.0
 11
329.547
 21
162.585
 31
0.0
  0
LINE
  8
0
 62
     0
 10
329.547
 20
162.585
 30
0.0
 11
329.335
 21
163.003
 31
0.0
  0
LINE
  8
0
 62
     0
 10
329.335
 20
163.003
 30
0.0
 11
329.002
 21
163.335
 31
0.0
  0
LINE
  8
0
 62
     0
 10
329.002
 20
163.335
 30
0.0
 11
328.585
 21
163.548
 31
0.0
  0
LINE
  8
0
 62
     0
 10
328.585
 20
163.548
 30
0.0
 11
328.12
 21
163.622
 31
0.0
  0
LINE
  8
0
 62
     0
 10
328.12
 20
163.622
 30
0.0
 11
327.658
 21
163.548
 31
0.0
  0
LINE
  8
0
 62
     0
 10
489.169
 20
163.548
 30
0.0
 11
488.752
 21
163.335
 31
0.0
  0
LINE
  8
0
 62
     0
 10
488.752
 20
163.335
 30
0.0
 11
488.421
 21
163.003
 31
0.0
  0
LINE
  8
0
 62
     0
 10
488.421
 20
163.003
 30
0.0
 11
488.206
 21
162.585
 31
0.0
  0
LINE
  8
0
 62
     0
 10
488.206
 20
162.585
 30
0.0
 11
488.132
 21
162.121
 31
0.0
  0
LINE
  8
0
 62
     0
 10
488.132
 20
162.121
 30
0.0
 11
488.206
 21
161.658
 31
0.0
  0
LINE
  8
0
 62
     0
 10
488.206
 20
161.658
 30
0.0
 11
488.421
 21
161.24
 31
0.0
  0
LINE
  8
0
 62
     0
 10
488.421
 20
161.24
 30
0.0
 11
488.752
 21
160.908
 31
0.0
  0
LINE
  8
0
 62
     0
 10
488.752
 20
160.908
 30
0.0
 11
489.169
 21
160.696
 31
0.0
  0
LINE
  8
0
 62
     0
 10
489.169
 20
160.696
 30
0.0
 11
489.634
 21
160.621
 31
0.0
  0
LINE
  8
0
 62
     0
 10
489.634
 20
160.621
 30
0.0
 11
490.097
 21
160.696
 31
0.0
  0
LINE
  8
0
 62
     0
 10
490.097
 20
160.696
 30
0.0
 11
490.516
 21
160.908
 31
0.0
  0
LINE
  8
0
 62
     0
 10
490.516
 20
160.908
 30
0.0
 11
490.848
 21
161.24
 31
0.0
  0
LINE
  8
0
 62
     0
 10
490.848
 20
161.24
 30
0.0
 11
491.06
 21
161.658
 31
0.0
  0
LINE
  8
0
 62
     0
 10
491.06
 20
161.658
 30
0.0
 11
491.134
 21
162.121
 31
0.0
  0
LINE
  8
0
 62
     0
 10
491.134
 20
162.121
 30
0.0
 11
491.06
 21
162.585
 31
0.0
  0
LINE
  8
0
 62
     0
 10
491.06
 20
162.585
 30
0.0
 11
490.848
 21
163.003
 31
0.0
  0
LINE
  8
0
 62
     0
 10
490.848
 20
163.003
 30
0.0
 11
490.516
 21
163.335
 31
0.0
  0
LINE
  8
0
 62
     0
 10
490.516
 20
163.335
 30
0.0
 11
490.097
 21
163.548
 31
0.0
  0
LINE
  8
0
 62
     0
 10
490.097
 20
163.548
 30
0.0
 11
489.634
 21
163.622
 31
0.0
  0
LINE
  8
0
 62
     0
 10
489.634
 20
163.622
 30
0.0
 11
489.169
 21
163.548
 31
0.0
  0
ENDSEC
  0
EOF
