<svg width="509.588mm" height="142.875mm" viewBox="0 0 509.588 142.875" xmlns="http://www.w3.org/2000/svg"><g id="svgGroup" stroke-linecap="round" fill-rule="evenodd" font-size="9pt" stroke="#000" stroke-width="0.25mm" fill="none" style="stroke:#000;stroke-width:0.25mm;fill:none"><path d="M 0 142.875 L 509.588 142.875 L 509.588 0 L 0 0 L 0 142.875 Z M 245.913 21.575 L 258.913 21.575 A 0.5 0.5 0 0 1 259.413 22.075 L 259.413 35.075 A 0.5 0.5 0 0 1 258.913 35.575 L 245.913 35.575 A 0.5 0.5 0 0 1 245.413 35.075 L 245.413 22.075 A 0.5 0.5 0 0 1 245.913 21.575 Z M 245.913 69.2 L 258.913 69.2 A 0.5 0.5 0 0 1 259.413 69.7 L 259.413 82.7 A 0.5 0.5 0 0 1 258.913 83.2 L 245.913 83.2 A 0.5 0.5 0 0 1 245.413 82.7 L 245.413 69.7 A 0.5 0.5 0 0 1 245.913 69.2 Z M 245.913 2.525 L 258.913 2.525 A 0.5 0.5 0 0 1 259.413 3.025 L 259.413 16.025 A 0.5 0.5 0 0 1 258.913 16.525 L 245.913 16.525 A 0.5 0.5 0 0 1 245.413 16.025 L 245.413 3.025 A 0.5 0.5 0 0 1 245.913 2.525 Z M 83.988 21.575 L 96.988 21.575 A 0.5 0.5 0 0 1 97.488 22.075 L 97.488 35.075 A 0.5 0.5 0 0 1 96.988 35.575 L 83.988 35.575 A 0.5 0.5 0 0 1 83.488 35.075 L 83.488 22.075 A 0.5 0.5 0 0 1 83.988 21.575 Z M 122.088 21.575 L 135.088 21.575 A 0.5 0.5 0 0 1 135.588 22.075 L 135.588 35.075 A 0.5 0.5 0 0 1 135.088 35.575 L 122.088 35.575 A 0.5 0.5 0 0 1 121.588 35.075 L 121.588 22.075 A 0.5 0.5 0 0 1 122.088 21.575 Z M 141.138 21.575 L 154.138 21.575 A 0.5 0.5 0 0 1 154.638 22.075 L 154.638 35.075 A 0.5 0.5 0 0 1 154.138 35.575 L 141.138 35.575 A 0.5 0.5 0 0 1 140.638 35.075 L 140.638 22.075 A 0.5 0.5 0 0 1 141.138 21.575 Z M 160.188 21.575 L 173.188 21.575 A 0.5 0.5 0 0 1 173.688 22.075 L 173.688 35.075 A 0.5 0.5 0 0 1 173.188 35.575 L 160.188 35.575 A 0.5 0.5 0 0 1 159.688 35.075 L 159.688 22.075 A 0.5 0.5 0 0 1 160.188 21.575 Z M 179.238 21.575 L 192.238 21.575 A 0.5 0.5 0 0 1 192.738 22.075 L 192.738 35.075 A 0.5 0.5 0 0 1 192.238 35.575 L 179.238 35.575 A 0.5 0.5 0 0 1 178.738 35.075 L 178.738 22.075 A 0.5 0.5 0 0 1 179.238 21.575 Z M 207.813 21.575 L 220.813 21.575 A 0.5 0.5 0 0 1 221.313 22.075 L 221.313 35.075 A 0.5 0.5 0 0 1 220.813 35.575 L 207.813 35.575 A 0.5 0.5 0 0 1 207.313 35.075 L 207.313 22.075 A 0.5 0.5 0 0 1 207.813 21.575 Z M 226.863 21.575 L 239.863 21.575 A 0.5 0.5 0 0 1 240.363 22.075 L 240.363 35.075 A 0.5 0.5 0 0 1 239.863 35.575 L 226.863 35.575 A 0.5 0.5 0 0 1 226.363 35.075 L 226.363 22.075 A 0.5 0.5 0 0 1 226.863 21.575 Z M 264.963 21.575 L 277.963 21.575 A 0.5 0.5 0 0 1 278.463 22.075 L 278.463 35.075 A 0.5 0.5 0 0 1 277.963 35.575 L 264.963 35.575 A 0.5 0.5 0 0 1 264.463 35.075 L 264.463 22.075 A 0.5 0.5 0 0 1 264.963 21.575 Z M 293.538 21.575 L 306.538 21.575 A 0.5 0.5 0 0 1 307.038 22.075 L 307.038 35.075 A 0.5 0.5 0 0 1 306.538 35.575 L 293.538 35.575 A 0.5 0.5 0 0 1 293.038 35.075 L 293.038 22.075 A 0.5 0.5 0 0 1 293.538 21.575 Z M 312.588 21.575 L 325.588 21.575 A 0.5 0.5 0 0 1 326.088 22.075 L 326.088 35.075 A 0.5 0.5 0 0 1 325.588 35.575 L 312.588 35.575 A 0.5 0.5 0 0 1 312.088 35.075 L 312.088 22.075 A 0.5 0.5 0 0 1 312.588 21.575 Z M 331.638 21.575 L 344.638 21.575 A 0.5 0.5 0 0 1 345.138 22.075 L 345.138 35.075 A 0.5 0.5 0 0 1 344.638 35.575 L 331.638 35.575 A 0.5 0.5 0 0 1 331.138 35.075 L 331.138 22.075 A 0.5 0.5 0 0 1 331.638 21.575 Z M 350.688 21.575 L 363.688 21.575 A 0.5 0.5 0 0 1 364.188 22.075 L 364.188 35.075 A 0.5 0.5 0 0 1 363.688 35.575 L 350.688 35.575 A 0.5 0.5 0 0 1 350.188 35.075 L 350.188 22.075 A 0.5 0.5 0 0 1 350.688 21.575 Z M 374.5 21.575 L 387.5 21.575 A 0.5 0.5 0 0 1 388 22.075 L 388 35.075 A 0.5 0.5 0 0 1 387.5 35.575 L 374.5 35.575 A 0.5 0.5 0 0 1 374 35.075 L 374 22.075 A 0.5 0.5 0 0 1 374.5 21.575 Z M 393.55 21.575 L 406.55 21.575 A 0.5 0.5 0 0 1 407.05 22.075 L 407.05 35.075 A 0.5 0.5 0 0 1 406.55 35.575 L 393.55 35.575 A 0.5 0.5 0 0 1 393.05 35.075 L 393.05 22.075 A 0.5 0.5 0 0 1 393.55 21.575 Z M 412.6 21.575 L 425.6 21.575 A 0.5 0.5 0 0 1 426.1 22.075 L 426.1 35.075 A 0.5 0.5 0 0 1 425.6 35.575 L 412.6 35.575 A 0.5 0.5 0 0 1 412.1 35.075 L 412.1 22.075 A 0.5 0.5 0 0 1 412.6 21.575 Z M 436.413 21.575 L 449.413 21.575 A 0.5 0.5 0 0 1 449.913 22.075 L 449.913 35.075 A 0.5 0.5 0 0 1 449.413 35.575 L 436.413 35.575 A 0.5 0.5 0 0 1 435.913 35.075 L 435.913 22.075 A 0.5 0.5 0 0 1 436.413 21.575 Z M 455.463 21.575 L 468.463 21.575 A 0.5 0.5 0 0 1 468.963 22.075 L 468.963 35.075 A 0.5 0.5 0 0 1 468.463 35.575 L 455.463 35.575 A 0.5 0.5 0 0 1 454.963 35.075 L 454.963 22.075 A 0.5 0.5 0 0 1 455.463 21.575 Z M 474.513 21.575 L 487.513 21.575 A 0.5 0.5 0 0 1 488.013 22.075 L 488.013 35.075 A 0.5 0.5 0 0 1 487.513 35.575 L 474.513 35.575 A 0.5 0.5 0 0 1 474.013 35.075 L 474.013 22.075 A 0.5 0.5 0 0 1 474.513 21.575 Z M 493.563 21.575 L 506.563 21.575 A 0.5 0.5 0 0 1 507.063 22.075 L 507.063 35.075 A 0.5 0.5 0 0 1 506.563 35.575 L 493.563 35.575 A 0.5 0.5 0 0 1 493.063 35.075 L 493.063 22.075 A 0.5 0.5 0 0 1 493.563 21.575 Z M 22.075 2.525 L 35.075 2.525 A 0.5 0.5 0 0 1 35.575 3.025 L 35.575 16.025 A 0.5 0.5 0 0 1 35.075 16.525 L 22.075 16.525 A 0.5 0.5 0 0 1 21.575 16.025 L 21.575 3.025 A 0.5 0.5 0 0 1 22.075 2.525 Z M 3.025 21.575 L 16.025 21.575 A 0.5 0.5 0 0 1 16.525 22.075 L 16.525 35.075 A 0.5 0.5 0 0 1 16.025 35.575 L 3.025 35.575 A 0.5 0.5 0 0 1 2.525 35.075 L 2.525 22.075 A 0.5 0.5 0 0 1 3.025 21.575 Z M 22.075 21.575 L 35.075 21.575 A 0.5 0.5 0 0 1 35.575 22.075 L 35.575 35.075 A 0.5 0.5 0 0 1 35.075 35.575 L 22.075 35.575 A 0.5 0.5 0 0 1 21.575 35.075 L 21.575 22.075 A 0.5 0.5 0 0 1 22.075 21.575 Z M 41.125 21.575 L 54.125 21.575 A 0.5 0.5 0 0 1 54.625 22.075 L 54.625 35.075 A 0.5 0.5 0 0 1 54.125 35.575 L 41.125 35.575 A 0.5 0.5 0 0 1 40.625 35.075 L 40.625 22.075 A 0.5 0.5 0 0 1 41.125 21.575 Z M 60.175 21.575 L 73.175 21.575 A 0.5 0.5 0 0 1 73.675 22.075 L 73.675 35.075 A 0.5 0.5 0 0 1 73.175 35.575 L 60.175 35.575 A 0.5 0.5 0 0 1 59.675 35.075 L 59.675 22.075 A 0.5 0.5 0 0 1 60.175 21.575 Z M 22.075 45.388 L 35.075 45.388 A 0.5 0.5 0 0 1 35.575 45.888 L 35.575 58.888 A 0.5 0.5 0 0 1 35.075 59.388 L 22.075 59.388 A 0.5 0.5 0 0 1 21.575 58.888 L 21.575 45.888 A 0.5 0.5 0 0 1 22.075 45.388 Z M 22.075 64.438 L 35.075 64.438 A 0.5 0.5 0 0 1 35.575 64.938 L 35.575 77.938 A 0.5 0.5 0 0 1 35.075 78.438 L 22.075 78.438 A 0.5 0.5 0 0 1 21.575 77.938 L 21.575 64.938 A 0.5 0.5 0 0 1 22.075 64.438 Z M 22.075 83.488 L 35.075 83.488 A 0.5 0.5 0 0 1 35.575 83.988 L 35.575 96.988 A 0.5 0.5 0 0 1 35.075 97.488 L 22.075 97.488 A 0.5 0.5 0 0 1 21.575 96.988 L 21.575 83.988 A 0.5 0.5 0 0 1 22.075 83.488 Z M 22.075 107.3 L 35.075 107.3 A 0.5 0.5 0 0 1 35.575 107.8 L 35.575 120.8 A 0.5 0.5 0 0 1 35.075 121.3 L 22.075 121.3 A 0.5 0.5 0 0 1 21.575 120.8 L 21.575 107.8 A 0.5 0.5 0 0 1 22.075 107.3 Z M 22.075 126.35 L 35.075 126.35 A 0.5 0.5 0 0 1 35.575 126.85 L 35.575 139.85 A 0.5 0.5 0 0 1 35.075 140.35 L 22.075 140.35 A 0.5 0.5 0 0 1 21.575 139.85 L 21.575 126.85 A 0.5 0.5 0 0 1 22.075 126.35 Z M 83.988 50.15 L 96.988 50.15 A 0.5 0.5 0 0 1 97.488 50.65 L 97.488 63.65 A 0.5 0.5 0 0 1 96.988 64.15 L 83.988 64.15 A 0.5 0.5 0 0 1 83.488 63.65 L 83.488 50.65 A 0.5 0.5 0 0 1 83.988 50.15 Z M 103.038 50.15 L 116.038 50.15 A 0.5 0.5 0 0 1 116.538 50.65 L 116.538 63.65 A 0.5 0.5 0 0 1 116.038 64.15 L 103.038 64.15 A 0.5 0.5 0 0 1 102.538 63.65 L 102.538 50.65 A 0.5 0.5 0 0 1 103.038 50.15 Z M 122.088 50.15 L 135.088 50.15 A 0.5 0.5 0 0 1 135.588 50.65 L 135.588 63.65 A 0.5 0.5 0 0 1 135.088 64.15 L 122.088 64.15 A 0.5 0.5 0 0 1 121.588 63.65 L 121.588 50.65 A 0.5 0.5 0 0 1 122.088 50.15 Z M 141.138 50.15 L 154.138 50.15 A 0.5 0.5 0 0 1 154.638 50.65 L 154.638 63.65 A 0.5 0.5 0 0 1 154.138 64.15 L 141.138 64.15 A 0.5 0.5 0 0 1 140.638 63.65 L 140.638 50.65 A 0.5 0.5 0 0 1 141.138 50.15 Z M 160.188 50.15 L 173.188 50.15 A 0.5 0.5 0 0 1 173.688 50.65 L 173.688 63.65 A 0.5 0.5 0 0 1 173.188 64.15 L 160.188 64.15 A 0.5 0.5 0 0 1 159.688 63.65 L 159.688 50.65 A 0.5 0.5 0 0 1 160.188 50.15 Z M 179.238 50.15 L 192.238 50.15 A 0.5 0.5 0 0 1 192.738 50.65 L 192.738 63.65 A 0.5 0.5 0 0 1 192.238 64.15 L 179.238 64.15 A 0.5 0.5 0 0 1 178.738 63.65 L 178.738 50.65 A 0.5 0.5 0 0 1 179.238 50.15 Z M 198.288 50.15 L 211.288 50.15 A 0.5 0.5 0 0 1 211.788 50.65 L 211.788 63.65 A 0.5 0.5 0 0 1 211.288 64.15 L 198.288 64.15 A 0.5 0.5 0 0 1 197.788 63.65 L 197.788 50.65 A 0.5 0.5 0 0 1 198.288 50.15 Z M 217.338 50.15 L 230.338 50.15 A 0.5 0.5 0 0 1 230.838 50.65 L 230.838 63.65 A 0.5 0.5 0 0 1 230.338 64.15 L 217.338 64.15 A 0.5 0.5 0 0 1 216.838 63.65 L 216.838 50.65 A 0.5 0.5 0 0 1 217.338 50.15 Z M 236.388 50.15 L 249.388 50.15 A 0.5 0.5 0 0 1 249.888 50.65 L 249.888 63.65 A 0.5 0.5 0 0 1 249.388 64.15 L 236.388 64.15 A 0.5 0.5 0 0 1 235.888 63.65 L 235.888 50.65 A 0.5 0.5 0 0 1 236.388 50.15 Z M 255.438 50.15 L 268.438 50.15 A 0.5 0.5 0 0 1 268.938 50.65 L 268.938 63.65 A 0.5 0.5 0 0 1 268.438 64.15 L 255.438 64.15 A 0.5 0.5 0 0 1 254.938 63.65 L 254.938 50.65 A 0.5 0.5 0 0 1 255.438 50.15 Z M 274.488 50.15 L 287.488 50.15 A 0.5 0.5 0 0 1 287.988 50.65 L 287.988 63.65 A 0.5 0.5 0 0 1 287.488 64.15 L 274.488 64.15 A 0.5 0.5 0 0 1 273.988 63.65 L 273.988 50.65 A 0.5 0.5 0 0 1 274.488 50.15 Z M 293.538 50.15 L 306.538 50.15 A 0.5 0.5 0 0 1 307.038 50.65 L 307.038 63.65 A 0.5 0.5 0 0 1 306.538 64.15 L 293.538 64.15 A 0.5 0.5 0 0 1 293.038 63.65 L 293.038 50.65 A 0.5 0.5 0 0 1 293.538 50.15 Z M 312.588 50.15 L 325.588 50.15 A 0.5 0.5 0 0 1 326.088 50.65 L 326.088 63.65 A 0.5 0.5 0 0 1 325.588 64.15 L 312.588 64.15 A 0.5 0.5 0 0 1 312.088 63.65 L 312.088 50.65 A 0.5 0.5 0 0 1 312.588 50.15 Z M 341.163 50.15 L 354.163 50.15 A 0.5 0.5 0 0 1 354.663 50.65 L 354.663 63.65 A 0.5 0.5 0 0 1 354.163 64.15 L 341.163 64.15 A 0.5 0.5 0 0 1 340.663 63.65 L 340.663 50.65 A 0.5 0.5 0 0 1 341.163 50.15 Z M 374.5 50.15 L 387.5 50.15 A 0.5 0.5 0 0 1 388 50.65 L 388 63.65 A 0.5 0.5 0 0 1 387.5 64.15 L 374.5 64.15 A 0.5 0.5 0 0 1 374 63.65 L 374 50.65 A 0.5 0.5 0 0 1 374.5 50.15 Z M 393.55 50.15 L 406.55 50.15 A 0.5 0.5 0 0 1 407.05 50.65 L 407.05 63.65 A 0.5 0.5 0 0 1 406.55 64.15 L 393.55 64.15 A 0.5 0.5 0 0 1 393.05 63.65 L 393.05 50.65 A 0.5 0.5 0 0 1 393.55 50.15 Z M 412.6 50.15 L 425.6 50.15 A 0.5 0.5 0 0 1 426.1 50.65 L 426.1 63.65 A 0.5 0.5 0 0 1 425.6 64.15 L 412.6 64.15 A 0.5 0.5 0 0 1 412.1 63.65 L 412.1 50.65 A 0.5 0.5 0 0 1 412.6 50.15 Z M 436.413 50.15 L 449.413 50.15 A 0.5 0.5 0 0 1 449.913 50.65 L 449.913 63.65 A 0.5 0.5 0 0 1 449.413 64.15 L 436.413 64.15 A 0.5 0.5 0 0 1 435.913 63.65 L 435.913 50.65 A 0.5 0.5 0 0 1 436.413 50.15 Z M 455.463 50.15 L 468.463 50.15 A 0.5 0.5 0 0 1 468.963 50.65 L 468.963 63.65 A 0.5 0.5 0 0 1 468.463 64.15 L 455.463 64.15 A 0.5 0.5 0 0 1 454.963 63.65 L 454.963 50.65 A 0.5 0.5 0 0 1 455.463 50.15 Z M 474.513 50.15 L 487.513 50.15 A 0.5 0.5 0 0 1 488.013 50.65 L 488.013 63.65 A 0.5 0.5 0 0 1 487.513 64.15 L 474.513 64.15 A 0.5 0.5 0 0 1 474.013 63.65 L 474.013 50.65 A 0.5 0.5 0 0 1 474.513 50.15 Z M 493.563 50.15 L 506.563 50.15 A 0.5 0.5 0 0 1 507.063 50.65 L 507.063 63.65 A 0.5 0.5 0 0 1 506.563 64.15 L 493.563 64.15 A 0.5 0.5 0 0 1 493.063 63.65 L 493.063 50.65 A 0.5 0.5 0 0 1 493.563 50.15 Z M 88.75 69.2 L 101.75 69.2 A 0.5 0.5 0 0 1 102.25 69.7 L 102.25 82.7 A 0.5 0.5 0 0 1 101.75 83.2 L 88.75 83.2 A 0.5 0.5 0 0 1 88.25 82.7 L 88.25 69.7 A 0.5 0.5 0 0 1 88.75 69.2 Z M 112.563 69.2 L 125.563 69.2 A 0.5 0.5 0 0 1 126.063 69.7 L 126.063 82.7 A 0.5 0.5 0 0 1 125.563 83.2 L 112.563 83.2 A 0.5 0.5 0 0 1 112.063 82.7 L 112.063 69.7 A 0.5 0.5 0 0 1 112.563 69.2 Z M 131.613 69.2 L 144.613 69.2 A 0.5 0.5 0 0 1 145.113 69.7 L 145.113 82.7 A 0.5 0.5 0 0 1 144.613 83.2 L 131.613 83.2 A 0.5 0.5 0 0 1 131.113 82.7 L 131.113 69.7 A 0.5 0.5 0 0 1 131.613 69.2 Z M 150.663 69.2 L 163.663 69.2 A 0.5 0.5 0 0 1 164.163 69.7 L 164.163 82.7 A 0.5 0.5 0 0 1 163.663 83.2 L 150.663 83.2 A 0.5 0.5 0 0 1 150.163 82.7 L 150.163 69.7 A 0.5 0.5 0 0 1 150.663 69.2 Z M 169.713 69.2 L 182.713 69.2 A 0.5 0.5 0 0 1 183.213 69.7 L 183.213 82.7 A 0.5 0.5 0 0 1 182.713 83.2 L 169.713 83.2 A 0.5 0.5 0 0 1 169.213 82.7 L 169.213 69.7 A 0.5 0.5 0 0 1 169.713 69.2 Z M 188.763 69.2 L 201.763 69.2 A 0.5 0.5 0 0 1 202.263 69.7 L 202.263 82.7 A 0.5 0.5 0 0 1 201.763 83.2 L 188.763 83.2 A 0.5 0.5 0 0 1 188.263 82.7 L 188.263 69.7 A 0.5 0.5 0 0 1 188.763 69.2 Z M 207.813 69.2 L 220.813 69.2 A 0.5 0.5 0 0 1 221.313 69.7 L 221.313 82.7 A 0.5 0.5 0 0 1 220.813 83.2 L 207.813 83.2 A 0.5 0.5 0 0 1 207.313 82.7 L 207.313 69.7 A 0.5 0.5 0 0 1 207.813 69.2 Z M 226.863 69.2 L 239.863 69.2 A 0.5 0.5 0 0 1 240.363 69.7 L 240.363 82.7 A 0.5 0.5 0 0 1 239.863 83.2 L 226.863 83.2 A 0.5 0.5 0 0 1 226.363 82.7 L 226.363 69.7 A 0.5 0.5 0 0 1 226.863 69.2 Z M 264.963 69.2 L 277.963 69.2 A 0.5 0.5 0 0 1 278.463 69.7 L 278.463 82.7 A 0.5 0.5 0 0 1 277.963 83.2 L 264.963 83.2 A 0.5 0.5 0 0 1 264.463 82.7 L 264.463 69.7 A 0.5 0.5 0 0 1 264.963 69.2 Z M 284.013 69.2 L 297.013 69.2 A 0.5 0.5 0 0 1 297.513 69.7 L 297.513 82.7 A 0.5 0.5 0 0 1 297.013 83.2 L 284.013 83.2 A 0.5 0.5 0 0 1 283.513 82.7 L 283.513 69.7 A 0.5 0.5 0 0 1 284.013 69.2 Z M 303.063 69.2 L 316.063 69.2 A 0.5 0.5 0 0 1 316.563 69.7 L 316.563 82.7 A 0.5 0.5 0 0 1 316.063 83.2 L 303.063 83.2 A 0.5 0.5 0 0 1 302.563 82.7 L 302.563 69.7 A 0.5 0.5 0 0 1 303.063 69.2 Z M 322.113 69.2 L 335.113 69.2 A 0.5 0.5 0 0 1 335.613 69.7 L 335.613 82.7 A 0.5 0.5 0 0 1 335.113 83.2 L 322.113 83.2 A 0.5 0.5 0 0 1 321.613 82.7 L 321.613 69.7 A 0.5 0.5 0 0 1 322.113 69.2 Z M 345.925 69.2 L 358.925 69.2 A 0.5 0.5 0 0 1 359.425 69.7 L 359.425 82.7 A 0.5 0.5 0 0 1 358.925 83.2 L 345.925 83.2 A 0.5 0.5 0 0 1 345.425 82.7 L 345.425 69.7 A 0.5 0.5 0 0 1 345.925 69.2 Z M 374.5 69.2 L 387.5 69.2 A 0.5 0.5 0 0 1 388 69.7 L 388 82.7 A 0.5 0.5 0 0 1 387.5 83.2 L 374.5 83.2 A 0.5 0.5 0 0 1 374 82.7 L 374 69.7 A 0.5 0.5 0 0 1 374.5 69.2 Z M 393.55 69.2 L 406.55 69.2 A 0.5 0.5 0 0 1 407.05 69.7 L 407.05 82.7 A 0.5 0.5 0 0 1 406.55 83.2 L 393.55 83.2 A 0.5 0.5 0 0 1 393.05 82.7 L 393.05 69.7 A 0.5 0.5 0 0 1 393.55 69.2 Z M 412.6 69.2 L 425.6 69.2 A 0.5 0.5 0 0 1 426.1 69.7 L 426.1 82.7 A 0.5 0.5 0 0 1 425.6 83.2 L 412.6 83.2 A 0.5 0.5 0 0 1 412.1 82.7 L 412.1 69.7 A 0.5 0.5 0 0 1 412.6 69.2 Z M 436.413 69.2 L 449.413 69.2 A 0.5 0.5 0 0 1 449.913 69.7 L 449.913 82.7 A 0.5 0.5 0 0 1 449.413 83.2 L 436.413 83.2 A 0.5 0.5 0 0 1 435.913 82.7 L 435.913 69.7 A 0.5 0.5 0 0 1 436.413 69.2 Z M 455.463 69.2 L 468.463 69.2 A 0.5 0.5 0 0 1 468.963 69.7 L 468.963 82.7 A 0.5 0.5 0 0 1 468.463 83.2 L 455.463 83.2 A 0.5 0.5 0 0 1 454.963 82.7 L 454.963 69.7 A 0.5 0.5 0 0 1 455.463 69.2 Z M 474.513 69.2 L 487.513 69.2 A 0.5 0.5 0 0 1 488.013 69.7 L 488.013 82.7 A 0.5 0.5 0 0 1 487.513 83.2 L 474.513 83.2 A 0.5 0.5 0 0 1 474.013 82.7 L 474.013 69.7 A 0.5 0.5 0 0 1 474.513 69.2 Z M 507.063 79.225 L 507.063 92.225 A 0.5 0.5 0 0 1 506.563 92.725 L 493.563 92.725 A 0.5 0.5 0 0 1 493.063 92.225 L 493.063 79.225 A 0.5 0.5 0 0 1 493.563 78.725 L 506.563 78.725 A 0.5 0.5 0 0 1 507.063 79.225 Z M 91.131 88.25 L 104.131 88.25 A 0.5 0.5 0 0 1 104.631 88.75 L 104.631 101.75 A 0.5 0.5 0 0 1 104.131 102.25 L 91.131 102.25 A 0.5 0.5 0 0 1 90.631 101.75 L 90.631 88.75 A 0.5 0.5 0 0 1 91.131 88.25 Z M 136.375 88.25 L 149.375 88.25 A 0.5 0.5 0 0 1 149.875 88.75 L 149.875 101.75 A 0.5 0.5 0 0 1 149.375 102.25 L 136.375 102.25 A 0.5 0.5 0 0 1 135.875 101.75 L 135.875 88.75 A 0.5 0.5 0 0 1 136.375 88.25 Z M 155.425 88.25 L 168.425 88.25 A 0.5 0.5 0 0 1 168.925 88.75 L 168.925 101.75 A 0.5 0.5 0 0 1 168.425 102.25 L 155.425 102.25 A 0.5 0.5 0 0 1 154.925 101.75 L 154.925 88.75 A 0.5 0.5 0 0 1 155.425 88.25 Z M 174.475 88.25 L 187.475 88.25 A 0.5 0.5 0 0 1 187.975 88.75 L 187.975 101.75 A 0.5 0.5 0 0 1 187.475 102.25 L 174.475 102.25 A 0.5 0.5 0 0 1 173.975 101.75 L 173.975 88.75 A 0.5 0.5 0 0 1 174.475 88.25 Z M 193.525 88.25 L 206.525 88.25 A 0.5 0.5 0 0 1 207.025 88.75 L 207.025 101.75 A 0.5 0.5 0 0 1 206.525 102.25 L 193.525 102.25 A 0.5 0.5 0 0 1 193.025 101.75 L 193.025 88.75 A 0.5 0.5 0 0 1 193.525 88.25 Z M 212.575 88.25 L 225.575 88.25 A 0.5 0.5 0 0 1 226.075 88.75 L 226.075 101.75 A 0.5 0.5 0 0 1 225.575 102.25 L 212.575 102.25 A 0.5 0.5 0 0 1 212.075 101.75 L 212.075 88.75 A 0.5 0.5 0 0 1 212.575 88.25 Z M 231.625 88.25 L 244.625 88.25 A 0.5 0.5 0 0 1 245.125 88.75 L 245.125 101.75 A 0.5 0.5 0 0 1 244.625 102.25 L 231.625 102.25 A 0.5 0.5 0 0 1 231.125 101.75 L 231.125 88.75 A 0.5 0.5 0 0 1 231.625 88.25 Z M 250.675 88.25 L 263.675 88.25 A 0.5 0.5 0 0 1 264.175 88.75 L 264.175 101.75 A 0.5 0.5 0 0 1 263.675 102.25 L 250.675 102.25 A 0.5 0.5 0 0 1 250.175 101.75 L 250.175 88.75 A 0.5 0.5 0 0 1 250.675 88.25 Z M 269.725 88.25 L 282.725 88.25 A 0.5 0.5 0 0 1 283.225 88.75 L 283.225 101.75 A 0.5 0.5 0 0 1 282.725 102.25 L 269.725 102.25 A 0.5 0.5 0 0 1 269.225 101.75 L 269.225 88.75 A 0.5 0.5 0 0 1 269.725 88.25 Z M 288.775 88.25 L 301.775 88.25 A 0.5 0.5 0 0 1 302.275 88.75 L 302.275 101.75 A 0.5 0.5 0 0 1 301.775 102.25 L 288.775 102.25 A 0.5 0.5 0 0 1 288.275 101.75 L 288.275 88.75 A 0.5 0.5 0 0 1 288.775 88.25 Z M 307.825 88.25 L 320.825 88.25 A 0.5 0.5 0 0 1 321.325 88.75 L 321.325 101.75 A 0.5 0.5 0 0 1 320.825 102.25 L 307.825 102.25 A 0.5 0.5 0 0 1 307.325 101.75 L 307.325 88.75 A 0.5 0.5 0 0 1 307.825 88.25 Z M 338.781 88.25 L 351.781 88.25 A 0.5 0.5 0 0 1 352.281 88.75 L 352.281 101.75 A 0.5 0.5 0 0 1 351.781 102.25 L 338.781 102.25 A 0.5 0.5 0 0 1 338.281 101.75 L 338.281 88.75 A 0.5 0.5 0 0 1 338.781 88.25 Z M 436.413 88.25 L 449.413 88.25 A 0.5 0.5 0 0 1 449.913 88.75 L 449.913 101.75 A 0.5 0.5 0 0 1 449.413 102.25 L 436.413 102.25 A 0.5 0.5 0 0 1 435.913 101.75 L 435.913 88.75 A 0.5 0.5 0 0 1 436.413 88.25 Z M 455.463 88.25 L 468.463 88.25 A 0.5 0.5 0 0 1 468.963 88.75 L 468.963 101.75 A 0.5 0.5 0 0 1 468.463 102.25 L 455.463 102.25 A 0.5 0.5 0 0 1 454.963 101.75 L 454.963 88.75 A 0.5 0.5 0 0 1 455.463 88.25 Z M 474.513 88.25 L 487.513 88.25 A 0.5 0.5 0 0 1 488.013 88.75 L 488.013 101.75 A 0.5 0.5 0 0 1 487.513 102.25 L 474.513 102.25 A 0.5 0.5 0 0 1 474.013 101.75 L 474.013 88.75 A 0.5 0.5 0 0 1 474.513 88.25 Z M 95.894 107.3 L 108.894 107.3 A 0.5 0.5 0 0 1 109.394 107.8 L 109.394 120.8 A 0.5 0.5 0 0 1 108.894 121.3 L 95.894 121.3 A 0.5 0.5 0 0 1 95.394 120.8 L 95.394 107.8 A 0.5 0.5 0 0 1 95.894 107.3 Z M 126.85 107.3 L 139.85 107.3 A 0.5 0.5 0 0 1 140.35 107.8 L 140.35 120.8 A 0.5 0.5 0 0 1 139.85 121.3 L 126.85 121.3 A 0.5 0.5 0 0 1 126.35 120.8 L 126.35 107.8 A 0.5 0.5 0 0 1 126.85 107.3 Z M 145.9 107.3 L 158.9 107.3 A 0.5 0.5 0 0 1 159.4 107.8 L 159.4 120.8 A 0.5 0.5 0 0 1 158.9 121.3 L 145.9 121.3 A 0.5 0.5 0 0 1 145.4 120.8 L 145.4 107.8 A 0.5 0.5 0 0 1 145.9 107.3 Z M 164.95 107.3 L 177.95 107.3 A 0.5 0.5 0 0 1 178.45 107.8 L 178.45 120.8 A 0.5 0.5 0 0 1 177.95 121.3 L 164.95 121.3 A 0.5 0.5 0 0 1 164.45 120.8 L 164.45 107.8 A 0.5 0.5 0 0 1 164.95 107.3 Z M 184 107.3 L 197 107.3 A 0.5 0.5 0 0 1 197.5 107.8 L 197.5 120.8 A 0.5 0.5 0 0 1 197 121.3 L 184 121.3 A 0.5 0.5 0 0 1 183.5 120.8 L 183.5 107.8 A 0.5 0.5 0 0 1 184 107.3 Z M 203.05 107.3 L 216.05 107.3 A 0.5 0.5 0 0 1 216.55 107.8 L 216.55 120.8 A 0.5 0.5 0 0 1 216.05 121.3 L 203.05 121.3 A 0.5 0.5 0 0 1 202.55 120.8 L 202.55 107.8 A 0.5 0.5 0 0 1 203.05 107.3 Z M 222.1 107.3 L 235.1 107.3 A 0.5 0.5 0 0 1 235.6 107.8 L 235.6 120.8 A 0.5 0.5 0 0 1 235.1 121.3 L 222.1 121.3 A 0.5 0.5 0 0 1 221.6 120.8 L 221.6 107.8 A 0.5 0.5 0 0 1 222.1 107.3 Z M 241.15 107.3 L 254.15 107.3 A 0.5 0.5 0 0 1 254.65 107.8 L 254.65 120.8 A 0.5 0.5 0 0 1 254.15 121.3 L 241.15 121.3 A 0.5 0.5 0 0 1 240.65 120.8 L 240.65 107.8 A 0.5 0.5 0 0 1 241.15 107.3 Z M 260.2 107.3 L 273.2 107.3 A 0.5 0.5 0 0 1 273.7 107.8 L 273.7 120.8 A 0.5 0.5 0 0 1 273.2 121.3 L 260.2 121.3 A 0.5 0.5 0 0 1 259.7 120.8 L 259.7 107.8 A 0.5 0.5 0 0 1 260.2 107.3 Z M 279.25 107.3 L 292.25 107.3 A 0.5 0.5 0 0 1 292.75 107.8 L 292.75 120.8 A 0.5 0.5 0 0 1 292.25 121.3 L 279.25 121.3 A 0.5 0.5 0 0 1 278.75 120.8 L 278.75 107.8 A 0.5 0.5 0 0 1 279.25 107.3 Z M 298.3 107.3 L 311.3 107.3 A 0.5 0.5 0 0 1 311.8 107.8 L 311.8 120.8 A 0.5 0.5 0 0 1 311.3 121.3 L 298.3 121.3 A 0.5 0.5 0 0 1 297.8 120.8 L 297.8 107.8 A 0.5 0.5 0 0 1 298.3 107.3 Z M 334.019 107.3 L 347.019 107.3 A 0.5 0.5 0 0 1 347.519 107.8 L 347.519 120.8 A 0.5 0.5 0 0 1 347.019 121.3 L 334.019 121.3 A 0.5 0.5 0 0 1 333.519 120.8 L 333.519 107.8 A 0.5 0.5 0 0 1 334.019 107.3 Z M 393.55 107.3 L 406.55 107.3 A 0.5 0.5 0 0 1 407.05 107.8 L 407.05 120.8 A 0.5 0.5 0 0 1 406.55 121.3 L 393.55 121.3 A 0.5 0.5 0 0 1 393.05 120.8 L 393.05 107.8 A 0.5 0.5 0 0 1 393.55 107.3 Z M 436.413 107.3 L 449.413 107.3 A 0.5 0.5 0 0 1 449.913 107.8 L 449.913 120.8 A 0.5 0.5 0 0 1 449.413 121.3 L 436.413 121.3 A 0.5 0.5 0 0 1 435.913 120.8 L 435.913 107.8 A 0.5 0.5 0 0 1 436.413 107.3 Z M 455.463 107.3 L 468.463 107.3 A 0.5 0.5 0 0 1 468.963 107.8 L 468.963 120.8 A 0.5 0.5 0 0 1 468.463 121.3 L 455.463 121.3 A 0.5 0.5 0 0 1 454.963 120.8 L 454.963 107.8 A 0.5 0.5 0 0 1 455.463 107.3 Z M 474.513 107.3 L 487.513 107.3 A 0.5 0.5 0 0 1 488.013 107.8 L 488.013 120.8 A 0.5 0.5 0 0 1 487.513 121.3 L 474.513 121.3 A 0.5 0.5 0 0 1 474.013 120.8 L 474.013 107.8 A 0.5 0.5 0 0 1 474.513 107.3 Z M 86.369 126.35 L 99.369 126.35 A 0.5 0.5 0 0 1 99.869 126.85 L 99.869 139.85 A 0.5 0.5 0 0 1 99.369 140.35 L 86.369 140.35 A 0.5 0.5 0 0 1 85.869 139.85 L 85.869 126.85 A 0.5 0.5 0 0 1 86.369 126.35 Z M 110.181 126.35 L 123.181 126.35 A 0.5 0.5 0 0 1 123.681 126.85 L 123.681 139.85 A 0.5 0.5 0 0 1 123.181 140.35 L 110.181 140.35 A 0.5 0.5 0 0 1 109.681 139.85 L 109.681 126.85 A 0.5 0.5 0 0 1 110.181 126.35 Z M 133.994 126.35 L 146.994 126.35 A 0.5 0.5 0 0 1 147.494 126.85 L 147.494 139.85 A 0.5 0.5 0 0 1 146.994 140.35 L 133.994 140.35 A 0.5 0.5 0 0 1 133.494 139.85 L 133.494 126.85 A 0.5 0.5 0 0 1 133.994 126.35 Z M 205.431 126.35 L 218.431 126.35 A 0.5 0.5 0 0 1 218.931 126.85 L 218.931 139.85 A 0.5 0.5 0 0 1 218.431 140.35 L 205.431 140.35 A 0.5 0.5 0 0 1 204.931 139.85 L 204.931 126.85 A 0.5 0.5 0 0 1 205.431 126.35 Z M 276.869 126.35 L 289.869 126.35 A 0.5 0.5 0 0 1 290.369 126.85 L 290.369 139.85 A 0.5 0.5 0 0 1 289.869 140.35 L 276.869 140.35 A 0.5 0.5 0 0 1 276.369 139.85 L 276.369 126.85 A 0.5 0.5 0 0 1 276.869 126.35 Z M 300.681 126.35 L 313.681 126.35 A 0.5 0.5 0 0 1 314.181 126.85 L 314.181 139.85 A 0.5 0.5 0 0 1 313.681 140.35 L 300.681 140.35 A 0.5 0.5 0 0 1 300.181 139.85 L 300.181 126.85 A 0.5 0.5 0 0 1 300.681 126.35 Z M 324.494 126.35 L 337.494 126.35 A 0.5 0.5 0 0 1 337.994 126.85 L 337.994 139.85 A 0.5 0.5 0 0 1 337.494 140.35 L 324.494 140.35 A 0.5 0.5 0 0 1 323.994 139.85 L 323.994 126.85 A 0.5 0.5 0 0 1 324.494 126.35 Z M 348.306 126.35 L 361.306 126.35 A 0.5 0.5 0 0 1 361.806 126.85 L 361.806 139.85 A 0.5 0.5 0 0 1 361.306 140.35 L 348.306 140.35 A 0.5 0.5 0 0 1 347.806 139.85 L 347.806 126.85 A 0.5 0.5 0 0 1 348.306 126.35 Z M 374.5 126.35 L 387.5 126.35 A 0.5 0.5 0 0 1 388 126.85 L 388 139.85 A 0.5 0.5 0 0 1 387.5 140.35 L 374.5 140.35 A 0.5 0.5 0 0 1 374 139.85 L 374 126.85 A 0.5 0.5 0 0 1 374.5 126.35 Z M 393.55 126.35 L 406.55 126.35 A 0.5 0.5 0 0 1 407.05 126.85 L 407.05 139.85 A 0.5 0.5 0 0 1 406.55 140.35 L 393.55 140.35 A 0.5 0.5 0 0 1 393.05 139.85 L 393.05 126.85 A 0.5 0.5 0 0 1 393.55 126.35 Z M 412.6 126.35 L 425.6 126.35 A 0.5 0.5 0 0 1 426.1 126.85 L 426.1 139.85 A 0.5 0.5 0 0 1 425.6 140.35 L 412.6 140.35 A 0.5 0.5 0 0 1 412.1 139.85 L 412.1 126.85 A 0.5 0.5 0 0 1 412.6 126.35 Z M 445.938 126.35 L 458.938 126.35 A 0.5 0.5 0 0 1 459.438 126.85 L 459.438 139.85 A 0.5 0.5 0 0 1 458.938 140.35 L 445.938 140.35 A 0.5 0.5 0 0 1 445.438 139.85 L 445.438 126.85 A 0.5 0.5 0 0 1 445.938 126.35 Z M 474.513 126.35 L 487.513 126.35 A 0.5 0.5 0 0 1 488.013 126.85 L 488.013 139.85 A 0.5 0.5 0 0 1 487.513 140.35 L 474.513 140.35 A 0.5 0.5 0 0 1 474.013 139.85 L 474.013 126.85 A 0.5 0.5 0 0 1 474.513 126.35 Z M 41.125 45.388 L 54.125 45.388 A 0.5 0.5 0 0 1 54.625 45.888 L 54.625 58.888 A 0.5 0.5 0 0 1 54.125 59.388 L 41.125 59.388 A 0.5 0.5 0 0 1 40.625 58.888 L 40.625 45.888 A 0.5 0.5 0 0 1 41.125 45.388 Z M 60.175 45.388 L 73.175 45.388 A 0.5 0.5 0 0 1 73.675 45.888 L 73.675 58.888 A 0.5 0.5 0 0 1 73.175 59.388 L 60.175 59.388 A 0.5 0.5 0 0 1 59.675 58.888 L 59.675 45.888 A 0.5 0.5 0 0 1 60.175 45.388 Z M 41.125 64.438 L 54.125 64.438 A 0.5 0.5 0 0 1 54.625 64.938 L 54.625 77.938 A 0.5 0.5 0 0 1 54.125 78.438 L 41.125 78.438 A 0.5 0.5 0 0 1 40.625 77.938 L 40.625 64.938 A 0.5 0.5 0 0 1 41.125 64.438 Z M 60.175 64.438 L 73.175 64.438 A 0.5 0.5 0 0 1 73.675 64.938 L 73.675 77.938 A 0.5 0.5 0 0 1 73.175 78.438 L 60.175 78.438 A 0.5 0.5 0 0 1 59.675 77.938 L 59.675 64.938 A 0.5 0.5 0 0 1 60.175 64.438 Z M 41.125 83.488 L 54.125 83.488 A 0.5 0.5 0 0 1 54.625 83.988 L 54.625 96.988 A 0.5 0.5 0 0 1 54.125 97.488 L 41.125 97.488 A 0.5 0.5 0 0 1 40.625 96.988 L 40.625 83.988 A 0.5 0.5 0 0 1 41.125 83.488 Z M 60.175 83.488 L 73.175 83.488 A 0.5 0.5 0 0 1 73.675 83.988 L 73.675 96.988 A 0.5 0.5 0 0 1 73.175 97.488 L 60.175 97.488 A 0.5 0.5 0 0 1 59.675 96.988 L 59.675 83.988 A 0.5 0.5 0 0 1 60.175 83.488 Z M 41.125 107.3 L 54.125 107.3 A 0.5 0.5 0 0 1 54.625 107.8 L 54.625 120.8 A 0.5 0.5 0 0 1 54.125 121.3 L 41.125 121.3 A 0.5 0.5 0 0 1 40.625 120.8 L 40.625 107.8 A 0.5 0.5 0 0 1 41.125 107.3 Z M 60.175 107.3 L 73.175 107.3 A 0.5 0.5 0 0 1 73.675 107.8 L 73.675 120.8 A 0.5 0.5 0 0 1 73.175 121.3 L 60.175 121.3 A 0.5 0.5 0 0 1 59.675 120.8 L 59.675 107.8 A 0.5 0.5 0 0 1 60.175 107.3 Z M 41.125 126.35 L 54.125 126.35 A 0.5 0.5 0 0 1 54.625 126.85 L 54.625 139.85 A 0.5 0.5 0 0 1 54.125 140.35 L 41.125 140.35 A 0.5 0.5 0 0 1 40.625 139.85 L 40.625 126.85 A 0.5 0.5 0 0 1 41.125 126.35 Z M 60.175 126.35 L 73.175 126.35 A 0.5 0.5 0 0 1 73.675 126.85 L 73.675 139.85 A 0.5 0.5 0 0 1 73.175 140.35 L 60.175 140.35 A 0.5 0.5 0 0 1 59.675 139.85 L 59.675 126.85 A 0.5 0.5 0 0 1 60.175 126.35 Z M 122.088 2.525 L 135.088 2.525 A 0.5 0.5 0 0 1 135.588 3.025 L 135.588 16.025 A 0.5 0.5 0 0 1 135.088 16.525 L 122.088 16.525 A 0.5 0.5 0 0 1 121.588 16.025 L 121.588 3.025 A 0.5 0.5 0 0 1 122.088 2.525 Z M 141.138 2.525 L 154.138 2.525 A 0.5 0.5 0 0 1 154.638 3.025 L 154.638 16.025 A 0.5 0.5 0 0 1 154.138 16.525 L 141.138 16.525 A 0.5 0.5 0 0 1 140.638 16.025 L 140.638 3.025 A 0.5 0.5 0 0 1 141.138 2.525 Z M 160.188 2.525 L 173.188 2.525 A 0.5 0.5 0 0 1 173.688 3.025 L 173.688 16.025 A 0.5 0.5 0 0 1 173.188 16.525 L 160.188 16.525 A 0.5 0.5 0 0 1 159.688 16.025 L 159.688 3.025 A 0.5 0.5 0 0 1 160.188 2.525 Z M 179.238 2.525 L 192.238 2.525 A 0.5 0.5 0 0 1 192.738 3.025 L 192.738 16.025 A 0.5 0.5 0 0 1 192.238 16.525 L 179.238 16.525 A 0.5 0.5 0 0 1 178.738 16.025 L 178.738 3.025 A 0.5 0.5 0 0 1 179.238 2.525 Z M 207.813 2.525 L 220.813 2.525 A 0.5 0.5 0 0 1 221.313 3.025 L 221.313 16.025 A 0.5 0.5 0 0 1 220.813 16.525 L 207.813 16.525 A 0.5 0.5 0 0 1 207.313 16.025 L 207.313 3.025 A 0.5 0.5 0 0 1 207.813 2.525 Z M 226.863 2.525 L 239.863 2.525 A 0.5 0.5 0 0 1 240.363 3.025 L 240.363 16.025 A 0.5 0.5 0 0 1 239.863 16.525 L 226.863 16.525 A 0.5 0.5 0 0 1 226.363 16.025 L 226.363 3.025 A 0.5 0.5 0 0 1 226.863 2.525 Z M 264.963 2.525 L 277.963 2.525 A 0.5 0.5 0 0 1 278.463 3.025 L 278.463 16.025 A 0.5 0.5 0 0 1 277.963 16.525 L 264.963 16.525 A 0.5 0.5 0 0 1 264.463 16.025 L 264.463 3.025 A 0.5 0.5 0 0 1 264.963 2.525 Z M 293.538 2.525 L 306.538 2.525 A 0.5 0.5 0 0 1 307.038 3.025 L 307.038 16.025 A 0.5 0.5 0 0 1 306.538 16.525 L 293.538 16.525 A 0.5 0.5 0 0 1 293.038 16.025 L 293.038 3.025 A 0.5 0.5 0 0 1 293.538 2.525 Z M 312.588 2.525 L 325.588 2.525 A 0.5 0.5 0 0 1 326.088 3.025 L 326.088 16.025 A 0.5 0.5 0 0 1 325.588 16.525 L 312.588 16.525 A 0.5 0.5 0 0 1 312.088 16.025 L 312.088 3.025 A 0.5 0.5 0 0 1 312.588 2.525 Z M 331.638 2.525 L 344.638 2.525 A 0.5 0.5 0 0 1 345.138 3.025 L 345.138 16.025 A 0.5 0.5 0 0 1 344.638 16.525 L 331.638 16.525 A 0.5 0.5 0 0 1 331.138 16.025 L 331.138 3.025 A 0.5 0.5 0 0 1 331.638 2.525 Z M 350.688 2.525 L 363.688 2.525 A 0.5 0.5 0 0 1 364.188 3.025 L 364.188 16.025 A 0.5 0.5 0 0 1 363.688 16.525 L 350.688 16.525 A 0.5 0.5 0 0 1 350.188 16.025 L 350.188 3.025 A 0.5 0.5 0 0 1 350.688 2.525 Z M 374.5 2.525 L 387.5 2.525 A 0.5 0.5 0 0 1 388 3.025 L 388 16.025 A 0.5 0.5 0 0 1 387.5 16.525 L 374.5 16.525 A 0.5 0.5 0 0 1 374 16.025 L 374 3.025 A 0.5 0.5 0 0 1 374.5 2.525 Z M 393.55 2.525 L 406.55 2.525 A 0.5 0.5 0 0 1 407.05 3.025 L 407.05 16.025 A 0.5 0.5 0 0 1 406.55 16.525 L 393.55 16.525 A 0.5 0.5 0 0 1 393.05 16.025 L 393.05 3.025 A 0.5 0.5 0 0 1 393.55 2.525 Z M 412.6 2.525 L 425.6 2.525 A 0.5 0.5 0 0 1 426.1 3.025 L 426.1 16.025 A 0.5 0.5 0 0 1 425.6 16.525 L 412.6 16.525 A 0.5 0.5 0 0 1 412.1 16.025 L 412.1 3.025 A 0.5 0.5 0 0 1 412.6 2.525 Z M 436.413 2.525 L 449.413 2.525 A 0.5 0.5 0 0 1 449.913 3.025 L 449.913 16.025 A 0.5 0.5 0 0 1 449.413 16.525 L 436.413 16.525 A 0.5 0.5 0 0 1 435.913 16.025 L 435.913 3.025 A 0.5 0.5 0 0 1 436.413 2.525 Z M 455.463 2.525 L 468.463 2.525 A 0.5 0.5 0 0 1 468.963 3.025 L 468.963 16.025 A 0.5 0.5 0 0 1 468.463 16.525 L 455.463 16.525 A 0.5 0.5 0 0 1 454.963 16.025 L 454.963 3.025 A 0.5 0.5 0 0 1 455.463 2.525 Z M 474.513 2.525 L 487.513 2.525 A 0.5 0.5 0 0 1 488.013 3.025 L 488.013 16.025 A 0.5 0.5 0 0 1 487.513 16.525 L 474.513 16.525 A 0.5 0.5 0 0 1 474.013 16.025 L 474.013 3.025 A 0.5 0.5 0 0 1 474.513 2.525 Z M 493.563 2.525 L 506.563 2.525 A 0.5 0.5 0 0 1 507.063 3.025 L 507.063 16.025 A 0.5 0.5 0 0 1 506.563 16.525 L 493.563 16.525 A 0.5 0.5 0 0 1 493.063 16.025 L 493.063 3.025 A 0.5 0.5 0 0 1 493.563 2.525 Z M 3.025 2.525 L 16.025 2.525 A 0.5 0.5 0 0 1 16.525 3.025 L 16.525 16.025 A 0.5 0.5 0 0 1 16.025 16.525 L 3.025 16.525 A 0.5 0.5 0 0 1 2.525 16.025 L 2.525 3.025 A 0.5 0.5 0 0 1 3.025 2.525 Z M 41.125 2.525 L 54.125 2.525 A 0.5 0.5 0 0 1 54.625 3.025 L 54.625 16.025 A 0.5 0.5 0 0 1 54.125 16.525 L 41.125 16.525 A 0.5 0.5 0 0 1 40.625 16.025 L 40.625 3.025 A 0.5 0.5 0 0 1 41.125 2.525 Z M 60.175 2.525 L 73.175 2.525 A 0.5 0.5 0 0 1 73.675 3.025 L 73.675 16.025 A 0.5 0.5 0 0 1 73.175 16.525 L 60.175 16.525 A 0.5 0.5 0 0 1 59.675 16.025 L 59.675 3.025 A 0.5 0.5 0 0 1 60.175 2.525 Z M 3.025 45.388 L 16.025 45.388 A 0.5 0.5 0 0 1 16.525 45.888 L 16.525 58.888 A 0.5 0.5 0 0 1 16.025 59.388 L 3.025 59.388 A 0.5 0.5 0 0 1 2.525 58.888 L 2.525 45.888 A 0.5 0.5 0 0 1 3.025 45.388 Z M 3.025 64.438 L 16.025 64.438 A 0.5 0.5 0 0 1 16.525 64.938 L 16.525 77.938 A 0.5 0.5 0 0 1 16.025 78.438 L 3.025 78.438 A 0.5 0.5 0 0 1 2.525 77.938 L 2.525 64.938 A 0.5 0.5 0 0 1 3.025 64.438 Z M 3.025 83.488 L 16.025 83.488 A 0.5 0.5 0 0 1 16.525 83.988 L 16.525 96.988 A 0.5 0.5 0 0 1 16.025 97.488 L 3.025 97.488 A 0.5 0.5 0 0 1 2.525 96.988 L 2.525 83.988 A 0.5 0.5 0 0 1 3.025 83.488 Z M 3.025 107.3 L 16.025 107.3 A 0.5 0.5 0 0 1 16.525 107.8 L 16.525 120.8 A 0.5 0.5 0 0 1 16.025 121.3 L 3.025 121.3 A 0.5 0.5 0 0 1 2.525 120.8 L 2.525 107.8 A 0.5 0.5 0 0 1 3.025 107.3 Z M 3.025 126.35 L 16.025 126.35 A 0.5 0.5 0 0 1 16.525 126.85 L 16.525 139.85 A 0.5 0.5 0 0 1 16.025 140.35 L 3.025 140.35 A 0.5 0.5 0 0 1 2.525 139.85 L 2.525 126.85 A 0.5 0.5 0 0 1 3.025 126.35 Z M 117.325 88.25 L 130.325 88.25 A 0.5 0.5 0 0 1 130.825 88.75 L 130.825 101.75 A 0.5 0.5 0 0 1 130.325 102.25 L 117.325 102.25 A 0.5 0.5 0 0 1 116.825 101.75 L 116.825 88.75 A 0.5 0.5 0 0 1 117.325 88.25 Z M 507.063 117.325 L 507.063 130.325 A 0.5 0.5 0 0 1 506.563 130.825 L 493.563 130.825 A 0.5 0.5 0 0 1 493.063 130.325 L 493.063 117.325 A 0.5 0.5 0 0 1 493.563 116.825 L 506.563 116.825 A 0.5 0.5 0 0 1 507.063 117.325 Z M 332.725 51.15 L 338.725 51.15 A 0.5 0.5 0 0 1 339.225 51.65 L 339.225 65.65 A 0.5 0.5 0 0 1 338.725 66.15 L 332.725 66.15 A 0.5 0.5 0 0 1 332.225 65.65 L 332.225 51.65 A 0.5 0.5 0 0 1 332.725 51.15 Z M 356.601 51.15 L 362.601 51.15 A 0.5 0.5 0 0 1 363.101 51.65 L 363.101 65.65 A 0.5 0.5 0 0 1 362.601 66.15 L 356.601 66.15 A 0.5 0.5 0 0 1 356.101 65.65 L 356.101 51.65 A 0.5 0.5 0 0 1 356.601 51.15 Z M 506.063 70.787 L 506.063 76.787 A 0.5 0.5 0 0 1 505.563 77.287 L 491.563 77.287 A 0.5 0.5 0 0 1 491.063 76.787 L 491.063 70.787 A 0.5 0.5 0 0 1 491.563 70.287 L 505.563 70.287 A 0.5 0.5 0 0 1 506.063 70.787 Z M 506.063 94.663 L 506.063 100.663 A 0.5 0.5 0 0 1 505.563 101.163 L 491.563 101.163 A 0.5 0.5 0 0 1 491.063 100.663 L 491.063 94.663 A 0.5 0.5 0 0 1 491.563 94.163 L 505.563 94.163 A 0.5 0.5 0 0 1 506.063 94.663 Z M 330.343 89.25 L 336.343 89.25 A 0.5 0.5 0 0 1 336.843 89.75 L 336.843 103.75 A 0.5 0.5 0 0 1 336.343 104.25 L 330.343 104.25 A 0.5 0.5 0 0 1 329.843 103.75 L 329.843 89.75 A 0.5 0.5 0 0 1 330.343 89.25 Z M 354.219 89.25 L 360.219 89.25 A 0.5 0.5 0 0 1 360.719 89.75 L 360.719 103.75 A 0.5 0.5 0 0 1 360.219 104.25 L 354.219 104.25 A 0.5 0.5 0 0 1 353.719 103.75 L 353.719 89.75 A 0.5 0.5 0 0 1 354.219 89.25 Z M 87.456 108.3 L 93.456 108.3 A 0.5 0.5 0 0 1 93.956 108.8 L 93.956 122.8 A 0.5 0.5 0 0 1 93.456 123.3 L 87.456 123.3 A 0.5 0.5 0 0 1 86.956 122.8 L 86.956 108.8 A 0.5 0.5 0 0 1 87.456 108.3 Z M 111.332 108.3 L 117.332 108.3 A 0.5 0.5 0 0 1 117.832 108.8 L 117.832 122.8 A 0.5 0.5 0 0 1 117.332 123.3 L 111.332 123.3 A 0.5 0.5 0 0 1 110.832 122.8 L 110.832 108.8 A 0.5 0.5 0 0 1 111.332 108.3 Z M 325.581 108.3 L 331.581 108.3 A 0.5 0.5 0 0 1 332.081 108.8 L 332.081 122.8 A 0.5 0.5 0 0 1 331.581 123.3 L 325.581 123.3 A 0.5 0.5 0 0 1 325.081 122.8 L 325.081 108.8 A 0.5 0.5 0 0 1 325.581 108.3 Z M 349.457 108.3 L 355.457 108.3 A 0.5 0.5 0 0 1 355.957 108.8 L 355.957 122.8 A 0.5 0.5 0 0 1 355.457 123.3 L 349.457 123.3 A 0.5 0.5 0 0 1 348.957 122.8 L 348.957 108.8 A 0.5 0.5 0 0 1 349.457 108.3 Z M 506.063 108.887 L 506.063 114.887 A 0.5 0.5 0 0 1 505.563 115.387 L 491.563 115.387 A 0.5 0.5 0 0 1 491.063 114.887 L 491.063 108.887 A 0.5 0.5 0 0 1 491.563 108.387 L 505.563 108.387 A 0.5 0.5 0 0 1 506.063 108.887 Z M 506.063 132.763 L 506.063 138.763 A 0.5 0.5 0 0 1 505.563 139.263 L 491.563 139.263 A 0.5 0.5 0 0 1 491.063 138.763 L 491.063 132.763 A 0.5 0.5 0 0 1 491.563 132.263 L 505.563 132.263 A 0.5 0.5 0 0 1 506.063 132.763 Z M 158.931 127.35 L 164.931 127.35 A 0.5 0.5 0 0 1 165.431 127.85 L 165.431 141.85 A 0.5 0.5 0 0 1 164.931 142.35 L 158.931 142.35 A 0.5 0.5 0 0 1 158.431 141.85 L 158.431 127.85 A 0.5 0.5 0 0 1 158.931 127.35 Z M 258.931 127.35 L 264.931 127.35 A 0.5 0.5 0 0 1 265.431 127.85 L 265.431 141.85 A 0.5 0.5 0 0 1 264.931 142.35 L 258.931 142.35 A 0.5 0.5 0 0 1 258.431 141.85 L 258.431 127.85 A 0.5 0.5 0 0 1 258.931 127.35 Z M 437.5 127.35 L 443.5 127.35 A 0.5 0.5 0 0 1 444 127.85 L 444 141.85 A 0.5 0.5 0 0 1 443.5 142.35 L 437.5 142.35 A 0.5 0.5 0 0 1 437 141.85 L 437 127.85 A 0.5 0.5 0 0 1 437.5 127.35 Z M 461.376 127.35 L 467.376 127.35 A 0.5 0.5 0 0 1 467.876 127.85 L 467.876 141.85 A 0.5 0.5 0 0 1 467.376 142.35 L 461.376 142.35 A 0.5 0.5 0 0 1 460.876 141.85 L 460.876 127.85 A 0.5 0.5 0 0 1 461.376 127.35 Z" vector-effect="non-scaling-stroke"/></g></svg>