0
SECTION
2
HEADER
9
$INSUNITS
70
4
0
ENDSEC
0
SECTION
2
TABLES
0
TABLE
2
LTYPE
0
LTYPE
72
65
70
64
2
CONTINUOUS
3
______
73
0
40
0
0
ENDTAB
0
TABLE
2
LAYER
0
ENDTAB
0
ENDSEC
0
SECTION
2
ENTITIES
0
LINE
8
0
10
122.0875
20
-2.525
11
135.0875
21
-2.525
0
LINE
8
0
10
122.0875
20
-16.525
11
135.0875
21
-16.525
0
LINE
8
0
10
121.5875
20
-3.025
11
121.5875
21
-16.025
0
LINE
8
0
10
135.5875
20
-3.025
11
135.5875
21
-16.025
0
ARC
8
0
10
122.0875
20
-3.025
40
0.5
50
90
51
180
0
ARC
8
0
10
135.0875
20
-3.025
40
0.5
50
0
51
90
0
ARC
8
0
10
122.0875
20
-16.025
40
0.5
50
180
51
270
0
ARC
8
0
10
135.0875
20
-16.025
40
0.5
50
270
51
0
0
LINE
8
0
10
141.1375
20
-2.525
11
154.1375
21
-2.525
0
LINE
8
0
10
141.1375
20
-16.525
11
154.1375
21
-16.525
0
LINE
8
0
10
140.6375
20
-3.025
11
140.6375
21
-16.025
0
LINE
8
0
10
154.6375
20
-3.025
11
154.6375
21
-16.025
0
ARC
8
0
10
141.1375
20
-3.025
40
0.5
50
90
51
180
0
ARC
8
0
10
154.1375
20
-3.025
40
0.5
50
0
51
90
0
ARC
8
0
10
141.1375
20
-16.025
40
0.5
50
180
51
270
0
ARC
8
0
10
154.1375
20
-16.025
40
0.5
50
270
51
0
0
LINE
8
0
10
160.1875
20
-2.525
11
173.1875
21
-2.525
0
LINE
8
0
10
160.1875
20
-16.525
11
173.1875
21
-16.525
0
LINE
8
0
10
159.6875
20
-3.025
11
159.6875
21
-16.025
0
LINE
8
0
10
173.6875
20
-3.025
11
173.6875
21
-16.025
0
ARC
8
0
10
160.1875
20
-3.025
40
0.5
50
90
51
180
0
ARC
8
0
10
173.1875
20
-3.025
40
0.5
50
0
51
90
0
ARC
8
0
10
160.1875
20
-16.025
40
0.5
50
180
51
270
0
ARC
8
0
10
173.1875
20
-16.025
40
0.5
50
270
51
0
0
LINE
8
0
10
179.2375
20
-2.525
11
192.2375
21
-2.525
0
LINE
8
0
10
179.2375
20
-16.525
11
192.2375
21
-16.525
0
LINE
8
0
10
178.7375
20
-3.025
11
178.7375
21
-16.025
0
LINE
8
0
10
192.7375
20
-3.025
11
192.7375
21
-16.025
0
ARC
8
0
10
179.2375
20
-3.025
40
0.5
50
90
51
180
0
ARC
8
0
10
192.2375
20
-3.025
40
0.5
50
0
51
90
0
ARC
8
0
10
179.2375
20
-16.025
40
0.5
50
180
51
270
0
ARC
8
0
10
192.2375
20
-16.025
40
0.5
50
270
51
0
0
LINE
8
0
10
207.8125
20
-2.525
11
220.8125
21
-2.525
0
LINE
8
0
10
207.8125
20
-16.525
11
220.8125
21
-16.525
0
LINE
8
0
10
207.3125
20
-3.025
11
207.3125
21
-16.025
0
LINE
8
0
10
221.3125
20
-3.025
11
221.3125
21
-16.025
0
ARC
8
0
10
207.8125
20
-3.025
40
0.5
50
90
51
180
0
ARC
8
0
10
220.8125
20
-3.025
40
0.5
50
0
51
90
0
ARC
8
0
10
207.8125
20
-16.025
40
0.5
50
180
51
270
0
ARC
8
0
10
220.8125
20
-16.025
40
0.5
50
270
51
0
0
LINE
8
0
10
226.8625
20
-2.525
11
239.8625
21
-2.525
0
LINE
8
0
10
226.8625
20
-16.525
11
239.8625
21
-16.525
0
LINE
8
0
10
226.3625
20
-3.025
11
226.3625
21
-16.025
0
LINE
8
0
10
240.3625
20
-3.025
11
240.3625
21
-16.025
0
ARC
8
0
10
226.8625
20
-3.025
40
0.5
50
90
51
180
0
ARC
8
0
10
239.8625
20
-3.025
40
0.5
50
0
51
90
0
ARC
8
0
10
226.8625
20
-16.025
40
0.5
50
180
51
270
0
ARC
8
0
10
239.8625
20
-16.025
40
0.5
50
270
51
0
0
LINE
8
0
10
245.9125
20
-2.525
11
258.9125
21
-2.525
0
LINE
8
0
10
245.9125
20
-16.525
11
258.9125
21
-16.525
0
LINE
8
0
10
245.4125
20
-3.025
11
245.4125
21
-16.025
0
LINE
8
0
10
259.4125
20
-3.025
11
259.4125
21
-16.025
0
ARC
8
0
10
245.9125
20
-3.025
40
0.5
50
90
51
180
0
ARC
8
0
10
258.9125
20
-3.025
40
0.5
50
0
51
90
0
ARC
8
0
10
245.9125
20
-16.025
40
0.5
50
180
51
270
0
ARC
8
0
10
258.9125
20
-16.025
40
0.5
50
270
51
0
0
LINE
8
0
10
264.9625
20
-2.525
11
277.9625
21
-2.525
0
LINE
8
0
10
264.9625
20
-16.525
11
277.9625
21
-16.525
0
LINE
8
0
10
264.4625
20
-3.025
11
264.4625
21
-16.025
0
LINE
8
0
10
278.4625
20
-3.025
11
278.4625
21
-16.025
0
ARC
8
0
10
264.9625
20
-3.025
40
0.5
50
90
51
180
0
ARC
8
0
10
277.9625
20
-3.025
40
0.5
50
0
51
90
0
ARC
8
0
10
264.9625
20
-16.025
40
0.5
50
180
51
270
0
ARC
8
0
10
277.9625
20
-16.025
40
0.5
50
270
51
0
0
LINE
8
0
10
293.5375
20
-2.525
11
306.5375
21
-2.525
0
LINE
8
0
10
293.5375
20
-16.525
11
306.5375
21
-16.525
0
LINE
8
0
10
293.0375
20
-3.025
11
293.0375
21
-16.025
0
LINE
8
0
10
307.0375
20
-3.025
11
307.0375
21
-16.025
0
ARC
8
0
10
293.5375
20
-3.025
40
0.5
50
90
51
180
0
ARC
8
0
10
306.5375
20
-3.025
40
0.5
50
0
51
90
0
ARC
8
0
10
293.5375
20
-16.025
40
0.5
50
180
51
270
0
ARC
8
0
10
306.5375
20
-16.025
40
0.5
50
270
51
0
0
LINE
8
0
10
312.5875
20
-2.525
11
325.5875
21
-2.525
0
LINE
8
0
10
312.5875
20
-16.525
11
325.5875
21
-16.525
0
LINE
8
0
10
312.0875
20
-3.025
11
312.0875
21
-16.025
0
LINE
8
0
10
326.0875
20
-3.025
11
326.0875
21
-16.025
0
ARC
8
0
10
312.5875
20
-3.025
40
0.5
50
90
51
180
0
ARC
8
0
10
325.5875
20
-3.025
40
0.5
50
0
51
90
0
ARC
8
0
10
312.5875
20
-16.025
40
0.5
50
180
51
270
0
ARC
8
0
10
325.5875
20
-16.025
40
0.5
50
270
51
0
0
LINE
8
0
10
331.6375
20
-2.525
11
344.6375
21
-2.525
0
LINE
8
0
10
331.6375
20
-16.525
11
344.6375
21
-16.525
0
LINE
8
0
10
331.1375
20
-3.025
11
331.1375
21
-16.025
0
LINE
8
0
10
345.1375
20
-3.025
11
345.1375
21
-16.025
0
ARC
8
0
10
331.6375
20
-3.025
40
0.5
50
90
51
180
0
ARC
8
0
10
344.6375
20
-3.025
40
0.5
50
0
51
90
0
ARC
8
0
10
331.6375
20
-16.025
40
0.5
50
180
51
270
0
ARC
8
0
10
344.6375
20
-16.025
40
0.5
50
270
51
0
0
LINE
8
0
10
350.6875
20
-2.525
11
363.6875
21
-2.525
0
LINE
8
0
10
350.6875
20
-16.525
11
363.6875
21
-16.525
0
LINE
8
0
10
350.1875
20
-3.025
11
350.1875
21
-16.025
0
LINE
8
0
10
364.1875
20
-3.025
11
364.1875
21
-16.025
0
ARC
8
0
10
350.6875
20
-3.025
40
0.5
50
90
51
180
0
ARC
8
0
10
363.6875
20
-3.025
40
0.5
50
0
51
90
0
ARC
8
0
10
350.6875
20
-16.025
40
0.5
50
180
51
270
0
ARC
8
0
10
363.6875
20
-16.025
40
0.5
50
270
51
0
0
LINE
8
0
10
374.5
20
-2.525
11
387.5
21
-2.525
0
LINE
8
0
10
374.5
20
-16.525
11
387.5
21
-16.525
0
LINE
8
0
10
374
20
-3.025
11
374
21
-16.025
0
LINE
8
0
10
388
20
-3.025
11
388
21
-16.025
0
ARC
8
0
10
374.5
20
-3.025
40
0.5
50
90
51
180
0
ARC
8
0
10
387.5
20
-3.025
40
0.5
50
0
51
90
0
ARC
8
0
10
374.5
20
-16.025
40
0.5
50
180
51
270
0
ARC
8
0
10
387.5
20
-16.025
40
0.5
50
270
51
0
0
LINE
8
0
10
393.55
20
-2.525
11
406.55
21
-2.525
0
LINE
8
0
10
393.55
20
-16.525
11
406.55
21
-16.525
0
LINE
8
0
10
393.05
20
-3.025
11
393.05
21
-16.025
0
LINE
8
0
10
407.05
20
-3.025
11
407.05
21
-16.025
0
ARC
8
0
10
393.55
20
-3.025
40
0.5
50
90
51
180
0
ARC
8
0
10
406.55
20
-3.025
40
0.5
50
0
51
90
0
ARC
8
0
10
393.55
20
-16.025
40
0.5
50
180
51
270
0
ARC
8
0
10
406.55
20
-16.025
40
0.5
50
270
51
0
0
LINE
8
0
10
412.6
20
-2.525
11
425.6
21
-2.525
0
LINE
8
0
10
412.6
20
-16.525
11
425.6
21
-16.525
0
LINE
8
0
10
412.1
20
-3.025
11
412.1
21
-16.025
0
LINE
8
0
10
426.1
20
-3.025
11
426.1
21
-16.025
0
ARC
8
0
10
412.6
20
-3.025
40
0.5
50
90
51
180
0
ARC
8
0
10
425.6
20
-3.025
40
0.5
50
0
51
90
0
ARC
8
0
10
412.6
20
-16.025
40
0.5
50
180
51
270
0
ARC
8
0
10
425.6
20
-16.025
40
0.5
50
270
51
0
0
LINE
8
0
10
436.4125
20
-2.525
11
449.4125
21
-2.525
0
LINE
8
0
10
436.4125
20
-16.525
11
449.4125
21
-16.525
0
LINE
8
0
10
435.9125
20
-3.025
11
435.9125
21
-16.025
0
LINE
8
0
10
449.9125
20
-3.025
11
449.9125
21
-16.025
0
ARC
8
0
10
436.4125
20
-3.025
40
0.5
50
90
51
180
0
ARC
8
0
10
449.4125
20
-3.025
40
0.5
50
0
51
90
0
ARC
8
0
10
436.4125
20
-16.025
40
0.5
50
180
51
270
0
ARC
8
0
10
449.4125
20
-16.025
40
0.5
50
270
51
0
0
LINE
8
0
10
455.4625
20
-2.525
11
468.4625
21
-2.525
0
LINE
8
0
10
455.4625
20
-16.525
11
468.4625
21
-16.525
0
LINE
8
0
10
454.9625
20
-3.025
11
454.9625
21
-16.025
0
LINE
8
0
10
468.9625
20
-3.025
11
468.9625
21
-16.025
0
ARC
8
0
10
455.4625
20
-3.025
40
0.5
50
90
51
180
0
ARC
8
0
10
468.4625
20
-3.025
40
0.5
50
0
51
90
0
ARC
8
0
10
455.4625
20
-16.025
40
0.5
50
180
51
270
0
ARC
8
0
10
468.4625
20
-16.025
40
0.5
50
270
51
0
0
LINE
8
0
10
474.5125
20
-2.525
11
487.5125
21
-2.525
0
LINE
8
0
10
474.5125
20
-16.525
11
487.5125
21
-16.525
0
LINE
8
0
10
474.0125
20
-3.025
11
474.0125
21
-16.025
0
LINE
8
0
10
488.0125
20
-3.025
11
488.0125
21
-16.025
0
ARC
8
0
10
474.5125
20
-3.025
40
0.5
50
90
51
180
0
ARC
8
0
10
487.5125
20
-3.025
40
0.5
50
0
51
90
0
ARC
8
0
10
474.5125
20
-16.025
40
0.5
50
180
51
270
0
ARC
8
0
10
487.5125
20
-16.025
40
0.5
50
270
51
0
0
LINE
8
0
10
493.5625
20
-2.525
11
506.5625
21
-2.525
0
LINE
8
0
10
493.5625
20
-16.525
11
506.5625
21
-16.525
0
LINE
8
0
10
493.0625
20
-3.025
11
493.0625
21
-16.025
0
LINE
8
0
10
507.0625
20
-3.025
11
507.0625
21
-16.025
0
ARC
8
0
10
493.5625
20
-3.025
40
0.5
50
90
51
180
0
ARC
8
0
10
506.5625
20
-3.025
40
0.5
50
0
51
90
0
ARC
8
0
10
493.5625
20
-16.025
40
0.5
50
180
51
270
0
ARC
8
0
10
506.5625
20
-16.025
40
0.5
50
270
51
0
0
LINE
8
0
10
83.9875
20
-21.575
11
96.9875
21
-21.575
0
LINE
8
0
10
83.9875
20
-35.575
11
96.9875
21
-35.575
0
LINE
8
0
10
83.4875
20
-22.075
11
83.4875
21
-35.075
0
LINE
8
0
10
97.4875
20
-22.075
11
97.4875
21
-35.075
0
ARC
8
0
10
83.9875
20
-22.075
40
0.5
50
90
51
180
0
ARC
8
0
10
96.9875
20
-22.075
40
0.5
50
0
51
90
0
ARC
8
0
10
83.9875
20
-35.075
40
0.5
50
180
51
270
0
ARC
8
0
10
96.9875
20
-35.075
40
0.5
50
270
51
0
0
LINE
8
0
10
122.0875
20
-21.575
11
135.0875
21
-21.575
0
LINE
8
0
10
122.0875
20
-35.575
11
135.0875
21
-35.575
0
LINE
8
0
10
121.5875
20
-22.075
11
121.5875
21
-35.075
0
LINE
8
0
10
135.5875
20
-22.075
11
135.5875
21
-35.075
0
ARC
8
0
10
122.0875
20
-22.075
40
0.5
50
90
51
180
0
ARC
8
0
10
135.0875
20
-22.075
40
0.5
50
0
51
90
0
ARC
8
0
10
122.0875
20
-35.075
40
0.5
50
180
51
270
0
ARC
8
0
10
135.0875
20
-35.075
40
0.5
50
270
51
0
0
LINE
8
0
10
141.1375
20
-21.575
11
154.1375
21
-21.575
0
LINE
8
0
10
141.1375
20
-35.575
11
154.1375
21
-35.575
0
LINE
8
0
10
140.6375
20
-22.075
11
140.6375
21
-35.075
0
LINE
8
0
10
154.6375
20
-22.075
11
154.6375
21
-35.075
0
ARC
8
0
10
141.1375
20
-22.075
40
0.5
50
90
51
180
0
ARC
8
0
10
154.1375
20
-22.075
40
0.5
50
0
51
90
0
ARC
8
0
10
141.1375
20
-35.075
40
0.5
50
180
51
270
0
ARC
8
0
10
154.1375
20
-35.075
40
0.5
50
270
51
0
0
LINE
8
0
10
160.1875
20
-21.575
11
173.1875
21
-21.575
0
LINE
8
0
10
160.1875
20
-35.575
11
173.1875
21
-35.575
0
LINE
8
0
10
159.6875
20
-22.075
11
159.6875
21
-35.075
0
LINE
8
0
10
173.6875
20
-22.075
11
173.6875
21
-35.075
0
ARC
8
0
10
160.1875
20
-22.075
40
0.5
50
90
51
180
0
ARC
8
0
10
173.1875
20
-22.075
40
0.5
50
0
51
90
0
ARC
8
0
10
160.1875
20
-35.075
40
0.5
50
180
51
270
0
ARC
8
0
10
173.1875
20
-35.075
40
0.5
50
270
51
0
0
LINE
8
0
10
179.2375
20
-21.575
11
192.2375
21
-21.575
0
LINE
8
0
10
179.2375
20
-35.575
11
192.2375
21
-35.575
0
LINE
8
0
10
178.7375
20
-22.075
11
178.7375
21
-35.075
0
LINE
8
0
10
192.7375
20
-22.075
11
192.7375
21
-35.075
0
ARC
8
0
10
179.2375
20
-22.075
40
0.5
50
90
51
180
0
ARC
8
0
10
192.2375
20
-22.075
40
0.5
50
0
51
90
0
ARC
8
0
10
179.2375
20
-35.075
40
0.5
50
180
51
270
0
ARC
8
0
10
192.2375
20
-35.075
40
0.5
50
270
51
0
0
LINE
8
0
10
207.8125
20
-21.575
11
220.8125
21
-21.575
0
LINE
8
0
10
207.8125
20
-35.575
11
220.8125
21
-35.575
0
LINE
8
0
10
207.3125
20
-22.075
11
207.3125
21
-35.075
0
LINE
8
0
10
221.3125
20
-22.075
11
221.3125
21
-35.075
0
ARC
8
0
10
207.8125
20
-22.075
40
0.5
50
90
51
180
0
ARC
8
0
10
220.8125
20
-22.075
40
0.5
50
0
51
90
0
ARC
8
0
10
207.8125
20
-35.075
40
0.5
50
180
51
270
0
ARC
8
0
10
220.8125
20
-35.075
40
0.5
50
270
51
0
0
LINE
8
0
10
226.8625
20
-21.575
11
239.8625
21
-21.575
0
LINE
8
0
10
226.8625
20
-35.575
11
239.8625
21
-35.575
0
LINE
8
0
10
226.3625
20
-22.075
11
226.3625
21
-35.075
0
LINE
8
0
10
240.3625
20
-22.075
11
240.3625
21
-35.075
0
ARC
8
0
10
226.8625
20
-22.075
40
0.5
50
90
51
180
0
ARC
8
0
10
239.8625
20
-22.075
40
0.5
50
0
51
90
0
ARC
8
0
10
226.8625
20
-35.075
40
0.5
50
180
51
270
0
ARC
8
0
10
239.8625
20
-35.075
40
0.5
50
270
51
0
0
LINE
8
0
10
245.9125
20
-21.575
11
258.9125
21
-21.575
0
LINE
8
0
10
245.9125
20
-35.575
11
258.9125
21
-35.575
0
LINE
8
0
10
245.4125
20
-22.075
11
245.4125
21
-35.075
0
LINE
8
0
10
259.4125
20
-22.075
11
259.4125
21
-35.075
0
ARC
8
0
10
245.9125
20
-22.075
40
0.5
50
90
51
180
0
ARC
8
0
10
258.9125
20
-22.075
40
0.5
50
0
51
90
0
ARC
8
0
10
245.9125
20
-35.075
40
0.5
50
180
51
270
0
ARC
8
0
10
258.9125
20
-35.075
40
0.5
50
270
51
0
0
LINE
8
0
10
264.9625
20
-21.575
11
277.9625
21
-21.575
0
LINE
8
0
10
264.9625
20
-35.575
11
277.9625
21
-35.575
0
LINE
8
0
10
264.4625
20
-22.075
11
264.4625
21
-35.075
0
LINE
8
0
10
278.4625
20
-22.075
11
278.4625
21
-35.075
0
ARC
8
0
10
264.9625
20
-22.075
40
0.5
50
90
51
180
0
ARC
8
0
10
277.9625
20
-22.075
40
0.5
50
0
51
90
0
ARC
8
0
10
264.9625
20
-35.075
40
0.5
50
180
51
270
0
ARC
8
0
10
277.9625
20
-35.075
40
0.5
50
270
51
0
0
LINE
8
0
10
293.5375
20
-21.575
11
306.5375
21
-21.575
0
LINE
8
0
10
293.5375
20
-35.575
11
306.5375
21
-35.575
0
LINE
8
0
10
293.0375
20
-22.075
11
293.0375
21
-35.075
0
LINE
8
0
10
307.0375
20
-22.075
11
307.0375
21
-35.075
0
ARC
8
0
10
293.5375
20
-22.075
40
0.5
50
90
51
180
0
ARC
8
0
10
306.5375
20
-22.075
40
0.5
50
0
51
90
0
ARC
8
0
10
293.5375
20
-35.075
40
0.5
50
180
51
270
0
ARC
8
0
10
306.5375
20
-35.075
40
0.5
50
270
51
0
0
LINE
8
0
10
312.5875
20
-21.575
11
325.5875
21
-21.575
0
LINE
8
0
10
312.5875
20
-35.575
11
325.5875
21
-35.575
0
LINE
8
0
10
312.0875
20
-22.075
11
312.0875
21
-35.075
0
LINE
8
0
10
326.0875
20
-22.075
11
326.0875
21
-35.075
0
ARC
8
0
10
312.5875
20
-22.075
40
0.5
50
90
51
180
0
ARC
8
0
10
325.5875
20
-22.075
40
0.5
50
0
51
90
0
ARC
8
0
10
312.5875
20
-35.075
40
0.5
50
180
51
270
0
ARC
8
0
10
325.5875
20
-35.075
40
0.5
50
270
51
0
0
LINE
8
0
10
331.6375
20
-21.575
11
344.6375
21
-21.575
0
LINE
8
0
10
331.6375
20
-35.575
11
344.6375
21
-35.575
0
LINE
8
0
10
331.1375
20
-22.075
11
331.1375
21
-35.075
0
LINE
8
0
10
345.1375
20
-22.075
11
345.1375
21
-35.075
0
ARC
8
0
10
331.6375
20
-22.075
40
0.5
50
90
51
180
0
ARC
8
0
10
344.6375
20
-22.075
40
0.5
50
0
51
90
0
ARC
8
0
10
331.6375
20
-35.075
40
0.5
50
180
51
270
0
ARC
8
0
10
344.6375
20
-35.075
40
0.5
50
270
51
0
0
LINE
8
0
10
350.6875
20
-21.575
11
363.6875
21
-21.575
0
LINE
8
0
10
350.6875
20
-35.575
11
363.6875
21
-35.575
0
LINE
8
0
10
350.1875
20
-22.075
11
350.1875
21
-35.075
0
LINE
8
0
10
364.1875
20
-22.075
11
364.1875
21
-35.075
0
ARC
8
0
10
350.6875
20
-22.075
40
0.5
50
90
51
180
0
ARC
8
0
10
363.6875
20
-22.075
40
0.5
50
0
51
90
0
ARC
8
0
10
350.6875
20
-35.075
40
0.5
50
180
51
270
0
ARC
8
0
10
363.6875
20
-35.075
40
0.5
50
270
51
0
0
LINE
8
0
10
374.5
20
-21.575
11
387.5
21
-21.575
0
LINE
8
0
10
374.5
20
-35.575
11
387.5
21
-35.575
0
LINE
8
0
10
374
20
-22.075
11
374
21
-35.075
0
LINE
8
0
10
388
20
-22.075
11
388
21
-35.075
0
ARC
8
0
10
374.5
20
-22.075
40
0.5
50
90
51
180
0
ARC
8
0
10
387.5
20
-22.075
40
0.5
50
0
51
90
0
ARC
8
0
10
374.5
20
-35.075
40
0.5
50
180
51
270
0
ARC
8
0
10
387.5
20
-35.075
40
0.5
50
270
51
0
0
LINE
8
0
10
393.55
20
-21.575
11
406.55
21
-21.575
0
LINE
8
0
10
393.55
20
-35.575
11
406.55
21
-35.575
0
LINE
8
0
10
393.05
20
-22.075
11
393.05
21
-35.075
0
LINE
8
0
10
407.05
20
-22.075
11
407.05
21
-35.075
0
ARC
8
0
10
393.55
20
-22.075
40
0.5
50
90
51
180
0
ARC
8
0
10
406.55
20
-22.075
40
0.5
50
0
51
90
0
ARC
8
0
10
393.55
20
-35.075
40
0.5
50
180
51
270
0
ARC
8
0
10
406.55
20
-35.075
40
0.5
50
270
51
0
0
LINE
8
0
10
412.6
20
-21.575
11
425.6
21
-21.575
0
LINE
8
0
10
412.6
20
-35.575
11
425.6
21
-35.575
0
LINE
8
0
10
412.1
20
-22.075
11
412.1
21
-35.075
0
LINE
8
0
10
426.1
20
-22.075
11
426.1
21
-35.075
0
ARC
8
0
10
412.6
20
-22.075
40
0.5
50
90
51
180
0
ARC
8
0
10
425.6
20
-22.075
40
0.5
50
0
51
90
0
ARC
8
0
10
412.6
20
-35.075
40
0.5
50
180
51
270
0
ARC
8
0
10
425.6
20
-35.075
40
0.5
50
270
51
0
0
LINE
8
0
10
436.4125
20
-21.575
11
449.4125
21
-21.575
0
LINE
8
0
10
436.4125
20
-35.575
11
449.4125
21
-35.575
0
LINE
8
0
10
435.9125
20
-22.075
11
435.9125
21
-35.075
0
LINE
8
0
10
449.9125
20
-22.075
11
449.9125
21
-35.075
0
ARC
8
0
10
436.4125
20
-22.075
40
0.5
50
90
51
180
0
ARC
8
0
10
449.4125
20
-22.075
40
0.5
50
0
51
90
0
ARC
8
0
10
436.4125
20
-35.075
40
0.5
50
180
51
270
0
ARC
8
0
10
449.4125
20
-35.075
40
0.5
50
270
51
0
0
LINE
8
0
10
455.4625
20
-21.575
11
468.4625
21
-21.575
0
LINE
8
0
10
455.4625
20
-35.575
11
468.4625
21
-35.575
0
LINE
8
0
10
454.9625
20
-22.075
11
454.9625
21
-35.075
0
LINE
8
0
10
468.9625
20
-22.075
11
468.9625
21
-35.075
0
ARC
8
0
10
455.4625
20
-22.075
40
0.5
50
90
51
180
0
ARC
8
0
10
468.4625
20
-22.075
40
0.5
50
0
51
90
0
ARC
8
0
10
455.4625
20
-35.075
40
0.5
50
180
51
270
0
ARC
8
0
10
468.4625
20
-35.075
40
0.5
50
270
51
0
0
LINE
8
0
10
474.5125
20
-21.575
11
487.5125
21
-21.575
0
LINE
8
0
10
474.5125
20
-35.575
11
487.5125
21
-35.575
0
LINE
8
0
10
474.0125
20
-22.075
11
474.0125
21
-35.075
0
LINE
8
0
10
488.0125
20
-22.075
11
488.0125
21
-35.075
0
ARC
8
0
10
474.5125
20
-22.075
40
0.5
50
90
51
180
0
ARC
8
0
10
487.5125
20
-22.075
40
0.5
50
0
51
90
0
ARC
8
0
10
474.5125
20
-35.075
40
0.5
50
180
51
270
0
ARC
8
0
10
487.5125
20
-35.075
40
0.5
50
270
51
0
0
LINE
8
0
10
493.5625
20
-21.575
11
506.5625
21
-21.575
0
LINE
8
0
10
493.5625
20
-35.575
11
506.5625
21
-35.575
0
LINE
8
0
10
493.0625
20
-22.075
11
493.0625
21
-35.075
0
LINE
8
0
10
507.0625
20
-22.075
11
507.0625
21
-35.075
0
ARC
8
0
10
493.5625
20
-22.075
40
0.5
50
90
51
180
0
ARC
8
0
10
506.5625
20
-22.075
40
0.5
50
0
51
90
0
ARC
8
0
10
493.5625
20
-35.075
40
0.5
50
180
51
270
0
ARC
8
0
10
506.5625
20
-35.075
40
0.5
50
270
51
0
0
LINE
8
0
10
83.9875
20
-50.15
11
96.9875
21
-50.15
0
LINE
8
0
10
83.9875
20
-64.15
11
96.9875
21
-64.15
0
LINE
8
0
10
83.4875
20
-50.65
11
83.4875
21
-63.65
0
LINE
8
0
10
97.4875
20
-50.65
11
97.4875
21
-63.65
0
ARC
8
0
10
83.9875
20
-50.65
40
0.5
50
90
51
180
0
ARC
8
0
10
96.9875
20
-50.65
40
0.5
50
0
51
90
0
ARC
8
0
10
83.9875
20
-63.65
40
0.5
50
180
51
270
0
ARC
8
0
10
96.9875
20
-63.65
40
0.5
50
270
51
0
0
LINE
8
0
10
103.0375
20
-50.15
11
116.0375
21
-50.15
0
LINE
8
0
10
103.0375
20
-64.15
11
116.0375
21
-64.15
0
LINE
8
0
10
102.5375
20
-50.65
11
102.5375
21
-63.65
0
LINE
8
0
10
116.5375
20
-50.65
11
116.5375
21
-63.65
0
ARC
8
0
10
103.0375
20
-50.65
40
0.5
50
90
51
180
0
ARC
8
0
10
116.0375
20
-50.65
40
0.5
50
0
51
90
0
ARC
8
0
10
103.0375
20
-63.65
40
0.5
50
180
51
270
0
ARC
8
0
10
116.0375
20
-63.65
40
0.5
50
270
51
0
0
LINE
8
0
10
122.0875
20
-50.15
11
135.0875
21
-50.15
0
LINE
8
0
10
122.0875
20
-64.15
11
135.0875
21
-64.15
0
LINE
8
0
10
121.5875
20
-50.65
11
121.5875
21
-63.65
0
LINE
8
0
10
135.5875
20
-50.65
11
135.5875
21
-63.65
0
ARC
8
0
10
122.0875
20
-50.65
40
0.5
50
90
51
180
0
ARC
8
0
10
135.0875
20
-50.65
40
0.5
50
0
51
90
0
ARC
8
0
10
122.0875
20
-63.65
40
0.5
50
180
51
270
0
ARC
8
0
10
135.0875
20
-63.65
40
0.5
50
270
51
0
0
LINE
8
0
10
141.1375
20
-50.15
11
154.1375
21
-50.15
0
LINE
8
0
10
141.1375
20
-64.15
11
154.1375
21
-64.15
0
LINE
8
0
10
140.6375
20
-50.65
11
140.6375
21
-63.65
0
LINE
8
0
10
154.6375
20
-50.65
11
154.6375
21
-63.65
0
ARC
8
0
10
141.1375
20
-50.65
40
0.5
50
90
51
180
0
ARC
8
0
10
154.1375
20
-50.65
40
0.5
50
0
51
90
0
ARC
8
0
10
141.1375
20
-63.65
40
0.5
50
180
51
270
0
ARC
8
0
10
154.1375
20
-63.65
40
0.5
50
270
51
0
0
LINE
8
0
10
160.1875
20
-50.15
11
173.1875
21
-50.15
0
LINE
8
0
10
160.1875
20
-64.15
11
173.1875
21
-64.15
0
LINE
8
0
10
159.6875
20
-50.65
11
159.6875
21
-63.65
0
LINE
8
0
10
173.6875
20
-50.65
11
173.6875
21
-63.65
0
ARC
8
0
10
160.1875
20
-50.65
40
0.5
50
90
51
180
0
ARC
8
0
10
173.1875
20
-50.65
40
0.5
50
0
51
90
0
ARC
8
0
10
160.1875
20
-63.65
40
0.5
50
180
51
270
0
ARC
8
0
10
173.1875
20
-63.65
40
0.5
50
270
51
0
0
LINE
8
0
10
179.2375
20
-50.15
11
192.2375
21
-50.15
0
LINE
8
0
10
179.2375
20
-64.15
11
192.2375
21
-64.15
0
LINE
8
0
10
178.7375
20
-50.65
11
178.7375
21
-63.65
0
LINE
8
0
10
192.7375
20
-50.65
11
192.7375
21
-63.65
0
ARC
8
0
10
179.2375
20
-50.65
40
0.5
50
90
51
180
0
ARC
8
0
10
192.2375
20
-50.65
40
0.5
50
0
51
90
0
ARC
8
0
10
179.2375
20
-63.65
40
0.5
50
180
51
270
0
ARC
8
0
10
192.2375
20
-63.65
40
0.5
50
270
51
0
0
LINE
8
0
10
198.2875
20
-50.15
11
211.2875
21
-50.15
0
LINE
8
0
10
198.2875
20
-64.15
11
211.2875
21
-64.15
0
LINE
8
0
10
197.7875
20
-50.65
11
197.7875
21
-63.65
0
LINE
8
0
10
211.7875
20
-50.65
11
211.7875
21
-63.65
0
ARC
8
0
10
198.2875
20
-50.65
40
0.5
50
90
51
180
0
ARC
8
0
10
211.2875
20
-50.65
40
0.5
50
0
51
90
0
ARC
8
0
10
198.2875
20
-63.65
40
0.5
50
180
51
270
0
ARC
8
0
10
211.2875
20
-63.65
40
0.5
50
270
51
0
0
LINE
8
0
10
217.3375
20
-50.15
11
230.3375
21
-50.15
0
LINE
8
0
10
217.3375
20
-64.15
11
230.3375
21
-64.15
0
LINE
8
0
10
216.8375
20
-50.65
11
216.8375
21
-63.65
0
LINE
8
0
10
230.8375
20
-50.65
11
230.8375
21
-63.65
0
ARC
8
0
10
217.3375
20
-50.65
40
0.5
50
90
51
180
0
ARC
8
0
10
230.3375
20
-50.65
40
0.5
50
0
51
90
0
ARC
8
0
10
217.3375
20
-63.65
40
0.5
50
180
51
270
0
ARC
8
0
10
230.3375
20
-63.65
40
0.5
50
270
51
0
0
LINE
8
0
10
236.3875
20
-50.15
11
249.3875
21
-50.15
0
LINE
8
0
10
236.3875
20
-64.15
11
249.3875
21
-64.15
0
LINE
8
0
10
235.8875
20
-50.65
11
235.8875
21
-63.65
0
LINE
8
0
10
249.8875
20
-50.65
11
249.8875
21
-63.65
0
ARC
8
0
10
236.3875
20
-50.65
40
0.5
50
90
51
180
0
ARC
8
0
10
249.3875
20
-50.65
40
0.5
50
0
51
90
0
ARC
8
0
10
236.3875
20
-63.65
40
0.5
50
180
51
270
0
ARC
8
0
10
249.3875
20
-63.65
40
0.5
50
270
51
0
0
LINE
8
0
10
255.4375
20
-50.15
11
268.4375
21
-50.15
0
LINE
8
0
10
255.4375
20
-64.15
11
268.4375
21
-64.15
0
LINE
8
0
10
254.9375
20
-50.65
11
254.9375
21
-63.65
0
LINE
8
0
10
268.9375
20
-50.65
11
268.9375
21
-63.65
0
ARC
8
0
10
255.4375
20
-50.65
40
0.5
50
90
51
180
0
ARC
8
0
10
268.4375
20
-50.65
40
0.5
50
0
51
90
0
ARC
8
0
10
255.4375
20
-63.65
40
0.5
50
180
51
270
0
ARC
8
0
10
268.4375
20
-63.65
40
0.5
50
270
51
0
0
LINE
8
0
10
274.4875
20
-50.15
11
287.4875
21
-50.15
0
LINE
8
0
10
274.4875
20
-64.15
11
287.4875
21
-64.15
0
LINE
8
0
10
273.9875
20
-50.65
11
273.9875
21
-63.65
0
LINE
8
0
10
287.9875
20
-50.65
11
287.9875
21
-63.65
0
ARC
8
0
10
274.4875
20
-50.65
40
0.5
50
90
51
180
0
ARC
8
0
10
287.4875
20
-50.65
40
0.5
50
0
51
90
0
ARC
8
0
10
274.4875
20
-63.65
40
0.5
50
180
51
270
0
ARC
8
0
10
287.4875
20
-63.65
40
0.5
50
270
51
0
0
LINE
8
0
10
293.5375
20
-50.15
11
306.5375
21
-50.15
0
LINE
8
0
10
293.5375
20
-64.15
11
306.5375
21
-64.15
0
LINE
8
0
10
293.0375
20
-50.65
11
293.0375
21
-63.65
0
LINE
8
0
10
307.0375
20
-50.65
11
307.0375
21
-63.65
0
ARC
8
0
10
293.5375
20
-50.65
40
0.5
50
90
51
180
0
ARC
8
0
10
306.5375
20
-50.65
40
0.5
50
0
51
90
0
ARC
8
0
10
293.5375
20
-63.65
40
0.5
50
180
51
270
0
ARC
8
0
10
306.5375
20
-63.65
40
0.5
50
270
51
0
0
LINE
8
0
10
312.5875
20
-50.15
11
325.5875
21
-50.15
0
LINE
8
0
10
312.5875
20
-64.15
11
325.5875
21
-64.15
0
LINE
8
0
10
312.0875
20
-50.65
11
312.0875
21
-63.65
0
LINE
8
0
10
326.0875
20
-50.65
11
326.0875
21
-63.65
0
ARC
8
0
10
312.5875
20
-50.65
40
0.5
50
90
51
180
0
ARC
8
0
10
325.5875
20
-50.65
40
0.5
50
0
51
90
0
ARC
8
0
10
312.5875
20
-63.65
40
0.5
50
180
51
270
0
ARC
8
0
10
325.5875
20
-63.65
40
0.5
50
270
51
0
0
LINE
8
0
10
341.1625
20
-50.15
11
354.1625
21
-50.15
0
LINE
8
0
10
341.1625
20
-64.15
11
354.1625
21
-64.15
0
LINE
8
0
10
340.6625
20
-50.65
11
340.6625
21
-63.65
0
LINE
8
0
10
354.6625
20
-50.65
11
354.6625
21
-63.65
0
ARC
8
0
10
341.1625
20
-50.65
40
0.5
50
90
51
180
0
ARC
8
0
10
354.1625
20
-50.65
40
0.5
50
0
51
90
0
ARC
8
0
10
341.1625
20
-63.65
40
0.5
50
180
51
270
0
ARC
8
0
10
354.1625
20
-63.65
40
0.5
50
270
51
0
0
LINE
8
0
10
332.7245
20
-51.15
11
338.7245
21
-51.15
0
LINE
8
0
10
332.7245
20
-66.15
11
338.7245
21
-66.15
0
LINE
8
0
10
332.2245
20
-51.65
11
332.2245
21
-65.65
0
LINE
8
0
10
339.2245
20
-51.65
11
339.2245
21
-65.65
0
ARC
8
0
10
332.7245
20
-51.65
40
0.5
50
90
51
180
0
ARC
8
0
10
338.7245
20
-51.65
40
0.5
50
0
51
90
0
ARC
8
0
10
332.7245
20
-65.65
40
0.5
50
180
51
270
0
ARC
8
0
10
338.7245
20
-65.65
40
0.5
50
270
51
0
0
LINE
8
0
10
356.6005
20
-51.15
11
362.6005
21
-51.15
0
LINE
8
0
10
356.6005
20
-66.15
11
362.6005
21
-66.15
0
LINE
8
0
10
356.1005
20
-51.65
11
356.1005
21
-65.65
0
LINE
8
0
10
363.1005
20
-51.65
11
363.1005
21
-65.65
0
ARC
8
0
10
356.6005
20
-51.65
40
0.5
50
90
51
180
0
ARC
8
0
10
362.6005
20
-51.65
40
0.5
50
0
51
90
0
ARC
8
0
10
356.6005
20
-65.65
40
0.5
50
180
51
270
0
ARC
8
0
10
362.6005
20
-65.65
40
0.5
50
270
51
0
0
LINE
8
0
10
374.5
20
-50.15
11
387.5
21
-50.15
0
LINE
8
0
10
374.5
20
-64.15
11
387.5
21
-64.15
0
LINE
8
0
10
374
20
-50.65
11
374
21
-63.65
0
LINE
8
0
10
388
20
-50.65
11
388
21
-63.65
0
ARC
8
0
10
374.5
20
-50.65
40
0.5
50
90
51
180
0
ARC
8
0
10
387.5
20
-50.65
40
0.5
50
0
51
90
0
ARC
8
0
10
374.5
20
-63.65
40
0.5
50
180
51
270
0
ARC
8
0
10
387.5
20
-63.65
40
0.5
50
270
51
0
0
LINE
8
0
10
393.55
20
-50.15
11
406.55
21
-50.15
0
LINE
8
0
10
393.55
20
-64.15
11
406.55
21
-64.15
0
LINE
8
0
10
393.05
20
-50.65
11
393.05
21
-63.65
0
LINE
8
0
10
407.05
20
-50.65
11
407.05
21
-63.65
0
ARC
8
0
10
393.55
20
-50.65
40
0.5
50
90
51
180
0
ARC
8
0
10
406.55
20
-50.65
40
0.5
50
0
51
90
0
ARC
8
0
10
393.55
20
-63.65
40
0.5
50
180
51
270
0
ARC
8
0
10
406.55
20
-63.65
40
0.5
50
270
51
0
0
LINE
8
0
10
412.6
20
-50.15
11
425.6
21
-50.15
0
LINE
8
0
10
412.6
20
-64.15
11
425.6
21
-64.15
0
LINE
8
0
10
412.1
20
-50.65
11
412.1
21
-63.65
0
LINE
8
0
10
426.1
20
-50.65
11
426.1
21
-63.65
0
ARC
8
0
10
412.6
20
-50.65
40
0.5
50
90
51
180
0
ARC
8
0
10
425.6
20
-50.65
40
0.5
50
0
51
90
0
ARC
8
0
10
412.6
20
-63.65
40
0.5
50
180
51
270
0
ARC
8
0
10
425.6
20
-63.65
40
0.5
50
270
51
0
0
LINE
8
0
10
436.4125
20
-50.15
11
449.4125
21
-50.15
0
LINE
8
0
10
436.4125
20
-64.15
11
449.4125
21
-64.15
0
LINE
8
0
10
435.9125
20
-50.65
11
435.9125
21
-63.65
0
LINE
8
0
10
449.9125
20
-50.65
11
449.9125
21
-63.65
0
ARC
8
0
10
436.4125
20
-50.65
40
0.5
50
90
51
180
0
ARC
8
0
10
449.4125
20
-50.65
40
0.5
50
0
51
90
0
ARC
8
0
10
436.4125
20
-63.65
40
0.5
50
180
51
270
0
ARC
8
0
10
449.4125
20
-63.65
40
0.5
50
270
51
0
0
LINE
8
0
10
455.4625
20
-50.15
11
468.4625
21
-50.15
0
LINE
8
0
10
455.4625
20
-64.15
11
468.4625
21
-64.15
0
LINE
8
0
10
454.9625
20
-50.65
11
454.9625
21
-63.65
0
LINE
8
0
10
468.9625
20
-50.65
11
468.9625
21
-63.65
0
ARC
8
0
10
455.4625
20
-50.65
40
0.5
50
90
51
180
0
ARC
8
0
10
468.4625
20
-50.65
40
0.5
50
0
51
90
0
ARC
8
0
10
455.4625
20
-63.65
40
0.5
50
180
51
270
0
ARC
8
0
10
468.4625
20
-63.65
40
0.5
50
270
51
0
0
LINE
8
0
10
474.5125
20
-50.15
11
487.5125
21
-50.15
0
LINE
8
0
10
474.5125
20
-64.15
11
487.5125
21
-64.15
0
LINE
8
0
10
474.0125
20
-50.65
11
474.0125
21
-63.65
0
LINE
8
0
10
488.0125
20
-50.65
11
488.0125
21
-63.65
0
ARC
8
0
10
474.5125
20
-50.65
40
0.5
50
90
51
180
0
ARC
8
0
10
487.5125
20
-50.65
40
0.5
50
0
51
90
0
ARC
8
0
10
474.5125
20
-63.65
40
0.5
50
180
51
270
0
ARC
8
0
10
487.5125
20
-63.65
40
0.5
50
270
51
0
0
LINE
8
0
10
493.5625
20
-50.15
11
506.5625
21
-50.15
0
LINE
8
0
10
493.5625
20
-64.15
11
506.5625
21
-64.15
0
LINE
8
0
10
493.0625
20
-50.65
11
493.0625
21
-63.65
0
LINE
8
0
10
507.0625
20
-50.65
11
507.0625
21
-63.65
0
ARC
8
0
10
493.5625
20
-50.65
40
0.5
50
90
51
180
0
ARC
8
0
10
506.5625
20
-50.65
40
0.5
50
0
51
90
0
ARC
8
0
10
493.5625
20
-63.65
40
0.5
50
180
51
270
0
ARC
8
0
10
506.5625
20
-63.65
40
0.5
50
270
51
0
0
LINE
8
0
10
88.75
20
-69.2
11
101.75
21
-69.2
0
LINE
8
0
10
88.75
20
-83.2
11
101.75
21
-83.2
0
LINE
8
0
10
88.25
20
-69.7
11
88.25
21
-82.7
0
LINE
8
0
10
102.25
20
-69.7
11
102.25
21
-82.7
0
ARC
8
0
10
88.75
20
-69.7
40
0.5
50
90
51
180
0
ARC
8
0
10
101.75
20
-69.7
40
0.5
50
0
51
90
0
ARC
8
0
10
88.75
20
-82.7
40
0.5
50
180
51
270
0
ARC
8
0
10
101.75
20
-82.7
40
0.5
50
270
51
0
0
LINE
8
0
10
112.5625
20
-69.2
11
125.5625
21
-69.2
0
LINE
8
0
10
112.5625
20
-83.2
11
125.5625
21
-83.2
0
LINE
8
0
10
112.0625
20
-69.7
11
112.0625
21
-82.7
0
LINE
8
0
10
126.0625
20
-69.7
11
126.0625
21
-82.7
0
ARC
8
0
10
112.5625
20
-69.7
40
0.5
50
90
51
180
0
ARC
8
0
10
125.5625
20
-69.7
40
0.5
50
0
51
90
0
ARC
8
0
10
112.5625
20
-82.7
40
0.5
50
180
51
270
0
ARC
8
0
10
125.5625
20
-82.7
40
0.5
50
270
51
0
0
LINE
8
0
10
131.6125
20
-69.2
11
144.6125
21
-69.2
0
LINE
8
0
10
131.6125
20
-83.2
11
144.6125
21
-83.2
0
LINE
8
0
10
131.1125
20
-69.7
11
131.1125
21
-82.7
0
LINE
8
0
10
145.1125
20
-69.7
11
145.1125
21
-82.7
0
ARC
8
0
10
131.6125
20
-69.7
40
0.5
50
90
51
180
0
ARC
8
0
10
144.6125
20
-69.7
40
0.5
50
0
51
90
0
ARC
8
0
10
131.6125
20
-82.7
40
0.5
50
180
51
270
0
ARC
8
0
10
144.6125
20
-82.7
40
0.5
50
270
51
0
0
LINE
8
0
10
150.6625
20
-69.2
11
163.6625
21
-69.2
0
LINE
8
0
10
150.6625
20
-83.2
11
163.6625
21
-83.2
0
LINE
8
0
10
150.1625
20
-69.7
11
150.1625
21
-82.7
0
LINE
8
0
10
164.1625
20
-69.7
11
164.1625
21
-82.7
0
ARC
8
0
10
150.6625
20
-69.7
40
0.5
50
90
51
180
0
ARC
8
0
10
163.6625
20
-69.7
40
0.5
50
0
51
90
0
ARC
8
0
10
150.6625
20
-82.7
40
0.5
50
180
51
270
0
ARC
8
0
10
163.6625
20
-82.7
40
0.5
50
270
51
0
0
LINE
8
0
10
169.7125
20
-69.2
11
182.7125
21
-69.2
0
LINE
8
0
10
169.7125
20
-83.2
11
182.7125
21
-83.2
0
LINE
8
0
10
169.2125
20
-69.7
11
169.2125
21
-82.7
0
LINE
8
0
10
183.2125
20
-69.7
11
183.2125
21
-82.7
0
ARC
8
0
10
169.7125
20
-69.7
40
0.5
50
90
51
180
0
ARC
8
0
10
182.7125
20
-69.7
40
0.5
50
0
51
90
0
ARC
8
0
10
169.7125
20
-82.7
40
0.5
50
180
51
270
0
ARC
8
0
10
182.7125
20
-82.7
40
0.5
50
270
51
0
0
LINE
8
0
10
188.7625
20
-69.2
11
201.7625
21
-69.2
0
LINE
8
0
10
188.7625
20
-83.2
11
201.7625
21
-83.2
0
LINE
8
0
10
188.2625
20
-69.7
11
188.2625
21
-82.7
0
LINE
8
0
10
202.2625
20
-69.7
11
202.2625
21
-82.7
0
ARC
8
0
10
188.7625
20
-69.7
40
0.5
50
90
51
180
0
ARC
8
0
10
201.7625
20
-69.7
40
0.5
50
0
51
90
0
ARC
8
0
10
188.7625
20
-82.7
40
0.5
50
180
51
270
0
ARC
8
0
10
201.7625
20
-82.7
40
0.5
50
270
51
0
0
LINE
8
0
10
207.8125
20
-69.2
11
220.8125
21
-69.2
0
LINE
8
0
10
207.8125
20
-83.2
11
220.8125
21
-83.2
0
LINE
8
0
10
207.3125
20
-69.7
11
207.3125
21
-82.7
0
LINE
8
0
10
221.3125
20
-69.7
11
221.3125
21
-82.7
0
ARC
8
0
10
207.8125
20
-69.7
40
0.5
50
90
51
180
0
ARC
8
0
10
220.8125
20
-69.7
40
0.5
50
0
51
90
0
ARC
8
0
10
207.8125
20
-82.7
40
0.5
50
180
51
270
0
ARC
8
0
10
220.8125
20
-82.7
40
0.5
50
270
51
0
0
LINE
8
0
10
226.8625
20
-69.2
11
239.8625
21
-69.2
0
LINE
8
0
10
226.8625
20
-83.2
11
239.8625
21
-83.2
0
LINE
8
0
10
226.3625
20
-69.7
11
226.3625
21
-82.7
0
LINE
8
0
10
240.3625
20
-69.7
11
240.3625
21
-82.7
0
ARC
8
0
10
226.8625
20
-69.7
40
0.5
50
90
51
180
0
ARC
8
0
10
239.8625
20
-69.7
40
0.5
50
0
51
90
0
ARC
8
0
10
226.8625
20
-82.7
40
0.5
50
180
51
270
0
ARC
8
0
10
239.8625
20
-82.7
40
0.5
50
270
51
0
0
LINE
8
0
10
245.9125
20
-69.2
11
258.9125
21
-69.2
0
LINE
8
0
10
245.9125
20
-83.2
11
258.9125
21
-83.2
0
LINE
8
0
10
245.4125
20
-69.7
11
245.4125
21
-82.7
0
LINE
8
0
10
259.4125
20
-69.7
11
259.4125
21
-82.7
0
ARC
8
0
10
245.9125
20
-69.7
40
0.5
50
90
51
180
0
ARC
8
0
10
258.9125
20
-69.7
40
0.5
50
0
51
90
0
ARC
8
0
10
245.9125
20
-82.7
40
0.5
50
180
51
270
0
ARC
8
0
10
258.9125
20
-82.7
40
0.5
50
270
51
0
0
LINE
8
0
10
264.9625
20
-69.2
11
277.9625
21
-69.2
0
LINE
8
0
10
264.9625
20
-83.2
11
277.9625
21
-83.2
0
LINE
8
0
10
264.4625
20
-69.7
11
264.4625
21
-82.7
0
LINE
8
0
10
278.4625
20
-69.7
11
278.4625
21
-82.7
0
ARC
8
0
10
264.9625
20
-69.7
40
0.5
50
90
51
180
0
ARC
8
0
10
277.9625
20
-69.7
40
0.5
50
0
51
90
0
ARC
8
0
10
264.9625
20
-82.7
40
0.5
50
180
51
270
0
ARC
8
0
10
277.9625
20
-82.7
40
0.5
50
270
51
0
0
LINE
8
0
10
284.0125
20
-69.2
11
297.0125
21
-69.2
0
LINE
8
0
10
284.0125
20
-83.2
11
297.0125
21
-83.2
0
LINE
8
0
10
283.5125
20
-69.7
11
283.5125
21
-82.7
0
LINE
8
0
10
297.5125
20
-69.7
11
297.5125
21
-82.7
0
ARC
8
0
10
284.0125
20
-69.7
40
0.5
50
90
51
180
0
ARC
8
0
10
297.0125
20
-69.7
40
0.5
50
0
51
90
0
ARC
8
0
10
284.0125
20
-82.7
40
0.5
50
180
51
270
0
ARC
8
0
10
297.0125
20
-82.7
40
0.5
50
270
51
0
0
LINE
8
0
10
303.0625
20
-69.2
11
316.0625
21
-69.2
0
LINE
8
0
10
303.0625
20
-83.2
11
316.0625
21
-83.2
0
LINE
8
0
10
302.5625
20
-69.7
11
302.5625
21
-82.7
0
LINE
8
0
10
316.5625
20
-69.7
11
316.5625
21
-82.7
0
ARC
8
0
10
303.0625
20
-69.7
40
0.5
50
90
51
180
0
ARC
8
0
10
316.0625
20
-69.7
40
0.5
50
0
51
90
0
ARC
8
0
10
303.0625
20
-82.7
40
0.5
50
180
51
270
0
ARC
8
0
10
316.0625
20
-82.7
40
0.5
50
270
51
0
0
LINE
8
0
10
322.1125
20
-69.2
11
335.1125
21
-69.2
0
LINE
8
0
10
322.1125
20
-83.2
11
335.1125
21
-83.2
0
LINE
8
0
10
321.6125
20
-69.7
11
321.6125
21
-82.7
0
LINE
8
0
10
335.6125
20
-69.7
11
335.6125
21
-82.7
0
ARC
8
0
10
322.1125
20
-69.7
40
0.5
50
90
51
180
0
ARC
8
0
10
335.1125
20
-69.7
40
0.5
50
0
51
90
0
ARC
8
0
10
322.1125
20
-82.7
40
0.5
50
180
51
270
0
ARC
8
0
10
335.1125
20
-82.7
40
0.5
50
270
51
0
0
LINE
8
0
10
345.925
20
-69.2
11
358.925
21
-69.2
0
LINE
8
0
10
345.925
20
-83.2
11
358.925
21
-83.2
0
LINE
8
0
10
345.425
20
-69.7
11
345.425
21
-82.7
0
LINE
8
0
10
359.425
20
-69.7
11
359.425
21
-82.7
0
ARC
8
0
10
345.925
20
-69.7
40
0.5
50
90
51
180
0
ARC
8
0
10
358.925
20
-69.7
40
0.5
50
0
51
90
0
ARC
8
0
10
345.925
20
-82.7
40
0.5
50
180
51
270
0
ARC
8
0
10
358.925
20
-82.7
40
0.5
50
270
51
0
0
LINE
8
0
10
374.5
20
-69.2
11
387.5
21
-69.2
0
LINE
8
0
10
374.5
20
-83.2
11
387.5
21
-83.2
0
LINE
8
0
10
374
20
-69.7
11
374
21
-82.7
0
LINE
8
0
10
388
20
-69.7
11
388
21
-82.7
0
ARC
8
0
10
374.5
20
-69.7
40
0.5
50
90
51
180
0
ARC
8
0
10
387.5
20
-69.7
40
0.5
50
0
51
90
0
ARC
8
0
10
374.5
20
-82.7
40
0.5
50
180
51
270
0
ARC
8
0
10
387.5
20
-82.7
40
0.5
50
270
51
0
0
LINE
8
0
10
393.55
20
-69.2
11
406.55
21
-69.2
0
LINE
8
0
10
393.55
20
-83.2
11
406.55
21
-83.2
0
LINE
8
0
10
393.05
20
-69.7
11
393.05
21
-82.7
0
LINE
8
0
10
407.05
20
-69.7
11
407.05
21
-82.7
0
ARC
8
0
10
393.55
20
-69.7
40
0.5
50
90
51
180
0
ARC
8
0
10
406.55
20
-69.7
40
0.5
50
0
51
90
0
ARC
8
0
10
393.55
20
-82.7
40
0.5
50
180
51
270
0
ARC
8
0
10
406.55
20
-82.7
40
0.5
50
270
51
0
0
LINE
8
0
10
412.6
20
-69.2
11
425.6
21
-69.2
0
LINE
8
0
10
412.6
20
-83.2
11
425.6
21
-83.2
0
LINE
8
0
10
412.1
20
-69.7
11
412.1
21
-82.7
0
LINE
8
0
10
426.1
20
-69.7
11
426.1
21
-82.7
0
ARC
8
0
10
412.6
20
-69.7
40
0.5
50
90
51
180
0
ARC
8
0
10
425.6
20
-69.7
40
0.5
50
0
51
90
0
ARC
8
0
10
412.6
20
-82.7
40
0.5
50
180
51
270
0
ARC
8
0
10
425.6
20
-82.7
40
0.5
50
270
51
0
0
LINE
8
0
10
436.4125
20
-69.2
11
449.4125
21
-69.2
0
LINE
8
0
10
436.4125
20
-83.2
11
449.4125
21
-83.2
0
LINE
8
0
10
435.9125
20
-69.7
11
435.9125
21
-82.7
0
LINE
8
0
10
449.9125
20
-69.7
11
449.9125
21
-82.7
0
ARC
8
0
10
436.4125
20
-69.7
40
0.5
50
90
51
180
0
ARC
8
0
10
449.4125
20
-69.7
40
0.5
50
0
51
90
0
ARC
8
0
10
436.4125
20
-82.7
40
0.5
50
180
51
270
0
ARC
8
0
10
449.4125
20
-82.7
40
0.5
50
270
51
0
0
LINE
8
0
10
455.4625
20
-69.2
11
468.4625
21
-69.2
0
LINE
8
0
10
455.4625
20
-83.2
11
468.4625
21
-83.2
0
LINE
8
0
10
454.9625
20
-69.7
11
454.9625
21
-82.7
0
LINE
8
0
10
468.9625
20
-69.7
11
468.9625
21
-82.7
0
ARC
8
0
10
455.4625
20
-69.7
40
0.5
50
90
51
180
0
ARC
8
0
10
468.4625
20
-69.7
40
0.5
50
0
51
90
0
ARC
8
0
10
455.4625
20
-82.7
40
0.5
50
180
51
270
0
ARC
8
0
10
468.4625
20
-82.7
40
0.5
50
270
51
0
0
LINE
8
0
10
474.5125
20
-69.2
11
487.5125
21
-69.2
0
LINE
8
0
10
474.5125
20
-83.2
11
487.5125
21
-83.2
0
LINE
8
0
10
474.0125
20
-69.7
11
474.0125
21
-82.7
0
LINE
8
0
10
488.0125
20
-69.7
11
488.0125
21
-82.7
0
ARC
8
0
10
474.5125
20
-69.7
40
0.5
50
90
51
180
0
ARC
8
0
10
487.5125
20
-69.7
40
0.5
50
0
51
90
0
ARC
8
0
10
474.5125
20
-82.7
40
0.5
50
180
51
270
0
ARC
8
0
10
487.5125
20
-82.7
40
0.5
50
270
51
0
0
LINE
8
0
10
507.0625
20
-79.225
11
507.0625
21
-92.225
0
LINE
8
0
10
493.0625
20
-79.225
11
493.0625
21
-92.225
0
LINE
8
0
10
506.5625
20
-78.725
11
493.5625
21
-78.725
0
LINE
8
0
10
506.5625
20
-92.725
11
493.5625
21
-92.725
0
ARC
8
0
10
506.5625
20
-79.225
40
0.5
50
0
51
90
0
ARC
8
0
10
506.5625
20
-92.225
40
0.5
50
270
51
0
0
ARC
8
0
10
493.5625
20
-79.225
40
0.5
50
90
51
180
0
ARC
8
0
10
493.5625
20
-92.225
40
0.5
50
180
51
270
0
LINE
8
0
10
506.0625
20
-70.787
11
506.0625
21
-76.787
0
LINE
8
0
10
491.0625
20
-70.787
11
491.0625
21
-76.787
0
LINE
8
0
10
505.5625
20
-70.287
11
491.5625
21
-70.287
0
LINE
8
0
10
505.5625
20
-77.287
11
491.5625
21
-77.287
0
ARC
8
0
10
505.5625
20
-70.787
40
0.5
50
0
51
90
0
ARC
8
0
10
505.5625
20
-76.787
40
0.5
50
270
51
0
0
ARC
8
0
10
491.5625
20
-70.787
40
0.5
50
90
51
180
0
ARC
8
0
10
491.5625
20
-76.787
40
0.5
50
180
51
270
0
LINE
8
0
10
506.0625
20
-94.663
11
506.0625
21
-100.663
0
LINE
8
0
10
491.0625
20
-94.663
11
491.0625
21
-100.663
0
LINE
8
0
10
505.5625
20
-94.163
11
491.5625
21
-94.163
0
LINE
8
0
10
505.5625
20
-101.163
11
491.5625
21
-101.163
0
ARC
8
0
10
505.5625
20
-94.663
40
0.5
50
0
51
90
0
ARC
8
0
10
505.5625
20
-100.663
40
0.5
50
270
51
0
0
ARC
8
0
10
491.5625
20
-94.663
40
0.5
50
90
51
180
0
ARC
8
0
10
491.5625
20
-100.663
40
0.5
50
180
51
270
0
LINE
8
0
10
91.13125
20
-88.25
11
104.13125
21
-88.25
0
LINE
8
0
10
91.13125
20
-102.25
11
104.13125
21
-102.25
0
LINE
8
0
10
90.63125
20
-88.75
11
90.63125
21
-101.75
0
LINE
8
0
10
104.63125
20
-88.75
11
104.63125
21
-101.75
0
ARC
8
0
10
91.13125
20
-88.75
40
0.5
50
90
51
180
0
ARC
8
0
10
104.13125
20
-88.75
40
0.5
50
0
51
90
0
ARC
8
0
10
91.13125
20
-101.75
40
0.5
50
180
51
270
0
ARC
8
0
10
104.13125
20
-101.75
40
0.5
50
270
51
0
0
LINE
8
0
10
117.325
20
-88.25
11
130.325
21
-88.25
0
LINE
8
0
10
117.325
20
-102.25
11
130.325
21
-102.25
0
LINE
8
0
10
116.825
20
-88.75
11
116.825
21
-101.75
0
LINE
8
0
10
130.825
20
-88.75
11
130.825
21
-101.75
0
ARC
8
0
10
117.325
20
-88.75
40
0.5
50
90
51
180
0
ARC
8
0
10
130.325
20
-88.75
40
0.5
50
0
51
90
0
ARC
8
0
10
117.325
20
-101.75
40
0.5
50
180
51
270
0
ARC
8
0
10
130.325
20
-101.75
40
0.5
50
270
51
0
0
LINE
8
0
10
136.375
20
-88.25
11
149.375
21
-88.25
0
LINE
8
0
10
136.375
20
-102.25
11
149.375
21
-102.25
0
LINE
8
0
10
135.875
20
-88.75
11
135.875
21
-101.75
0
LINE
8
0
10
149.875
20
-88.75
11
149.875
21
-101.75
0
ARC
8
0
10
136.375
20
-88.75
40
0.5
50
90
51
180
0
ARC
8
0
10
149.375
20
-88.75
40
0.5
50
0
51
90
0
ARC
8
0
10
136.375
20
-101.75
40
0.5
50
180
51
270
0
ARC
8
0
10
149.375
20
-101.75
40
0.5
50
270
51
0
0
LINE
8
0
10
155.425
20
-88.25
11
168.425
21
-88.25
0
LINE
8
0
10
155.425
20
-102.25
11
168.425
21
-102.25
0
LINE
8
0
10
154.925
20
-88.75
11
154.925
21
-101.75
0
LINE
8
0
10
168.925
20
-88.75
11
168.925
21
-101.75
0
ARC
8
0
10
155.425
20
-88.75
40
0.5
50
90
51
180
0
ARC
8
0
10
168.425
20
-88.75
40
0.5
50
0
51
90
0
ARC
8
0
10
155.425
20
-101.75
40
0.5
50
180
51
270
0
ARC
8
0
10
168.425
20
-101.75
40
0.5
50
270
51
0
0
LINE
8
0
10
174.475
20
-88.25
11
187.475
21
-88.25
0
LINE
8
0
10
174.475
20
-102.25
11
187.475
21
-102.25
0
LINE
8
0
10
173.975
20
-88.75
11
173.975
21
-101.75
0
LINE
8
0
10
187.975
20
-88.75
11
187.975
21
-101.75
0
ARC
8
0
10
174.475
20
-88.75
40
0.5
50
90
51
180
0
ARC
8
0
10
187.475
20
-88.75
40
0.5
50
0
51
90
0
ARC
8
0
10
174.475
20
-101.75
40
0.5
50
180
51
270
0
ARC
8
0
10
187.475
20
-101.75
40
0.5
50
270
51
0
0
LINE
8
0
10
193.525
20
-88.25
11
206.525
21
-88.25
0
LINE
8
0
10
193.525
20
-102.25
11
206.525
21
-102.25
0
LINE
8
0
10
193.025
20
-88.75
11
193.025
21
-101.75
0
LINE
8
0
10
207.025
20
-88.75
11
207.025
21
-101.75
0
ARC
8
0
10
193.525
20
-88.75
40
0.5
50
90
51
180
0
ARC
8
0
10
206.525
20
-88.75
40
0.5
50
0
51
90
0
ARC
8
0
10
193.525
20
-101.75
40
0.5
50
180
51
270
0
ARC
8
0
10
206.525
20
-101.75
40
0.5
50
270
51
0
0
LINE
8
0
10
212.575
20
-88.25
11
225.575
21
-88.25
0
LINE
8
0
10
212.575
20
-102.25
11
225.575
21
-102.25
0
LINE
8
0
10
212.075
20
-88.75
11
212.075
21
-101.75
0
LINE
8
0
10
226.075
20
-88.75
11
226.075
21
-101.75
0
ARC
8
0
10
212.575
20
-88.75
40
0.5
50
90
51
180
0
ARC
8
0
10
225.575
20
-88.75
40
0.5
50
0
51
90
0
ARC
8
0
10
212.575
20
-101.75
40
0.5
50
180
51
270
0
ARC
8
0
10
225.575
20
-101.75
40
0.5
50
270
51
0
0
LINE
8
0
10
231.625
20
-88.25
11
244.625
21
-88.25
0
LINE
8
0
10
231.625
20
-102.25
11
244.625
21
-102.25
0
LINE
8
0
10
231.125
20
-88.75
11
231.125
21
-101.75
0
LINE
8
0
10
245.125
20
-88.75
11
245.125
21
-101.75
0
ARC
8
0
10
231.625
20
-88.75
40
0.5
50
90
51
180
0
ARC
8
0
10
244.625
20
-88.75
40
0.5
50
0
51
90
0
ARC
8
0
10
231.625
20
-101.75
40
0.5
50
180
51
270
0
ARC
8
0
10
244.625
20
-101.75
40
0.5
50
270
51
0
0
LINE
8
0
10
250.675
20
-88.25
11
263.675
21
-88.25
0
LINE
8
0
10
250.675
20
-102.25
11
263.675
21
-102.25
0
LINE
8
0
10
250.175
20
-88.75
11
250.175
21
-101.75
0
LINE
8
0
10
264.175
20
-88.75
11
264.175
21
-101.75
0
ARC
8
0
10
250.675
20
-88.75
40
0.5
50
90
51
180
0
ARC
8
0
10
263.675
20
-88.75
40
0.5
50
0
51
90
0
ARC
8
0
10
250.675
20
-101.75
40
0.5
50
180
51
270
0
ARC
8
0
10
263.675
20
-101.75
40
0.5
50
270
51
0
0
LINE
8
0
10
269.725
20
-88.25
11
282.725
21
-88.25
0
LINE
8
0
10
269.725
20
-102.25
11
282.725
21
-102.25
0
LINE
8
0
10
269.225
20
-88.75
11
269.225
21
-101.75
0
LINE
8
0
10
283.225
20
-88.75
11
283.225
21
-101.75
0
ARC
8
0
10
269.725
20
-88.75
40
0.5
50
90
51
180
0
ARC
8
0
10
282.725
20
-88.75
40
0.5
50
0
51
90
0
ARC
8
0
10
269.725
20
-101.75
40
0.5
50
180
51
270
0
ARC
8
0
10
282.725
20
-101.75
40
0.5
50
270
51
0
0
LINE
8
0
10
288.775
20
-88.25
11
301.775
21
-88.25
0
LINE
8
0
10
288.775
20
-102.25
11
301.775
21
-102.25
0
LINE
8
0
10
288.275
20
-88.75
11
288.275
21
-101.75
0
LINE
8
0
10
302.275
20
-88.75
11
302.275
21
-101.75
0
ARC
8
0
10
288.775
20
-88.75
40
0.5
50
90
51
180
0
ARC
8
0
10
301.775
20
-88.75
40
0.5
50
0
51
90
0
ARC
8
0
10
288.775
20
-101.75
40
0.5
50
180
51
270
0
ARC
8
0
10
301.775
20
-101.75
40
0.5
50
270
51
0
0
LINE
8
0
10
307.825
20
-88.25
11
320.825
21
-88.25
0
LINE
8
0
10
307.825
20
-102.25
11
320.825
21
-102.25
0
LINE
8
0
10
307.325
20
-88.75
11
307.325
21
-101.75
0
LINE
8
0
10
321.325
20
-88.75
11
321.325
21
-101.75
0
ARC
8
0
10
307.825
20
-88.75
40
0.5
50
90
51
180
0
ARC
8
0
10
320.825
20
-88.75
40
0.5
50
0
51
90
0
ARC
8
0
10
307.825
20
-101.75
40
0.5
50
180
51
270
0
ARC
8
0
10
320.825
20
-101.75
40
0.5
50
270
51
0
0
LINE
8
0
10
338.78125
20
-88.25
11
351.78125
21
-88.25
0
LINE
8
0
10
338.78125
20
-102.25
11
351.78125
21
-102.25
0
LINE
8
0
10
338.28125
20
-88.75
11
338.28125
21
-101.75
0
LINE
8
0
10
352.28125
20
-88.75
11
352.28125
21
-101.75
0
ARC
8
0
10
338.78125
20
-88.75
40
0.5
50
90
51
180
0
ARC
8
0
10
351.78125
20
-88.75
40
0.5
50
0
51
90
0
ARC
8
0
10
338.78125
20
-101.75
40
0.5
50
180
51
270
0
ARC
8
0
10
351.78125
20
-101.75
40
0.5
50
270
51
0
0
LINE
8
0
10
330.34325
20
-89.25
11
336.34325
21
-89.25
0
LINE
8
0
10
330.34325
20
-104.25
11
336.34325
21
-104.25
0
LINE
8
0
10
329.84325
20
-89.75
11
329.84325
21
-103.75
0
LINE
8
0
10
336.84325
20
-89.75
11
336.84325
21
-103.75
0
ARC
8
0
10
330.34325
20
-89.75
40
0.5
50
90
51
180
0
ARC
8
0
10
336.34325
20
-89.75
40
0.5
50
0
51
90
0
ARC
8
0
10
330.34325
20
-103.75
40
0.5
50
180
51
270
0
ARC
8
0
10
336.34325
20
-103.75
40
0.5
50
270
51
0
0
LINE
8
0
10
354.21925
20
-89.25
11
360.21925
21
-89.25
0
LINE
8
0
10
354.21925
20
-104.25
11
360.21925
21
-104.25
0
LINE
8
0
10
353.71925
20
-89.75
11
353.71925
21
-103.75
0
LINE
8
0
10
360.71925
20
-89.75
11
360.71925
21
-103.75
0
ARC
8
0
10
354.21925
20
-89.75
40
0.5
50
90
51
180
0
ARC
8
0
10
360.21925
20
-89.75
40
0.5
50
0
51
90
0
ARC
8
0
10
354.21925
20
-103.75
40
0.5
50
180
51
270
0
ARC
8
0
10
360.21925
20
-103.75
40
0.5
50
270
51
0
0
LINE
8
0
10
436.4125
20
-88.25
11
449.4125
21
-88.25
0
LINE
8
0
10
436.4125
20
-102.25
11
449.4125
21
-102.25
0
LINE
8
0
10
435.9125
20
-88.75
11
435.9125
21
-101.75
0
LINE
8
0
10
449.9125
20
-88.75
11
449.9125
21
-101.75
0
ARC
8
0
10
436.4125
20
-88.75
40
0.5
50
90
51
180
0
ARC
8
0
10
449.4125
20
-88.75
40
0.5
50
0
51
90
0
ARC
8
0
10
436.4125
20
-101.75
40
0.5
50
180
51
270
0
ARC
8
0
10
449.4125
20
-101.75
40
0.5
50
270
51
0
0
LINE
8
0
10
455.4625
20
-88.25
11
468.4625
21
-88.25
0
LINE
8
0
10
455.4625
20
-102.25
11
468.4625
21
-102.25
0
LINE
8
0
10
454.9625
20
-88.75
11
454.9625
21
-101.75
0
LINE
8
0
10
468.9625
20
-88.75
11
468.9625
21
-101.75
0
ARC
8
0
10
455.4625
20
-88.75
40
0.5
50
90
51
180
0
ARC
8
0
10
468.4625
20
-88.75
40
0.5
50
0
51
90
0
ARC
8
0
10
455.4625
20
-101.75
40
0.5
50
180
51
270
0
ARC
8
0
10
468.4625
20
-101.75
40
0.5
50
270
51
0
0
LINE
8
0
10
474.5125
20
-88.25
11
487.5125
21
-88.25
0
LINE
8
0
10
474.5125
20
-102.25
11
487.5125
21
-102.25
0
LINE
8
0
10
474.0125
20
-88.75
11
474.0125
21
-101.75
0
LINE
8
0
10
488.0125
20
-88.75
11
488.0125
21
-101.75
0
ARC
8
0
10
474.5125
20
-88.75
40
0.5
50
90
51
180
0
ARC
8
0
10
487.5125
20
-88.75
40
0.5
50
0
51
90
0
ARC
8
0
10
474.5125
20
-101.75
40
0.5
50
180
51
270
0
ARC
8
0
10
487.5125
20
-101.75
40
0.5
50
270
51
0
0
LINE
8
0
10
95.89375
20
-107.3
11
108.89375
21
-107.3
0
LINE
8
0
10
95.89375
20
-121.3
11
108.89375
21
-121.3
0
LINE
8
0
10
95.39375
20
-107.8
11
95.39375
21
-120.8
0
LINE
8
0
10
109.39375
20
-107.8
11
109.39375
21
-120.8
0
ARC
8
0
10
95.89375
20
-107.8
40
0.5
50
90
51
180
0
ARC
8
0
10
108.89375
20
-107.8
40
0.5
50
0
51
90
0
ARC
8
0
10
95.89375
20
-120.8
40
0.5
50
180
51
270
0
ARC
8
0
10
108.89375
20
-120.8
40
0.5
50
270
51
0
0
LINE
8
0
10
87.45575
20
-108.3
11
93.45575
21
-108.3
0
LINE
8
0
10
87.45575
20
-123.3
11
93.45575
21
-123.3
0
LINE
8
0
10
86.95575
20
-108.8
11
86.95575
21
-122.8
0
LINE
8
0
10
93.95575
20
-108.8
11
93.95575
21
-122.8
0
ARC
8
0
10
87.45575
20
-108.8
40
0.5
50
90
51
180
0
ARC
8
0
10
93.45575
20
-108.8
40
0.5
50
0
51
90
0
ARC
8
0
10
87.45575
20
-122.8
40
0.5
50
180
51
270
0
ARC
8
0
10
93.45575
20
-122.8
40
0.5
50
270
51
0
0
LINE
8
0
10
111.33175
20
-108.3
11
117.33175
21
-108.3
0
LINE
8
0
10
111.33175
20
-123.3
11
117.33175
21
-123.3
0
LINE
8
0
10
110.83175
20
-108.8
11
110.83175
21
-122.8
0
LINE
8
0
10
117.83175
20
-108.8
11
117.83175
21
-122.8
0
ARC
8
0
10
111.33175
20
-108.8
40
0.5
50
90
51
180
0
ARC
8
0
10
117.33175
20
-108.8
40
0.5
50
0
51
90
0
ARC
8
0
10
111.33175
20
-122.8
40
0.5
50
180
51
270
0
ARC
8
0
10
117.33175
20
-122.8
40
0.5
50
270
51
0
0
LINE
8
0
10
126.85
20
-107.3
11
139.85
21
-107.3
0
LINE
8
0
10
126.85
20
-121.3
11
139.85
21
-121.3
0
LINE
8
0
10
126.35
20
-107.8
11
126.35
21
-120.8
0
LINE
8
0
10
140.35
20
-107.8
11
140.35
21
-120.8
0
ARC
8
0
10
126.85
20
-107.8
40
0.5
50
90
51
180
0
ARC
8
0
10
139.85
20
-107.8
40
0.5
50
0
51
90
0
ARC
8
0
10
126.85
20
-120.8
40
0.5
50
180
51
270
0
ARC
8
0
10
139.85
20
-120.8
40
0.5
50
270
51
0
0
LINE
8
0
10
145.9
20
-107.3
11
158.9
21
-107.3
0
LINE
8
0
10
145.9
20
-121.3
11
158.9
21
-121.3
0
LINE
8
0
10
145.4
20
-107.8
11
145.4
21
-120.8
0
LINE
8
0
10
159.4
20
-107.8
11
159.4
21
-120.8
0
ARC
8
0
10
145.9
20
-107.8
40
0.5
50
90
51
180
0
ARC
8
0
10
158.9
20
-107.8
40
0.5
50
0
51
90
0
ARC
8
0
10
145.9
20
-120.8
40
0.5
50
180
51
270
0
ARC
8
0
10
158.9
20
-120.8
40
0.5
50
270
51
0
0
LINE
8
0
10
164.95
20
-107.3
11
177.95
21
-107.3
0
LINE
8
0
10
164.95
20
-121.3
11
177.95
21
-121.3
0
LINE
8
0
10
164.45
20
-107.8
11
164.45
21
-120.8
0
LINE
8
0
10
178.45
20
-107.8
11
178.45
21
-120.8
0
ARC
8
0
10
164.95
20
-107.8
40
0.5
50
90
51
180
0
ARC
8
0
10
177.95
20
-107.8
40
0.5
50
0
51
90
0
ARC
8
0
10
164.95
20
-120.8
40
0.5
50
180
51
270
0
ARC
8
0
10
177.95
20
-120.8
40
0.5
50
270
51
0
0
LINE
8
0
10
184
20
-107.3
11
197
21
-107.3
0
LINE
8
0
10
184
20
-121.3
11
197
21
-121.3
0
LINE
8
0
10
183.5
20
-107.8
11
183.5
21
-120.8
0
LINE
8
0
10
197.5
20
-107.8
11
197.5
21
-120.8
0
ARC
8
0
10
184
20
-107.8
40
0.5
50
90
51
180
0
ARC
8
0
10
197
20
-107.8
40
0.5
50
0
51
90
0
ARC
8
0
10
184
20
-120.8
40
0.5
50
180
51
270
0
ARC
8
0
10
197
20
-120.8
40
0.5
50
270
51
0
0
LINE
8
0
10
203.05
20
-107.3
11
216.05
21
-107.3
0
LINE
8
0
10
203.05
20
-121.3
11
216.05
21
-121.3
0
LINE
8
0
10
202.55
20
-107.8
11
202.55
21
-120.8
0
LINE
8
0
10
216.55
20
-107.8
11
216.55
21
-120.8
0
ARC
8
0
10
203.05
20
-107.8
40
0.5
50
90
51
180
0
ARC
8
0
10
216.05
20
-107.8
40
0.5
50
0
51
90
0
ARC
8
0
10
203.05
20
-120.8
40
0.5
50
180
51
270
0
ARC
8
0
10
216.05
20
-120.8
40
0.5
50
270
51
0
0
LINE
8
0
10
222.1
20
-107.3
11
235.1
21
-107.3
0
LINE
8
0
10
222.1
20
-121.3
11
235.1
21
-121.3
0
LINE
8
0
10
221.6
20
-107.8
11
221.6
21
-120.8
0
LINE
8
0
10
235.6
20
-107.8
11
235.6
21
-120.8
0
ARC
8
0
10
222.1
20
-107.8
40
0.5
50
90
51
180
0
ARC
8
0
10
235.1
20
-107.8
40
0.5
50
0
51
90
0
ARC
8
0
10
222.1
20
-120.8
40
0.5
50
180
51
270
0
ARC
8
0
10
235.1
20
-120.8
40
0.5
50
270
51
0
0
LINE
8
0
10
241.15
20
-107.3
11
254.15
21
-107.3
0
LINE
8
0
10
241.15
20
-121.3
11
254.15
21
-121.3
0
LINE
8
0
10
240.65
20
-107.8
11
240.65
21
-120.8
0
LINE
8
0
10
254.65
20
-107.8
11
254.65
21
-120.8
0
ARC
8
0
10
241.15
20
-107.8
40
0.5
50
90
51
180
0
ARC
8
0
10
254.15
20
-107.8
40
0.5
50
0
51
90
0
ARC
8
0
10
241.15
20
-120.8
40
0.5
50
180
51
270
0
ARC
8
0
10
254.15
20
-120.8
40
0.5
50
270
51
0
0
LINE
8
0
10
260.2
20
-107.3
11
273.2
21
-107.3
0
LINE
8
0
10
260.2
20
-121.3
11
273.2
21
-121.3
0
LINE
8
0
10
259.7
20
-107.8
11
259.7
21
-120.8
0
LINE
8
0
10
273.7
20
-107.8
11
273.7
21
-120.8
0
ARC
8
0
10
260.2
20
-107.8
40
0.5
50
90
51
180
0
ARC
8
0
10
273.2
20
-107.8
40
0.5
50
0
51
90
0
ARC
8
0
10
260.2
20
-120.8
40
0.5
50
180
51
270
0
ARC
8
0
10
273.2
20
-120.8
40
0.5
50
270
51
0
0
LINE
8
0
10
279.25
20
-107.3
11
292.25
21
-107.3
0
LINE
8
0
10
279.25
20
-121.3
11
292.25
21
-121.3
0
LINE
8
0
10
278.75
20
-107.8
11
278.75
21
-120.8
0
LINE
8
0
10
292.75
20
-107.8
11
292.75
21
-120.8
0
ARC
8
0
10
279.25
20
-107.8
40
0.5
50
90
51
180
0
ARC
8
0
10
292.25
20
-107.8
40
0.5
50
0
51
90
0
ARC
8
0
10
279.25
20
-120.8
40
0.5
50
180
51
270
0
ARC
8
0
10
292.25
20
-120.8
40
0.5
50
270
51
0
0
LINE
8
0
10
298.3
20
-107.3
11
311.3
21
-107.3
0
LINE
8
0
10
298.3
20
-121.3
11
311.3
21
-121.3
0
LINE
8
0
10
297.8
20
-107.8
11
297.8
21
-120.8
0
LINE
8
0
10
311.8
20
-107.8
11
311.8
21
-120.8
0
ARC
8
0
10
298.3
20
-107.8
40
0.5
50
90
51
180
0
ARC
8
0
10
311.3
20
-107.8
40
0.5
50
0
51
90
0
ARC
8
0
10
298.3
20
-120.8
40
0.5
50
180
51
270
0
ARC
8
0
10
311.3
20
-120.8
40
0.5
50
270
51
0
0
LINE
8
0
10
334.01875
20
-107.3
11
347.01875
21
-107.3
0
LINE
8
0
10
334.01875
20
-121.3
11
347.01875
21
-121.3
0
LINE
8
0
10
333.51875
20
-107.8
11
333.51875
21
-120.8
0
LINE
8
0
10
347.51875
20
-107.8
11
347.51875
21
-120.8
0
ARC
8
0
10
334.01875
20
-107.8
40
0.5
50
90
51
180
0
ARC
8
0
10
347.01875
20
-107.8
40
0.5
50
0
51
90
0
ARC
8
0
10
334.01875
20
-120.8
40
0.5
50
180
51
270
0
ARC
8
0
10
347.01875
20
-120.8
40
0.5
50
270
51
0
0
LINE
8
0
10
325.58075
20
-108.3
11
331.58075
21
-108.3
0
LINE
8
0
10
325.58075
20
-123.3
11
331.58075
21
-123.3
0
LINE
8
0
10
325.08075
20
-108.8
11
325.08075
21
-122.8
0
LINE
8
0
10
332.08075
20
-108.8
11
332.08075
21
-122.8
0
ARC
8
0
10
325.58075
20
-108.8
40
0.5
50
90
51
180
0
ARC
8
0
10
331.58075
20
-108.8
40
0.5
50
0
51
90
0
ARC
8
0
10
325.58075
20
-122.8
40
0.5
50
180
51
270
0
ARC
8
0
10
331.58075
20
-122.8
40
0.5
50
270
51
0
0
LINE
8
0
10
349.45675
20
-108.3
11
355.45675
21
-108.3
0
LINE
8
0
10
349.45675
20
-123.3
11
355.45675
21
-123.3
0
LINE
8
0
10
348.95675
20
-108.8
11
348.95675
21
-122.8
0
LINE
8
0
10
355.95675
20
-108.8
11
355.95675
21
-122.8
0
ARC
8
0
10
349.45675
20
-108.8
40
0.5
50
90
51
180
0
ARC
8
0
10
355.45675
20
-108.8
40
0.5
50
0
51
90
0
ARC
8
0
10
349.45675
20
-122.8
40
0.5
50
180
51
270
0
ARC
8
0
10
355.45675
20
-122.8
40
0.5
50
270
51
0
0
LINE
8
0
10
393.55
20
-107.3
11
406.55
21
-107.3
0
LINE
8
0
10
393.55
20
-121.3
11
406.55
21
-121.3
0
LINE
8
0
10
393.05
20
-107.8
11
393.05
21
-120.8
0
LINE
8
0
10
407.05
20
-107.8
11
407.05
21
-120.8
0
ARC
8
0
10
393.55
20
-107.8
40
0.5
50
90
51
180
0
ARC
8
0
10
406.55
20
-107.8
40
0.5
50
0
51
90
0
ARC
8
0
10
393.55
20
-120.8
40
0.5
50
180
51
270
0
ARC
8
0
10
406.55
20
-120.8
40
0.5
50
270
51
0
0
LINE
8
0
10
436.4125
20
-107.3
11
449.4125
21
-107.3
0
LINE
8
0
10
436.4125
20
-121.3
11
449.4125
21
-121.3
0
LINE
8
0
10
435.9125
20
-107.8
11
435.9125
21
-120.8
0
LINE
8
0
10
449.9125
20
-107.8
11
449.9125
21
-120.8
0
ARC
8
0
10
436.4125
20
-107.8
40
0.5
50
90
51
180
0
ARC
8
0
10
449.4125
20
-107.8
40
0.5
50
0
51
90
0
ARC
8
0
10
436.4125
20
-120.8
40
0.5
50
180
51
270
0
ARC
8
0
10
449.4125
20
-120.8
40
0.5
50
270
51
0
0
LINE
8
0
10
455.4625
20
-107.3
11
468.4625
21
-107.3
0
LINE
8
0
10
455.4625
20
-121.3
11
468.4625
21
-121.3
0
LINE
8
0
10
454.9625
20
-107.8
11
454.9625
21
-120.8
0
LINE
8
0
10
468.9625
20
-107.8
11
468.9625
21
-120.8
0
ARC
8
0
10
455.4625
20
-107.8
40
0.5
50
90
51
180
0
ARC
8
0
10
468.4625
20
-107.8
40
0.5
50
0
51
90
0
ARC
8
0
10
455.4625
20
-120.8
40
0.5
50
180
51
270
0
ARC
8
0
10
468.4625
20
-120.8
40
0.5
50
270
51
0
0
LINE
8
0
10
474.5125
20
-107.3
11
487.5125
21
-107.3
0
LINE
8
0
10
474.5125
20
-121.3
11
487.5125
21
-121.3
0
LINE
8
0
10
474.0125
20
-107.8
11
474.0125
21
-120.8
0
LINE
8
0
10
488.0125
20
-107.8
11
488.0125
21
-120.8
0
ARC
8
0
10
474.5125
20
-107.8
40
0.5
50
90
51
180
0
ARC
8
0
10
487.5125
20
-107.8
40
0.5
50
0
51
90
0
ARC
8
0
10
474.5125
20
-120.8
40
0.5
50
180
51
270
0
ARC
8
0
10
487.5125
20
-120.8
40
0.5
50
270
51
0
0
LINE
8
0
10
507.0625
20
-117.325
11
507.0625
21
-130.325
0
LINE
8
0
10
493.0625
20
-117.325
11
493.0625
21
-130.325
0
LINE
8
0
10
506.5625
20
-116.825
11
493.5625
21
-116.825
0
LINE
8
0
10
506.5625
20
-130.825
11
493.5625
21
-130.825
0
ARC
8
0
10
506.5625
20
-117.325
40
0.5
50
0
51
90
0
ARC
8
0
10
506.5625
20
-130.325
40
0.5
50
270
51
0
0
ARC
8
0
10
493.5625
20
-117.325
40
0.5
50
90
51
180
0
ARC
8
0
10
493.5625
20
-130.325
40
0.5
50
180
51
270
0
LINE
8
0
10
506.0625
20
-108.887
11
506.0625
21
-114.887
0
LINE
8
0
10
491.0625
20
-108.887
11
491.0625
21
-114.887
0
LINE
8
0
10
505.5625
20
-108.387
11
491.5625
21
-108.387
0
LINE
8
0
10
505.5625
20
-115.387
11
491.5625
21
-115.387
0
ARC
8
0
10
505.5625
20
-108.887
40
0.5
50
0
51
90
0
ARC
8
0
10
505.5625
20
-114.887
40
0.5
50
270
51
0
0
ARC
8
0
10
491.5625
20
-108.887
40
0.5
50
90
51
180
0
ARC
8
0
10
491.5625
20
-114.887
40
0.5
50
180
51
270
0
LINE
8
0
10
506.0625
20
-132.763
11
506.0625
21
-138.763
0
LINE
8
0
10
491.0625
20
-132.763
11
491.0625
21
-138.763
0
LINE
8
0
10
505.5625
20
-132.263
11
491.5625
21
-132.263
0
LINE
8
0
10
505.5625
20
-139.263
11
491.5625
21
-139.263
0
ARC
8
0
10
505.5625
20
-132.763
40
0.5
50
0
51
90
0
ARC
8
0
10
505.5625
20
-138.763
40
0.5
50
270
51
0
0
ARC
8
0
10
491.5625
20
-132.763
40
0.5
50
90
51
180
0
ARC
8
0
10
491.5625
20
-138.763
40
0.5
50
180
51
270
0
LINE
8
0
10
86.36875
20
-126.35
11
99.36875
21
-126.35
0
LINE
8
0
10
86.36875
20
-140.35
11
99.36875
21
-140.35
0
LINE
8
0
10
85.86875
20
-126.85
11
85.86875
21
-139.85
0
LINE
8
0
10
99.86875
20
-126.85
11
99.86875
21
-139.85
0
ARC
8
0
10
86.36875
20
-126.85
40
0.5
50
90
51
180
0
ARC
8
0
10
99.36875
20
-126.85
40
0.5
50
0
51
90
0
ARC
8
0
10
86.36875
20
-139.85
40
0.5
50
180
51
270
0
ARC
8
0
10
99.36875
20
-139.85
40
0.5
50
270
51
0
0
LINE
8
0
10
110.18125
20
-126.35
11
123.18125
21
-126.35
0
LINE
8
0
10
110.18125
20
-140.35
11
123.18125
21
-140.35
0
LINE
8
0
10
109.68125
20
-126.85
11
109.68125
21
-139.85
0
LINE
8
0
10
123.68125
20
-126.85
11
123.68125
21
-139.85
0
ARC
8
0
10
110.18125
20
-126.85
40
0.5
50
90
51
180
0
ARC
8
0
10
123.18125
20
-126.85
40
0.5
50
0
51
90
0
ARC
8
0
10
110.18125
20
-139.85
40
0.5
50
180
51
270
0
ARC
8
0
10
123.18125
20
-139.85
40
0.5
50
270
51
0
0
LINE
8
0
10
133.99375
20
-126.35
11
146.99375
21
-126.35
0
LINE
8
0
10
133.99375
20
-140.35
11
146.99375
21
-140.35
0
LINE
8
0
10
133.49375
20
-126.85
11
133.49375
21
-139.85
0
LINE
8
0
10
147.49375
20
-126.85
11
147.49375
21
-139.85
0
ARC
8
0
10
133.99375
20
-126.85
40
0.5
50
90
51
180
0
ARC
8
0
10
146.99375
20
-126.85
40
0.5
50
0
51
90
0
ARC
8
0
10
133.99375
20
-139.85
40
0.5
50
180
51
270
0
ARC
8
0
10
146.99375
20
-139.85
40
0.5
50
270
51
0
0
LINE
8
0
10
205.43125
20
-126.35
11
218.43125
21
-126.35
0
LINE
8
0
10
205.43125
20
-140.35
11
218.43125
21
-140.35
0
LINE
8
0
10
204.93125
20
-126.85
11
204.93125
21
-139.85
0
LINE
8
0
10
218.93125
20
-126.85
11
218.93125
21
-139.85
0
ARC
8
0
10
205.43125
20
-126.85
40
0.5
50
90
51
180
0
ARC
8
0
10
218.43125
20
-126.85
40
0.5
50
0
51
90
0
ARC
8
0
10
205.43125
20
-139.85
40
0.5
50
180
51
270
0
ARC
8
0
10
218.43125
20
-139.85
40
0.5
50
270
51
0
0
LINE
8
0
10
158.93125
20
-127.35
11
164.93125
21
-127.35
0
LINE
8
0
10
158.93125
20
-142.35
11
164.93125
21
-142.35
0
LINE
8
0
10
158.43125
20
-127.85
11
158.43125
21
-141.85
0
LINE
8
0
10
165.43125
20
-127.85
11
165.43125
21
-141.85
0
ARC
8
0
10
158.93125
20
-127.85
40
0.5
50
90
51
180
0
ARC
8
0
10
164.93125
20
-127.85
40
0.5
50
0
51
90
0
ARC
8
0
10
158.93125
20
-141.85
40
0.5
50
180
51
270
0
ARC
8
0
10
164.93125
20
-141.85
40
0.5
50
270
51
0
0
LINE
8
0
10
258.93125
20
-127.35
11
264.93125
21
-127.35
0
LINE
8
0
10
258.93125
20
-142.35
11
264.93125
21
-142.35
0
LINE
8
0
10
258.43125
20
-127.85
11
258.43125
21
-141.85
0
LINE
8
0
10
265.43125
20
-127.85
11
265.43125
21
-141.85
0
ARC
8
0
10
258.93125
20
-127.85
40
0.5
50
90
51
180
0
ARC
8
0
10
264.93125
20
-127.85
40
0.5
50
0
51
90
0
ARC
8
0
10
258.93125
20
-141.85
40
0.5
50
180
51
270
0
ARC
8
0
10
264.93125
20
-141.85
40
0.5
50
270
51
0
0
LINE
8
0
10
276.86875
20
-126.35
11
289.86875
21
-126.35
0
LINE
8
0
10
276.86875
20
-140.35
11
289.86875
21
-140.35
0
LINE
8
0
10
276.36875
20
-126.85
11
276.36875
21
-139.85
0
LINE
8
0
10
290.36875
20
-126.85
11
290.36875
21
-139.85
0
ARC
8
0
10
276.86875
20
-126.85
40
0.5
50
90
51
180
0
ARC
8
0
10
289.86875
20
-126.85
40
0.5
50
0
51
90
0
ARC
8
0
10
276.86875
20
-139.85
40
0.5
50
180
51
270
0
ARC
8
0
10
289.86875
20
-139.85
40
0.5
50
270
51
0
0
LINE
8
0
10
300.68125
20
-126.35
11
313.68125
21
-126.35
0
LINE
8
0
10
300.68125
20
-140.35
11
313.68125
21
-140.35
0
LINE
8
0
10
300.18125
20
-126.85
11
300.18125
21
-139.85
0
LINE
8
0
10
314.18125
20
-126.85
11
314.18125
21
-139.85
0
ARC
8
0
10
300.68125
20
-126.85
40
0.5
50
90
51
180
0
ARC
8
0
10
313.68125
20
-126.85
40
0.5
50
0
51
90
0
ARC
8
0
10
300.68125
20
-139.85
40
0.5
50
180
51
270
0
ARC
8
0
10
313.68125
20
-139.85
40
0.5
50
270
51
0
0
LINE
8
0
10
324.49375
20
-126.35
11
337.49375
21
-126.35
0
LINE
8
0
10
324.49375
20
-140.35
11
337.49375
21
-140.35
0
LINE
8
0
10
323.99375
20
-126.85
11
323.99375
21
-139.85
0
LINE
8
0
10
337.99375
20
-126.85
11
337.99375
21
-139.85
0
ARC
8
0
10
324.49375
20
-126.85
40
0.5
50
90
51
180
0
ARC
8
0
10
337.49375
20
-126.85
40
0.5
50
0
51
90
0
ARC
8
0
10
324.49375
20
-139.85
40
0.5
50
180
51
270
0
ARC
8
0
10
337.49375
20
-139.85
40
0.5
50
270
51
0
0
LINE
8
0
10
348.30625
20
-126.35
11
361.30625
21
-126.35
0
LINE
8
0
10
348.30625
20
-140.35
11
361.30625
21
-140.35
0
LINE
8
0
10
347.80625
20
-126.85
11
347.80625
21
-139.85
0
LINE
8
0
10
361.80625
20
-126.85
11
361.80625
21
-139.85
0
ARC
8
0
10
348.30625
20
-126.85
40
0.5
50
90
51
180
0
ARC
8
0
10
361.30625
20
-126.85
40
0.5
50
0
51
90
0
ARC
8
0
10
348.30625
20
-139.85
40
0.5
50
180
51
270
0
ARC
8
0
10
361.30625
20
-139.85
40
0.5
50
270
51
0
0
LINE
8
0
10
374.5
20
-126.35
11
387.5
21
-126.35
0
LINE
8
0
10
374.5
20
-140.35
11
387.5
21
-140.35
0
LINE
8
0
10
374
20
-126.85
11
374
21
-139.85
0
LINE
8
0
10
388
20
-126.85
11
388
21
-139.85
0
ARC
8
0
10
374.5
20
-126.85
40
0.5
50
90
51
180
0
ARC
8
0
10
387.5
20
-126.85
40
0.5
50
0
51
90
0
ARC
8
0
10
374.5
20
-139.85
40
0.5
50
180
51
270
0
ARC
8
0
10
387.5
20
-139.85
40
0.5
50
270
51
0
0
LINE
8
0
10
393.55
20
-126.35
11
406.55
21
-126.35
0
LINE
8
0
10
393.55
20
-140.35
11
406.55
21
-140.35
0
LINE
8
0
10
393.05
20
-126.85
11
393.05
21
-139.85
0
LINE
8
0
10
407.05
20
-126.85
11
407.05
21
-139.85
0
ARC
8
0
10
393.55
20
-126.85
40
0.5
50
90
51
180
0
ARC
8
0
10
406.55
20
-126.85
40
0.5
50
0
51
90
0
ARC
8
0
10
393.55
20
-139.85
40
0.5
50
180
51
270
0
ARC
8
0
10
406.55
20
-139.85
40
0.5
50
270
51
0
0
LINE
8
0
10
412.6
20
-126.35
11
425.6
21
-126.35
0
LINE
8
0
10
412.6
20
-140.35
11
425.6
21
-140.35
0
LINE
8
0
10
412.1
20
-126.85
11
412.1
21
-139.85
0
LINE
8
0
10
426.1
20
-126.85
11
426.1
21
-139.85
0
ARC
8
0
10
412.6
20
-126.85
40
0.5
50
90
51
180
0
ARC
8
0
10
425.6
20
-126.85
40
0.5
50
0
51
90
0
ARC
8
0
10
412.6
20
-139.85
40
0.5
50
180
51
270
0
ARC
8
0
10
425.6
20
-139.85
40
0.5
50
270
51
0
0
LINE
8
0
10
445.9375
20
-126.35
11
458.9375
21
-126.35
0
LINE
8
0
10
445.9375
20
-140.35
11
458.9375
21
-140.35
0
LINE
8
0
10
445.4375
20
-126.85
11
445.4375
21
-139.85
0
LINE
8
0
10
459.4375
20
-126.85
11
459.4375
21
-139.85
0
ARC
8
0
10
445.9375
20
-126.85
40
0.5
50
90
51
180
0
ARC
8
0
10
458.9375
20
-126.85
40
0.5
50
0
51
90
0
ARC
8
0
10
445.9375
20
-139.85
40
0.5
50
180
51
270
0
ARC
8
0
10
458.9375
20
-139.85
40
0.5
50
270
51
0
0
LINE
8
0
10
437.4995
20
-127.35
11
443.4995
21
-127.35
0
LINE
8
0
10
437.4995
20
-142.35
11
443.4995
21
-142.35
0
LINE
8
0
10
436.9995
20
-127.85
11
436.9995
21
-141.85
0
LINE
8
0
10
443.9995
20
-127.85
11
443.9995
21
-141.85
0
ARC
8
0
10
437.4995
20
-127.85
40
0.5
50
90
51
180
0
ARC
8
0
10
443.4995
20
-127.85
40
0.5
50
0
51
90
0
ARC
8
0
10
437.4995
20
-141.85
40
0.5
50
180
51
270
0
ARC
8
0
10
443.4995
20
-141.85
40
0.5
50
270
51
0
0
LINE
8
0
10
461.3755
20
-127.35
11
467.3755
21
-127.35
0
LINE
8
0
10
461.3755
20
-142.35
11
467.3755
21
-142.35
0
LINE
8
0
10
460.8755
20
-127.85
11
460.8755
21
-141.85
0
LINE
8
0
10
467.8755
20
-127.85
11
467.8755
21
-141.85
0
ARC
8
0
10
461.3755
20
-127.85
40
0.5
50
90
51
180
0
ARC
8
0
10
467.3755
20
-127.85
40
0.5
50
0
51
90
0
ARC
8
0
10
461.3755
20
-141.85
40
0.5
50
180
51
270
0
ARC
8
0
10
467.3755
20
-141.85
40
0.5
50
270
51
0
0
LINE
8
0
10
474.5125
20
-126.35
11
487.5125
21
-126.35
0
LINE
8
0
10
474.5125
20
-140.35
11
487.5125
21
-140.35
0
LINE
8
0
10
474.0125
20
-126.85
11
474.0125
21
-139.85
0
LINE
8
0
10
488.0125
20
-126.85
11
488.0125
21
-139.85
0
ARC
8
0
10
474.5125
20
-126.85
40
0.5
50
90
51
180
0
ARC
8
0
10
487.5125
20
-126.85
40
0.5
50
0
51
90
0
ARC
8
0
10
474.5125
20
-139.85
40
0.5
50
180
51
270
0
ARC
8
0
10
487.5125
20
-139.85
40
0.5
50
270
51
0
0
LINE
8
0
10
3.025
20
-2.525
11
16.025
21
-2.525
0
LINE
8
0
10
3.025
20
-16.525
11
16.025
21
-16.525
0
LINE
8
0
10
2.525
20
-3.025
11
2.525
21
-16.025
0
LINE
8
0
10
16.525
20
-3.025
11
16.525
21
-16.025
0
ARC
8
0
10
3.025
20
-3.025
40
0.5
50
90
51
180
0
ARC
8
0
10
16.025
20
-3.025
40
0.5
50
0
51
90
0
ARC
8
0
10
3.025
20
-16.025
40
0.5
50
180
51
270
0
ARC
8
0
10
16.025
20
-16.025
40
0.5
50
270
51
0
0
LINE
8
0
10
22.075
20
-2.525
11
35.075
21
-2.525
0
LINE
8
0
10
22.075
20
-16.525
11
35.075
21
-16.525
0
LINE
8
0
10
21.575
20
-3.025
11
21.575
21
-16.025
0
LINE
8
0
10
35.575
20
-3.025
11
35.575
21
-16.025
0
ARC
8
0
10
22.075
20
-3.025
40
0.5
50
90
51
180
0
ARC
8
0
10
35.075
20
-3.025
40
0.5
50
0
51
90
0
ARC
8
0
10
22.075
20
-16.025
40
0.5
50
180
51
270
0
ARC
8
0
10
35.075
20
-16.025
40
0.5
50
270
51
0
0
LINE
8
0
10
41.125
20
-2.525
11
54.125
21
-2.525
0
LINE
8
0
10
41.125
20
-16.525
11
54.125
21
-16.525
0
LINE
8
0
10
40.625
20
-3.025
11
40.625
21
-16.025
0
LINE
8
0
10
54.625
20
-3.025
11
54.625
21
-16.025
0
ARC
8
0
10
41.125
20
-3.025
40
0.5
50
90
51
180
0
ARC
8
0
10
54.125
20
-3.025
40
0.5
50
0
51
90
0
ARC
8
0
10
41.125
20
-16.025
40
0.5
50
180
51
270
0
ARC
8
0
10
54.125
20
-16.025
40
0.5
50
270
51
0
0
LINE
8
0
10
60.175
20
-2.525
11
73.175
21
-2.525
0
LINE
8
0
10
60.175
20
-16.525
11
73.175
21
-16.525
0
LINE
8
0
10
59.675
20
-3.025
11
59.675
21
-16.025
0
LINE
8
0
10
73.675
20
-3.025
11
73.675
21
-16.025
0
ARC
8
0
10
60.175
20
-3.025
40
0.5
50
90
51
180
0
ARC
8
0
10
73.175
20
-3.025
40
0.5
50
0
51
90
0
ARC
8
0
10
60.175
20
-16.025
40
0.5
50
180
51
270
0
ARC
8
0
10
73.175
20
-16.025
40
0.5
50
270
51
0
0
LINE
8
0
10
3.025
20
-21.575
11
16.025
21
-21.575
0
LINE
8
0
10
3.025
20
-35.575
11
16.025
21
-35.575
0
LINE
8
0
10
2.525
20
-22.075
11
2.525
21
-35.075
0
LINE
8
0
10
16.525
20
-22.075
11
16.525
21
-35.075
0
ARC
8
0
10
3.025
20
-22.075
40
0.5
50
90
51
180
0
ARC
8
0
10
16.025
20
-22.075
40
0.5
50
0
51
90
0
ARC
8
0
10
3.025
20
-35.075
40
0.5
50
180
51
270
0
ARC
8
0
10
16.025
20
-35.075
40
0.5
50
270
51
0
0
LINE
8
0
10
22.075
20
-21.575
11
35.075
21
-21.575
0
LINE
8
0
10
22.075
20
-35.575
11
35.075
21
-35.575
0
LINE
8
0
10
21.575
20
-22.075
11
21.575
21
-35.075
0
LINE
8
0
10
35.575
20
-22.075
11
35.575
21
-35.075
0
ARC
8
0
10
22.075
20
-22.075
40
0.5
50
90
51
180
0
ARC
8
0
10
35.075
20
-22.075
40
0.5
50
0
51
90
0
ARC
8
0
10
22.075
20
-35.075
40
0.5
50
180
51
270
0
ARC
8
0
10
35.075
20
-35.075
40
0.5
50
270
51
0
0
LINE
8
0
10
41.125
20
-21.575
11
54.125
21
-21.575
0
LINE
8
0
10
41.125
20
-35.575
11
54.125
21
-35.575
0
LINE
8
0
10
40.625
20
-22.075
11
40.625
21
-35.075
0
LINE
8
0
10
54.625
20
-22.075
11
54.625
21
-35.075
0
ARC
8
0
10
41.125
20
-22.075
40
0.5
50
90
51
180
0
ARC
8
0
10
54.125
20
-22.075
40
0.5
50
0
51
90
0
ARC
8
0
10
41.125
20
-35.075
40
0.5
50
180
51
270
0
ARC
8
0
10
54.125
20
-35.075
40
0.5
50
270
51
0
0
LINE
8
0
10
60.175
20
-21.575
11
73.175
21
-21.575
0
LINE
8
0
10
60.175
20
-35.575
11
73.175
21
-35.575
0
LINE
8
0
10
59.675
20
-22.075
11
59.675
21
-35.075
0
LINE
8
0
10
73.675
20
-22.075
11
73.675
21
-35.075
0
ARC
8
0
10
60.175
20
-22.075
40
0.5
50
90
51
180
0
ARC
8
0
10
73.175
20
-22.075
40
0.5
50
0
51
90
0
ARC
8
0
10
60.175
20
-35.075
40
0.5
50
180
51
270
0
ARC
8
0
10
73.175
20
-35.075
40
0.5
50
270
51
0
0
LINE
8
0
10
3.025
20
-45.3875
11
16.025
21
-45.3875
0
LINE
8
0
10
3.025
20
-59.3875
11
16.025
21
-59.3875
0
LINE
8
0
10
2.525
20
-45.8875
11
2.525
21
-58.8875
0
LINE
8
0
10
16.525
20
-45.8875
11
16.525
21
-58.8875
0
ARC
8
0
10
3.025
20
-45.8875
40
0.5
50
90
51
180
0
ARC
8
0
10
16.025
20
-45.8875
40
0.5
50
0
51
90
0
ARC
8
0
10
3.025
20
-58.8875
40
0.5
50
180
51
270
0
ARC
8
0
10
16.025
20
-58.8875
40
0.5
50
270
51
0
0
LINE
8
0
10
22.075
20
-45.3875
11
35.075
21
-45.3875
0
LINE
8
0
10
22.075
20
-59.3875
11
35.075
21
-59.3875
0
LINE
8
0
10
21.575
20
-45.8875
11
21.575
21
-58.8875
0
LINE
8
0
10
35.575
20
-45.8875
11
35.575
21
-58.8875
0
ARC
8
0
10
22.075
20
-45.8875
40
0.5
50
90
51
180
0
ARC
8
0
10
35.075
20
-45.8875
40
0.5
50
0
51
90
0
ARC
8
0
10
22.075
20
-58.8875
40
0.5
50
180
51
270
0
ARC
8
0
10
35.075
20
-58.8875
40
0.5
50
270
51
0
0
LINE
8
0
10
41.125
20
-45.3875
11
54.125
21
-45.3875
0
LINE
8
0
10
41.125
20
-59.3875
11
54.125
21
-59.3875
0
LINE
8
0
10
40.625
20
-45.8875
11
40.625
21
-58.8875
0
LINE
8
0
10
54.625
20
-45.8875
11
54.625
21
-58.8875
0
ARC
8
0
10
41.125
20
-45.8875
40
0.5
50
90
51
180
0
ARC
8
0
10
54.125
20
-45.8875
40
0.5
50
0
51
90
0
ARC
8
0
10
41.125
20
-58.8875
40
0.5
50
180
51
270
0
ARC
8
0
10
54.125
20
-58.8875
40
0.5
50
270
51
0
0
LINE
8
0
10
60.175
20
-45.3875
11
73.175
21
-45.3875
0
LINE
8
0
10
60.175
20
-59.3875
11
73.175
21
-59.3875
0
LINE
8
0
10
59.675
20
-45.8875
11
59.675
21
-58.8875
0
LINE
8
0
10
73.675
20
-45.8875
11
73.675
21
-58.8875
0
ARC
8
0
10
60.175
20
-45.8875
40
0.5
50
90
51
180
0
ARC
8
0
10
73.175
20
-45.8875
40
0.5
50
0
51
90
0
ARC
8
0
10
60.175
20
-58.8875
40
0.5
50
180
51
270
0
ARC
8
0
10
73.175
20
-58.8875
40
0.5
50
270
51
0
0
LINE
8
0
10
3.025
20
-64.4375
11
16.025
21
-64.4375
0
LINE
8
0
10
3.025
20
-78.4375
11
16.025
21
-78.4375
0
LINE
8
0
10
2.525
20
-64.9375
11
2.525
21
-77.9375
0
LINE
8
0
10
16.525
20
-64.9375
11
16.525
21
-77.9375
0
ARC
8
0
10
3.025
20
-64.9375
40
0.5
50
90
51
180
0
ARC
8
0
10
16.025
20
-64.9375
40
0.5
50
0
51
90
0
ARC
8
0
10
3.025
20
-77.9375
40
0.5
50
180
51
270
0
ARC
8
0
10
16.025
20
-77.9375
40
0.5
50
270
51
0
0
LINE
8
0
10
22.075
20
-64.4375
11
35.075
21
-64.4375
0
LINE
8
0
10
22.075
20
-78.4375
11
35.075
21
-78.4375
0
LINE
8
0
10
21.575
20
-64.9375
11
21.575
21
-77.9375
0
LINE
8
0
10
35.575
20
-64.9375
11
35.575
21
-77.9375
0
ARC
8
0
10
22.075
20
-64.9375
40
0.5
50
90
51
180
0
ARC
8
0
10
35.075
20
-64.9375
40
0.5
50
0
51
90
0
ARC
8
0
10
22.075
20
-77.9375
40
0.5
50
180
51
270
0
ARC
8
0
10
35.075
20
-77.9375
40
0.5
50
270
51
0
0
LINE
8
0
10
41.125
20
-64.4375
11
54.125
21
-64.4375
0
LINE
8
0
10
41.125
20
-78.4375
11
54.125
21
-78.4375
0
LINE
8
0
10
40.625
20
-64.9375
11
40.625
21
-77.9375
0
LINE
8
0
10
54.625
20
-64.9375
11
54.625
21
-77.9375
0
ARC
8
0
10
41.125
20
-64.9375
40
0.5
50
90
51
180
0
ARC
8
0
10
54.125
20
-64.9375
40
0.5
50
0
51
90
0
ARC
8
0
10
41.125
20
-77.9375
40
0.5
50
180
51
270
0
ARC
8
0
10
54.125
20
-77.9375
40
0.5
50
270
51
0
0
LINE
8
0
10
60.175
20
-64.4375
11
73.175
21
-64.4375
0
LINE
8
0
10
60.175
20
-78.4375
11
73.175
21
-78.4375
0
LINE
8
0
10
59.675
20
-64.9375
11
59.675
21
-77.9375
0
LINE
8
0
10
73.675
20
-64.9375
11
73.675
21
-77.9375
0
ARC
8
0
10
60.175
20
-64.9375
40
0.5
50
90
51
180
0
ARC
8
0
10
73.175
20
-64.9375
40
0.5
50
0
51
90
0
ARC
8
0
10
60.175
20
-77.9375
40
0.5
50
180
51
270
0
ARC
8
0
10
73.175
20
-77.9375
40
0.5
50
270
51
0
0
LINE
8
0
10
3.025
20
-83.4875
11
16.025
21
-83.4875
0
LINE
8
0
10
3.025
20
-97.4875
11
16.025
21
-97.4875
0
LINE
8
0
10
2.525
20
-83.9875
11
2.525
21
-96.9875
0
LINE
8
0
10
16.525
20
-83.9875
11
16.525
21
-96.9875
0
ARC
8
0
10
3.025
20
-83.9875
40
0.5
50
90
51
180
0
ARC
8
0
10
16.025
20
-83.9875
40
0.5
50
0
51
90
0
ARC
8
0
10
3.025
20
-96.9875
40
0.5
50
180
51
270
0
ARC
8
0
10
16.025
20
-96.9875
40
0.5
50
270
51
0
0
LINE
8
0
10
22.075
20
-83.4875
11
35.075
21
-83.4875
0
LINE
8
0
10
22.075
20
-97.4875
11
35.075
21
-97.4875
0
LINE
8
0
10
21.575
20
-83.9875
11
21.575
21
-96.9875
0
LINE
8
0
10
35.575
20
-83.9875
11
35.575
21
-96.9875
0
ARC
8
0
10
22.075
20
-83.9875
40
0.5
50
90
51
180
0
ARC
8
0
10
35.075
20
-83.9875
40
0.5
50
0
51
90
0
ARC
8
0
10
22.075
20
-96.9875
40
0.5
50
180
51
270
0
ARC
8
0
10
35.075
20
-96.9875
40
0.5
50
270
51
0
0
LINE
8
0
10
41.125
20
-83.4875
11
54.125
21
-83.4875
0
LINE
8
0
10
41.125
20
-97.4875
11
54.125
21
-97.4875
0
LINE
8
0
10
40.625
20
-83.9875
11
40.625
21
-96.9875
0
LINE
8
0
10
54.625
20
-83.9875
11
54.625
21
-96.9875
0
ARC
8
0
10
41.125
20
-83.9875
40
0.5
50
90
51
180
0
ARC
8
0
10
54.125
20
-83.9875
40
0.5
50
0
51
90
0
ARC
8
0
10
41.125
20
-96.9875
40
0.5
50
180
51
270
0
ARC
8
0
10
54.125
20
-96.9875
40
0.5
50
270
51
0
0
LINE
8
0
10
60.175
20
-83.4875
11
73.175
21
-83.4875
0
LINE
8
0
10
60.175
20
-97.4875
11
73.175
21
-97.4875
0
LINE
8
0
10
59.675
20
-83.9875
11
59.675
21
-96.9875
0
LINE
8
0
10
73.675
20
-83.9875
11
73.675
21
-96.9875
0
ARC
8
0
10
60.175
20
-83.9875
40
0.5
50
90
51
180
0
ARC
8
0
10
73.175
20
-83.9875
40
0.5
50
0
51
90
0
ARC
8
0
10
60.175
20
-96.9875
40
0.5
50
180
51
270
0
ARC
8
0
10
73.175
20
-96.9875
40
0.5
50
270
51
0
0
LINE
8
0
10
3.025
20
-107.3
11
16.025
21
-107.3
0
LINE
8
0
10
3.025
20
-121.3
11
16.025
21
-121.3
0
LINE
8
0
10
2.525
20
-107.8
11
2.525
21
-120.8
0
LINE
8
0
10
16.525
20
-107.8
11
16.525
21
-120.8
0
ARC
8
0
10
3.025
20
-107.8
40
0.5
50
90
51
180
0
ARC
8
0
10
16.025
20
-107.8
40
0.5
50
0
51
90
0
ARC
8
0
10
3.025
20
-120.8
40
0.5
50
180
51
270
0
ARC
8
0
10
16.025
20
-120.8
40
0.5
50
270
51
0
0
LINE
8
0
10
22.075
20
-107.3
11
35.075
21
-107.3
0
LINE
8
0
10
22.075
20
-121.3
11
35.075
21
-121.3
0
LINE
8
0
10
21.575
20
-107.8
11
21.575
21
-120.8
0
LINE
8
0
10
35.575
20
-107.8
11
35.575
21
-120.8
0
ARC
8
0
10
22.075
20
-107.8
40
0.5
50
90
51
180
0
ARC
8
0
10
35.075
20
-107.8
40
0.5
50
0
51
90
0
ARC
8
0
10
22.075
20
-120.8
40
0.5
50
180
51
270
0
ARC
8
0
10
35.075
20
-120.8
40
0.5
50
270
51
0
0
LINE
8
0
10
41.125
20
-107.3
11
54.125
21
-107.3
0
LINE
8
0
10
41.125
20
-121.3
11
54.125
21
-121.3
0
LINE
8
0
10
40.625
20
-107.8
11
40.625
21
-120.8
0
LINE
8
0
10
54.625
20
-107.8
11
54.625
21
-120.8
0
ARC
8
0
10
41.125
20
-107.8
40
0.5
50
90
51
180
0
ARC
8
0
10
54.125
20
-107.8
40
0.5
50
0
51
90
0
ARC
8
0
10
41.125
20
-120.8
40
0.5
50
180
51
270
0
ARC
8
0
10
54.125
20
-120.8
40
0.5
50
270
51
0
0
LINE
8
0
10
60.175
20
-107.3
11
73.175
21
-107.3
0
LINE
8
0
10
60.175
20
-121.3
11
73.175
21
-121.3
0
LINE
8
0
10
59.675
20
-107.8
11
59.675
21
-120.8
0
LINE
8
0
10
73.675
20
-107.8
11
73.675
21
-120.8
0
ARC
8
0
10
60.175
20
-107.8
40
0.5
50
90
51
180
0
ARC
8
0
10
73.175
20
-107.8
40
0.5
50
0
51
90
0
ARC
8
0
10
60.175
20
-120.8
40
0.5
50
180
51
270
0
ARC
8
0
10
73.175
20
-120.8
40
0.5
50
270
51
0
0
LINE
8
0
10
3.025
20
-126.35
11
16.025
21
-126.35
0
LINE
8
0
10
3.025
20
-140.35
11
16.025
21
-140.35
0
LINE
8
0
10
2.525
20
-126.85
11
2.525
21
-139.85
0
LINE
8
0
10
16.525
20
-126.85
11
16.525
21
-139.85
0
ARC
8
0
10
3.025
20
-126.85
40
0.5
50
90
51
180
0
ARC
8
0
10
16.025
20
-126.85
40
0.5
50
0
51
90
0
ARC
8
0
10
3.025
20
-139.85
40
0.5
50
180
51
270
0
ARC
8
0
10
16.025
20
-139.85
40
0.5
50
270
51
0
0
LINE
8
0
10
22.075
20
-126.35
11
35.075
21
-126.35
0
LINE
8
0
10
22.075
20
-140.35
11
35.075
21
-140.35
0
LINE
8
0
10
21.575
20
-126.85
11
21.575
21
-139.85
0
LINE
8
0
10
35.575
20
-126.85
11
35.575
21
-139.85
0
ARC
8
0
10
22.075
20
-126.85
40
0.5
50
90
51
180
0
ARC
8
0
10
35.075
20
-126.85
40
0.5
50
0
51
90
0
ARC
8
0
10
22.075
20
-139.85
40
0.5
50
180
51
270
0
ARC
8
0
10
35.075
20
-139.85
40
0.5
50
270
51
0
0
LINE
8
0
10
41.125
20
-126.35
11
54.125
21
-126.35
0
LINE
8
0
10
41.125
20
-140.35
11
54.125
21
-140.35
0
LINE
8
0
10
40.625
20
-126.85
11
40.625
21
-139.85
0
LINE
8
0
10
54.625
20
-126.85
11
54.625
21
-139.85
0
ARC
8
0
10
41.125
20
-126.85
40
0.5
50
90
51
180
0
ARC
8
0
10
54.125
20
-126.85
40
0.5
50
0
51
90
0
ARC
8
0
10
41.125
20
-139.85
40
0.5
50
180
51
270
0
ARC
8
0
10
54.125
20
-139.85
40
0.5
50
270
51
0
0
LINE
8
0
10
60.175
20
-126.35
11
73.175
21
-126.35
0
LINE
8
0
10
60.175
20
-140.35
11
73.175
21
-140.35
0
LINE
8
0
10
59.675
20
-126.85
11
59.675
21
-139.85
0
LINE
8
0
10
73.675
20
-126.85
11
73.675
21
-139.85
0
ARC
8
0
10
60.175
20
-126.85
40
0.5
50
90
51
180
0
ARC
8
0
10
73.175
20
-126.85
40
0.5
50
0
51
90
0
ARC
8
0
10
60.175
20
-139.85
40
0.5
50
180
51
270
0
ARC
8
0
10
73.175
20
-139.85
40
0.5
50
270
51
0
0
LINE
8
0
10
0
20
-142.875
11
509.5875
21
-142.875
0
LINE
8
0
10
0
20
0
11
509.5875
21
0
0
LINE
8
0
10
0
20
-142.875
11
0
21
0
0
LINE
8
0
10
509.5875
20
-142.875
11
509.5875
21
0
0
ENDSEC
0
EOF